<?xml version="1.0" encoding="utf-8"?>
<!-- Generator: Adobe Illustrator 19.0.0, SVG Export Plug-In . SVG Version: 6.00 Build 0)  -->
<svg version="1.1" id="Layer_1" xmlns="http://www.w3.org/2000/svg" xmlns:xlink="http://www.w3.org/1999/xlink" x="0px" y="0px"
	 viewBox="0 0 500 500" style="enable-background:new 0 0 500 500;" xml:space="preserve">
<style type="text/css">
	.st0{fill:#231F20;}
</style>
<g id="XMLID_2_">
	<path id="XMLID_27_" class="st0" d="M433,51.4h-48.7v19.5c0,19-15.4,34.4-34.4,34.4c-19,0-34.4-15.4-34.4-34.4V51.4H187.6v19.5
		c0,19-15.4,34.4-34.4,34.4c-19,0-34.4-15.4-34.4-34.4V51.4H70.2c-20.8,0-37.7,16.9-37.7,37.7v362.7c0,20.8,16.9,37.7,37.7,37.7H433
		c20.8,0,37.7-16.9,37.7-37.7V89.1C470.6,68.3,453.8,51.4,433,51.4z M438.7,441.3c0,10.5-8.5,19-19,19H80.5c-10.5,0-19-8.5-19-19
		V163.3h377.2V441.3z"/>
	<path id="XMLID_15_" class="st0" d="M100.5,259h74.5c2.5,0,4.5-2,4.5-4.5v-50c0-2.5-2-4.5-4.5-4.5h-74.5c-2.5,0-4.5,2-4.5,4.5v50
		C96,257,98,259,100.5,259z"/>
	<path id="XMLID_14_" class="st0" d="M212.8,259h74.5c2.5,0,4.5-2,4.5-4.5v-50c0-2.5-2-4.5-4.5-4.5h-74.5c-2.5,0-4.5,2-4.5,4.5v50
		C208.3,257,210.3,259,212.8,259z"/>
	<path id="XMLID_13_" class="st0" d="M325.1,259h74.5c2.5,0,4.5-2,4.5-4.5v-50c0-2.5-2-4.5-4.5-4.5h-74.5c-2.5,0-4.5,2-4.5,4.5v50
		C320.5,257,322.5,259,325.1,259z"/>
	<path id="XMLID_12_" class="st0" d="M100.5,341.4h74.5c2.5,0,4.5-2,4.5-4.5v-50c0-2.5-2-4.5-4.5-4.5h-74.5c-2.5,0-4.5,2-4.5,4.5v50
		C96,339.3,98,341.4,100.5,341.4z"/>
	<path id="XMLID_11_" class="st0" d="M212.8,341.4h74.5c2.5,0,4.5-2,4.5-4.5v-50c0-2.5-2-4.5-4.5-4.5h-74.5c-2.5,0-4.5,2-4.5,4.5v50
		C208.3,339.3,210.3,341.4,212.8,341.4z"/>
	<path id="XMLID_10_" class="st0" d="M325.1,341.4h74.5c2.5,0,4.5-2,4.5-4.5v-50c0-2.5-2-4.5-4.5-4.5h-74.5c-2.5,0-4.5,2-4.5,4.5v50
		C320.5,339.3,322.5,341.4,325.1,341.4z"/>
	<path id="XMLID_9_" class="st0" d="M100.5,423.7h74.5c2.5,0,4.5-2,4.5-4.5v-50c0-2.5-2-4.5-4.5-4.5h-74.5c-2.5,0-4.5,2-4.5,4.5v50
		C96,421.7,98,423.7,100.5,423.7z"/>
	<path id="XMLID_8_" class="st0" d="M212.8,423.7h74.5c2.5,0,4.5-2,4.5-4.5v-50c0-2.5-2-4.5-4.5-4.5h-74.5c-2.5,0-4.5,2-4.5,4.5v50
		C208.3,421.7,210.3,423.7,212.8,423.7z"/>
	<path id="XMLID_7_" class="st0" d="M325.1,423.7h74.5c2.5,0,4.5-2,4.5-4.5v-50c0-2.5-2-4.5-4.5-4.5h-74.5c-2.5,0-4.5,2-4.5,4.5v50
		C320.5,421.7,322.5,423.7,325.1,423.7z"/>
	<path id="XMLID_6_" class="st0" d="M153.3,92.4c11.9,0,21.5-9.6,21.5-21.5V30c0-5.9-2.4-11.3-6.3-15.2c-3.9-3.9-9.3-6.3-15.2-6.3
		c-11.9,0-21.5,9.6-21.5,21.5v40.9C131.8,82.8,141.4,92.4,153.3,92.4z"/>
	<path id="XMLID_5_" class="st0" d="M349.9,92.4c11.9,0,21.5-9.6,21.5-21.5V30c0-5.9-2.4-11.3-6.3-15.2c-3.9-3.9-9.3-6.3-15.2-6.3
		c-11.9,0-21.5,9.6-21.5,21.5v40.9C328.4,82.8,338,92.4,349.9,92.4z"/>
</g>
</svg>
