<?xml version="1.0" encoding="utf-8"?>
<!-- Generator: Adobe Illustrator 19.0.0, SVG Export Plug-In . SVG Version: 6.00 Build 0)  -->
<svg version="1.1" id="Layer_1" xmlns="http://www.w3.org/2000/svg" xmlns:xlink="http://www.w3.org/1999/xlink" x="0px" y="0px"
	 viewBox="0 0 500 500" style="enable-background:new 0 0 500 500;" xml:space="preserve">
<style type="text/css">
	.st0{fill:#231F20;}
	.st1{fill:#FFFFFF;}
</style>
<path id="XMLID_3_" class="st0" d="M144.9,43.2h47.4c2.8-22.8,21.2-40.5,43.5-40.5c22.2,0,40.5,17.4,43.5,40l48,0.5
	c2.7,0,4.8,2.2,4.8,4.8v53.2c0,2.7-2.1,4.8-4.8,4.8H144.9c-2.6,0-4.8-2.1-4.8-4.8V48c0-2.6,2-4.8,4.7-4.8
	C144.8,43.2,144.8,43.2,144.9,43.2z M366.2,341.6c18.9,0,37,7.5,50.3,20.9c6.6,6.6,11.9,14.4,15.4,23.1c3.6,8.6,5.4,17.9,5.4,27.2
	c0,7-1,13.9-3,20.3c-1.6,5.3-3.8,10.4-6.5,15.2l21.4,23.6c1.9,2.1,1.8,5.4-0.3,7.3l-19.7,18c-2.1,1.9-5.4,1.8-7.3-0.3l-20.2-22.5
	c-4.7,2.7-9.8,4.9-15,6.5l-0.2,0c-6.5,2-13.4,3-20.4,3c-9.3,0-18.6-1.8-27.2-5.4c-8.6-3.6-16.5-8.8-23.1-15.4
	c-6.6-6.6-11.9-14.5-15.4-23.1c-3.6-8.6-5.4-17.9-5.4-27.2c0-9.6,1.9-18.8,5.4-27.2c3.6-8.6,8.8-16.5,15.4-23.1
	c6.6-6.6,14.4-11.9,23.1-15.5C347.6,343.4,356.8,341.6,366.2,341.6L366.2,341.6z M397.6,381.3c-4.1-4.1-9-7.4-14.5-9.7l-0.3-0.1
	c-5.3-2.2-11-3.3-16.7-3.2c-6,0-11.8,1.2-17,3.3c-5.4,2.3-10.3,5.5-14.5,9.7c-8,8-13,19.2-13,31.4c0,6,1.2,11.8,3.3,17
	c2.3,5.4,5.6,10.4,9.7,14.4c4.1,4.1,9,7.4,14.4,9.7c5.2,2.1,11,3.3,17,3.3c6.1,0,11.8-1.2,17-3.3c5.4-2.3,10.4-5.6,14.4-9.7
	c4.1-4.1,7.4-9,9.7-14.4c2.2-5.4,3.4-11.2,3.3-17c0-6-1.2-11.8-3.3-17l-0.1-0.3C405,390.2,401.7,385.4,397.6,381.3L397.6,381.3z
	 M92.2,63.6h24.6v25H92.2c-4.9,0-9.4,2-12.6,5.2c-3.2,3.2-5.2,7.7-5.2,12.6v324c0,4.9,2,9.3,5.2,12.6c3.2,3.2,7.7,5.3,12.6,5.3
	h146.4c1.7,8.7,4.3,17,7.6,25h-154c-11.8,0-22.5-4.8-30.3-12.6c-7.7-7.7-12.6-18.5-12.6-30.3v-324c0-11.8,4.8-22.5,12.6-30.3
	C69.7,68.4,80.4,63.6,92.2,63.6z M397.8,286.8V106.4c0-4.9-2-9.4-5.2-12.6c-3.3-3.3-7.9-5.2-12.6-5.2h-24.6v-25h24.6
	c11.7,0,22.4,4.8,30.2,12.6c7.8,7.8,12.7,18.5,12.7,30.3v187.5C414.8,290.8,406.4,288.4,397.8,286.8z M185.5,278.5
	c-7.3,0-13.3-5.9-13.3-13.3c0-7.3,6-13.3,13.3-13.3h146.7c7.3,0,13.3,6,13.3,13.3s-5.9,13.3-13.3,13.3H185.5L185.5,278.5z
	 M141.3,250.4c8.2,0,14.8,6.6,14.8,14.8c0,8.2-6.6,14.8-14.8,14.8c-8.2,0-14.8-6.6-14.8-14.8C126.5,257.1,133.1,250.4,141.3,250.4
	L141.3,250.4z M141.3,331.2c8.2,0,14.8,6.6,14.8,14.8c0,8.2-6.6,14.8-14.8,14.8c-8.2,0-14.8-6.6-14.8-14.8
	C126.5,337.8,133.1,331.2,141.3,331.2z M185.5,359.2c-7.3,0-13.3-5.9-13.3-13.3s6-13.3,13.3-13.3h83.1c-6.9,8.1-12.9,17-17.7,26.5
	H185.5z M141.3,169.7c8.2,0,14.8,6.6,14.8,14.8c0,8.2-6.6,14.8-14.8,14.8c-8.2,0-14.8-6.6-14.8-14.8
	C126.5,176.3,133.1,169.7,141.3,169.7L141.3,169.7z M185.5,197.8c-7.3,0-13.3-5.9-13.3-13.3c0-7.3,6-13.3,13.3-13.3h146.7
	c7.3,0,13.3,5.9,13.3,13.3c0,7.3-5.9,13.3-13.3,13.3H185.5z M235.3,23.4c12.6,0,22.9,10.2,22.9,22.9c0,12.6-10.2,22.8-22.9,22.8
	c-12.6,0-22.9-10.2-22.9-22.8C212.4,33.7,222.6,23.4,235.3,23.4z"/>
<circle id="XMLID_2_" class="st1" cx="235.3" cy="46.3" r="22.9"/>
</svg>
