<?xml version="1.0" encoding="utf-8"?>
<!-- Generator: Adobe Illustrator 27.5.0, SVG Export Plug-In . SVG Version: 6.00 Build 0)  -->
<svg version="1.1" xmlns="http://www.w3.org/2000/svg" xmlns:xlink="http://www.w3.org/1999/xlink" x="0px" y="0px"
	 viewBox="0 0 1000 800" style="enable-background:new 0 0 1000 800;" xml:space="preserve">
<g id="background">
</g>
<g id="shadow">
	<g>
		<path style="fill:#F1F2F2;" d="M455.035,696.492c-26.68,0.059-53.359,0.536-79.991,2.741c-10.042,0.831-19.873,2.659-29.937,3.397
			c-20.104,1.473-39.847,4.221-60.022,5.488c-16.246,1.021-32.561,1.623-48.76,2.918c-15.188,1.214-32.002,0.934-47.072-1.072
			c-11.157-1.485-22.365-2.321-33.335-4.706c-12.271-2.668-25.603-4.576-38.388-4.507c-18.232,0.098-35.987,0.109-53.435,4.821
			c-6.125,1.654-13.623,4.372-18.274,7.843c-10.647,7.945-12.088,27.77-1.457,36.011c17.906,13.869,56.122,19.311,81.221,19.568
			c27.503,0.281,54.221-1.238,81.765-2.131c25.594-0.83,51.124-2.011,76.76-1.97c52.359,0.085,104.725,0,156.99-2.603
			c49.104-2.445,98.331-1.606,147.542-1.606c50.464,0,100.587,0.295,150.687,5.286c21.829,2.175,44.068,2.936,66.007,4.46
			c19.648,1.365,38.529-0.027,58.099-1.288c16.433-1.059,32.758-4.2,47.687-9.509c11.817-4.203,32.884-17.26,36.508-27.291
			c10.16-28.124-143.181-27.448-166.724-27.385c-26.338,0.071-52.885,0.716-79.202-0.032c-11.07-0.314-21.978-1.924-32.782-3.689
			c-10.762-1.758-21.605-1.311-32.518-2.049c-45.511-3.08-91.123-2.63-136.779-2.63C484.764,696.556,469.9,696.459,455.035,696.492z
			"/>
	</g>
</g>
<g id="object">
	<g>
		<path style="fill:#3B455A;" d="M191.811,559.103c-1.017-1.491-2.203-2.969-3.842-3.667c-1.023-0.436-2.149-0.534-3.256-0.593
			c-5.468-0.295-10.44,1.009-15.796,1.39c-4.224,0.3-7.113-0.244-9.561,4.203c-1.325,2.408-1.786,5.182-2.219,7.896
			c-5.02,31.442-9.129,63.021-13.237,94.594c-0.981,7.54-1.962,15.079-2.943,22.618c-0.384,2.955-0.769,5.91-1.153,8.865
			c-1.704,13.097-3.408,26.195-5.112,39.292c-0.311,2.39-1.46,4.393-2.251,6.556l-0.048,0.004l-14.048,10.031l-2.565,4.576
			l6.129,2.963l14.205-2.63l9.803-6.651l0.138-5.962c0.024-2.189,0.241-4.268,0.743-6.408c0.98-4.175,2.524-8.247,3.878-12.311
			c2.039-6.937,4.159-13.851,6.22-20.781c4.494-15.107,8.884-30.247,13.226-45.4c4.467-15.591,9.491-31.025,14.131-46.564
			C188.477,596.974,200.909,572.45,191.811,559.103z"/>
	</g>
	<g>
		<path style="fill:#3B455A;" d="M245.336,568.36c2.955,0.672,5.767,2.005,7.963,4.077c7.004,6.61,2.694,16.476,1.484,24.585
			c-1.557,10.433-2.39,20.951-2.674,31.494c-0.558,20.728-1.395,41.449-2.51,62.155c-0.892,16.558-6.301,37.929-2.18,54.07
			l5.925,10.279l-2.66,3.265l-9.916-0.847c-1.334-0.114-5.806-7.895-6.175-9.419c-1.316-5.444,0.028-10.856-0.707-16.257
			c-0.594-4.368-2.271-8.849-3.07-13.331c-1.25-7.016-2.464-14.039-3.625-21.07c-2.277-13.791-4.35-27.617-6.106-41.485
			c-2.234-17.648-4.468-35.296-6.702-52.945c-0.957-7.559-2.852-13.12,1.739-19.519c4.179-5.826,9.725-11.628,16.572-14.175
			c3.384-1.259,7.074-1.684,10.656-1.227C244.016,568.094,244.68,568.21,245.336,568.36z"/>
	</g>
	<g>
		<path style="fill:#C5CCD3;" d="M258.929,603.676c-5.161,0.082-10.321,0.026-15.461-0.422c-11.561-1.009-22.854-3.524-34.529-3.494
			c-1.237-6.445-3.222-13.159-3.789-19.645c-0.638-7.302,0.776-14.952,1.093-22.255c0.752-17.311,1.99-34.602,3.711-51.843
			c15.388-0.598,30.674,1.114,45.989,1.036c3.892-0.02,9.244-1.069,11.059,2.503c2.626,5.171,1.522,12.098,2.186,17.704
			c1.014,8.551,1.801,17.091,2.027,25.704c0.444,16.906-0.852,33.859-3.881,50.498C264.535,603.546,261.732,603.632,258.929,603.676
			z"/>
	</g>
	<g>
		<path style="fill:#C5CCD3;" d="M152.151,600.105c-3.566-0.364-7.125-0.789-10.676-1.276c-1.236-0.169-2.548-0.38-3.483-1.205
			c-1.734-1.529-1.357-4.28-0.835-6.532c4.997-21.555,9.888-43.138,14.992-64.668c0.813-3.43,8.705-38.128,10.735-38.15
			c14.368,0.149,28.736,0.297,43.104,0.446c1.301,0.013,2.717,0.067,3.716,0.902c0.99,0.827,1.298,2.196,1.538,3.463
			c3.615,19.114,6.088,38.745,7.43,58.117c1.146,16.537-8.019,31.725-16.139,45.743c-0.824,1.423-1.727,2.901-3.16,3.708
			c-1.289,0.726-2.831,0.807-4.309,0.861C180.749,602.031,166.4,601.559,152.151,600.105z"/>
	</g>
	<g>
		<g>
			<g>
				<path style="fill:#EFBFA5;" d="M395.483,319.684c-0.13-0.772-0.229-1.55-0.321-2.321c-1.824-15.327-0.514-29.6,0.191-44.756
					c0.569-12.234,2.164-26.396,11.799-35.122c1.475-1.336,8.696-7.441,1.971-8.025c-1.64-0.143-3.245,1.299-3.278,2.945
					c2.326-3.973,4.03-8.309,5.03-12.802c0.148-0.666,0.277-1.387,0.001-2.012c-0.217-0.491-0.653-0.846-1.073-1.18
					c-1.61-1.283-3.221-2.567-4.831-3.85c-0.224-0.178-0.468-0.364-0.754-0.375c-0.337-0.013-0.627,0.221-0.882,0.442
					c-2.87,2.486-5.741,4.972-8.614,7.46c-4.859,4.212-3.057,11.034-3.98,16.576c-1.033,6.205-3.356,8.965-6.099,14.171
					c-7.725,14.665-12.294,31.198-15.833,47.388c-1.447,6.619-2.649,13.419-1.819,20.143c0.926,7.505,4.33,14.472,8.135,21.007
					c4.799,8.798,10.762,17.331,17.412,24.822c3.601,4.057,7.518,7.705,11.832,10.99c4.258,3.242,5.741,6.363,8.369,11.145
					c0.336,0.611,0.694,1.247,1.277,1.63c1.655,1.087,3.749-0.443,5.105-1.886c8.004-8.516,15.301-17.696,21.793-27.414
					c0.974-1.457,1.95-2.977,2.276-4.699c0.663-3.498-1.577-7.013-4.52-9.017s-6.496-2.844-9.919-3.822
					c-9.043-2.585-17.737-6.389-25.773-11.276c-2.117-1.288-4.25-2.709-5.611-4.78C396.314,323.46,395.804,321.593,395.483,319.684z
					"/>
			</g>
		</g>
		<g>
			<g>
				<path style="fill:#EFBFA5;" d="M532.974,332.921c10.541-5.725,9.941-17.914,12.386-32.639
					c2.467-14.862,6.785-35.111-3.157-48.261c-1.201-1.588-7.157-8.932-0.44-8.252c1.638,0.166,2.946,1.881,2.671,3.504
					c-1.545-4.337-2.41-8.914-2.556-13.515c-0.021-0.682-0.013-1.414,0.374-1.976c0.305-0.442,0.799-0.709,1.274-0.96
					c1.821-0.961,3.643-1.921,5.464-2.882c0.253-0.133,0.528-0.271,0.81-0.228c0.333,0.051,0.575,0.334,0.784,0.599
					c2.357,2.977,4.713,5.955,7.072,8.935c3.988,5.044,0.946,11.411,0.82,17.027c-0.142,6.288,1.626,9.433,3.35,15.059
					c4.856,15.848,6.263,32.943,6.721,49.509c0.188,6.772,0.101,13.677-1.968,20.129c-2.309,7.201-6.952,13.411-11.909,19.123
					c-10.609,12.223-25.575,27.041-41.419,32.126c-28.472,9.137-28.311-48.219-2.294-53.232c3.154-0.608,6.396-0.518,9.595-0.802
					C525.877,335.711,529.899,334.591,532.974,332.921z"/>
			</g>
		</g>
		<g>
			<g>
				<g id="XMLID_23_">
					<g id="XMLID_24_">
						<path style="fill:#EFBFA5;" d="M494.199,623.883l-1.882,41.766c-0.993,11.559-0.66,23.163-0.666,34.745
							c-0.006,10.758-2.846,21.671,1.628,31.917c1.403,3.213,4.662,5.591,7.465,2.152c2.16-2.65,1.54-7.504,2.229-10.693
							c5.182-23.96,13.508-47.125,18.43-71.146C526.558,627.461,516.696,627.526,494.199,623.883z"/>
					</g>
				</g>
				<g>
					<polygon style="fill:#3B455A;" points="490.356,724.972 487.246,731.767 499.73,744.198 511.792,745.441 516.095,739.301 
						500.703,724.159 					"/>
				</g>
			</g>
			<g>
				<g id="XMLID_21_">
					<g id="XMLID_22_">
						<path style="fill:#EFBFA5;" d="M423.889,622.1l4.371,41.581c1.19,18.54,5.771,36.866,6.961,55.406
							c0.273,4.263-0.395,8.85,1.053,12.965c1.417,4.026,4.778,4.446,7.964,2.041c4.267-3.221,2.925-9.684,3.232-14.519
							c2.048-32.211,7.079-63.729,10.228-95.906c0.041-0.422,0.061-0.907-0.245-1.201c-0.248-0.239-0.627-0.264-0.972-0.268
							C453.336,622.161,423.983,622.998,423.889,622.1z"/>
					</g>
				</g>
				<g>
					<polygon style="fill:#3B455A;" points="447.004,726.683 450.697,733.18 439.346,746.655 427.439,748.947 422.616,743.207 
						436.626,726.777 					"/>
				</g>
			</g>
		</g>
		<g>
			<path style="fill:#C4C9CE;" d="M530,651.268l8.613-58.903c-2.396-33.822-17.111-68.032-19.455-101.973
				c-0.15-2.165-0.396-4.545-1.972-6.037c-1.22-1.155-2.972-1.509-4.629-1.785c-15.749-2.624-31.803-2.614-47.77-2.598
				c-15.564,0.016-46.13-3.304-53.921,12.009c-8.011,15.746-5.665,51.145-6.293,68.965c-0.983,27.884-1.213,60.169,1.757,87.919
				l60.432-1l5.082-65.696l9.185,42.83l-0.39,26.269H530z"/>
		</g>
		<g>
			<path style="fill:#EBB044;" d="M508.983,349.649c-0.83-2.281-1.974-4.624-3.523-7.106c-6.633-10.629-27.262-17.977-39.698-16.318
				c-10.744,1.434-21.299,1.6-31.412,6.052c-7.595,3.343-14.474,14.199-18.376,20.97c-13.413,23.272-7.965,51.744-7.94,77.407
				c0.013,13.527-1.298,27.128-1.85,40.642c-0.361,8.829-0.689,17.665-0.741,26.502c-0.018,3.139-1.537,13.069,0.786,15.7
				c2.037,2.308,15.032-0.081,18.943-0.203c9.574-0.298,19.154-0.436,28.733-0.416c11.352,0.024,22.703,0.271,34.045,0.742
				c11.646,0.487,22.371,2.881,34.044,0.24c1.511-0.342,3.102-0.82,4.094-1.997c1.33-1.578,1.173-3.87,0.939-5.91
				c-2.457-21.456-5.487-42.848-9.086-64.146c-1.668-9.872-5.101-20.554-5.195-30.546c-0.08-8.436,0.057-16.857-0.517-25.407
				C511.463,374.516,512.892,360.388,508.983,349.649z"/>
		</g>
		<g>
			<g>
				<g>
					<path style="fill:#32376B;" d="M487.703,268.392c2.612,4.577,3.871,9.85,4.103,15.115c0.062,1.4,0.158,3.017,1.289,3.843
						c1.212,0.885,0.147,2.826,1.068,1.642c0.922-1.184,4.051-5.295,4.192-6.788c0.33-3.499,0.325-7.03-0.015-10.528
						c-0.296-3.042-0.917-6.221-2.908-8.54c-1.181-1.375-2.756-2.342-4.307-3.279c-2.249-1.359-4.568-2.73-7.152-3.211
						c-4.454-0.83-7.185,0.768-3.255,3.874C483.534,262.744,485.914,265.257,487.703,268.392z"/>
				</g>
				<g>
					<g>
						<path style="fill:#EFBFA5;" d="M459.878,328.116c0.03,2.154-0.412,4.39,1.489,6.061c0.914,0.803,2.149,1.125,3.351,1.316
							c3.107,0.492,6.325,0.264,9.331-0.662c1.237-0.381,2.469-0.898,3.402-1.794c1.103-1.059,1.159-2.063,1.212-3.449
							c0.062-1.624,0.39-3.275,0.603-4.923c0.465-3.603,0.674-7.234,0.778-10.863c5.336-0.915,11.612-2.641,13.436-8.231
							c0.575-1.761,0.595-3.676,0.609-5.549c0.057-7.744,0.113-15.488,0.17-23.232c0.02-2.678,0.026-5.438-0.891-7.924
							c-1.609-4.361-5.699-6.961-9.709-8.596c-10.234-4.174-22.162-4.008-31.607,1.929c-2.514,1.58-4.886,3.612-6.334,6.371
							c-2.232,4.254-1.952,9.506-1.605,14.415c0.32,4.531,0.64,9.062,0.96,13.593c0.368,5.211,1.151,11.21,5.198,13.962
							c2.149,1.461,4.925,1.729,6.777,3.621c3.232,3.301,1.692,8.232,2.647,12.232C459.827,326.953,459.87,327.531,459.878,328.116z
							"/>
					</g>
				</g>
				<g>
					<path style="fill:#3B455A;" d="M495.966,296.934c-0.087-1.436-0.714-5.644-2.874-2.999c-0.565,0.691-0.704,1.669-0.739,2.59
						c-0.035,0.921,0.007,1.869-0.283,2.736c-0.666,1.99-2.868,2.896-4.83,2.861c-0.78-0.014-1.575-0.142-2.265-0.535
						c-0.67-0.381-1.201-0.987-1.72-1.582c-1.259-1.445-2.518-2.89-3.777-4.334c-2.164-2.483-6.457-1.41-9.374-1.029
						c-3.361,0.439-6.723,1.453-9.47,3.664c-0.277,0.223-0.547,0.458-0.819,0.692c-0.662,0.571-1.328,1.137-2.097,1.511
						c-2.596,1.264-5.81-0.055-7.63-2.419c-0.834-1.083-1.612-2.478-2.907-2.659c-1.013-0.142-1.999,0.585-2.519,1.532
						c-0.52,0.948-0.659,2.079-0.73,3.177c-0.256,4,0.295,8.125,2.029,11.673c3.76,7.694,11.029,8.638,18.334,8.466
						c2.888-0.068,5.776-0.136,8.663-0.205c5.279-0.125,10.86-0.344,15.307-3.412c3.923-2.707,6.255-7.31,7.211-12.131
						C495.971,302.041,496.119,299.473,495.966,296.934z M476.651,307.839c-2.78,1.869-5.844,1.97-8.943,1.037
						c-1.317-0.397-0.758-2.607,0.561-2.21c2.568,0.773,4.992,0.753,7.306-0.803C476.74,305.08,477.809,307.061,476.651,307.839z"/>
				</g>
				<g>
					<path style="fill:#3B455A;" d="M497.068,254.972c0.51-1.877,0.887-3.79,1.127-5.719c-1.787,0.627-3.733,0.794-5.6,0.48
						c-0.004-1.113-0.009-2.227-0.013-3.34c-0.008-0.926-12.537-1.575-13.556-1.658c-9.531-0.782-18.247-1.525-26.865,3.59
						c-7.362,4.369-12.082,10.894-13.211,19.387c-1.079,8.113,1.576,18.71,6.268,25.444c-0.027-2.16-1.27-7.255-0.76-9.308
						c0.312-2.057,1.023-4.041,2.004-5.872c1.958-3.657,4.991-6.734,8.495-8.93c5.586-3.501,12.081-5.352,18.568-6.256
						c5.943-0.828,13.186-1.592,19.057-0.017c2.822,0.757,3.29,1.465,5-1.384c0.301-0.502,2.691-6.367,2.457-6.371
						C499.049,255.002,498.059,254.987,497.068,254.972z"/>
				</g>
			</g>
		</g>
		<g>
			<path style="fill:#EBB044;" d="M525.33,326.119c1.644-0.429,3.378-0.897,5.014-0.44c1.901,0.531,3.242,2.186,4.406,3.78
				c7.761,10.629,13.543,22.698,16.964,35.407c0.469,1.743,0.885,3.648,0.174,5.307c-0.566,1.322-1.752,2.255-2.866,3.163
				c-16.287,13.273-26.441,32.985-43.043,45.862c-3.168-16.471-5.396-33.122-6.669-49.847c-0.531-6.972-0.917-14.066-3.255-20.656
				c-2.371-6.682-14.972-14.783-8.376-19.499c2.434-1.74,14.806,0.383,18.111,0.144C512.381,328.867,518.935,327.786,525.33,326.119
				z"/>
		</g>
		<g>
			<path style="fill:#EBB044;" d="M448.242,331.104c-0.243-0.744-0.572-1.478-1.111-2.045c-1.154-1.213-2.983-1.417-4.651-1.575
				c-7.075-0.669-14.105-1.821-21.025-3.442c-4.052-0.949-9.711-3.795-14.671-5.326c-0.281-0.35-0.57-0.694-0.845-1.048
				c-0.338-0.435-0.671-0.874-1-1.317c-1.645-2.213-3.973-0.558-6.156,1.865c-3.704,1.482-5.753,5.995-8.208,9.008
				c-4.044,4.962-9.891,8.817-14.642,13.093c-0.97,0.862-2.009,1.859-2.107,3.153c-0.081,1.067,0.506,2.057,1.071,2.965
				c13.318,21.395,26.636,42.789,39.953,64.184c-0.526-0.846,14.564-25.029,15.841-27.962c3.209-7.372,4.564-15.899,7.973-23.04
				c0.707-1.48,7.696-10.145,6.436-13.696c0.554-0.877,1.075-1.774,1.545-2.701C448.533,339.491,449.537,335.08,448.242,331.104z"/>
		</g>
	</g>
	<g>
		<g>
			<g>
				<g>
					<g>
						<path style="fill:#474EBB;" d="M362.111,157.32l50.156,6.252c1.771-2.499,4.729-3.97,7.868-3.579l132.383,16.502
							c3.139,0.392,5.645,2.544,6.75,5.402l50.156,6.252l-6.626,53.192l-49.612-6.184c-1.604,3.197-4.965,5.202-8.567,4.753
							l-132.383-16.502c-3.603-0.449-6.368-3.218-7.14-6.711l-49.611-6.184L362.111,157.32z"/>
					</g>
				</g>
				<g>
					<g>
						<path style="fill:#474EBB;" d="M700.311,201.267l-4.922-2.261c-0.758-0.348-1.53-0.511-2.299-0.54l5.296-42.521
							c1.601-12.846-7.592-24.568-20.533-26.181l-2.922-0.365c-12.005-1.496-23.011,6.235-25.819,17.617
							c0.07-11.723-8.703-21.919-20.707-23.416l-2.923-0.364c-12.941-1.613-24.728,7.494-26.328,20.34l-17.402,139.694
							c-1.6,12.847,7.593,24.568,20.534,26.182l2.922,0.364c12.004,1.496,23.01-6.235,25.819-17.616
							c-0.07,11.722,8.703,21.919,20.708,23.415l2.922,0.364c12.94,1.613,24.728-7.494,26.328-20.34l5.297-42.521
							c0.752,0.16,1.541,0.192,2.362,0.041l5.326-0.984c3.875-0.715,7.093-4.993,7.755-10.306l3.576-28.706
							C705.962,207.848,703.891,202.912,700.311,201.267z"/>
					</g>
					<g>
						<path style="fill:#474EBB;" d="M369.292,91.301l-2.922-0.365c-12.005-1.496-23.012,6.235-25.819,17.617
							c0.07-11.723-8.703-21.92-20.708-23.416l-2.923-0.364c-12.94-1.613-24.728,7.493-26.328,20.34l-5.297,42.521
							c-0.753-0.16-1.541-0.192-2.362-0.04l-5.326,0.984c-3.875,0.716-7.093,4.993-7.755,10.306l-3.576,28.707
							c-0.662,5.313,1.409,10.249,4.989,11.894l4.921,2.262c0.758,0.348,1.531,0.51,2.3,0.54l-5.297,42.521
							c-1.6,12.847,7.593,24.568,20.534,26.182l2.922,0.364c12.005,1.497,23.011-6.235,25.819-17.617
							c-0.07,11.723,8.702,21.92,20.707,23.416l2.923,0.364c12.941,1.613,24.728-7.494,26.329-20.34l17.401-139.694
							C391.426,104.636,382.233,92.914,369.292,91.301z"/>
					</g>
				</g>
			</g>
		</g>
	</g>
	<g>
		<g>
			<path style="fill:#474EBB;" d="M267.711,363.087c3.166,6.883,3.751,14.496,4.797,22.79c1.813,14.375,2.708,28.83,2.911,43.279
				c0.236,16.797-0.472,33.585-1.798,50.318c-0.663,8.368-1.483,16.724-2.416,25.067c-0.483,4.322,1.422,15.418-3.255,17.692
				c-2.598,1.263-5.743,0.987-8.682,0.678c-17.743-1.863-35.486-3.726-53.229-5.589c-14.932-1.568-30.694-2.575-44.944-7.574
				c-0.759-0.266-1.544-0.575-2.075-1.179c-0.577-0.656-0.768-1.558-0.922-2.418c-2.385-13.342,1.036-23.801,3.325-36.505
				c2.699-14.98,3.071-31.361,4.171-46.571c1.259-17.417,4.052-40.777,10.656-57.337c2.971-6.995,7.157-13.485,12.875-18.827
				c6.809-6.36,16.012-11.8,25.398-11.798c8.841,0.002,17.95,0.862,25.794,4.941c7.201,3.744,13.27,6.978,19.488,12.489
				C263.52,355.839,265.995,359.356,267.711,363.087z"/>
		</g>
	</g>
	<g>
		<g>
			<g>
				<path style="fill:#3B455A;" d="M260.504,315.587c-4.366,4.368-9.316,8.151-14.677,11.216
					c4.998-9.616,8.667-19.922,10.869-30.534c0.168-0.809,0.388-1.711,1.09-2.148c0.656-0.408,1.502-0.26,2.25-0.07
					C273.4,297.457,268.115,307.973,260.504,315.587z"/>
			</g>
		</g>
		<g>
			<path style="fill:#EFBFA5;" d="M221.923,328.981c-0.805-0.922-1.502-1.898-2.086-2.871c-8.069-13.455-7.701-63.923,28.373-57.284
				c32.756,6.029,11.628,44.692-2.151,58.337c-2.612,2.587-5.907,5.203-9.799,6.329c-1.042,0.301-0.73,10.445-1.653,11.974
				c-1.847,3.059-6.215,3.959-9.335,2.536c-2.704-1.233-5.333-4.975-5.928-7.808C218.913,338.144,222.678,329.846,221.923,328.981z"
				/>
		</g>
		<g>
			<g>
				<g>
					<path style="fill:#3B455A;" d="M221.528,314.407c-3.293,1.757-7.167-1.088-9.404-4.076
						c-9.189-12.274-9.012-30.708,0.411-42.803c7.885-10.121,26.278-11.491,22.198,3.883c-1.447,5.451-7.872,10.801-9.916,16.63
						C221.895,296.371,221.813,305.688,221.528,314.407z"/>
				</g>
			</g>
			<g>
				<g>
					<path style="fill:#3B455A;" d="M283.944,269.48c9.965,15.241,7.189,35.726,14.966,52.191
						c-14.382-0.814-28.316-7.747-37.639-18.728c-9.144-10.77-35.156-28.122-23.062-42.289
						C250.518,246.234,275.213,256.126,283.944,269.48z"/>
				</g>
			</g>
		</g>
	</g>
	<g>
		<g>
			<g>
				<path style="fill:#D34E4E;" d="M328.371,390.646c-12.371-12.641-27.661-12.891-38.9-10.566
					c-8.133,1.683-16.599-0.049-23.517-4.645c-9.623-6.393-24.182-12.044-40.593-4.634c-22.004,9.935-30.354,33.425-30.565,56.204
					c-0.157,16.858,2.34,34.79,9.277,50.414c6.712,15.119,21.657,32.619,40.141,30.09c5.636-0.771,11.392,0.283,16.24,3.26
					c23.207,14.249,46.946-10.526,59.261-27.835c12.86-18.075,23.91-41.164,21.685-63.936
					C340.352,408.291,335.896,398.335,328.371,390.646z"/>
			</g>
			<g>
				<path style="fill:#7FC5A3;" d="M273.653,359.889c3.475-5.797,9.213-10.298,14.831-12.813c5.618-2.516,11.175-3.281,16.5-3.607
					c4.722-0.289,9.348-0.259,13.844,0.092c-1.754,3.909-4.178,7.668-6.666,11.347c-3.59,5.308-7.404,10.586-11.947,15.105
					c-4.543,4.52-9.915,8.265-15.152,9.611C274.277,382.397,266.341,372.087,273.653,359.889z"/>
			</g>
		</g>
	</g>
	<g>
		<g>
			<g>
				<path style="fill:#EFBFA5;" d="M120.653,263.57c-0.366-3.069-0.304-6.114-0.307-9.328c-0.001-0.76,0.001-1.536,0.24-2.257
					c0.289-0.871,0.899-1.591,1.496-2.288c0.867-1.012,1.734-2.025,2.601-3.037c0.541-0.631,1.092-1.272,1.794-1.718
					c1.807-1.15,4.15-0.773,6.251-0.356c0.429,0.085,0.877,0.179,1.214,0.457c0.565,0.465,0.648,1.333,0.392,2.019
					c-0.811,2.175-1.478,2.701-1.478,5.319c0,2.229,0.063,4.491,0.641,6.658c0.908-0.326,1.446-1.243,2.103-2.059
					c0.55-0.684,1.268-1.438,2.137-1.318c1.158,0.16,1.512,1.695,1.301,2.845c-0.423,2.307-1.923,4.246-2.929,6.365
					c-1.495,3.15-1.824,9.312-5.559,9.995c-2.272,0.415-5.098-0.142-7.423-0.207c-0.617-2.528-1.233-5.056-1.85-7.585
					C120.991,265.896,120.791,264.731,120.653,263.57z"/>
			</g>
		</g>
		<g>
			<g>
				<path style="fill:#474EBB;" d="M216.29,336.753c-21.785-1.133-43.549-2.685-65.274-4.653c-1.565-0.142-3.256-0.34-4.4-1.418
					c-1.119-1.054-1.431-2.685-1.678-4.203c-2.74-16.812-4.751-33.743-6.026-50.729c-0.111-1.477-0.337-3.17-1.58-3.976
					c-0.829-0.537-1.887-0.515-2.874-0.473c-4.597,0.194-10.176-0.868-13.583,3.095c-3.274,3.808-1.792,10.531-1.895,15.319
					c-0.303,14.184-1.185,28.356-2.644,42.469c-0.467,4.518-1.343,11.233,1.614,15.169c2.602,3.464,8.303,5.739,11.976,8.148
					c14.744,9.668,29.488,19.336,44.232,29.004c3.109,2.038,6.448,4.15,10.165,4.178c5.958,0.046,5.98-4.106,7.641-8.053
					c2.059-4.892,5.943-8.732,9.008-13.139C207.53,358.059,212.72,347.673,216.29,336.753z"/>
			</g>
		</g>
	</g>
	<g>
		<g>
			<path style="fill:#474EBB;" d="M307.156,515.029c-2.635,0.053-5.5-1.04-6.674-3.4c-0.884-1.778-0.654-3.892-0.269-5.841
				c0.634-3.214,1.631-6.355,2.966-9.347c3.345-7.495,13.9-10.042,16.949-0.828C322.838,503.8,315.833,514.856,307.156,515.029z"/>
		</g>
		<g>
			<path style="fill:#EFBFA5;" d="M290.463,502.627c-1.219-1.747-2.396-4.11-1.599-6.376c0.793-2.254,3.206-4.593,5.124-5.911
				c2.043-1.404,3.74,0.459,4.783,2.07c0.97,1.499,2.005,3.007,3.584,3.869c1.357-1.948-0.278-3.946,0.888-5.922
				c0.494-0.838,1.271-1.479,2.075-2c0.274-0.178,0.607-0.351,0.87-0.233c0.18,0.081,0.273,0.277,0.358,0.459
				c1.98,4.243,5.868,6.384,6.878,11.335c1.078,5.284-2.031,9.373-7.393,10.177c-5.788,0.868-11.788-2.519-15.018-6.721
				C290.833,503.142,290.647,502.892,290.463,502.627z"/>
		</g>
	</g>
	<g>
		<g>
			<g>
				<g>
					<g>
						<g>
							<path style="fill:#8EC3CB;" d="M85.722,124.8l13.702,127.706c0.421,3.919,18.593,7.066,40.597,7.104
								c22.004,0.038,40.187-3.047,40.622-6.965l14.145-127.658L85.722,124.8z"/>
						</g>
						<g style="opacity:0.64;">
							<path style="fill:#FFFFFF;" d="M185.131,149.456c0.147-0.106,0.224-0.213,0.224-0.321c0.003-1.777-20.148-3.252-45.01-3.294
								c-24.861-0.043-45.018,1.363-45.021,3.14c0,0.109,0.076,0.216,0.223,0.322l-0.357-0.001l11.354,100.041
								c0.348,3.07,15.394,5.537,33.612,5.568c18.218,0.031,33.272-2.384,33.631-5.453l11.701-100.001L185.131,149.456z"/>
						</g>
						<g>
							<path style="fill:#7BB1B7;" d="M194.627,124.576c-0.004,2.268-24.35,4.065-54.379,4.014
								c-30.029-0.051-54.368-1.932-54.365-4.2c0.004-2.268,24.35-4.066,54.379-4.014
								C170.292,120.427,194.631,122.307,194.627,124.576z"/>
						</g>
						<g style="opacity:0.51;">
							
								<ellipse transform="matrix(0.0017 -1 1 0.0017 -8.8228 288.7551)" style="fill:#FFFFFF;" cx="140.214" cy="148.796" rx="2.915" ry="45.275"/>
						</g>
					</g>
				</g>
			</g>
			<g>
				<g>
					<path style="fill:#FFFFFF;" d="M133.49,196.367c0.228-3.532,0.382-7.069,0.456-10.61c0.041-1.97-3.041-2.067-3.082-0.093
						c-0.068,3.234-0.204,6.465-0.4,9.692l-7.629-0.229c0.04-2.298,0.08-4.595,0.121-6.893c0.034-1.969-3.048-2.068-3.082-0.093
						c-0.104,5.956-0.208,11.911-0.313,17.867c-0.035,1.969,3.048,2.067,3.082,0.093c0.046-2.637,0.092-5.274,0.138-7.911
						l7.477,0.225c-0.232,3.15-0.521,6.297-0.875,9.438c-0.221,1.959,2.862,2.041,3.082,0.093c0.385-3.41,0.694-6.826,0.933-10.246
						C133.607,197.294,133.64,196.798,133.49,196.367z"/>
				</g>
				<g>
					<path style="fill:#FFFFFF;" d="M140.678,218.947c-0.246-0.022-2.237-0.169-2.986-0.251c0.412-0.262,1.125-1.099,1.121-1.095
						c0.286-0.309,0.594-0.598,0.873-0.913c1.172-1.324,2.043-2.964,1.556-4.76c-0.87-3.211-5.412-3.364-6.197-0.022
						c-0.449,1.912,2.496,2.824,2.947,0.903c0.539-0.005,0.566,0.308,0.081,0.939c-0.255,0.434-0.566,0.825-0.932,1.173
						c-0.43,0.463-0.887,0.895-1.29,1.383c-0.734,0.89-1.457,2.003-1.296,3.213c0.361,2.701,4.069,2.315,6.029,2.492
						C142.563,222.188,142.649,219.126,140.678,218.947z"/>
				</g>
				<g>
					<path style="fill:#FFFFFF;" d="M154.169,187.823c-0.073-0.677-0.541-1.289-1.43-1.29c-5.17-0.004-7.707,7.64-7.794,11.799
						c-0.097,4.654,2.245,10.314,7.687,10.322c5.35,0.008,8.563-5.014,8.959-9.825C161.937,194.636,158.751,188.534,154.169,187.823
						z M158.435,199.405c-0.472,3.038-2.684,6.593-6.256,6.167c-3.515-0.42-4.312-4.895-4.127-7.729
						c0.092-1.412,0.435-2.816,0.998-4.117c0.426-0.985,1.37-2.947,2.553-3.76c0.305,0.527,0.877,0.915,1.636,0.814
						c1.662-0.222,3.609,2.42,4.349,3.622C158.522,195.919,158.704,197.671,158.435,199.405z"/>
				</g>
			</g>
		</g>
	</g>
	<g>
		<g>
			<g>
				<g>
					<path style="fill:#8EC3CB;" d="M835.74,131.751c-2.574-2.716-9.301-3.589-9.301-3.589l-30.487-0.712
						c-3.228-0.075-6.486-1.306-9.225-3.428c0.949-0.978,0.977-2.53,0.036-3.523c-0.966-1.02-2.58-1.058-3.605-0.087l-0.075,0.071
						l-3.075-3.244l-19.295,18.287l3.075,3.244l-0.687,0.651c-1.025,0.971-1.073,2.585-0.106,3.605
						c0.966,1.019,2.58,1.058,3.605,0.087l0.564-0.534c2.146,3.003,3.257,6.552,3.063,9.967l-1.732,30.532
						c0,0,0.511,6.764,3.085,9.48l13.178,13.904c0,0,26.093,0.688,26.034,27.177l78.646,83.275c0,0,44.677-8.357,64.16-60.808
						l-78.939-82.997c-25.475-1.206-25.74-27.455-25.74-27.455L835.74,131.751z"/>
				</g>
				<g>
					<path style="fill:#EBB044;" d="M915.204,215.597l-39.767-41.96l-14.257,15.874c-11.717,12.125-20.961,20.518-34.169,32.383
						l-15.735,12.551l39.767,41.96l-0.202,0.192c44.066-19.795,64.565-61.191,64.565-61.191L915.204,215.597z"/>
				</g>
				<g>
					<polygon style="fill:#FFFFFF;" points="849.954,213.757 861.518,202.797 861.048,222.708 875.027,217.051 872.04,248.882 
						865.594,230.259 855.135,236.875 					"/>
				</g>
				<g>
					<path style="fill:#3B455A;" d="M783.907,118.055l-23.201,21.988c-0.746,0.706-1.923,0.675-2.629-0.071l-11.609-12.249
						c-0.707-0.745-0.675-1.923,0.071-2.629l23.201-21.989c0.745-0.707,1.923-0.675,2.629,0.071l11.609,12.25
						C784.684,116.171,784.653,117.348,783.907,118.055z"/>
				</g>
				<g style="opacity:0.15;">
					<path style="fill:#080A0A;" d="M767.337,142.826l19.32-18.722c0,0,1.32,0.9,2.372,1.427L767.337,142.826z"/>
				</g>
				<g style="opacity:0.06;">
					<g>
						<path style="fill:#080A0A;" d="M849.279,146.037l-0.183-0.194l-64.161,60.807l0.184,0.194c0,0,26.093,0.688,26.034,27.176
							l0.27,0.286l29.572-25.45c1.893-1.629,3.709-3.346,5.443-5.144l28.854-29.936l-0.271-0.285
							C849.544,172.285,849.279,146.037,849.279,146.037z"/>
					</g>
				</g>
			</g>
			<g>
				<polygon style="fill:#A4A6A9;" points="915.412,215.415 915.401,215.395 915.402,215.395 				"/>
			</g>
		</g>
	</g>
	<g>
		<g>
			<g>
				<path style="fill:#D8A38B;" d="M744.634,479.913c-0.152-1.157-0.109-1.272-1.102-1.909c-1.102-0.707-2.298-1.304-3.454-1.907
					c-4.285-4.599-6.147-9.256-7.744-15.461c-1.12-4.351-3.292-8.624-4.899-12.809c-3.213-8.369-6.354-16.768-9.417-25.198
					c-0.467-1.286-0.941-2.666-0.651-4.006c0.221-1.02,0.858-1.877,1.488-2.687c3.008-3.869,6.254-7.533,9.71-10.966
					c3.09-3.068,5.759-4.668,9.367-6.661c3.825-2.114,2.407-6.233,1.014-9.774c-0.565-1.435-6.47-13.79-5.86-14.407
					c-11.819,11.953-23.577,23.973-35.273,36.059c-0.764,0.789-1.556,1.629-1.852,2.711c-0.381,1.395,0.142,2.87,0.668,4.215
					c4.429,11.326,9.584,22.341,15.336,32.994c2.869,5.313,5.888,10.537,9.054,15.662c1.845,2.987,8.067,9.067,6.705,12.953
					c-0.154,0.441-0.405,0.835-0.499,1.301c-0.107,0.525-0.006,1.093,0.109,1.641c0.421,2.008,1,4.046,1.839,5.947
					c0.766,1.735,2.128,1.942,3.657,2.633c1.596,0.721,2.626,2.278,4.137,3.132c1.518,0.859,2.844,0.26,4.239-0.677
					c0.647-0.435,1.284-0.885,1.91-1.352c0.37-0.276,0.737-0.558,1.099-0.845c0.218-0.172,0.439-0.353,0.576-0.6
					c0.134-0.242,0.174-0.527,0.208-0.805C745.378,485.957,745.041,483.019,744.634,479.913z"/>
			</g>
			<g>
				<path style="fill:#D8A38B;" d="M839.321,331.085c2.219-1.058,4.525-2.221,5.926-4.24c0.944-1.36,1.393-2.995,1.825-4.593
					c3.098-11.463,6.197-22.926,9.295-34.389c-3.076-3.332-3.179-10.634,2.813-6.609c0.533,0.358,1.115,0.81,1.742,0.675
					c0.469-0.1,0.803-0.504,1.097-0.883c1.214-1.56,2.427-3.12,3.641-4.68c0.42-0.539,0.874-1.104,1.516-1.336
					c0.489-0.176,1.026-0.135,1.541-0.073c3.947,0.48,7.742,2.15,10.762,4.737c-2.125,3.107-4.61,5.969-7.389,8.509
					c-1.044,0.954-2.135,1.87-3.005,2.985c-3.621,4.639-2.873,13.641-3.503,19.241c-0.86,7.645-1.72,15.29-2.581,22.935
					c-0.125,1.115-0.261,2.264-0.809,3.243c-0.665,1.19-1.849,1.981-2.994,2.72c-19.396,12.505-40.125,22.942-61.722,31.077
					c-1.837-5.141-4.917-12.218-4.766-17.745c0.143-5.219,7.759-5.652,12.028-7.18C816.499,341.27,828.047,336.464,839.321,331.085z
					"/>
			</g>
			<g>
				<path style="fill:#D8A38B;" d="M758.403,353.782c-8.042,2.649-12.091,7.31-12.329,18.292
					c-0.288,13.301-0.571,26.683,1.46,39.831c1.142,7.392,3.008,14.659,4.094,22.059c2.208,15.05,1.104,30.488-2.615,45.21
					c-1.252,4.956-6.34,13.115-2.564,17.466c3.615,4.165,10.538,1.526,15.127,1.305c15.174-0.733,30.348-1.466,45.523-2.198
					c9.291-0.449,28.42-0.928,26.028-15.283c-1.106-6.638-7.546-13.604-10.005-20.021c-2.719-7.099-4.541-14.756-4.179-22.401
					c0.531-11.213-1.354-22.138-2.245-33.46c-1.224-15.555-1.747-31.657-8.312-46.102c-5.517-12.138-33.012-8.355-43.546-6.308
					C762.466,352.632,760.321,353.15,758.403,353.782z"/>
			</g>
			<g>
				<g>
					<path style="fill:#D8A38B;" d="M836.979,721.824c2.925,0.394,5.682-0.456,8.551-0.583c0.546-10.067,0.11-19.785-1.385-29.863
						c-4.761,4.616-8.296,1.506-8.771,10.752C835.221,705.123,837.863,717.314,836.979,721.824z"/>
				</g>
				<g>
					<path style="fill:#3B455A;" d="M846.512,716.282c3.422-0.969,3.635,7.06,3.534,8.938c-0.061,1.128-0.272,2.269-0.06,3.379
						c0.234,1.221,0.957,2.284,1.664,3.307c1.48,2.143,2.959,4.286,4.439,6.429c0.665,0.963,1.342,1.95,1.657,3.078
						c0.781,2.794-1.034,5.923-3.707,7.054c-9.274,3.922-16.721-7.601-18.173-14.974c-0.223-1.13-0.363-2.274-0.504-3.417
						c-0.291-2.365-1.713-7.574-0.632-9.792c1.261-2.587,4.405-0.438,6.619-1.295C843.403,718.192,845.128,716.675,846.512,716.282z
						"/>
				</g>
			</g>
			<g>
				<g>
					<path style="fill:#D8A38B;" d="M775.639,722.619c-2.819,0.874-5.679,0.493-8.529,0.844c-2.208-9.837-3.391-19.492-3.589-29.678
						c5.461,3.762,8.431,0.109,10.433,9.148C774.603,705.858,774.019,718.318,775.639,722.619z"/>
				</g>
				<g>
					<path style="fill:#3B455A;" d="M764.431,720.364c-0.376,5.453-5.066,11.034-7.774,15.777c-0.318,0.558-0.644,1.139-0.699,1.779
						c-0.082,0.951,0.443,1.836,0.948,2.646c0.702,1.124,1.467,2.307,2.665,2.873c1.178,0.556,2.553,0.41,3.841,0.218
						c2.155-0.322,4.295-0.743,6.411-1.261c0.527-0.129,1.066-0.27,1.51-0.582c0.526-0.37,0.866-0.943,1.19-1.498
						c1.664-2.849,3.052-4.857,3.196-8.148c0.148-3.399-0.042-6.943,0.806-10.263c0.417-1.61,0.965-3.668-0.371-4.658
						c-1.033-0.765-3.076,0.054-4.265,0.167c-2.098,0.198-4.007-0.06-5.991,0.9c-0.404,0.195-0.802,0.437-1.067,0.799
						C764.561,719.48,764.462,719.91,764.431,720.364z"/>
				</g>
			</g>
			<g>
				<g>
					<g>
						<g>
							<g>
								<path style="fill:#D8A38B;" d="M770.171,352.209c0.197,0.345,0.454,0.673,0.793,0.98c1.337,1.21,3.146,1.851,4.92,2.027
									c2.339,0.233,4.686-0.255,6.974-0.795c3.091-0.729,2.902-2.549,3.232-5.398c0.18-1.556,0.267-3.121,0.316-4.687
									c0.027-0.858-0.437-3.907,0.083-4.53c0.353-0.423,1.865-0.351,2.51-0.724c1.023-0.591,1.853-1.635,2.44-2.64
									c0.945-1.62,1.425-3.462,1.894-5.279c0.816-3.16,1.631-6.319,2.447-9.479c0.833-3.228,1.671-6.484,1.84-9.814
									c0.255-5.019-0.858-12.042-4.789-15.534c-3.586-3.186-8.658-4.137-13.289-4.527c-6.132-0.516-12.405,0.873-17.532,4.337
									c-2.07,1.399-4.014,3.181-5.169,5.566c-1.781,3.676-1.44,8.156-1.051,12.341c0.359,3.863,0.718,7.725,1.077,11.588
									c0.413,4.443,1.189,9.549,4.629,11.82c1.827,1.205,4.154,1.38,5.741,2.958c1.988,1.977,1.998,5.072,2.19,7.679
									C769.537,349.588,769.486,351.005,770.171,352.209z"/>
							</g>
						</g>
						<g>
							<path style="fill:#3B455A;" d="M787.316,301.335c0.226,0.354,0.418,0.723,0.57,1.109c0.799,2.022,0.419,4.359,1.202,6.387
								c1.241,3.215,5.133,5.012,5.854,8.383c0.589,2.757-1.194,5.478-1.233,8.297c-0.042,3.079,2.05,5.901,1.876,8.946
								c-0.151,2.645-1.662,6.418-3.144,8.597c0.459-0.675,4.878-0.632,5.991-1.38c1.706-1.146,1.877-1.829,2.319-3.677
								c0.44-1.835-0.039-3.605,0.688-5.497c0.891-2.321,2.853-4.082,3.46-6.542c0.829-3.358-1.086-6.78-1.098-10.238
								c-0.017-5.235,4.287-10.353,2.434-15.249c-1.087-2.872-3.997-4.612-5.701-7.167c-1.294-1.94-1.841-4.269-2.773-6.406
								s-2.466-4.251-4.729-4.814c-1.257-0.313-2.586-0.105-3.869-0.287c-2.217-0.314-4.111-1.753-6.261-2.379
								c-3.076-0.895-8.293,2.402-9.951,5.048c-1.646,2.626-0.667,4.756,1.227,6.934
								C777.33,295.024,784.663,297.171,787.316,301.335z"/>
						</g>
					</g>
					<g>
						<path style="fill:#3B455A;" d="M745.82,287.66c-1.759,1.412-3.961,2.471-5.553,4.1c-3.104,3.177-3.509,8.06-3.435,12.501
							c0.066,3.954-1.51,7.538-0.905,11.635c0.407,2.752,1.702,5.497,4.022,7.032c2.889,1.912,7.302,2.055,8.691,5.229
							c1.509,3.448-1.932,8.019,0.404,10.97c1.289,1.628,3.683,1.771,5.472,2.825c1.996,1.176,3.09,3.383,4.362,5.319
							c1.271,1.936,3.138,3.85,5.454,3.8c-0.058-3.523-0.074-6.316-1.717-9.469c-0.956-1.837-3.684-5.184-1.791-7.3
							c1.176-1.741,4.101-2.417,4.086-4.519c-0.007-0.987-0.731-1.796-1.308-2.596c-2.237-3.095-2.634-7.332-1.363-10.933
							s4.082-6.556,7.444-8.368c3.94-2.123,3.25-3.078,4.253-6.982c0.923-3.592,2.9-4.511,6.036-5.941
							c2.816-1.284,3.706-2.047,4.648-4.775c0.689-1.996,1.541-4.388,0.324-6.531c-0.967-1.703-2.627-2.878-4.234-3.997
							c-3.357-2.337-7.121-4.785-11.184-4.316c-2.257,0.261-4.341,1.416-6.601,1.643c-1.508,0.151-3.025-0.119-4.54-0.104
							c-2.583,0.025-5.27,0.927-7.292,2.552c-2.04,1.64-1.91,3.259-2.986,5.508C747.579,286.046,746.763,286.904,745.82,287.66z"/>
					</g>
					<g>
						<path style="fill:#3B455A;" d="M754.322,272.798c0.291-2.469-0.102-5.653-2.479-6.38c-1.303-0.398-2.719,0.161-4.064-0.053
							c-2.867-0.456-3.983-3.855-5.58-6.278c-0.239-0.363-0.521-0.729-0.925-0.888c-0.578-0.228-1.219,0.024-1.832,0.126
							c-2.813,0.467-5.083-2.231-7.789-3.128c-3.351-1.11-7.409,1.13-8.256,4.556c-0.348,1.408-0.212,2.899-0.535,4.313
							c-1.308,5.728-9.495,8.495-9.451,14.37c0.029,3.97,4.073,7.601,2.723,11.335c-0.863,2.388-3.813,4.118-3.359,6.616
							c0.292,1.607,2.061,2.634,3.692,2.54c1.631-0.093,3.091-1.053,4.274-2.18c1.878-1.788,3.253-4.038,5.034-5.922
							c1.781-1.885,4.196-3.455,6.781-3.245c2.503,0.203,4.839,2.045,7.296,1.523c1.965-0.417,3.357-2.246,5.28-2.827
							c1.799-0.544,3.721,0.089,5.6,0.121c1.879,0.032,4.139-1.042,4.108-2.922c-0.008-0.455-0.155-0.92-0.031-1.358
							c0.348-1.227,2.417-1.247,2.758-2.477c-1.043-1.466-2.4-0.866-3.186-2.805C753.771,276.335,754.139,274.348,754.322,272.798z"
							/>
					</g>
				</g>
			</g>
			<g>
				<path style="fill:#7FC5A3;" d="M741.37,430.865c0.033,2.254-0.418,11.954,3.2,12.19c17.973,1.153,35.626-5.902,53.135-8.753
					c4.557-0.742,9.16-1.263,13.78-1.331c4.156-0.061,7.991,1.854,9.115-2.552c1.114-4.371,0.33-10.182,0.358-14.693
					c0.053-9.699-1.131-18.543,1.115-28.035c2.263-9.564,5.891-18.806,10.758-27.345c0.488-0.856,1-1.742,1.08-2.724
					c0.127-1.571-0.826-3.282-1.237-4.769c-0.637-2.309-0.994-4.723-1.558-7.054c-1.084-4.484-2.337-8.927-3.756-13.317
					c-2.752,2.188-5.833,3.962-9.106,5.245c-5.095,1.996-10.566,2.806-15.662,4.793c-2.623,1.023-4.612,2.79-7.054,4.005
					c-2.311,1.15-4.834,1.101-6.179,3.81c-1.081,2.181-0.212,6.845-0.233,9.257c-0.027,3.173-0.055,6.345-0.601,9.481
					c-0.696,4.001-2.607,8.744-6.649,9.144c-2.598,0.258-4.967-1.515-6.66-3.503c-4.625-5.431-3.905-12.453-7.27-18.236
					c-0.667-1.145-3.404-5.416-4.366-5.813c-2.124-0.875-8.56,3.206-10.698,4.127c-5.574,2.401-10.692,4.311-15.738,7.927
					c-4.969,3.561-9.482,7.728-13.68,12.163c-3.673,3.881-7.206,7.952-10.495,12.164c-3.609,4.622,0.458,6.877,3.657,10.493
					c2.208,2.497,4.535,4.89,6.969,7.168c2.001,1.873,4.586,5.001,7.111,6.116c3.383,1.494,7.029-2.217,9.255-4.355
					c-0.948,0.911,1.401,8.881,1.582,10.602C742.017,421.558,741.304,426.342,741.37,430.865z"/>
			</g>
		</g>
		<g>
			<g>
				<path style="fill:#3B455A;" d="M850.08,699.885c-0.256-7.641-0.64-15.295-1.037-22.946c-0.687-13.26-1.331-26.295-2.683-39.471
					c-4.167-40.602-5.846-81.622-8.741-122.338c0-12.048-0.146-24.697-2.69-36.534c-0.147-0.663-0.306-1.337-0.66-1.917
					c-1.167-1.91-3.839-2.055-6.076-1.96c-8.763,0.373-17.929,2.266-26.617,2.054c-9.762-0.239-20.093-1.079-30.182-0.512
					c-6.926,0.389-13.934-2.227-21.003-0.91c-3.445,0.642-3.348,3.532-3.929,6.902c-0.629,3.649-0.838,7.358-1.011,11.051
					c-0.312,6.626-0.497,13.258-0.557,19.89c-0.149,16.425,2.407,32.995,3.223,49.413c0.855,17.208,1.587,34.422,2.236,51.638
					c0.822,21.795,3.945,43.471,6.639,65.006c0.952,7.611,1.918,15.223,3.018,22.801c0.344,2.366,0.406,6.217,1.401,8.29
					c1.947,4.056,7.133,3.608,10.362,3.117c2.816-0.429,5.608-1.13,8.344-2.094c-1.042-30.062,2.107-60.596,1.968-90.868
					c-0.093-20.118,2.157-40.133,4.212-60.116c0.383-3.725,0.666-7.641,1.475-11.298c0.769-3.476,2.175-6.794,2.757-10.368
					c0.635-3.902,3.754-4.146,5.162-0.757c1.802,4.336,2.457,9.588,3.633,14.141c6.065,23.455,13.072,46.566,17.044,70.747
					c4.906,29.873,12.857,59.498,16.905,89.301c2.658,0.532,5.323,0.795,7.965,0.787c3.03-0.01,7.838-0.363,8.941-4.661
					C850.743,706.077,850.159,702.271,850.08,699.885z"/>
			</g>
			<g>
				<path style="fill:#343F51;" d="M834.568,478.524c0-1.695-3.4-4.611-4.145-6.241c-0.839-1.834-1.569-3.669-2.543-5.48
					c-0.05-0.092-0.102-0.188-0.186-0.25c-0.317-0.233-0.707,0.146-1.001,0.408c-1.028,0.916-3.761,0.312-5.044,0.325
					c-2.206,0.021-4.412,0.042-6.617,0.063c-4.274,0.041-8.548,0.082-12.821,0.123c-17.153,0.164-34.128,1.114-51.263,0.05
					c-0.681,1.713-3.109,7.576-2.073,9.314c0.379,0.636,1.027,0.511,1.79,0.586c1.757,0.173,3.539,0.203,5.303,0.277
					c5.724,0.241,11.453,0.393,17.18,0.533c14.147,0.346,28.299,0.582,42.451,0.657
					C816.684,478.895,834.568,479.137,834.568,478.524z"/>
			</g>
		</g>
	</g>
	<g>
		<g>
			<g>
				<path style="fill:#474EBB;" d="M618.734,662.804c7.238,5.048,56.736,70.679,56.736,70.679l-28.368,21.794l-117.378-24.45V709.04
					l45-3.512c0,0-32.792-4.793-41.707-26.557C524.104,657.206,618.734,662.804,618.734,662.804z"/>
			</g>
			<g>
				<path style="fill:#3B455A;" d="M515.537,718.297c-2.468,6.562-4.999,15.267-3.004,22.58c2.211,8.102,14.846,13.754,18.283,3.594
					c0.663-1.959,0.488-4.344-0.974-5.808c-3.109-3.115-5.712-6.536,0.165-8.616c2.179-0.77,4.567-0.672,6.812-1.22
					c0.778-0.19,1.574-0.482,2.097-1.089c0.661-0.767,0.745-1.86,0.776-2.872c0.119-3.849-0.076-7.708-0.582-11.525
					c-0.155-1.17-11.22-2.128-12.369-2.006C522.566,711.778,517.129,714.065,515.537,718.297z"/>
			</g>
			<g>
				<polygon style="fill:#474EBB;" points="638.946,701.954 682.214,726.508 693.613,717.229 693.613,706.43 638.946,662.804 
					605.98,698.532 				"/>
			</g>
		</g>
		<g>
			<g>
				<g>
					<path style="fill:#7FC5A3;" d="M581.505,521.789c1.246-0.774,2.547-1.451,3.919-1.992c22.78-8.996,39.469,1.16,46.812,23.175
						c16.463,49.357,18.863,94.516,7.633,144.416c-25.631,1.5-56.125,2.621-81.714,0.517c-9.09-0.747-19.042-2.149-25.136-8.934
						c-2.717-3.025-4.372-6.846-5.733-10.678c-8.677-24.441-6.89-51.9,2.166-76.204c9.055-24.303,25.003-45.62,43.766-63.526
						C575.799,526.1,578.49,523.661,581.505,521.789z"/>
				</g>
				<g>
					<g>
						<g>
							<path style="fill:#EFBFA5;" d="M635.235,472.208c-11.855,3.058-24.394-4.852-35.847-0.252
								c-7.447,2.991-12.568,10.955-13.861,19.119c-0.603,3.806-0.457,7.808,1.094,11.203c1.007,2.203,2.567,4.071,4.323,5.663
								c2.347,2.129,5.084,3.755,8.028,4.852c0.239,0.089-3.744,7.104-4.132,7.712c1.824,1.148,0.981,4.845,2.664,6.724
								c1.738,1.942,4.813,2.4,7.388,1.753c2.576-0.648,4.765-2.203,6.843-3.77c1.884-1.42,0.895-11.026,2.835-11.489
								c1.648-0.394,3.271-0.932,4.835-1.651c9.458-4.346,16.415-14.495,17.219-25.122
								C637.001,481.972,636.134,477.051,635.235,472.208z"/>
						</g>
					</g>
					<g>
						<path style="fill:#3B455A;" d="M606.87,472.241c0.454-0.022,0.907-0.035,1.357-0.039c6.527-0.066,13.004,1.363,18.881,4.029
							c2.169,0.984,4.3,2.167,5.882,3.939c2.342,2.623,3.247,6.32,3.131,9.899c-0.116,3.579-1.163,7.087-2.332,10.503
							c1.491,0.073,2.897-0.745,4.153-1.599c3.691-2.512,7.702-5.801,9.965-9.734c4.11-7.144,4.29-12.228,11.289-17.346
							c5.805-4.244,13.194-1.704,17.864-8.896c3.822-5.885,1.567-15.441-5.187-17.343c-3.024-0.851-6.462-0.038-8.783,2.079
							c-2.496,2.275-5.214,6.256-8.139,4.567c-1.169-0.675-1.682-2.056-2.285-3.264c-4.995-10.009-15.666-8.267-24.198-4.536
							c-4.81,2.105-9.484,4.94-14.659,5.482c-4.152,0.435-8.273-0.655-12.436-0.534c-6.944,0.203-13.725,3.945-18.035,9.543
							c-4.83,6.273-7.31,15.301-4.057,22.464c1.631,3.591,2.668,7.366,3.739,11.158c0.372,1.316,3.276,6.672,4.399,2.381
							c0.871-3.331,0.66-6.843,1.553-10.168C591.15,476.721,599.088,472.626,606.87,472.241z"/>
					</g>
				</g>
			</g>
		</g>
		<g>
			<g>
				<g>
					<g>
						<g>
							<path style="fill:#D34E4E;" d="M728.26,548.147c-17.357-1.517-39.253,7.796-44.544,22.832
								c-5.138-15.085-31.731-24.476-49.102-23.119c-45.842,3.58-61.615,55.416-42.364,90.413
								c10.362,18.836,25.305,35.332,41.625,50.158c13.666,12.415,48.943,38.776,49.052,38.687
								c0.107,0.089,35.65-25.944,49.441-38.232c16.469-14.674,31.578-31.031,42.13-49.771
								C794.102,604.298,774.063,552.151,728.26,548.147z"/>
						</g>
					</g>
					<g style="opacity:0.12;">
						<g>
							<path style="fill:#000100;" d="M764.579,642.707c-11.491,13.962-24.782,27.057-39.196,38.287
								c-13.939,10.86-30.254,20.302-48.174,23.399c-8.608,1.488-17.028,1.237-24.988-0.661
								c14.557,11.526,30.383,23.315,30.456,23.255c0.107,0.09,35.65-25.944,49.441-38.232
								c16.469-14.674,31.578-31.031,42.13-49.771c3.414-6.064,5.623-12.653,6.705-19.422
								C776.158,627.674,770.603,635.388,764.579,642.707z"/>
						</g>
					</g>
					<g>
						<g>
							<path style="fill:#FFFFFF;" d="M764.878,628.729c-12.001,0.254-24.001,0.508-36.002,0.762
								c-4.261-16.022-8.523-32.043-12.784-48.064c-0.616-2.316-4.001-2.159-4.725-0.022c-9.431,27.81-18.861,55.621-28.292,83.431
								c-0.546,1.611-1.092,3.221-1.639,4.832c-6.225-18.365-12.449-36.73-18.673-55.095c-0.998-2.945-1.996-5.891-2.995-8.836
								c-0.602-1.775-3.478-2.492-4.475-0.58c-4.637,8.887-9.274,17.774-13.911,26.661c-13.428-0.062-26.856-0.124-40.284-0.186
								c-3.153-0.015-3.182,4.67-0.024,4.685c13.934,0.064,27.867,0.129,41.802,0.193c0.815,0.004,1.744-0.427,2.121-1.151
								c3.974-7.616,7.947-15.232,11.921-22.847c6.385,18.841,12.771,37.682,19.157,56.523c0.998,2.945,1.997,5.891,2.995,8.836
								c0.749,2.209,3.966,2.26,4.725,0.022c9.431-27.811,18.861-55.621,28.292-83.432c0.451-1.33,0.902-2.661,1.353-3.991
								c3.725,14.005,7.45,28.009,11.175,42.014c0.259,0.973,1.294,1.753,2.354,1.731c12.628-0.267,25.256-0.534,37.885-0.801
								C768.001,633.348,768.038,628.662,764.878,628.729z"/>
						</g>
					</g>
				</g>
			</g>
		</g>
		<g>
			<g>
				<path style="fill:#EFBFA5;" d="M579.101,630.308c2.822,7.569,6.917,14.266,13.233,18.847
					c5.237,3.798,10.475,7.597,15.712,11.395c1.433,1.039,2.902,2.117,3.839,3.619c1.324,2.123,1.394,4.758,1.755,7.234
					c0.784,5.381,3.495,10.875,8.405,13.213c4.91,2.337,11.998,0.014,13.177-5.295c-2.261-3.029-4.396-6.232-6.817-9.134
					c-1.307-1.566-4.202-5.348,0.484-4.1c0.724,0.193,1.462,0.449,2.205,0.348c1.149-0.157,2.035-1.165,2.399-2.266
					c0.355-1.071,0.396-2.274,0.167-3.357c-10.655-0.198-22.391-10.534-28.167-18.776c-15.45-22.047-9.252-50.025-14.429-74.783
					c-1.044-4.995-2.984-10.076-6.92-13.323c-3.936-3.247-10.279-3.974-14-0.483c-3.991,3.744-3.412,10.123-2.525,15.523
					c1.272,7.75,2.544,15.5,3.815,23.249C573.32,603.716,574.564,618.138,579.101,630.308z"/>
			</g>
			<g>
				<path style="fill:#7FC5A3;" d="M561.953,554.771c-1.322,10.481-1.456,21.111-0.398,31.621
					c12.625-1.889,25.36-3.043,38.119-3.454c-1.169-11.097-3.115-22.112-5.82-32.937c-1.981-7.928-8.888-12.135-17.104-11.807
					C567.701,538.556,562.956,546.817,561.953,554.771z"/>
			</g>
		</g>
		<g>
			<path style="fill:#EFBFA5;" d="M657.191,551.526c0.664-0.072,1.408-0.118,1.921,0.309c0.511,0.425,0.604,1.167,0.607,1.832
				c0.012,2.618-0.808,5.234-2.312,7.378c-0.349,0.497-0.755,1.064-0.611,1.654c0.151,0.618,0.825,0.93,1.419,1.157
				c1.555,0.593,3.109,1.186,4.664,1.779c0.313,0.12,0.646,0.241,0.976,0.182c0.424-0.076,0.735-0.427,1.012-0.757
				c2.161-2.579,4.38-5.265,5.286-8.505c0.907-3.24,0.127-7.209-2.707-9.024c-4.621-2.96-19.139-4.879-19.512,3.454
				C650.672,552.443,654.22,551.823,657.191,551.526z"/>
		</g>
	</g>
</g>
</svg>
