<svg width="150" height="150" viewBox="0 0 66 63" fill="none" xmlns="http://www.w3.org/2000/svg">
<path d="M16.6127 4.38372C14.3947 7.3161 16.9034 12.1309 13.6363 14.3204C10.4561 16.4517 6.61838 12.8683 3.62322 14.7004C-0.819978 17.4181 -0.154955 30.0628 6.20877 37.9783C8.12255 40.3588 9.7334 41.2936 10.4216 43.9711C11.8994 49.7204 6.44318 53.0776 7.44268 55.9237C9.69319 62.3323 45.3383 68.0453 59.8785 48.997C66.6693 40.1007 67.8146 27.1683 61.9459 17.2791C51.3413 -0.590473 21.5895 -2.19604 16.6127 4.38372Z" fill="#F4F7FA"/>
<mask id="mask0_3738_33325" style="mask-type:luminance" maskUnits="userSpaceOnUse" x="9" y="2" width="56" height="52">
<path d="M37.2108 53.7234C52.2756 53.7234 64.488 42.1902 64.488 27.9633C64.488 13.7363 52.2756 2.20312 37.2108 2.20312C22.146 2.20312 9.93359 13.7363 9.93359 27.9633C9.93359 42.1902 22.146 53.7234 37.2108 53.7234Z" fill="white"/>
</mask>
<g mask="url(#mask0_3738_33325)">
<path d="M64.8189 27.9866C64.8189 33.5067 62.9832 38.6274 59.8706 42.8424C59.8583 42.8597 59.8144 42.8764 59.8144 42.8937V42.8944C54.9305 49.6525 46.5618 54.0309 37.1742 54.0309C36.4064 54.0309 35.671 53.997 34.9192 53.8988C34.9184 53.8988 34.9184 53.8988 34.9184 53.8988C34.9153 53.8988 34.9138 53.942 34.9107 53.942C34.5406 53.9131 34.1735 53.8997 33.8079 53.8571C33.6779 53.8426 33.5479 53.8377 33.4187 53.8204C33.304 53.806 33.19 53.7963 33.0761 53.7797C32.9766 53.7659 32.878 53.7542 32.7801 53.7391C32.7579 53.7354 32.7357 53.7332 32.7135 53.7303C32.4726 53.6928 32.2325 53.6537 31.9931 53.6104C31.9916 53.6104 31.9908 53.61 31.9893 53.61C19.2259 51.3075 9.58203 40.7109 9.58203 27.9864C9.58203 25.2961 9.99591 22.7004 10.7974 20.2585C10.9228 19.8757 11.079 19.4973 11.183 19.1225V19.1218C11.4947 18.497 11.7036 17.8838 11.9904 17.2822C12.1059 17.0417 12.2336 16.8026 12.3552 16.5658C13.0274 15.2643 13.8151 14.0234 14.6984 12.8541C14.7787 12.748 14.8621 12.6425 14.9439 12.5371C15.2713 12.1167 15.6127 11.7065 15.9668 11.3057C16.4968 10.7048 17.0549 10.1262 17.6392 9.57301C19.1603 8.13141 20.8592 6.85665 22.7016 5.78124C23.2713 5.44828 23.8558 5.13412 24.4523 4.84087C25.897 4.12873 27.4159 3.53433 28.9967 3.07067C31.5908 2.30867 34.3486 1.89844 37.2081 1.89844C43.7845 1.89844 49.8239 4.06808 54.5671 7.69085C58.056 10.3559 60.8935 13.8061 62.6785 17.7575C63.0777 18.6401 63.3475 19.5472 63.7631 20.476V20.4767C63.7631 20.4811 63.7156 20.484 63.7171 20.4883C64.4711 22.863 64.8189 25.38 64.8189 27.9866Z" fill="url(#paint0_linear_3738_33325)"/>
<path d="M43.2268 36.7769C42.634 37.5656 40.8001 38.5781 42.0444 40.5672C43.278 42.5512 41.9588 42.9232 41.1098 42.7375C40.2571 42.5541 37.6064 42.4515 38.0484 43.5891C38.489 44.728 39.2484 45.1549 38.2771 45.5947C37.3066 46.0324 36.8959 47.1757 35.9025 48.7495C34.9159 50.3261 32.5711 48.9626 33.2655 50.5428C33.9584 52.1238 34.4991 51.9707 34.4341 53.0721C34.4188 53.3747 34.6314 53.6853 34.919 53.9807C34.5488 53.9518 34.1771 53.9164 33.8085 53.8738C33.6785 53.8593 33.5485 53.8435 33.4192 53.8261C33.3045 53.8117 33.1906 53.7965 33.0766 53.7799C32.9772 53.7662 32.8785 53.7517 32.7807 53.7365C32.7585 53.7329 32.7642 53.7293 32.742 53.7264C32.505 53.6889 32.3819 53.6484 32.0702 53.6058V53.6051C31.8623 53.4187 31.9925 53.2165 32.0239 52.9984C32.3336 50.9646 29.3623 49.567 28.8644 48.142C28.375 46.7207 28.8582 45.8728 28.745 44.6948C28.6288 43.519 29.036 41.9596 28.3194 40.9687C27.6028 39.9814 24.714 39.6506 24.1641 37.6579C23.6104 35.6696 24.8982 32.6918 25.3984 32.1847C25.8924 31.6778 23.0065 29.3709 21.6329 29.2972C20.2533 29.2178 20.8052 26.5946 18.4726 26.994C16.1355 27.3811 11.9368 26.1497 12.804 24.8251C13.5198 23.7338 14.7214 21.3265 10.7988 20.2533C10.9242 19.8705 11.0797 19.492 11.1836 19.1172V19.1165C11.4953 18.4917 11.7042 17.8786 11.991 17.2769C12.1065 17.0364 12.2342 16.7974 12.3558 16.5605C13.0288 15.259 13.8165 14.0181 14.699 12.8489C14.7793 12.7427 14.8627 12.6372 14.9445 12.5318C15.2726 12.1115 15.6141 11.7005 15.9674 11.3004C16.4974 10.6995 17.0555 10.121 17.6398 9.56772C19.1609 8.12612 20.8598 6.85136 22.7022 5.77595C23.4792 6.29019 24.3665 6.60724 25.1328 6.21651C27.0118 5.22342 25.773 5.07104 25.0036 5.03421C24.8032 5.02482 24.609 4.9497 24.453 4.83558C25.8976 4.12344 27.4165 3.52904 28.9973 3.06538C28.8803 4.06713 27.4387 5.67628 28.4995 5.47982C29.7338 5.25809 30.2378 2.10839 31.1441 3.15493C32.0634 4.2058 30.1384 5.58312 31.9463 4.78502C33.7566 3.9949 33.9982 2.23118 36.0157 3.0892C38.0432 3.95807 37.8581 4.98653 38.424 4.88471C38.9877 4.78429 40.8109 5.94134 39.7081 6.89328C38.5953 7.84806 37.5751 6.63181 35.9071 6.26493C34.2384 5.90235 34.2789 7.19157 33.5111 7.48625C32.7303 7.77081 28.9637 6.05187 28.0391 7.6054C27.1046 9.14665 26.7069 10.2221 28.0942 10.1824C29.4799 10.1455 29.5694 9.80682 29.4608 10.7746C29.3499 11.7431 29.6023 12.4683 30.8581 11.5575C32.11 10.6482 31.8294 9.76128 32.8083 10.1946C33.7879 10.6294 33.9034 10.2358 34.9451 9.5215C35.9859 8.8072 37.3557 8.73282 37.7144 10.3355C38.0738 11.9389 37.4597 12.2985 35.6288 12.3794C33.7971 12.4632 33.5899 11.9179 33.0063 13.3638C32.4259 14.8105 30.0031 16.6681 27.8762 17.4337C25.7532 18.2007 24.9211 19.3339 24.9701 20.8629C25.0205 22.3948 24.2221 24.0104 23.6891 22.748C23.1537 21.4819 21.6532 19.3498 20.1221 20.7748C18.588 22.2027 15.9181 24.7269 18.8686 25.1884C21.8131 25.6586 20.2766 23.0535 21.7649 23.5742C23.2508 24.0985 20.8234 25.2469 21.8169 25.6615C22.8118 26.0797 23.2287 25.8839 23.221 27.1645C23.2134 28.4443 23.5506 29.6873 24.7582 29.1441C25.965 28.6032 27.5152 26.0941 29.2612 27.5783C31.0095 29.0661 30.8856 28.8726 31.8026 28.4392C32.7188 28.0066 33.3023 29.3038 33.6778 29.8946C34.0533 30.4846 35.5263 29.8823 36.7202 31.6402C37.9132 33.3981 38.3812 33.7116 39.7418 33.0789C41.103 32.447 41.6568 32.9164 42.0116 33.8041C42.3649 34.6917 43.2031 33.8243 43.607 34.9972C44.0084 36.1695 43.8156 35.9875 43.2268 36.7769Z" fill="white"/>
<path d="M47.8857 15.4883C46.9213 13.5339 51.6997 13.7535 52.544 13.9037C53.3936 14.0373 55.3866 12.5661 55.6398 11.8822C55.8998 11.1931 56.3266 11.5203 57.8385 11.5008C59.3498 11.4857 58.0144 11.1628 56.351 10.645C54.6907 10.1286 56.1101 10.0765 54.5798 8.93541C53.9214 8.4356 54.1286 8.01093 54.5676 7.69531C58.0565 10.3604 60.8441 13.8105 62.6291 17.762C62.5786 17.7475 62.5312 17.7396 62.4869 17.7388C61.4284 17.7331 61.1952 15.523 60.6499 15.0926C60.1122 14.6628 60.6651 16.3066 60.7967 16.9819C60.929 17.658 60.5069 17.0896 59.9792 17.7099C59.4492 18.3311 58.4924 18.3426 58.406 17.4109C58.318 16.4814 57.6244 15.5685 56.2164 15.1438C54.8085 14.7191 53.5902 15.068 52.4461 15.4847C51.3081 15.8942 48.857 17.4276 47.8857 15.4883Z" fill="white"/>
<path d="M59.8832 42.899C59.9788 42.228 60.1348 41.5347 59.838 41.2812C59.1169 40.6492 58.9593 38.9274 59.2094 38.0549C59.4587 37.1802 61.402 37.2301 60.0835 35.7777C58.7612 34.3209 57.5698 32.5918 58.1249 31.6031C58.6802 30.6158 58.5119 30.5436 57.4711 30.5493C56.4287 30.5551 55.9721 30.5984 54.9343 29.7231C53.8957 28.8362 52.4671 31.8161 48.5584 29.4263C44.6503 27.0125 46.8759 22.9441 48.3404 22.934C49.8141 22.9109 51.5357 22.2082 50.3281 20.5109C49.1243 18.8071 51.0056 18.5666 51.9249 18.9537C52.8457 19.3365 54.4785 18.308 56.1426 17.8443C57.8106 17.3828 57.7372 19.9489 58.6634 20.4625C59.5949 20.9767 61.3401 20.5686 62.2471 19.7467C62.8949 19.1603 63.0364 19.8442 63.6765 20.4935C64.4306 22.8683 64.8351 25.3853 64.8351 27.9918C64.8351 33.5344 63.005 38.6738 59.8832 42.899Z" fill="white"/>
<path d="M52.8905 12.2384C52.8914 12.2368 54.1092 11.7176 53.6678 10.8811C53.2304 10.0444 52.5367 7.48023 52.0298 8.28826C51.5197 9.09994 52.2717 10.676 52.1075 11.356C51.9418 12.0381 51.9374 12.3951 52.8905 12.2384Z" fill="white"/>
<path d="M51.6756 11.448C51.6584 11.1784 51.8381 10.0837 50.9259 10.118C50.9276 10.1162 49.6064 10.6369 50.3793 11.5214C51.1557 12.4033 51.6953 11.7169 51.6756 11.448Z" fill="white"/>
</g>
<mask id="mask1_3738_33325" style="mask-type:luminance" maskUnits="userSpaceOnUse" x="9" y="2" width="56" height="52">
<path d="M37.2108 53.7234C52.2756 53.7234 64.488 42.1902 64.488 27.9633C64.488 13.7363 52.2756 2.20312 37.2108 2.20312C22.146 2.20312 9.93359 13.7363 9.93359 27.9633C9.93359 42.1902 22.146 53.7234 37.2108 53.7234Z" fill="white"/>
</mask>
<g mask="url(#mask1_3738_33325)">
<path opacity="0.3" d="M64.7494 27.9372C64.7494 33.4573 62.9503 38.578 59.8377 42.793C59.8255 42.8103 59.8183 42.827 59.8183 42.8443V42.845C54.8305 49.6031 46.529 53.9608 37.1413 53.9608C36.3735 53.9608 35.6013 53.9056 34.8496 53.8074C34.8488 53.8074 34.8488 53.8074 34.8488 53.8074C34.8458 53.8074 34.8442 53.872 34.8412 53.872C34.471 53.8431 34.104 53.8396 33.7384 53.797C33.6084 53.7825 33.4784 53.7829 33.3491 53.7656C33.2344 53.7512 33.1204 53.7441 33.0065 53.7275C32.9071 53.7138 32.8084 53.7038 32.7105 53.6886C32.6883 53.685 32.6661 53.6833 32.644 53.6804C32.403 53.6428 32.1629 53.604 31.9235 53.5607C31.922 53.5607 31.9213 53.5604 31.9197 53.5604C20.1169 51.4313 10.9824 42.203 9.67383 30.7648C12.4416 38.2624 19.2856 43.8959 27.6997 45.466H27.7027C27.9093 45.5641 28.1165 45.5444 28.3245 45.5769C28.3436 45.579 28.3635 45.5854 28.3826 45.5882C28.4668 45.6012 28.5524 45.6145 28.6381 45.6261C28.7359 45.6405 28.8346 45.6522 28.934 45.6645C29.0457 45.6797 29.1573 45.6887 29.2698 45.701C29.5856 45.7378 29.9022 45.8058 30.2219 45.8303C30.225 45.8303 30.2265 45.8586 30.2288 45.8586C30.2288 45.8586 30.2288 45.8586 30.2296 45.8586C30.8789 45.8586 31.5259 45.9079 32.1889 45.9079C36.2423 45.9079 40.0623 44.9347 43.4044 43.2555C46.7465 41.5763 49.6106 39.1552 51.752 36.2373C51.752 36.2222 51.778 36.2019 51.7879 36.1867C54.4761 32.5473 56.0492 28.1221 56.0492 23.3553C56.0492 21.1048 55.6994 18.9293 55.0478 16.8789C55.047 16.8753 55.0383 16.8709 55.0383 16.8673V16.8666C54.8305 16.0649 54.4956 15.2813 54.1515 14.5193C52.6097 11.1067 50.2089 8.12746 47.1956 5.82639C44.99 4.1414 42.4604 2.82114 39.708 1.96094C45.2832 2.44558 50.3791 4.49602 54.4974 7.64138C57.9863 10.3065 60.8086 13.7566 62.5937 17.708C62.9929 18.5906 63.2475 19.4977 63.6631 20.4266V20.4273C63.6631 20.4316 63.6308 20.4345 63.6323 20.4388C64.3864 22.8135 64.7494 25.3306 64.7494 27.9372Z" fill="url(#paint1_linear_3738_33325)"/>
</g>
<path d="M47.5502 54.8025C47.5971 55.4542 47.7832 56.3983 47.9563 57.4725L37.207 53.9833C39.8923 51.6495 43.1149 49.3938 43.4783 43.2539C43.6488 40.3726 42.9538 34.8238 45.6598 32.6623C48.7427 30.1996 50.733 32.8756 52.7447 30.7869C55.8888 27.5223 60.7397 26.5444 63.384 30.2093C65.9938 33.8264 62.1751 40.5589 53.3585 45.6717C47.4734 50.0163 47.3049 51.3997 47.5502 54.8025Z" fill="url(#paint2_linear_3738_33325)"/>
<mask id="mask2_3738_33325" style="mask-type:luminance" maskUnits="userSpaceOnUse" x="37" y="27" width="28" height="31">
<path d="M47.5502 54.7713C47.5971 55.4229 47.7832 56.3671 47.9563 57.4413L37.207 53.952C39.8923 51.6182 43.1149 49.3625 43.4783 43.2227C43.6488 40.3413 42.9538 34.7926 45.6598 32.631C48.7427 30.1684 50.733 32.8444 52.7447 30.7556C55.8888 27.491 60.7397 26.5131 63.384 30.178C65.9938 33.7951 62.1751 40.5276 53.3585 45.6405C47.4734 49.9851 47.3049 51.3684 47.5502 54.7713Z" fill="white"/>
</mask>
<g mask="url(#mask2_3738_33325)">
<path d="M42.6129 55.0483C43.2162 53.7724 43.8536 52.5979 44.5285 51.3544L44.7535 50.9398C45.1175 50.3599 45.4598 49.7788 45.7908 49.2168C46.5382 47.9479 47.2442 46.7493 48.1801 45.5674C48.2257 45.494 48.2661 45.4208 48.3088 45.3432C48.4615 45.0663 48.6194 44.7799 48.9395 44.5882L48.9496 44.5788C53.3635 38.0673 59.2736 32.3067 66.5158 27.457L66.4776 27.4062C59.2308 32.2591 53.3161 38.0236 48.898 44.5394C48.567 44.7401 48.3988 45.0452 48.2503 45.3145C48.208 45.3913 48.1679 45.464 48.1252 45.5331C47.1887 46.7155 46.4817 47.9158 45.7331 49.1866C45.4024 49.7482 45.0603 50.3289 44.6957 50.9097L44.4698 51.326C43.7945 52.5703 43.1567 53.7455 42.5527 55.023L42.6129 55.0483Z" fill="#FCFDFE"/>
<path d="M45.9858 49.0048C47.8123 45.7987 48.0976 41.0755 48.0154 37.6777C47.9263 33.9981 47.3989 31.0373 47.3936 31.0078L47.3286 31.0183C47.3339 31.0477 47.8605 34.0048 47.9495 37.6801C48.0315 41.0701 47.7473 45.7814 45.9277 48.9753L45.9858 49.0048Z" fill="#FCFDFE"/>
<path d="M55.9449 36.0631C58.0839 32.763 59.5194 28.8318 59.9911 27.54C60.0814 27.2929 60.141 27.1297 60.1581 27.1006L60.1005 27.0703C60.0813 27.1028 60.034 27.2316 59.9288 27.5197C59.4576 28.8099 58.0239 32.7363 55.8887 36.0306L55.9449 36.0631Z" fill="#FCFDFE"/>
<path d="M51.653 40.9179C54.4886 38.5568 62.3262 39.0479 62.405 39.0531L62.4096 38.991C62.3305 38.9857 54.4654 38.4931 51.6094 40.8712L51.653 40.9179Z" fill="#FCFDFE"/>
</g>
<path d="M55.2195 46.6209C53.6854 50.6804 52.0925 48.6617 50.0266 48.4408C46.7095 50.7488 45.4787 53.4895 47.9036 56.9886L51.7787 57.6641C53.1681 58.048 54.9163 58.1742 55.4516 56.4252C56.0571 54.447 56.0197 53.0537 58.6918 52.8531C61.3639 52.6525 62.9967 51.2338 62.7769 48.9459C62.5456 46.5382 65.8925 44.4804 64.7032 42.5315C62.631 39.1356 56.8169 42.3937 55.2195 46.6209Z" fill="url(#paint3_linear_3738_33325)"/>
<mask id="mask3_3738_33325" style="mask-type:luminance" maskUnits="userSpaceOnUse" x="46" y="41" width="19" height="17">
<path d="M55.2195 46.6053C53.6854 50.6648 52.0925 48.646 50.0266 48.4252C46.7095 50.7332 45.4787 53.4739 47.9036 56.973L51.7787 57.6485C53.1681 58.0324 54.9163 58.1586 55.4516 56.4095C56.0571 54.4314 56.0197 53.0381 58.6918 52.8375C61.3639 52.6368 62.9967 51.2182 62.7769 48.9303C62.5456 46.5226 65.8925 44.4648 64.7032 42.5159C62.631 39.12 56.8169 42.3781 55.2195 46.6053Z" fill="white"/>
</mask>
<g mask="url(#mask3_3738_33325)">
<path d="M51.6532 53.6307C53.7706 52.5404 55.7467 51.2065 57.5268 49.6661C59.3222 48.1123 60.8942 46.3691 62.199 44.4847C62.9472 43.4042 63.6101 42.2711 64.1694 41.1169L64.1158 41.0938C63.5577 42.2454 62.8962 43.3761 62.1496 44.4543C60.8476 46.3348 59.2788 48.0745 57.487 49.625C55.7104 51.1624 53.7381 52.4936 51.625 53.5818L51.6532 53.6307Z" fill="#FCFDFE"/>
<path d="M54.8061 57.1535L54.8485 57.1148C54.2838 56.5633 53.5698 56.0444 52.7263 55.5725C52.3244 55.3476 51.9148 55.1524 51.5091 54.9922L51.4863 55.0436C51.8896 55.2027 52.2967 55.3968 52.6962 55.6204C53.5352 56.0897 54.2451 56.6056 54.8061 57.1535Z" fill="#FCFDFE"/>
<path d="M56.3883 50.5848C58.9242 49.464 62.9176 50.9379 62.9575 50.9531L62.9792 50.9013C62.9388 50.8863 58.9224 49.4032 56.3633 50.5344L56.3883 50.5848Z" fill="#FCFDFE"/>
<path d="M60.3832 46.8134C61.9623 44.2246 60.9277 40.3049 60.9171 40.2656L60.8599 40.2794C60.8705 40.3185 61.8991 44.2167 60.332 46.7856L60.3832 46.8134Z" fill="#FCFDFE"/>
</g>
<path d="M64.7066 57.7158L3.97656 57.2891V58.5518C3.97656 58.8946 4.24145 59.186 4.60018 59.2379L21.7728 61.7245C21.9766 61.7541 22.1833 61.7619 22.3889 61.7479L64.0466 58.9128C64.4185 58.8875 64.7066 58.5951 64.7066 58.243L64.7066 57.7158Z" fill="#BFC8D6"/>
<path d="M42.6654 55.6269L4.60211 57.9369C3.92098 57.9782 3.36719 57.539 3.36719 56.9557V33.5874C3.36719 33.0041 3.92098 32.5312 4.60211 32.5312H42.6654C43.2266 32.5312 43.6803 32.9587 43.6803 33.486V54.6105C43.6803 55.1378 43.2266 55.5928 42.6654 55.6269Z" fill="#BFC8D6"/>
<path d="M43.2689 55.6269L5.20562 57.9369C4.5245 57.9782 3.9707 57.539 3.9707 56.9557V33.5874C3.9707 33.0041 4.5245 32.5312 5.20562 32.5312H43.2689C43.8301 32.5312 44.2838 32.9587 44.2838 33.486V54.6105C44.2838 55.1378 43.8301 55.5928 43.2689 55.6269Z" fill="#D8DEE8"/>
<path d="M42.0895 54.1401L6.63752 56.1467C6.08324 56.1781 5.63281 55.8176 5.63281 55.3414V34.8824C5.63281 34.4062 6.08324 34.0186 6.63752 34.0166L42.0895 33.8906C42.5524 33.889 42.9269 34.2392 42.9269 34.6729V53.3075C42.9269 53.7412 42.5524 54.114 42.0895 54.1401Z" fill="#EFF2F6"/>
<path d="M25.5875 33.1663C25.5875 33.3835 25.3916 33.56 25.1497 33.5606C24.9075 33.5613 24.7109 33.3854 24.7109 33.1678C24.7109 32.9501 24.9075 32.7736 25.1497 32.7734C25.3916 32.7733 25.5875 32.9492 25.5875 33.1663Z" fill="white"/>
<path opacity="0.48" d="M34.2525 49.2292C31.3031 47.8723 28.984 49.5916 26.746 47.8953C25.3891 46.8669 26.0553 46.1 24.3856 44.5632C22.5364 42.861 21.3325 43.4332 19.4741 41.9013C17.1243 39.9642 18.2995 38.4571 16.2754 37.0664C13.8199 35.3792 11.1718 36.9408 8.83427 35.3227C7.82611 34.6249 7.27292 33.6103 6.98406 32.5312H4.69694C4.29616 32.5312 3.9707 32.809 3.9707 33.1516V57.3915C3.9707 57.7341 4.29616 57.9921 4.69694 57.9678L43.6883 55.6014C43.8797 55.5898 44.0493 55.4943 44.1582 55.3558C41.304 55.2668 39.5504 54.4487 38.4295 53.603C36.2367 51.9485 36.6171 50.3169 34.2525 49.2292Z" fill="white"/>
<path d="M44.7919 55.5536L3.97656 57.9852L21.7728 60.5621C21.9766 60.5916 22.1833 60.5994 22.3889 60.5854L64.7066 57.7054L45.4411 55.5702C45.2257 55.5463 45.0084 55.5408 44.7919 55.5536Z" fill="white"/>
<path opacity="0.47" d="M9.93359 58.0154L43.9136 55.9609L54.4301 57.1171L20.7428 59.3133L9.93359 58.0154Z" fill="#D8DEE8"/>
<mask id="mask4_3738_33325" style="mask-type:luminance" maskUnits="userSpaceOnUse" x="0" y="7" width="56" height="50">
<path d="M42.0939 54.1266L6.64187 56.1332C6.08759 56.1646 5.63716 55.8041 5.63716 55.3279L0.375 50.207C0.375 49.7309 1.65804 15.2135 2.96209 7.99869L41.4134 7.92969C41.1265 15.1409 56.0247 25.8353 55.09 45.3901L42.9312 53.294C42.9312 53.7277 42.5568 54.1004 42.0939 54.1266Z" fill="white"/>
</mask>
<g mask="url(#mask4_3738_33325)">
<path d="M14.9253 58.548C14.5259 58.0123 13.8215 56.9031 13.2802 55.4594C11.816 51.5549 12.6114 48.0511 12.8086 47.0585C13.4507 43.827 13.5657 37.9596 11.5717 26.4647C11.4625 25.8349 11.8894 25.2331 12.5484 25.0916C16.4314 24.2581 21.8724 23.5451 28.302 24.1063C33.6887 24.5764 38.1346 25.7983 41.3892 26.9581C41.4744 32.5828 40.9918 37.0441 40.5423 40.0539C39.8221 44.8775 39.1207 46.4172 39.0386 50.5415C38.915 56.7482 40.4166 57.6227 39.2721 59.5477C35.9828 65.0803 19.5123 64.6995 14.9253 58.548Z" fill="url(#paint4_linear_3738_33325)"/>
<path d="M25.9282 17.5156C25.7331 19.2655 25.5379 21.0153 25.3427 22.7651C25.2899 23.2392 24.8874 23.6107 24.3844 23.6499C22.393 23.8048 20.4015 23.9599 18.4102 24.1149L29.454 27.3125L34.5167 25.0325C32.972 24.5804 31.4273 24.1284 29.8825 23.6763C29.4857 23.5602 29.1987 23.2341 29.1502 22.8445C29.0158 21.7639 28.8814 20.6834 28.747 19.6029L25.9282 17.5156Z" fill="url(#paint5_linear_3738_33325)"/>
<path d="M24.8495 16.6905C26.0669 19.3288 29.1133 21.5124 30.6875 20.8646C32.2616 20.2168 32.0941 16.9348 30.8767 14.2964C29.6593 11.6581 27.3278 10.652 25.7536 11.2998C24.1795 11.9477 23.6321 14.0521 24.8495 16.6905Z" fill="url(#paint6_linear_3738_33325)"/>
<path d="M26.8949 16.456C26.7413 16.5646 26.1418 15.7883 25.8095 15.9269C25.5291 16.0439 25.4532 16.806 25.7931 17.3287C26.0824 17.7736 26.4676 17.7291 26.5797 18.0762C26.7643 18.6468 25.9596 19.4991 25.6585 19.3988C25.4653 19.3344 25.6256 18.9269 25.4379 18.4614C25.0689 17.5465 23.8575 17.6518 22.8684 16.9519C21.313 15.8514 20.8894 13.1715 21.8167 12.1682C22.1692 11.7869 22.5644 11.8126 23.0434 11.1986C23.5621 10.5338 23.3356 10.2001 23.7346 9.77271C24.4116 9.0475 25.8978 9.11508 26.837 9.38309C28.0186 9.7203 28.1043 10.3091 28.8951 10.2657C29.8317 10.2143 29.9668 9.37443 31.0836 9.22006C31.1479 9.21115 32.1904 9.08233 32.9756 9.72271C33.9952 10.5543 33.7455 12.002 33.7101 12.2072C33.4839 13.519 32.3503 14.7019 31.0963 14.9681C30.8323 15.0241 30.8858 14.971 28.2299 14.9104C27.3524 14.8904 26.822 14.8844 26.6455 15.1759C26.3906 15.5967 27.0494 16.3466 26.8949 16.456Z" fill="url(#paint7_linear_3738_33325)"/>
<path opacity="0.3" d="M12.8109 35.0859C14.2204 35.6899 14.9801 36.4551 15.415 37.1605C17.0733 39.8505 14.5225 42.4875 16.354 45.8507C17.6145 48.1653 19.2852 47.7659 20.1099 49.9298C21.1679 52.7058 18.8655 54.5362 18.9831 57.3785C19.0425 58.8117 19.7218 60.602 22.0253 62.6478C19.0019 61.8601 16.3738 60.4948 14.9276 58.5552C14.5281 58.0195 13.8238 56.9103 13.2824 55.4666C11.8182 51.5621 12.6136 48.0584 12.8108 47.0658C13.2677 44.7664 13.4576 41.1321 12.8109 35.0859Z" fill="url(#paint8_linear_3738_33325)"/>
<path d="M13.761 24.8511C11.8015 24.4177 9.32719 26.3721 8.41464 27.0876C2.35691 31.8371 -2.10921 43.96 3.64373 49.0147C8.17451 52.9957 18.7663 52.3488 26.2261 44.6594C25.7225 43.8333 25.2189 43.0073 24.7153 42.1813C17.8619 45.1155 13.1263 42.8636 12.4177 42.0103C11.1911 40.5332 17.8158 39.4514 17.6384 33.6207C17.5358 30.2464 16.5604 25.4703 13.761 24.8511Z" fill="url(#paint9_linear_3738_33325)"/>
<path d="M41.3902 26.9531C41.3902 26.9531 51.9086 36.2936 51.1134 43.2125C50.3183 50.1315 41.8423 46.7408 38.7328 43.6705C35.6234 40.6001 41.3902 26.9531 41.3902 26.9531Z" fill="url(#paint10_linear_3738_33325)"/>
<path d="M25.3496 43.219C25.3496 43.219 22.8066 40.7191 22.8066 39.3835C22.8066 38.048 23.8141 36.3203 23.8141 36.3203C23.8141 36.3203 24.9992 40.722 26.0006 41.6411C27.0021 42.5602 26.0006 44.2869 26.0006 44.2869L25.3496 43.219Z" fill="url(#paint11_linear_3738_33325)"/>
<path d="M47.2557 33.7797C47.2557 33.7797 47.8001 30.3515 46.9824 29.2618C46.1648 28.1721 44.2852 27.3125 44.2852 27.3125C44.2852 27.3125 46.0129 31.551 45.7585 32.8477C45.5041 34.1444 47.3782 35.0065 47.3782 35.0065L47.2557 33.7797Z" fill="url(#paint12_linear_3738_33325)"/>
<path d="M43.6566 33.6206C43.6566 38.9807 39.2184 43.1973 33.546 43.0328C27.6426 42.8616 22.6777 38.0467 22.6777 32.2849C22.6777 26.5231 27.6426 22.3405 33.546 22.921C39.2184 23.4788 43.6566 28.2605 43.6566 33.6206Z" fill="url(#paint13_linear_3738_33325)"/>
<path d="M45.1898 33.1597C45.1898 38.5198 40.7516 42.7364 35.0792 42.5719C29.1759 42.4007 24.2109 37.5858 24.2109 31.824C24.2109 26.0622 29.1758 21.8796 35.0792 22.4601C40.7517 23.0179 45.1898 27.7996 45.1898 33.1597Z" fill="url(#paint14_linear_3738_33325)"/>
<path d="M44.7455 33.1301C44.7455 38.2542 40.499 42.2782 35.0801 42.1126C29.4509 41.9404 24.7246 37.3454 24.7246 31.8554C24.7246 26.3654 29.4509 22.3722 35.0801 22.9169C40.499 23.4412 44.7455 28.006 44.7455 33.1301Z" fill="url(#paint15_linear_3738_33325)"/>
<path opacity="0.53" d="M44.2778 33.1019C44.2778 37.6015 40.8351 41.206 36.2555 41.6099C35.8707 41.6441 35.4766 41.6555 35.0771 41.6428C29.728 41.4731 25.2422 37.1039 25.2422 31.8902C25.2422 27.3564 28.634 23.8937 33.0366 23.4037C33.6962 23.3303 34.3799 23.3227 35.0771 23.3898C40.2318 23.8823 44.2778 28.2237 44.2778 33.1019Z" fill="white"/>
<path d="M36.2555 41.6124C35.8707 41.6466 35.4766 41.658 35.0771 41.6453C29.728 41.4757 25.2422 37.1064 25.2422 31.8927C25.2422 27.3589 28.634 23.8962 33.0366 23.4062C34.5234 24.5027 35.8546 25.9055 36.0839 27.5678C36.4579 30.2772 33.5917 31.5243 33.2753 34.4692C33.0152 36.8988 34.2472 39.6056 36.2555 41.6124Z" fill="url(#paint16_linear_3738_33325)"/>
<path d="M38.2153 39.0696C37.7471 39.0081 36.2654 38.6545 36.2826 36.6699L36.3331 30.8272C36.3337 30.753 36.3291 30.7146 36.2467 30.7109L31.2139 30.4846C31.1293 30.4809 31.0597 30.5164 31.058 30.5917L31.0508 30.9035C31.0492 30.9754 31.1102 31.0375 31.1906 31.0459C31.6719 31.0966 33.1976 31.3294 33.1667 32.249C33.1298 33.3455 33.07 37.8677 33.07 37.8677C33.07 37.8677 33.0337 38.8587 31.2586 38.8502C31.1732 38.8497 31.119 38.9119 31.1173 38.9895L31.1085 39.3845C31.1067 39.4634 31.1443 39.5282 31.231 39.53L38.2048 39.6724C38.2882 39.6741 38.4001 39.6136 38.4003 39.5362L38.4013 39.2124C38.4014 39.1415 38.2913 39.0796 38.2153 39.0696Z" fill="#F4F7FA"/>
<path d="M34.5115 29.3509C35.7499 29.4109 36.7545 28.5661 36.7628 27.4704C36.771 26.3812 35.7907 25.4444 34.5659 25.3717C33.3328 25.2985 32.3094 26.1271 32.2875 27.2289C32.2654 28.3375 33.2646 29.2905 34.5115 29.3509Z" fill="#F4F7FA"/>
</g>
<mask id="mask5_3738_33325" style="mask-type:luminance" maskUnits="userSpaceOnUse" x="0" y="7" width="56" height="50">
<path d="M42.0939 54.1266L6.64187 56.1332C6.08759 56.1646 5.63716 55.8041 5.63716 55.3279L0.375 50.207C0.375 49.7309 1.65804 15.2135 2.96209 7.99869L41.4134 7.92969C41.1265 15.1409 56.0247 25.8353 55.09 45.3901L42.9312 53.294C42.9312 53.7277 42.5568 54.1004 42.0939 54.1266Z" fill="white"/>
</mask>
<g mask="url(#mask5_3738_33325)">
<path d="M29.1021 20.1634C27.1412 20.1634 26.4026 17.5099 26.3949 17.4809C26.3763 17.4119 26.4204 17.3418 26.4935 17.3243C26.5663 17.3068 26.6408 17.3484 26.6594 17.4173C26.6672 17.4462 27.4622 20.2986 29.536 19.8583C29.6096 19.843 29.6826 19.8864 29.699 19.9559C29.7156 20.0253 29.6693 20.0943 29.5958 20.1099C29.4233 20.1464 29.2587 20.1634 29.1021 20.1634Z" fill="white"/>
<path d="M30.831 19.7393C30.8847 19.9345 30.6227 20.1678 30.2458 20.2603C29.8689 20.3529 29.5197 20.2697 29.466 20.0745C29.4122 19.8793 29.6742 19.646 30.0512 19.5534C30.4281 19.4609 30.7772 19.5441 30.831 19.7393Z" fill="white"/>
<path d="M26.9203 16.8905C27.0669 17.4229 26.9003 17.9246 26.5481 18.0111C26.1959 18.0976 25.7916 17.7361 25.645 17.2037C25.4984 16.6713 25.6651 16.1696 26.0172 16.0831C26.3694 15.9966 26.7737 16.3581 26.9203 16.8905Z" fill="white"/>
</g>
<path d="M45.9691 36.6103C46.0372 36.5108 46.1614 36.299 46.1694 36.0146C46.1848 35.462 45.7502 35.031 45.6918 35.0557C45.6604 35.069 45.7003 35.231 45.7226 35.3027C45.7692 35.4521 45.8193 35.4666 45.8151 35.5352C45.8065 35.6764 45.5902 35.6819 45.4762 35.8694C45.3941 36.0044 45.3875 36.1966 45.4762 36.3488C45.6233 36.6013 45.9551 36.6102 45.9691 36.6103Z" fill="url(#paint17_linear_3738_33325)"/>
<path d="M55.241 48.6125L55.0742 48.0703L55.7707 47.583L56.2048 47.4297L55.9478 48.1882L55.241 48.6125Z" fill="url(#paint18_linear_3738_33325)"/>
<path d="M54.3789 59.5362C54.3789 59.5362 54.7599 60.4412 54.6596 60.8426C55.0686 60.8351 55.3332 60.7858 55.3332 60.7858C55.3332 60.7858 55.1688 60.3731 55.1367 60.1686C55.0934 59.8923 55.0966 59.4453 55.0966 59.4453L54.3789 59.5362Z" fill="url(#paint19_linear_3738_33325)"/>
<path d="M50.1765 61.6451C50.2011 61.6732 50.2449 61.7319 50.2485 61.8114C50.2505 61.8545 50.24 61.8901 50.2269 61.9228C50.1619 62.0842 50.0599 62.1055 49.9498 62.2768C49.8826 62.3814 49.8953 62.413 49.8337 62.4602C49.7524 62.5225 49.6542 62.526 49.569 62.5269C49.4251 62.5285 49.2179 62.5236 48.957 62.4943C49.0937 62.3279 49.2391 62.1589 49.3937 61.9882C49.4616 61.9133 49.5293 61.8402 49.5968 61.7689L49.9987 61.6406C50.058 61.6421 50.1173 61.6436 50.1765 61.6451Z" fill="#26264F"/>
<path d="M49.8454 59.8047C49.8454 59.8047 49.6157 60.9368 49.908 61.2539C50.1571 61.5709 49.7877 61.3447 49.7877 61.3447L49.3467 61.7083L49.082 62.14C49.082 62.14 49.3256 61.0319 49.2606 60.5921C49.1957 60.1524 49.1632 59.8558 49.1632 59.8558L49.8454 59.8047Z" fill="url(#paint20_linear_3738_33325)"/>
<path d="M48.9805 47.4105C48.9805 47.4105 48.3633 47.932 48.3633 50.0796C48.3633 52.2271 48.6557 56.8903 48.6557 56.8903L49.1235 60.229C49.1235 60.229 49.6086 60.2453 49.9335 60.1532C50.2259 58.8954 50.7023 56.7676 50.4749 54.9882C50.3774 53.0554 51.287 50.6318 51.287 50.6318C51.287 50.6318 52.0667 53.0861 52.619 54.3133C53.1712 55.5404 54.2227 59.3848 54.3201 59.661C54.9663 59.7163 55.2423 59.5549 55.2423 59.5549C55.2423 59.5549 54.828 55.4177 54.4382 53.8531C54.0483 52.2884 54.0808 48.5149 53.4311 47.4411C51.9692 46.8889 48.9805 47.4105 48.9805 47.4105Z" fill="url(#paint21_linear_3738_33325)"/>
<path d="M48.9805 47.4105C48.9805 47.4105 48.3633 47.932 48.3633 50.0796C48.3633 52.2271 48.6557 56.8904 48.6557 56.8904L49.1235 60.229C49.1235 60.229 49.6086 60.2453 49.9335 60.1533C50.2259 58.8954 50.7023 56.7676 50.4749 54.9882C50.3774 53.0554 51.287 50.6318 51.287 50.6318C51.287 50.6318 52.0667 53.0861 52.619 54.3133C53.1712 55.5404 54.2227 59.3849 54.3201 59.661C54.9663 59.7163 55.2423 59.5549 55.2423 59.5549C55.2423 59.5549 54.828 55.4177 54.4382 53.8531C54.0483 52.2884 54.0808 48.5149 53.4311 47.4411C51.9692 46.8889 48.9805 47.4105 48.9805 47.4105Z" fill="url(#paint22_linear_3738_33325)"/>
<path opacity="0.25" d="M52.187 51.3454C52.3794 52.5268 52.7643 53.163 53.7267 53.9809C54.4965 54.5262 53.9192 55.7077 54.2079 56.6165C54.3041 56.8891 54.5928 57.1617 54.689 57.4344C55.0471 58.1108 54.7126 58.9381 54.875 59.6543C55.1277 59.6213 55.2423 59.555 55.2423 59.555C55.2423 59.555 54.828 55.4177 54.4382 53.8531C54.0483 52.2885 54.0808 48.5149 53.4311 47.4411C51.9692 46.8889 48.9805 47.4105 48.9805 47.4105C48.9805 47.4105 48.3633 47.932 48.3633 50.0796C48.3633 50.2538 48.3652 50.4448 48.3688 50.6484C49.0096 51.1839 50.3201 51.3029 51.1284 50.7092C51.1772 50.6746 51.2292 50.6535 51.2828 50.6432C51.2853 50.6364 51.287 50.6318 51.287 50.6318C51.287 50.6318 51.2884 50.636 51.2904 50.6424C51.6583 50.579 52.1035 51.0301 52.187 51.3454Z" fill="url(#paint23_linear_3738_33325)"/>
<path d="M54.5602 61.1797C54.5602 61.1797 54.4652 61.1797 54.4731 61.2955C54.4811 61.4113 54.4304 61.8097 54.913 61.8284C55.3956 61.847 55.47 61.7961 55.4858 61.7961C55.5016 61.7961 55.3592 61.415 55.3592 61.415L55.2049 61.2283L54.7896 61.1872L54.5602 61.1797Z" fill="#26264F"/>
<path d="M55.6276 61.5863C55.6173 61.4901 55.5603 61.3387 55.5029 61.2168C55.4177 61.0358 55.4877 60.968 55.4062 60.8031C55.3781 60.7461 55.3507 60.692 55.2912 60.6385C55.2775 60.6261 55.1444 60.5099 54.9505 60.5158C54.9123 60.517 54.8535 60.5194 54.79 60.5514C54.7152 60.589 54.6777 60.6456 54.6457 60.6953C54.5954 60.7733 54.6069 60.7973 54.5294 61.0209C54.5232 61.0389 54.5095 61.0779 54.499 61.1318C54.491 61.173 54.4878 61.2076 54.4863 61.2312C54.6129 61.2312 55.0995 61.2499 55.2023 61.3209C55.3052 61.3919 55.3566 61.5114 55.3566 61.631C55.3566 61.7505 55.4199 61.8066 55.4832 61.8028C55.5397 61.7995 55.6521 61.7006 55.6276 61.5863Z" fill="#444B8C"/>
<path d="M49.7846 61.1016C49.8933 61.1032 49.973 61.1849 50.0332 61.3818C50.0933 61.5787 50.382 61.7529 50.0452 61.7112C49.7084 61.6696 49.4638 62.1202 49.3435 62.2868C49.2232 62.4534 48.9003 62.6015 48.9084 62.4386C48.9164 62.2758 49.0588 62.1997 49.0989 62.0331C49.139 61.8665 49.5366 61.0979 49.7846 61.1016Z" fill="#444B8C"/>
<path d="M55.4966 47.6772C55.5766 47.4674 56.0754 46.0888 55.2692 44.8317C54.6091 43.8025 53.4671 43.4667 53.3042 43.4213C52.3129 43.1449 51.8161 43.5 51.5033 43.1731C50.9726 42.6184 51.5738 40.729 52.7367 40.3505C54.0476 39.9239 55.6202 41.5643 56.2575 42.6418C57.0935 44.0553 56.8877 45.4602 56.8394 45.7496C56.7137 46.5015 56.4214 47.075 56.2048 47.4272C55.9687 47.5105 55.7327 47.5939 55.4966 47.6772Z" fill="white"/>
<path d="M52.0736 40.0863C50.9034 40.0421 50.001 40.0596 49.4913 40.5406C48.9529 41.0488 49.497 41.6224 49.3801 42.9516C49.2011 44.9865 47.828 45.4837 47.7247 47.5481C47.6899 48.2437 47.8146 48.8122 47.9114 49.1546C48.2127 49.509 48.7059 50.0091 49.4338 50.4274C50.493 51.036 51.1073 50.9298 52.6285 51.323C55.1167 51.9661 55.3381 52.732 56.5719 52.5369C57.8188 52.3397 58.9129 51.3487 58.7807 50.8045C58.7015 50.4786 58.1989 50.5709 57.6202 50.0738C56.8743 49.4332 57.1619 48.8216 56.5948 48.1332C55.7802 47.1444 54.6454 47.7488 53.9512 46.8918C53.2491 46.0249 53.5276 44.3166 54.1195 43.3854C54.5061 42.7772 54.6716 42.0644 55.0006 41.4267C55.028 41.3737 55.0597 41.2868 55.0457 41.1782C54.9923 40.7629 54.2592 40.5376 53.704 40.3723C52.8571 40.1203 52.1698 40.0899 52.0736 40.0863Z" fill="white"/>
<path d="M51.0879 40.0436L51.3187 39.9766C51.3187 39.9766 51.379 40.2716 52.1211 40.3085C52.5329 40.3085 52.7992 40.0906 52.7992 40.0906L52.9569 40.1991C52.9569 40.1991 52.6109 40.6072 52.0607 40.5969C51.3506 40.5835 51.0879 40.0436 51.0879 40.0436Z" fill="url(#paint24_linear_3738_33325)"/>
<path d="M51.5577 39.1488C51.6022 38.8247 51.8735 38.6171 51.9327 38.5726C52.1805 38.3866 52.2309 38.3679 52.3161 38.3526L52.4323 38.3359C52.4323 38.3359 52.4386 38.3361 52.445 38.3364C52.5131 38.3403 52.717 38.4155 52.7541 38.4401C52.8726 38.5188 52.7853 39.076 52.4262 39.7689C52.4121 39.8276 52.398 39.8863 52.3838 39.945C52.6969 39.9969 52.7744 40.0503 52.7769 40.0928C52.7822 40.1851 52.4395 40.3027 52.1219 40.3104C51.7235 40.32 51.3006 40.1582 51.3087 40.0374C51.312 39.9885 51.3871 39.9282 51.6763 39.8689C51.7216 39.809 51.7667 39.7489 51.8119 39.6889C51.7709 39.6419 51.5249 39.3875 51.5577 39.1488Z" fill="url(#paint25_linear_3738_33325)"/>
<path d="M52.0501 39.0286C52.1403 38.9775 52.2091 39.0873 52.1666 39.1832C52.1241 39.2792 51.9813 39.3392 51.8946 39.282C51.808 39.2248 51.9287 39.0973 52.0501 39.0286Z" fill="url(#paint26_linear_3738_33325)"/>
<path d="M63.7588 39.024C62.5696 37.8053 59.8026 38.1395 58.2679 39.1182C57.5548 39.573 57.1888 40.1102 56.3461 40.1553C55.7055 40.1896 54.6865 39.9621 54.1498 39.3068C54.0822 39.2242 53.8117 38.878 53.4056 38.4413C53.2266 38.2488 53.0486 38.0682 52.7726 38.0273C52.7025 38.0169 52.4693 37.9811 52.3151 38.1233C52.1902 38.2386 52.1595 38.439 52.1964 38.5835C52.2186 38.6698 52.2471 38.6789 52.2431 38.7355C52.2316 38.8944 51.9252 38.9636 51.9423 39.0436C51.9544 39.1007 52.1139 39.0798 52.1414 39.1516C52.1715 39.2302 51.9964 39.2979 51.9211 39.4957C51.7801 39.5848 51.691 39.8066 51.6602 40.1034C51.6149 40.5396 51.6613 40.8941 51.7489 41.1611C52.1703 42.4465 52.4718 43.366 53.2014 43.8794C54.1673 44.5592 55.0371 43.9315 57.4942 43.8323C60.8588 43.6964 61.6976 44.7734 62.9069 44.0366C64.4168 43.1166 64.9934 40.2892 63.7588 39.024Z" fill="url(#paint27_linear_3738_33325)"/>
<path d="M46.1121 36.5364C46.082 36.8022 45.9806 37.9783 46.8396 38.9714C47.6422 39.8992 48.7789 40.0846 48.9902 40.1147C50.0123 40.2606 50.453 39.8446 50.8102 40.128C51.4162 40.609 51.0943 42.5583 49.997 43.0834C48.7602 43.6753 46.9649 42.2533 46.1776 41.2683C45.1447 39.976 45.1452 38.5577 45.1512 38.2648C45.1669 37.5037 45.3734 36.8978 45.5369 36.521C45.6041 36.5019 45.7063 36.4808 45.8318 36.4849C45.9512 36.4888 46.0477 36.5143 46.1121 36.5364Z" fill="white"/>
<path opacity="0.3" d="M56.6094 51.7545C56.3102 51.4648 56.6395 50.8807 56.1975 50.4464C55.7874 50.0433 55.3229 50.369 54.6626 50.0221C53.8156 49.5773 54.049 48.7629 53.24 48.3251C52.6582 48.0102 52.3848 48.3487 51.4804 48.1836C50.5775 48.0188 49.4778 47.431 48.9346 46.3805C48.7038 45.9342 48.6187 45.4904 48.6074 45.0938C48.2014 45.7789 47.7802 46.4355 47.7247 47.5435C47.6899 48.2391 47.8146 48.8077 47.9114 49.15C48.2127 49.5045 48.7059 50.0046 49.4338 50.4228C50.493 51.0314 51.1073 50.9253 52.6285 51.3185C55.1167 51.9616 55.3381 52.7275 56.5719 52.5324C57.3688 52.4063 58.1016 51.9561 58.4934 51.5054C57.3435 51.9889 56.8265 51.9648 56.6094 51.7545Z" fill="url(#paint28_linear_3738_33325)"/>
<defs>
<linearGradient id="paint0_linear_3738_33325" x1="33.6418" y1="22.0381" x2="64.0912" y2="78.6557" gradientUnits="userSpaceOnUse">
<stop stop-color="#FFC444"/>
<stop offset="0.9964" stop-color="#F36F56"/>
</linearGradient>
<linearGradient id="paint1_linear_3738_33325" x1="9.67384" y1="27.9609" x2="64.7494" y2="27.9609" gradientUnits="userSpaceOnUse">
<stop stop-color="#FFC444"/>
<stop offset="0.9964" stop-color="#F36F56"/>
</linearGradient>
<linearGradient id="paint2_linear_3738_33325" x1="59.5833" y1="57.2518" x2="39.9799" y2="21.358" gradientUnits="userSpaceOnUse">
<stop stop-color="#AA80F9"/>
<stop offset="0.9964" stop-color="#6165D7"/>
</linearGradient>
<linearGradient id="paint3_linear_3738_33325" x1="54.299" y1="46.6485" x2="61.2803" y2="58.8184" gradientUnits="userSpaceOnUse">
<stop offset="0.0036" stop-color="#E38DDD"/>
<stop offset="1" stop-color="#9571F6"/>
</linearGradient>
<linearGradient id="paint4_linear_3738_33325" x1="26.8863" y1="36.9377" x2="22.0392" y2="59.9589" gradientUnits="userSpaceOnUse">
<stop stop-color="#FF9085"/>
<stop offset="1" stop-color="#FB6FBB"/>
</linearGradient>
<linearGradient id="paint5_linear_3738_33325" x1="29.2493" y1="28.9713" x2="15.2577" y2="4.20692" gradientUnits="userSpaceOnUse">
<stop stop-color="#AB316D"/>
<stop offset="1" stop-color="#792D3D"/>
</linearGradient>
<linearGradient id="paint6_linear_3738_33325" x1="30.2882" y1="19.6413" x2="19.5768" y2="-0.903132" gradientUnits="userSpaceOnUse">
<stop stop-color="#AB316D"/>
<stop offset="1" stop-color="#792D3D"/>
</linearGradient>
<linearGradient id="paint7_linear_3738_33325" x1="23.5043" y1="6.11047" x2="29.5735" y2="17.4642" gradientUnits="userSpaceOnUse">
<stop stop-color="#444B8C"/>
<stop offset="0.9964" stop-color="#26264F"/>
</linearGradient>
<linearGradient id="paint8_linear_3738_33325" x1="23.6811" y1="69.2368" x2="0.136985" y2="4.20038" gradientUnits="userSpaceOnUse">
<stop stop-color="#FF9085"/>
<stop offset="1" stop-color="#FB6FBB"/>
</linearGradient>
<linearGradient id="paint9_linear_3738_33325" x1="8.80347" y1="51.0077" x2="-0.858637" y2="72.6235" gradientUnits="userSpaceOnUse">
<stop stop-color="#FF9085"/>
<stop offset="1" stop-color="#FB6FBB"/>
</linearGradient>
<linearGradient id="paint10_linear_3738_33325" x1="47.6751" y1="33.7557" x2="36.4396" y2="51.2515" gradientUnits="userSpaceOnUse">
<stop stop-color="#FF9085"/>
<stop offset="1" stop-color="#FB6FBB"/>
</linearGradient>
<linearGradient id="paint11_linear_3738_33325" x1="25.0746" y1="39.1056" x2="24.1712" y2="43.3962" gradientUnits="userSpaceOnUse">
<stop stop-color="#AB316D"/>
<stop offset="1" stop-color="#792D3D"/>
</linearGradient>
<linearGradient id="paint12_linear_3738_33325" x1="44.9618" y1="30.2734" x2="48.2198" y2="33.3914" gradientUnits="userSpaceOnUse">
<stop stop-color="#AB316D"/>
<stop offset="1" stop-color="#792D3D"/>
</linearGradient>
<linearGradient id="paint13_linear_3738_33325" x1="22.6777" y1="32.9523" x2="43.6566" y2="32.9523" gradientUnits="userSpaceOnUse">
<stop stop-color="#444B8C"/>
<stop offset="0.9964" stop-color="#26264F"/>
</linearGradient>
<linearGradient id="paint14_linear_3738_33325" x1="39.4694" y1="22.5401" x2="29.5453" y2="45.7239" gradientUnits="userSpaceOnUse">
<stop stop-color="#AA80F9"/>
<stop offset="0.9964" stop-color="#6165D7"/>
</linearGradient>
<linearGradient id="paint15_linear_3738_33325" x1="27.9269" y1="42.6907" x2="33.1629" y2="33.885" gradientUnits="userSpaceOnUse">
<stop stop-color="#AA80F9"/>
<stop offset="0.9964" stop-color="#6165D7"/>
</linearGradient>
<linearGradient id="paint16_linear_3738_33325" x1="30.4429" y1="30.1293" x2="38.1624" y2="47.4814" gradientUnits="userSpaceOnUse">
<stop stop-color="#AA80F9"/>
<stop offset="0.9964" stop-color="#6165D7"/>
</linearGradient>
<linearGradient id="paint17_linear_3738_33325" x1="46.0043" y1="35.5662" x2="45.3889" y2="36.6216" gradientUnits="userSpaceOnUse">
<stop stop-color="#FFC444"/>
<stop offset="0.9964" stop-color="#F36F56"/>
</linearGradient>
<linearGradient id="paint18_linear_3738_33325" x1="55.5446" y1="47.6748" x2="55.7909" y2="48.2111" gradientUnits="userSpaceOnUse">
<stop stop-color="#FFC444"/>
<stop offset="0.9964" stop-color="#F36F56"/>
</linearGradient>
<linearGradient id="paint19_linear_3738_33325" x1="54.856" y1="61.0547" x2="54.856" y2="59.407" gradientUnits="userSpaceOnUse">
<stop stop-color="#FFC444"/>
<stop offset="0.9964" stop-color="#F36F56"/>
</linearGradient>
<linearGradient id="paint20_linear_3738_33325" x1="49.5382" y1="61.5189" x2="49.5382" y2="59.5333" gradientUnits="userSpaceOnUse">
<stop stop-color="#FFC444"/>
<stop offset="0.9964" stop-color="#F36F56"/>
</linearGradient>
<linearGradient id="paint21_linear_3738_33325" x1="48.3633" y1="53.7088" x2="55.2423" y2="53.7088" gradientUnits="userSpaceOnUse">
<stop stop-color="#311944"/>
<stop offset="1" stop-color="#893976"/>
</linearGradient>
<linearGradient id="paint22_linear_3738_33325" x1="48.1446" y1="48.8661" x2="52.6934" y2="56.9562" gradientUnits="userSpaceOnUse">
<stop stop-color="#311944"/>
<stop offset="1" stop-color="#893976"/>
</linearGradient>
<linearGradient id="paint23_linear_3738_33325" x1="50.0957" y1="47.769" x2="54.6445" y2="55.8592" gradientUnits="userSpaceOnUse">
<stop stop-color="#311944"/>
<stop offset="1" stop-color="#893976"/>
</linearGradient>
<linearGradient id="paint24_linear_3738_33325" x1="51.3686" y1="39.1435" x2="52.3033" y2="40.7166" gradientUnits="userSpaceOnUse">
<stop offset="0.0036" stop-color="#E38DDD"/>
<stop offset="1" stop-color="#9571F6"/>
</linearGradient>
<linearGradient id="paint25_linear_3738_33325" x1="52.5949" y1="38.9123" x2="51.5685" y2="40.6704" gradientUnits="userSpaceOnUse">
<stop stop-color="#FFC444"/>
<stop offset="0.9964" stop-color="#F36F56"/>
</linearGradient>
<linearGradient id="paint26_linear_3738_33325" x1="52.1947" y1="38.6832" x2="51.6198" y2="40.5468" gradientUnits="userSpaceOnUse">
<stop stop-color="#FFC444"/>
<stop offset="0.9964" stop-color="#F36F56"/>
</linearGradient>
<linearGradient id="paint27_linear_3738_33325" x1="51.8669" y1="31.6263" x2="60.4756" y2="46.1151" gradientUnits="userSpaceOnUse">
<stop stop-color="#444B8C"/>
<stop offset="0.9964" stop-color="#26264F"/>
</linearGradient>
<linearGradient id="paint28_linear_3738_33325" x1="48.2859" y1="40.7801" x2="53.1269" y2="51.3211" gradientUnits="userSpaceOnUse">
<stop stop-color="#FFC444"/>
<stop offset="0.9964" stop-color="#F36F56"/>
</linearGradient>
</defs>
</svg>
