<?xml version="1.0" encoding="utf-8"?>
<!-- Generator: Adobe Illustrator 27.5.0, SVG Export Plug-In . SVG Version: 6.00 Build 0)  -->
<svg version="1.1" xmlns="http://www.w3.org/2000/svg" xmlns:xlink="http://www.w3.org/1999/xlink" x="0px" y="0px"
	 viewBox="0 0 3710 3710" style="enable-background:new 0 0 3710 3710;" xml:space="preserve">
<g id="Background">
	<g>
		<g>
		</g>
	</g>
</g>
<g id="Illustration">
	<g>
		<linearGradient id="SVGID_1_" gradientUnits="userSpaceOnUse" x1="3475.4866" y1="3292.8938" x2="1393.1486" y2="1470.8495">
			<stop  offset="0" style="stop-color:#B37CFF"/>
			<stop  offset="1" style="stop-color:#F895E7"/>
		</linearGradient>
		<path style="opacity:0.3;fill:url(#SVGID_1_);" d="M3121.597,2346.625c-269.122,633.674-986,988.662-1607.679,892.906
			c-101.16-15.582-378.491-61.997-624.031-280.967C417.209,2537.03,316.123,1702.338,697.419,1114.111
			c277.517-428.126,774.993-670.816,1247.694-658.677c101.82,2.615,492.035,18.73,834.967,301.504
			c50.37,41.534,161.466,140.23,261.59,296.805C3276.779,1421.411,3296.987,1933.652,3121.597,2346.625z"/>
		<g>
			
				<linearGradient id="SVGID_00000028310846424801754780000001776515129580978573_" gradientUnits="userSpaceOnUse" x1="3229.4697" y1="1627.3827" x2="1500.6622" y2="4892.9043">
				<stop  offset="0" style="stop-color:#B37CFF"/>
				<stop  offset="1" style="stop-color:#F895E7"/>
			</linearGradient>
			<path style="fill:url(#SVGID_00000028310846424801754780000001776515129580978573_);" d="M3215.798,1516.51
				c-0.334-17.764-14.829-32.713-32.597-32.713h-671.581c-18.006,0-33.651,16.043-33.651,34.049v1609.349
				c0,8.661,3.971,16.967,10.104,23.084c6.134,6.116,14.711,9.54,23.373,9.517l701.92-1.917c8.737-0.024,17.164-3.554,23.276-9.799
				c6.112-6.244,9.493-15.042,9.33-23.778L3215.798,1516.51z"/>
			<g style="opacity:0.5;">
				<g>
					<path style="fill:#FFFFFF;" d="M2703.798,1547.79h-173.524c-5.161,0-3.907,9.01-3.907,14.529v31.408
						c0,5.519-1.254,14.717,3.907,14.717h173.524c5.16,0,7.9-9.197,7.9-14.717v-31.408
						C2711.698,1556.8,2708.957,1547.79,2703.798,1547.79z"/>
					<path style="fill:#FFFFFF;" d="M2936.053,1547.79h-173.523c-5.161,0-7.026,9.01-7.026,14.529v31.408
						c0,5.519,1.865,14.717,7.026,14.717h173.523c5.16,0,4.782-9.197,4.782-14.717v-31.408
						C2940.835,1556.8,2941.213,1547.79,2936.053,1547.79z"/>
					<path style="fill:#FFFFFF;" d="M3168.308,1547.79h-173.524c-5.161,0-13.513,9.01-13.513,14.529v31.408
						c0,5.519,8.352,14.717,13.513,14.717h173.524c5.16,0,11.773-9.197,11.773-14.717v-31.408
						C3180.081,1556.8,3173.468,1547.79,3168.308,1547.79z"/>
				</g>
				<g>
					<path style="fill:#FFFFFF;" d="M2703.798,1682.576h-173.524c-5.161,0-3.907-1.571-3.907,3.949v31.408
						c0,5.519-1.254,15.188,3.907,15.188h173.524c5.16,0,7.9-9.669,7.9-15.188v-31.408
						C2711.698,1681.006,2708.957,1682.576,2703.798,1682.576z"/>
					<path style="fill:#FFFFFF;" d="M2936.053,1682.576h-173.523c-5.161,0-7.026-1.571-7.026,3.949v31.408
						c0,5.519,1.865,15.188,7.026,15.188h173.523c5.16,0,4.782-9.669,4.782-15.188v-31.408
						C2940.835,1681.006,2941.213,1682.576,2936.053,1682.576z"/>
					<path style="fill:#FFFFFF;" d="M3168.308,1682.576h-173.524c-5.161,0-13.513-1.571-13.513,3.949v31.408
						c0,5.519,8.352,15.188,13.513,15.188h173.524c5.16,0,11.773-9.669,11.773-15.188v-31.408
						C3180.081,1681.006,3173.468,1682.576,3168.308,1682.576z"/>
				</g>
				<g>
					<path style="fill:#FFFFFF;" d="M2703.798,1800.515h-173.524c-5.161,0-3.907,4.698-3.907,10.217v31.408
						c0,5.52-1.254,12.29,3.907,12.29h173.524c5.16,0,7.9-6.77,7.9-12.29v-31.408
						C2711.698,1805.212,2708.957,1800.515,2703.798,1800.515z"/>
					<path style="fill:#FFFFFF;" d="M2936.053,1800.515h-173.523c-5.161,0-7.026,4.698-7.026,10.217v31.408
						c0,5.52,1.865,12.29,7.026,12.29h173.523c5.16,0,4.782-6.77,4.782-12.29v-31.408
						C2940.835,1805.212,2941.213,1800.515,2936.053,1800.515z"/>
					<path style="fill:#FFFFFF;" d="M3168.308,1800.515h-173.524c-5.161,0-13.513,4.698-13.513,10.217v31.408
						c0,5.52,8.352,12.29,13.513,12.29h173.524c5.16,0,11.773-6.77,11.773-12.29v-31.408
						C3180.081,1805.212,3173.468,1800.515,3168.308,1800.515z"/>
				</g>
				<g>
					<path style="fill:#FFFFFF;" d="M2703.798,1928.562h-173.524c-5.161,0-3.907,0.857-3.907,6.376v31.408
						c0,5.519-1.254,12.761,3.907,12.761h173.524c5.16,0,7.9-7.241,7.9-12.761v-31.408
						C2711.698,1929.418,2708.957,1928.562,2703.798,1928.562z"/>
					<path style="fill:#FFFFFF;" d="M2936.053,1928.562h-173.523c-5.161,0-7.026,0.857-7.026,6.376v31.408
						c0,5.519,1.865,12.761,7.026,12.761h173.523c5.16,0,4.782-7.241,4.782-12.761v-31.408
						C2940.835,1929.418,2941.213,1928.562,2936.053,1928.562z"/>
					<path style="fill:#FFFFFF;" d="M3168.308,1928.562h-173.524c-5.161,0-13.513,0.857-13.513,6.376v31.408
						c0,5.519,8.352,12.761,13.513,12.761h173.524c5.16,0,11.773-7.241,11.773-12.761v-31.408
						C3180.081,1929.418,3173.468,1928.562,3168.308,1928.562z"/>
				</g>
				<g>
					<path style="fill:#FFFFFF;" d="M2703.798,2046.5h-173.524c-5.161,0-3.907,7.125-3.907,12.644v31.408
						c0,5.519-1.254,9.862,3.907,9.862h173.524c5.16,0,7.9-4.343,7.9-9.862v-31.408
						C2711.698,2053.625,2708.957,2046.5,2703.798,2046.5z"/>
					<path style="fill:#FFFFFF;" d="M2936.053,2046.5h-173.523c-5.161,0-7.026,7.125-7.026,12.644v31.408
						c0,5.519,1.865,9.862,7.026,9.862h173.523c5.16,0,4.782-4.343,4.782-9.862v-31.408
						C2940.835,2053.625,2941.213,2046.5,2936.053,2046.5z"/>
					<path style="fill:#FFFFFF;" d="M3168.308,2046.5h-173.524c-5.161,0-13.513,7.125-13.513,12.644v31.408
						c0,5.519,8.352,9.862,13.513,9.862h173.524c5.16,0,11.773-4.343,11.773-9.862v-31.408
						C3180.081,2053.625,3173.468,2046.5,3168.308,2046.5z"/>
				</g>
				<g>
					<path style="fill:#FFFFFF;" d="M2703.798,2174.547h-173.524c-5.161,0-3.907,3.284-3.907,8.803v31.408
						c0,5.519-1.254,10.333,3.907,10.333h173.524c5.16,0,7.9-4.814,7.9-10.333v-31.408
						C2711.698,2177.831,2708.957,2174.547,2703.798,2174.547z"/>
					<path style="fill:#FFFFFF;" d="M2936.053,2174.547h-173.523c-5.161,0-7.026,3.284-7.026,8.803v31.408
						c0,5.519,1.865,10.333,7.026,10.333h173.523c5.16,0,4.782-4.814,4.782-10.333v-31.408
						C2940.835,2177.831,2941.213,2174.547,2936.053,2174.547z"/>
					<path style="fill:#FFFFFF;" d="M3168.308,2174.547h-173.524c-5.161,0-13.513,3.284-13.513,8.803v31.408
						c0,5.519,8.352,10.333,13.513,10.333h173.524c5.16,0,11.773-4.814,11.773-10.333v-31.408
						C3180.081,2177.831,3173.468,2174.547,3168.308,2174.547z"/>
				</g>
				<g>
					<path style="fill:#FFFFFF;" d="M2703.798,2292.485h-173.524c-5.161,0-3.907,9.552-3.907,15.071v31.408
						c0,5.52-1.254,14.176,3.907,14.176h173.524c5.16,0,7.9-8.656,7.9-14.176v-31.408
						C2711.698,2302.037,2708.957,2292.485,2703.798,2292.485z"/>
					<path style="fill:#FFFFFF;" d="M2936.053,2292.485h-173.523c-5.161,0-7.026,9.552-7.026,15.071v31.408
						c0,5.52,1.865,14.176,7.026,14.176h173.523c5.16,0,4.782-8.656,4.782-14.176v-31.408
						C2940.835,2302.037,2941.213,2292.485,2936.053,2292.485z"/>
					<path style="fill:#FFFFFF;" d="M3168.308,2292.485h-173.524c-5.161,0-13.513,9.552-13.513,15.071v31.408
						c0,5.52,8.352,14.176,13.513,14.176h173.524c5.16,0,11.773-8.656,11.773-14.176v-31.408
						C3180.081,2302.037,3173.468,2292.485,3168.308,2292.485z"/>
				</g>
				<g>
					<path style="fill:#FFFFFF;" d="M2703.798,2420.533h-173.524c-5.161,0-3.907,5.71-3.907,11.229v31.408
						c0,5.52-1.254,18.016,3.907,18.016h173.524c5.16,0,7.9-12.496,7.9-18.016v-31.408
						C2711.698,2426.243,2708.957,2420.533,2703.798,2420.533z"/>
					<path style="fill:#FFFFFF;" d="M2936.053,2420.533h-173.523c-5.161,0-7.026,5.71-7.026,11.229v31.408
						c0,5.52,1.865,18.016,7.026,18.016h173.523c5.16,0,4.782-12.496,4.782-18.016v-31.408
						C2940.835,2426.243,2941.213,2420.533,2936.053,2420.533z"/>
					<path style="fill:#FFFFFF;" d="M3168.308,2420.533h-173.524c-5.161,0-13.513,5.71-13.513,11.229v31.408
						c0,5.52,8.352,18.016,13.513,18.016h173.524c5.16,0,11.773-12.496,11.773-18.016v-31.408
						C3180.081,2426.243,3173.468,2420.533,3168.308,2420.533z"/>
				</g>
				<g>
					<path style="fill:#FFFFFF;" d="M2703.798,2541.84h-173.524c-5.161,0-3.907,8.609-3.907,14.128v31.409
						c0,5.52-1.254,11.748,3.907,11.748h173.524c5.16,0,7.9-6.229,7.9-11.748v-31.409
						C2711.698,2550.449,2708.957,2541.84,2703.798,2541.84z"/>
					<path style="fill:#FFFFFF;" d="M2936.053,2541.84h-173.523c-5.161,0-7.026,8.609-7.026,14.128v31.409
						c0,5.52,1.865,11.748,7.026,11.748h173.523c5.16,0,4.782-6.229,4.782-11.748v-31.409
						C2940.835,2550.449,2941.213,2541.84,2936.053,2541.84z"/>
					<path style="fill:#FFFFFF;" d="M3168.308,2541.84h-173.524c-5.161,0-13.513,8.609-13.513,14.128v31.409
						c0,5.52,8.352,11.748,13.513,11.748h173.524c5.16,0,11.773-6.229,11.773-11.748v-31.409
						C3180.081,2550.449,3173.468,2541.84,3168.308,2541.84z"/>
				</g>
				<g>
					<path style="fill:#FFFFFF;" d="M2703.798,2673.257h-173.524c-5.161,0-3.907,1.398-3.907,6.917v31.408
						c0,5.52-1.254,15.589,3.907,15.589h173.524c5.16,0,7.9-10.07,7.9-15.589v-31.408
						C2711.698,2674.656,2708.957,2673.257,2703.798,2673.257z"/>
					<path style="fill:#FFFFFF;" d="M2936.053,2673.257h-173.523c-5.161,0-7.026,1.398-7.026,6.917v31.408
						c0,5.52,1.865,15.589,7.026,15.589h173.523c5.16,0,4.782-10.07,4.782-15.589v-31.408
						C2940.835,2674.656,2941.213,2673.257,2936.053,2673.257z"/>
					<path style="fill:#FFFFFF;" d="M3168.308,2673.257h-173.524c-5.161,0-13.513,1.398-13.513,6.917v31.408
						c0,5.52,8.352,15.589,13.513,15.589h173.524c5.16,0,11.773-10.07,11.773-15.589v-31.408
						C3180.081,2674.656,3173.468,2673.257,3168.308,2673.257z"/>
				</g>
				<g>
					<path style="fill:#FFFFFF;" d="M2703.798,2801.306h-173.524c-5.161,0-3.907-2.444-3.907,3.074v31.408
						c0,5.52-1.254,9.321,3.907,9.321h173.524c5.16,0,7.9-3.802,7.9-9.321v-31.408
						C2711.698,2798.862,2708.957,2801.306,2703.798,2801.306z"/>
					<path style="fill:#FFFFFF;" d="M2936.053,2801.306h-173.523c-5.161,0-7.026-2.444-7.026,3.074v31.408
						c0,5.52,1.865,9.321,7.026,9.321h173.523c5.16,0,4.782-3.802,4.782-9.321v-31.408
						C2940.835,2798.862,2941.213,2801.306,2936.053,2801.306z"/>
					<path style="fill:#FFFFFF;" d="M3168.308,2801.306h-173.524c-5.161,0-13.513-2.444-13.513,3.074v31.408
						c0,5.52,8.352,9.321,13.513,9.321h173.524c5.16,0,11.773-3.802,11.773-9.321v-31.408
						C3180.081,2798.862,3173.468,2801.306,3168.308,2801.306z"/>
				</g>
				<g>
					<path style="fill:#FFFFFF;" d="M2703.798,2919.243h-173.524c-5.161,0-3.907,3.825-3.907,9.344v31.408
						c0,5.52-1.254,13.162,3.907,13.162h173.524c5.16,0,7.9-7.642,7.9-13.162v-31.408
						C2711.698,2923.068,2708.957,2919.243,2703.798,2919.243z"/>
					<path style="fill:#FFFFFF;" d="M2936.053,2919.243h-173.523c-5.161,0-7.026,3.825-7.026,9.344v31.408
						c0,5.52,1.865,13.162,7.026,13.162h173.523c5.16,0,4.782-7.642,4.782-13.162v-31.408
						C2940.835,2923.068,2941.213,2919.243,2936.053,2919.243z"/>
					<path style="fill:#FFFFFF;" d="M3168.308,2919.243h-173.524c-5.161,0-13.513,3.825-13.513,9.344v31.408
						c0,5.52,8.352,13.162,13.513,13.162h173.524c5.16,0,11.773-7.642,11.773-13.162v-31.408
						C3180.081,2923.068,3173.468,2919.243,3168.308,2919.243z"/>
				</g>
			</g>
		</g>
		<g>
			
				<linearGradient id="SVGID_00000026160276780516478460000001274900544788234936_" gradientUnits="userSpaceOnUse" x1="605.2184" y1="626.6516" x2="1582.4224" y2="2971.9368">
				<stop  offset="0" style="stop-color:#CB236D"/>
				<stop  offset="0.9001" style="stop-color:#59246D"/>
				<stop  offset="1" style="stop-color:#4C246D"/>
			</linearGradient>
			<path style="fill:url(#SVGID_00000026160276780516478460000001274900544788234936_);" d="M1133.583,2303.442
				c-122.385,30.074-285.927-97.648-343.138-242.484c-58.876-149.049,34.196-216.627,24.291-426.587
				c-11.252-238.507-136.908-269.042-233.021-586.996c-21.685-71.737-147.174-486.872-17.787-571.359
				c119.632-78.118,473.698,115.631,545.823,380.247c51.429,188.684-78.348,274.512-17.762,494.243
				c53.161,192.798,170.658,190.493,223.829,376.422C1380.551,1953.281,1294.276,2263.955,1133.583,2303.442z"/>
			
				<linearGradient id="SVGID_00000065767454541032037010000009862953197481423025_" gradientUnits="userSpaceOnUse" x1="434.3914" y1="856.3347" x2="126.384" y2="2350.5923" gradientTransform="matrix(-0.999 0.0436 0.0436 0.999 1194.4858 -3.1093)">
				<stop  offset="0" style="stop-color:#2B3582"/>
				<stop  offset="1" style="stop-color:#150E42"/>
			</linearGradient>
			<path style="fill:url(#SVGID_00000065767454541032037010000009862953197481423025_);" d="M1127.139,2361.625
				c22.064-258.464-60.17-652.138-133.042-936.878c-78.895-308.279-164.104-558.825-164.954-561.322l-10.143,3.463
				c0.851,2.491,85.943,252.706,164.735,560.591c72.656,283.911,154.661,676.282,132.724,933.236L1127.139,2361.625z"/>
		</g>
		<g>
			
				<linearGradient id="SVGID_00000048468556202764127930000007823442390137705095_" gradientUnits="userSpaceOnUse" x1="497.3402" y1="1771.0056" x2="-792.7105" y2="4039.2224" gradientTransform="matrix(-0.9992 -0.0409 -0.0409 0.9992 1037.1932 -30.2389)">
				<stop  offset="0" style="stop-color:#A737D5"/>
				<stop  offset="1" style="stop-color:#EF497A"/>
			</linearGradient>
			<path style="fill:url(#SVGID_00000048468556202764127930000007823442390137705095_);" d="M1133.376,3004.652
				c166.679-78.363,234.48-368.083,145.59-466.778c-60.061-66.687-152.709-2.915-236.712-72.931
				c-107.252-89.395-19.268-245.901-97.843-456.757c-66.868-179.44-237.74-353.634-342.98-323.629
				c-110.163,31.409-178.291,295.088-92.006,458.981c56.112,106.582,148.31,115.473,164.398,213.125
				c18.667,113.31-95.812,159.955-100.879,268.86C563.844,2821.152,912.871,3108.32,1133.376,3004.652z"/>
			
				<linearGradient id="SVGID_00000004526815246924896750000010819796234849352361_" gradientUnits="userSpaceOnUse" x1="115.3061" y1="2111.614" x2="-90.8571" y2="3111.7878" gradientTransform="matrix(-0.9992 -0.0409 -0.0409 0.9992 1037.1932 -30.2389)">
				<stop  offset="0" style="stop-color:#2B3582"/>
				<stop  offset="1" style="stop-color:#150E42"/>
			</linearGradient>
			<path style="fill:url(#SVGID_00000004526815246924896750000010819796234849352361_);" d="M1042.25,3075.832
				c0.974,0.04,1.97-0.134,2.924-0.55c3.37-1.469,4.91-5.388,3.442-8.756c-198.133-454.683-240.43-974.488-240.835-979.685
				c-0.284-3.664-3.489-6.406-7.148-6.116c-3.662,0.284-6.403,3.485-6.117,7.148c0.406,5.22,42.884,527.257,241.901,983.967
				C1037.47,3074.255,1039.783,3075.731,1042.25,3075.832z"/>
			<path style="fill:#F0F0F0;" d="M632.854,2213.856c0.683,0.028,1.38-0.165,1.979-0.591c1.428-1.023,1.757-3.007,0.736-4.435
				c-64.709-90.455-135.015-225.248-102.469-353.738c19.382-76.523,66.703-114.912,67.179-115.291
				c1.373-1.094,1.601-3.092,0.507-4.467c-1.095-1.374-3.096-1.603-4.468-0.506c-2.01,1.599-49.477,40.119-69.381,118.703
				c-18.294,72.223-15.195,193.134,103.46,358.995C630.99,2213.357,631.91,2213.817,632.854,2213.856z"/>
			<path style="fill:#F0F0F0;" d="M1149.682,2966.32c1.013,0.041,2.029-0.402,2.679-1.273
				c111.217-148.884,151.847-265.776,120.758-347.426c-27.639-72.594-104.25-89.026-105.021-89.185
				c-1.724-0.34-3.398,0.76-3.751,2.479c-0.351,1.716,0.756,3.399,2.475,3.752c0.736,0.152,74.035,15.967,100.384,85.295
				c30.204,79.482-10.148,194.304-119.938,341.279c-1.052,1.408-0.764,3.399,0.643,4.451
				C1148.445,2966.089,1149.063,2966.294,1149.682,2966.32z"/>
		</g>
		<g>
			<g>
				
					<linearGradient id="SVGID_00000136380588848158855620000016774312138016479381_" gradientUnits="userSpaceOnUse" x1="2903.8555" y1="1083.8845" x2="284.2834" y2="4084.7043" gradientTransform="matrix(0 1 1 0 237.246 -443.102)">
					<stop  offset="0" style="stop-color:#2B3582"/>
					<stop  offset="1" style="stop-color:#150E42"/>
				</linearGradient>
				<path style="fill:url(#SVGID_00000136380588848158855620000016774312138016479381_);" d="M1289.784,616.62l1355.498,39.318
					c129.556,3.758,233.099,81.015,237.051,176.872l86.47,2096.931c4.078,98.898-99.091,182.202-232.642,187.847l-1509.429,63.798
					c-143.844,6.08-264.124-79.878-260.857-186.421l67.46-2200.047C1036.462,692.929,1151.969,612.622,1289.784,616.62z"/>
				
					<linearGradient id="SVGID_00000043426174153808510210000014269192372835989689_" gradientUnits="userSpaceOnUse" x1="2863.5598" y1="1136.365" x2="431.9221" y2="3921.8992" gradientTransform="matrix(0 1 1 0 237.246 -443.102)">
					<stop  offset="0" style="stop-color:#FDF53F"/>
					<stop  offset="0.6645" style="stop-color:#E57A58"/>
					<stop  offset="1" style="stop-color:#D93C65"/>
				</linearGradient>
				<path style="fill:url(#SVGID_00000043426174153808510210000014269192372835989689_);" d="M1344.513,708.627l1258.252,36.497
					c120.261,3.489,216.375,75.203,220.044,164.182l80.266,1946.493c3.785,91.803-91.981,169.13-215.952,174.371l-1401.138,59.221
					c-133.525,5.643-245.176-74.147-242.143-173.046l62.62-2042.211C1109.365,779.461,1216.585,704.916,1344.513,708.627z"/>
				<path style="opacity:0.2;fill:#FFFFFF;" d="M1384.541,770.639l1165.935,33.82c111.438,3.233,200.501,69.686,203.901,152.137
					l74.378,1803.68c3.508,85.068-85.234,156.722-200.108,161.577l-1298.338,54.876c-123.728,5.229-227.187-68.708-224.377-160.351
					l58.025-1892.376C1166.647,836.277,1266,767.201,1384.541,770.639z"/>
			</g>
		</g>
		<g>
			<g>
				
					<linearGradient id="SVGID_00000111903089415498142590000000150685898336430745_" gradientUnits="userSpaceOnUse" x1="2573.2102" y1="447.7631" x2="1474.7369" y2="4219.8843">
					<stop  offset="0" style="stop-color:#53D8FF"/>
					<stop  offset="1" style="stop-color:#3840F7"/>
				</linearGradient>
				<path style="fill:url(#SVGID_00000111903089415498142590000000150685898336430745_);" d="M3034.977,3174.513H1288.439
					c-20.442,0-37.014-16.572-37.014-37.014V584.2c0-20.442,16.572-37.014,37.014-37.014h1746.538
					c20.442,0,37.014,16.572,37.014,37.014v2553.299C3071.99,3157.941,3055.419,3174.513,3034.977,3174.513z"/>
				<path style="opacity:0.31;fill:#FFFFFF;" d="M2970.339,3113.183H1354.875c-20.442,0-37.014-16.572-37.014-37.014V653.612
					c0-20.442,16.572-37.014,37.014-37.014h1615.464c20.442,0,37.014,16.572,37.014,37.014v2422.557
					C3007.354,3096.611,2990.782,3113.183,2970.339,3113.183z"/>
				<g>
					<path style="fill:#FFFFFF;" d="M1280.152,1315.013c-2.792,0-5.055-2.264-5.055-5.055V721.893
						c0-76.077,61.893-137.969,137.97-137.969h445.217c2.792,0,5.055,2.264,5.055,5.054c0,2.791-2.262,5.055-5.055,5.055h-445.217
						c-70.503,0-127.861,57.357-127.861,127.86v588.065C1285.207,1312.749,1282.944,1315.013,1280.152,1315.013z"/>
					<path style="fill:#FFFFFF;" d="M1280.152,1812.838c-2.792,0-5.055-2.264-5.055-5.054v-406.061c0-2.791,2.262-5.054,5.055-5.054
						s5.054,2.264,5.054,5.054v406.061C1285.207,1810.574,1282.944,1812.838,1280.152,1812.838z"/>
				</g>
			</g>
			<g style="opacity:0.7;">
				<path style="fill:#FFFFFF;" d="M2217.92,914.492h-787.715c-5.906,0-10.693-4.788-10.693-10.693V738.88
					c0-5.906,4.787-10.693,10.693-10.693h787.715c5.906,0,10.693,4.787,10.693,10.693v164.919
					C2228.613,909.705,2223.825,914.492,2217.92,914.492z"/>
				<path style="fill:#FFFFFF;" d="M1784.909,1309.954h-311.641c-3.7,0-6.699-2.999-6.699-6.699v-268.958
					c0-3.7,2.999-6.699,6.699-6.699h311.641c3.7,0,6.699,2.999,6.699,6.699v268.958
					C1791.608,1306.954,1788.609,1309.954,1784.909,1309.954z"/>
				<path style="fill:#FFFFFF;" d="M2865.581,1115.233h-983.248c-1.614,0-2.922-1.308-2.922-2.922v-81.792
					c0-1.614,1.308-2.922,2.922-2.922h983.248c1.614,0,2.922,1.308,2.922,2.922v81.792
					C2868.503,1113.924,2867.195,1115.233,2865.581,1115.233z"/>
				<path style="fill:#FFFFFF;" d="M2639.608,1244.507h-753.942c-3.455,0-6.256-2.801-6.256-6.256v-75.125
					c0-3.455,2.801-6.256,6.256-6.256h753.942c3.455,0,6.256,2.801,6.256,6.256v75.125
					C2645.864,1241.706,2643.063,1244.507,2639.608,1244.507z"/>
				<path style="fill:#FFFFFF;" d="M1779.98,1741.137h-311.641c-3.7,0-6.699-2.999-6.699-6.699v-268.958
					c0-3.7,2.999-6.699,6.699-6.699h311.641c3.7,0,6.699,3,6.699,6.699v268.958C1786.68,1738.137,1783.68,1741.137,1779.98,1741.137
					z"/>
				<path style="fill:#FFFFFF;" d="M2860.652,1546.416h-983.248c-1.614,0-2.922-1.308-2.922-2.922v-81.792
					c0-1.614,1.308-2.922,2.922-2.922h983.248c1.614,0,2.922,1.308,2.922,2.922v81.792
					C2863.575,1545.107,2862.266,1546.416,2860.652,1546.416z"/>
				<path style="fill:#FFFFFF;" d="M2634.68,1675.69h-753.942c-3.455,0-6.256-2.801-6.256-6.256v-75.125
					c0-3.455,2.801-6.256,6.256-6.256h753.942c3.455,0,6.256,2.801,6.256,6.256v75.125
					C2640.935,1672.889,2638.135,1675.69,2634.68,1675.69z"/>
				<path style="fill:#FFFFFF;" d="M1779.98,2138.001h-311.641c-3.7,0-6.699-3-6.699-6.699v-268.958c0-3.7,2.999-6.699,6.699-6.699
					h311.641c3.7,0,6.699,2.999,6.699,6.699v268.958C1786.68,2135.001,1783.68,2138.001,1779.98,2138.001z"/>
				<path style="fill:#FFFFFF;" d="M2860.652,1943.28h-983.248c-1.614,0-2.922-1.308-2.922-2.922v-81.792
					c0-1.614,1.308-2.922,2.922-2.922h983.248c1.614,0,2.922,1.308,2.922,2.922v81.792
					C2863.575,1941.971,2862.266,1943.28,2860.652,1943.28z"/>
				<path style="fill:#FFFFFF;" d="M2634.68,2072.554h-753.942c-3.455,0-6.256-2.801-6.256-6.256v-75.125
					c0-3.455,2.801-6.256,6.256-6.256h753.942c3.455,0,6.256,2.801,6.256,6.256v75.125
					C2640.935,2069.753,2638.135,2072.554,2634.68,2072.554z"/>
				<path style="fill:#FFFFFF;" d="M1779.98,2536.98h-311.641c-3.7,0-6.699-2.999-6.699-6.699v-268.958
					c0-3.7,2.999-6.699,6.699-6.699h311.641c3.7,0,6.699,3,6.699,6.699v268.958C1786.68,2533.981,1783.68,2536.98,1779.98,2536.98z"
					/>
				<path style="fill:#FFFFFF;" d="M2860.652,2342.259h-983.248c-1.614,0-2.922-1.308-2.922-2.922v-81.792
					c0-1.614,1.308-2.922,2.922-2.922h983.248c1.614,0,2.922,1.308,2.922,2.922v81.792
					C2863.575,2340.95,2862.266,2342.259,2860.652,2342.259z"/>
				<path style="fill:#FFFFFF;" d="M2634.68,2471.533h-753.942c-3.455,0-6.256-2.801-6.256-6.256v-75.125
					c0-3.455,2.801-6.256,6.256-6.256h753.942c3.455,0,6.256,2.801,6.256,6.256v75.125
					C2640.935,2468.733,2638.135,2471.533,2634.68,2471.533z"/>
				<path style="fill:#FFFFFF;" d="M1779.98,2933.844h-311.641c-3.7,0-6.699-3-6.699-6.699v-268.958c0-3.7,2.999-6.699,6.699-6.699
					h311.641c3.7,0,6.699,3,6.699,6.699v268.958C1786.68,2930.844,1783.68,2933.844,1779.98,2933.844z"/>
				<path style="fill:#FFFFFF;" d="M2860.652,2739.123h-983.248c-1.614,0-2.922-1.308-2.922-2.922v-81.792
					c0-1.614,1.308-2.922,2.922-2.922h983.248c1.614,0,2.922,1.308,2.922,2.922v81.792
					C2863.575,2737.814,2862.266,2739.123,2860.652,2739.123z"/>
				<path style="fill:#FFFFFF;" d="M2634.68,2868.397h-753.942c-3.455,0-6.256-2.801-6.256-6.256v-75.125
					c0-3.455,2.801-6.256,6.256-6.256h753.942c3.455,0,6.256,2.801,6.256,6.256v75.125
					C2640.935,2865.596,2638.135,2868.397,2634.68,2868.397z"/>
			</g>
		</g>
		<g>
			
				<linearGradient id="SVGID_00000161597664695974754250000012088802138053890458_" gradientUnits="userSpaceOnUse" x1="-1387.3827" y1="1393.4226" x2="-1404.3956" y2="2001.6223" gradientTransform="matrix(-1 0 0 1 1197.9395 0)">
				<stop  offset="0" style="stop-color:#C4421B"/>
				<stop  offset="1" style="stop-color:#5C0E16"/>
			</linearGradient>
			<path style="fill:url(#SVGID_00000161597664695974754250000012088802138053890458_);" d="M2406.745,1599.036
				c0,0,6.856,298.381,320.589,350.706l56.323-55.601c0,0-271.671-92.369-342.389-285.401l15.106-102.371l-10.646-67.748
				L2406.745,1599.036z"/>
			<g>
				<circle style="fill:#FFFFFF;" cx="2304.745" cy="1147.853" r="402.501"/>
				
					<linearGradient id="SVGID_00000178172335579601500080000004645699838818571948_" gradientUnits="userSpaceOnUse" x1="1732.451" y1="344.697" x2="1540.3623" y2="1820.7535" gradientTransform="matrix(1 0 0 1 679.4327 0)">
					<stop  offset="0" style="stop-color:#A737D5"/>
					<stop  offset="1" style="stop-color:#EF497A"/>
				</linearGradient>
				
					<circle style="fill:url(#SVGID_00000178172335579601500080000004645699838818571948_);" cx="2307.72" cy="1145.114" r="358.299"/>
				<g>
					<path style="fill:#FFFFFF;" d="M2445.427,1387.514c-17.676-1.276-73.606-11.578-72.963-89.828l1.892-230.358
						c0.024-2.927-0.153-4.428-3.26-4.372l-189.979,3.419c-3.195,0.058-5.82,1.631-5.886,4.6l-0.271,12.306
						c-0.062,2.834,2.242,5.131,5.278,5.267c18.169,0.818,75.759,6.252,74.596,42.565c-1.391,43.302-3.638,221.651-3.638,221.651
						s-1.366,39.138-68.374,43.154c-3.222,0.192-5.269,2.774-5.333,5.837l-0.331,15.585c-0.066,3.114,1.352,5.576,4.624,5.433
						l263.248-11.484c3.148-0.137,7.371-2.795,7.379-5.845l0.035-12.759C2452.453,1389.888,2448.294,1387.721,2445.427,1387.514z"/>
					<path style="fill:#FFFFFF;" d="M2305.554,1013.637c46.749-0.67,84.668-36.422,84.978-79.622
						c0.307-42.941-36.699-77.453-82.933-77.316c-46.546,0.138-85.177,35.298-86.001,78.771
						C2220.767,979.208,2258.486,1014.311,2305.554,1013.637z"/>
				</g>
			</g>
			<g>
				
					<linearGradient id="SVGID_00000158746561135241566320000005095389955441462716_" gradientUnits="userSpaceOnUse" x1="581.8637" y1="2882.7786" x2="875.7998" y2="2882.7786" gradientTransform="matrix(1 0 0 1 2153.9587 0)">
					<stop  offset="0" style="stop-color:#C4421B"/>
					<stop  offset="1" style="stop-color:#5C0E16"/>
				</linearGradient>
				<path style="fill:url(#SVGID_00000158746561135241566320000005095389955441462716_);" d="M2735.823,2611.432
					c0,0,157.239,342.706,239.736,484.653c0,0,16.385,89.316,0,117.403l-13.964,6.207l65.169-1.94c0,0,5.79-120.139,1.269-126.85
					c-4.522-6.711-13.564-6.271-13.564-6.271s-27.944-221.389-108.872-268.638l-78.429-270.133L2735.823,2611.432z"/>
				
					<linearGradient id="SVGID_00000038371027187533636960000002502677548397900466_" gradientUnits="userSpaceOnUse" x1="985.8867" y1="2225.4485" x2="840.3206" y2="3171.624" gradientTransform="matrix(1 0 0 1 2153.9587 0)">
					<stop  offset="0" style="stop-color:#2B3582"/>
					<stop  offset="1" style="stop-color:#150E42"/>
				</linearGradient>
				<path style="fill:url(#SVGID_00000038371027187533636960000002502677548397900466_);" d="M2933.762,3236.52
					c-0.096,1.572,50.888,0.853,78.585,0.348c10.226-0.187,18.945-7.375,21.125-17.368l20.915-109.885
					c1.988-10.442-4.643-20.585-15.006-22.954l-11.675-2.668c0,0-16.655,22.846-11.412,44.356c5.243,21.509,9.908,77.228-3.34,83.72
					c-13.248,6.492-51.359,7.627-51.359,7.627S2934.633,3222.368,2933.762,3236.52z"/>
				
					<linearGradient id="SVGID_00000160902383528878869180000011114035271192747406_" gradientUnits="userSpaceOnUse" x1="681.2534" y1="2178.0664" x2="535.6871" y2="3124.2434" gradientTransform="matrix(1 0 0 1 2153.9587 0)">
					<stop  offset="0" style="stop-color:#2B3582"/>
					<stop  offset="1" style="stop-color:#150E42"/>
				</linearGradient>
				<path style="fill:url(#SVGID_00000160902383528878869180000011114035271192747406_);" d="M2590.157,3238.514
					c-5.157,2.939-3.03,10.812,2.905,10.751c46.348-0.465,150.206-1.932,159.435-5.77c11.915-4.954-4.342-47.769-21.451-62.26
					l-94.47,30.833L2590.157,3238.514z"/>
				
					<linearGradient id="SVGID_00000106139124143616887800000013925339682768425352_" gradientUnits="userSpaceOnUse" x1="424.0499" y1="2904.6348" x2="577.087" y2="2904.6348" gradientTransform="matrix(1 0 0 1 2153.9587 0)">
					<stop  offset="0" style="stop-color:#C4421B"/>
					<stop  offset="1" style="stop-color:#5C0E16"/>
				</linearGradient>
				<path style="fill:url(#SVGID_00000106139124143616887800000013925339682768425352_);" d="M2578.009,2589.575
					c0,0,84.435,491.56,113.18,587.448l-67.999,42.672c0,0,34.076-5.796,59.344-7.627c25.269-1.831,48.512-30.833,48.512-30.833
					l-8.146-12.993c0,0-25.481-488.883-19.278-544.396L2578.009,2589.575z"/>
				
					<linearGradient id="SVGID_00000114055705013977616020000006834993723724912548_" gradientUnits="userSpaceOnUse" x1="1035.1115" y1="2497.7493" x2="1368.3512" y2="2497.7493" gradientTransform="matrix(0.944 -0.3299 0.3299 0.944 381.5882 -264.0028)">
					<stop  offset="0" style="stop-color:#C4421B"/>
					<stop  offset="1" style="stop-color:#5C0E16"/>
				</linearGradient>
				<path style="fill:url(#SVGID_00000114055705013977616020000006834993723724912548_);" d="M2229.877,1540.39
					c0,0,43.715,278.199,334.012,292.552l-10.735,139.165c0,0-281.809-4.304-348.393-381.615
					c-1.735-9.829-9.676-17.454-18.322-22.44l-59.434-34.279c-22.644-13.06-37.528-36.312-39.905-62.344l-2.21-24.195
					c-0.74-8.1,6.492-14.65,14.479-13.114l5.32,1.023c16.936,3.256,32.419,11.754,44.261,24.293l36.987,39.159
					c13.816,14.627,35.378,18.904,53.731,10.656l12.452-5.595L2229.877,1540.39z"/>
				
					<linearGradient id="SVGID_00000139278332411943329430000004786417188129914536_" gradientUnits="userSpaceOnUse" x1="3046.3428" y1="1640.6591" x2="3949.4128" y2="885.8538">
					<stop  offset="0" style="stop-color:#FDF53F"/>
					<stop  offset="0.6645" style="stop-color:#E57A58"/>
					<stop  offset="1" style="stop-color:#D93C65"/>
				</linearGradient>
				<path style="fill:url(#SVGID_00000139278332411943329430000004786417188129914536_);" d="M2519.283,1810.219
					c38.948,10.801,170.896,45.511,253.27,44.093l-50.576,285.406l4.025,46.551l-164.898-0.739c0,0-46.42-107.806-83.044-161.553
					c-10.578-15.523-2.705-34.038,3.29-51.84l-8.237-5.484c-8.382-5.581-12.016-16.063-8.889-25.635l40.156-122.858
					C2506.466,1811.966,2512.986,1808.472,2519.283,1810.219z"/>
				
					<linearGradient id="SVGID_00000151501805194715161090000004150965313970274206_" gradientUnits="userSpaceOnUse" x1="2649.9924" y1="2504.8347" x2="3347.5833" y2="1271.4153">
					<stop  offset="0" style="stop-color:#A737D5"/>
					<stop  offset="1" style="stop-color:#EF497A"/>
				</linearGradient>
				<path style="fill:url(#SVGID_00000151501805194715161090000004150965313970274206_);" d="M2547.892,2161.171l3.244,28.201
					c0,0-24.282,205.627,45.618,531.578c0,0,146.259,26.235,270.683-76.39c0,0-52.286-357.066-61.873-371.396
					c-47.751-71.377-79.561-86.895-79.561-86.895l-1.435-30.81C2724.568,2155.458,2591.488,2179.519,2547.892,2161.171z"/>
				
					<linearGradient id="SVGID_00000054230948677384566430000017394620859975743363_" gradientUnits="userSpaceOnUse" x1="-1501.7258" y1="1848.5282" x2="-1468.0293" y2="1678.9218" gradientTransform="matrix(-1 0 0 1 1197.9395 0)">
					<stop  offset="0" style="stop-color:#C4421B"/>
					<stop  offset="1" style="stop-color:#5C0E16"/>
				</linearGradient>
				<path style="fill:url(#SVGID_00000054230948677384566430000017394620859975743363_);" d="M2655.093,1738.081l-7.799,91.697
					c-1.073,12.61,8.874,23.439,21.53,23.439h69.504l-23.131-175.747L2655.093,1738.081z"/>
				
					<linearGradient id="SVGID_00000078031286514668447380000008613973867316349600_" gradientUnits="userSpaceOnUse" x1="1164.6337" y1="2197.6167" x2="1922.8257" y2="2249.1738" gradientTransform="matrix(0.9852 -0.1712 0.1712 0.9852 1254.0865 -323.8918)">
					<stop  offset="0" style="stop-color:#C4421B"/>
					<stop  offset="1" style="stop-color:#5C0E16"/>
				</linearGradient>
				<path style="fill:url(#SVGID_00000078031286514668447380000008613973867316349600_);" d="M2669.936,1564.626
					c-2.938,2.623-97.864,62.656-57.444,165.011c2.389,6.048,7.499,10.639,13.804,12.232c16.171,4.087,50.471,9.936,88.432-0.705
					c52.628-14.752,71.492-114.34,65.272-141.286S2699.052,1538.624,2669.936,1564.626z"/>
				<g>
					
						<linearGradient id="SVGID_00000068650183771441201050000013211562029741456289_" gradientUnits="userSpaceOnUse" x1="-1867.2598" y1="1825.1149" x2="-1414.6846" y2="1825.1149" gradientTransform="matrix(-1 0 0 1 1197.9395 0)">
						<stop  offset="0" style="stop-color:#2B3582"/>
						<stop  offset="1" style="stop-color:#150E42"/>
					</linearGradient>
					<path style="fill:url(#SVGID_00000068650183771441201050000013211562029741456289_);" d="M2797.873,1642.778
						c11.542,73.601,20.069,70.637,47.156,103.382c43.901,53.071,106.704-1.638,167.759,48.655
						c44.077,36.306,65.314,129.194,44.162,204.19c-29.297,103.871-148.973,156.814-200.856,125.177
						c-49.586-30.235-34.187-80.374-100.903-115.371c-28.324-14.858-55.291-45.686-72.253-67.707
						c-29.695-38.549-18.444-91.723-15.358-120.543c6.698-62.534,27.918-93.559,20.218-121.042
						c-14.975-53.456-68.968-54.518-74.79-92.256c-5.3-34.365,45.328-99.503,92.973-89.239
						C2779.697,1533.906,2792.731,1609.988,2797.873,1642.778z"/>
					<path style="opacity:0.6;fill:#FFFFFF;" d="M3029.344,1974.24c1.015,0.175,2.052-0.375,2.484-1.392
						c19.032-44.966,20.677-84.249,4.884-116.761c-26.208-53.955-92.4-70.249-93.067-70.405c-1.024-0.362-2.448,0.493-2.745,1.756
						c-0.294,1.257,0.455,2.514,1.68,2.804c0.646,0.153,64.829,15.989,90.071,68c15.152,31.213,13.471,69.157-4.995,112.774
						c-0.503,1.189,0.022,2.565,1.175,3.07C3028.997,1974.157,3029.173,1974.211,3029.344,1974.24z"/>
					<path style="opacity:0.72;fill:#FFFFFF;" d="M2630.588,1612.121c0.999,1.216,2.067,2.461,3.243,3.762
						c11.547,12.743,28.296,23.8,44.503,34.492c25.607,16.891,49.771,32.84,47.208,52.207c-0.059,0.451-0.614,0.553-1.237,0.225
						c-0.13-0.069-0.247-0.146-0.356-0.233c-0.433-0.341-0.717-0.817-0.67-1.173c2.383-18.007-19.843-32.663-45.543-49.62
						c-16.448-10.854-33.445-22.071-45.383-35.248c-1.093-1.21-2.103-2.377-3.053-3.521
						C2629.733,1612.717,2630.161,1612.421,2630.588,1612.121z"/>
				</g>
			</g>
		</g>
	</g>
</g>
</svg>
