<?xml version="1.0" encoding="utf-8"?>
<!-- Generator: Adobe Illustrator 27.5.0, SVG Export Plug-In . SVG Version: 6.00 Build 0)  -->
<svg version="1.1" xmlns="http://www.w3.org/2000/svg" xmlns:xlink="http://www.w3.org/1999/xlink" x="0px" y="0px"
	 viewBox="0 0 3710 3710" style="enable-background:new 0 0 3710 3710;" xml:space="preserve">
<g id="Background">
	<g>
		<g>
		</g>
	</g>
</g>
<g id="Illustration">
	<g>
		<linearGradient id="SVGID_1_" gradientUnits="userSpaceOnUse" x1="3606.2993" y1="4079.2664" x2="1121.2917" y2="993.043">
			<stop  offset="0" style="stop-color:#DAE3FE"/>
			<stop  offset="1" style="stop-color:#E9EFFD"/>
		</linearGradient>
		<path style="fill:url(#SVGID_1_);" d="M2922.658,2862.171c-57.08,60.091-111.088,98.843-153.759,129.46
			c-501.587,359.895-1095.098,254.987-1221.236,229.368c-186.266-37.832-546.314-110.959-806.622-417.077
			c-393.825-463.13-332.5-1192.778-27.023-1674.429c55.877-88.102,351.033-577.09,950.936-655.508
			c363.055-47.458,786.261,48.259,1092.734,305.023C3401.004,1317.98,3355.207,2406.798,2922.658,2862.171z"/>
		<g>
			<path style="fill:#7D97F4;" d="M2355.149,1169.179c-68.505,0-135.061,8.835-198.715,25.484
				c-87.261,22.824-179.673,12.377-259.98-28.688c-107.088-54.759-226.301-85.305-351.948-85.305
				c-464.999,0-841.954,418.282-841.954,934.259s374.497,1202.244,839.495,1202.244c79.618,0,156.725-20.121,229.849-56.06
				c120.425-59.188,261.14-63.261,384.978-11.594c62.727,26.171,128.299,40.61,195.816,40.61
				c456.672,0,829.336-660.399,829.336-1144.467S2811.821,1169.179,2355.149,1169.179z"/>
			<path style="fill:#7D97F4;" d="M1861.225,514.607c-18.693,132.441-58.443,551.919,143.145,788.565h32.707
				c0,0-141.769-397.266,43.277-756.483c13.566-26.334,3.994-58.969-21.999-73.177c-28.413-15.53-74.789-26.451-148.132-11.147
				C1884.508,467.73,1864.896,488.596,1861.225,514.607z"/>
			
				<linearGradient id="SVGID_00000145755236185745580270000001656676074160655275_" gradientUnits="userSpaceOnUse" x1="2028.076" y1="3065.1145" x2="1693.1798" y2="3419.8337">
				<stop  offset="0" style="stop-color:#09005D"/>
				<stop  offset="1" style="stop-color:#1A0F91"/>
			</linearGradient>
			<path style="fill:url(#SVGID_00000145755236185745580270000001656676074160655275_);" d="M1844.561,3073.347
				c0,0,100.802-49.172,159.808,0c59.006,49.171,76.216,113.094,56.547,142.597c-19.669,29.503-49.172-39.337-95.885,0
				c-46.713,39.337-66.382,34.42-76.216,0C1878.981,3181.524,1746.218,3353.625,1844.561,3073.347z"/>
			<g>
				<g>
					<defs>
						<path id="SVGID_00000050627566438209054650000014001303598419444616_" d="M1542.047,3146.4
							c-95.86,0-192.076-34.299-285.976-101.943c-88.949-64.082-174.919-158.547-248.613-273.183
							c-144.419-224.661-234.134-514.472-234.134-756.342c0-476.128,345.95-863.487,771.181-863.487
							c111.533,0,219.106,26.088,319.729,77.545c61.799,31.599,130.961,48.301,200.003,48.297c37.153,0,74.198-4.76,110.105-14.154
							c58.813-15.38,119.647-23.181,180.805-23.181c416.919,0,756.105,361.441,756.105,805.713
							c0,226.278-88.723,500.069-231.549,714.529c-72.938,109.522-157.791,199.854-245.383,261.226
							c-92.751,64.985-187.506,97.939-281.631,97.939c-55.943,0-112.656-11.827-168.564-35.156
							c-65.905-27.493-135.58-41.436-207.087-41.436c-81.642,0-163.373,18.96-236.359,54.83
							C1674.797,3129.978,1607.968,3146.4,1542.047,3146.4z"/>
					</defs>
					<clipPath id="SVGID_00000000918286170638736280000007783140627107475375_">
						<use xlink:href="#SVGID_00000050627566438209054650000014001303598419444616_"  style="overflow:visible;"/>
					</clipPath>
				</g>
				<g>
					<defs>
						<path id="SVGID_00000058577561811881748970000001295988091526610101_" d="M1542.047,3146.4
							c-95.86,0-192.076-34.299-285.976-101.943c-88.949-64.082-174.919-158.547-248.613-273.183
							c-144.419-224.661-234.134-514.472-234.134-756.342c0-476.128,345.95-863.487,771.181-863.487
							c111.533,0,219.106,26.088,319.729,77.545c61.799,31.599,130.961,48.301,200.003,48.297c37.153,0,74.198-4.76,110.105-14.154
							c58.813-15.38,119.647-23.181,180.805-23.181c416.919,0,756.105,361.441,756.105,805.713
							c0,226.278-88.723,500.069-231.549,714.529c-72.938,109.522-157.791,199.854-245.383,261.226
							c-92.751,64.985-187.506,97.939-281.631,97.939c-55.943,0-112.656-11.827-168.564-35.156
							c-65.905-27.493-135.58-41.436-207.087-41.436c-81.642,0-163.373,18.96-236.359,54.83
							C1674.797,3129.978,1607.968,3146.4,1542.047,3146.4z"/>
					</defs>
					<use xlink:href="#SVGID_00000058577561811881748970000001295988091526610101_"  style="overflow:visible;fill:#91B3FA;"/>
					<clipPath id="SVGID_00000072970532517774689840000017920431999302136718_">
						<use xlink:href="#SVGID_00000058577561811881748970000001295988091526610101_"  style="overflow:visible;"/>
					</clipPath>
					<g style="clip-path:url(#SVGID_00000072970532517774689840000017920431999302136718_);">
						<g>
							<path style="fill:#BDD0FB;" d="M2173.784,2962.057c-19.794,12.531-48.196,25.776-76.676,22.751
								c-51.782-5.5-75.169-84.765-46.753-154.474c20.295-49.792,87.877-28.822,124.839-12.776
								c11.629,5.049,24.594-3.679,24.533-16.356l-0.869-179.172l201.82-0.979c17.622-0.086,29.046,18.511,20.966,34.172
								c-9.68,18.767-19.931,43.429-23.894,69.353c-8.361,54.67,52.284,109.006,109.761,102.978
								c57.475-6.031,100.338-60.868,97.184-118.359c-1.09-19.883-9.486-36.392-20.006-49.485
								c-12.109-15.073-0.762-37.521,18.574-37.615l176.396-0.856l0.919,189.54c0.051,10.446,12.311,16.171,20.268,9.402
								c108.123-91.995,214.496,91.149,144.335,137.511c-53.765,35.527-115.309,10.168-145.419-6.712
								c-8.298-4.653-18.498,1.306-18.452,10.822l0.891,183.574l-182.465,0.884c-19.348,0.094-30.837-22.213-18.928-37.463
								c12.408-15.89,23.361-36.314,25.531-60.329c5.459-60.407-52.213-94.631-98.273-106.246
								c-46.063-11.615-111.936,41.135-103.046,95.721c4.795,29.437,13.53,59.688,20.563,81.317
								c4.925,15.15-6.438,30.645-22.368,30.623l-201.799-0.264l-0.837-172.613
								C2200.514,2963.292,2185.373,2954.721,2173.784,2962.057z"/>
						</g>
						<path style="fill:#91B3FA;" d="M2799.763,2950.979c30.11,16.881,91.654,42.24,145.419,6.712
							c70.161-46.362-36.212-229.506-144.335-137.511c-7.957,6.77-20.218,1.044-20.268-9.402l-0.919-189.54l204.144-0.99
							c17.272-0.084,28.529-18.127,20.997-33.672c-10.595-21.87-22.7-52.084-27.32-83.335
							c-8.918-60.338,59.913-96.532,117.456-88.945c57.543,7.588,92.381,76.426,86.797,110.956
							c-2.593,16.033-16.493,37.398-30.645,55.688c-11.987,15.494-0.976,37.962,18.615,37.866l199.373-0.967l0.888,183.119
							c0.073,15.024,17.307,23.426,29.217,14.268c50.119-38.538,112.699-21.963,132.013,30.362
							c23.31,63.144,6.337,120.731-59.751,129.677c-66.087,8.946-100.822-38.915-100.822-38.915s0.558,115.036,0.974,200.859
							l-200.291-6.266c-19.072-0.598-30.762,20.51-20.244,36.433c13.436,20.341,27.124,47.244,31.285,76.691
							c8.933,63.213-42.542,120.968-97.173,121.233c-54.628,0.265-120.995-48.293-106.996-125.993
							c5.084-28.211,11.232-48.469,17.004-62.829c6.19-15.406-5.334-32.111-21.939-32.031l-191.04,0.927l-0.891-183.574
							C2781.265,2952.285,2791.465,2946.326,2799.763,2950.979z"/>
						<path style="fill:#91B3FA;" d="M1688.063,2979.34c31.465,17.444,76.466,20.101,115.439-62.114
							c56.236-118.632-50.768-142.16-119.054-111.65c-17.293,7.728-36.777-5.028-36.869-23.968l-0.761-156.9l169.015-0.82
							c16.734-0.081,28.323-17.185,21.708-32.558c-7.334-17.041-14.394-40.302-15.826-68.558
							c-3.179-62.788,48.343-110.85,120.268-101.669c71.928,9.181,89.476,70.236,80.995,100.087
							c-4.429,15.585-21.566,42.698-36.934,65.053c-10.73,15.607,0.52,36.817,19.459,36.726l193.354-0.938l0.869,179.172
							c0.061,12.677-12.904,21.405-24.533,16.356c-36.962-16.047-104.544-37.016-124.839,12.776
							c-28.416,69.708-5.029,148.974,46.753,154.474c28.48,3.024,56.882-10.22,76.676-22.751c11.589-7.336,26.73,1.235,26.796,14.95
							l0.837,172.613l-175.642-0.231c-21.111-0.025-33.202-23.503-21.528-41.091c10.863-16.364,20.249-36.245,21.303-57.012
							c2.623-51.768-37.881-103.326-89.65-106.117c-51.768-2.79-117.714,35.241-114.561,92.731
							c1.491,27.173,15.832,54.926,30.542,76.64c11.804,17.421-0.659,40.897-21.703,40.874l-180.786-0.206l-0.741-152.903
							C1648.552,2982.011,1670.313,2969.5,1688.063,2979.34z"/>
						<path style="fill:#91B3FA;" d="M2224.893,2442.082c19.774,12.399,50.492,22.632,92.47,11.17
							c80.403-21.955,75.735-95.252,59.745-131.116c-13.467-30.208-92.238-65.2-147.427-24.644
							c-11.661,8.568-28.081,0.58-28.152-13.891l-0.842-173.54l203.484-0.987c17.954-0.087,29.689-18.971,21.591-34.996
							c-8.837-17.476-17.377-41.36-20.013-71.237c-6.084-68.977,54.137-101.978,114.533-98.855
							c52.381,2.709,118.094,78.486,61.755,160.805c-10.981,16.04,0.771,37.827,20.211,37.732l179.628-0.871l1.032,212.765
							c-55.964-65.86-137.232-48.214-168.539,18.069c-31.306,66.282-5.135,126.536,66.771,131.938
							c37.025,2.782,61.775-10.47,77.076-23.981c8.016-7.079,20.559-1.58,20.611,9.116l0.833,171.678l-176.396,0.856
							c-19.336,0.094-30.683,22.542-18.574,37.615c10.519,13.092,18.916,29.602,20.006,49.485
							c3.154,57.491-39.709,112.328-97.184,118.359c-57.477,6.029-118.121-48.308-109.761-102.978
							c3.964-25.924,14.214-50.585,23.894-69.353c8.08-15.661-3.344-34.257-20.966-34.172l-201.82,0.979l-0.8-164.961
							C2197.991,2443.228,2213.167,2434.731,2224.893,2442.082z"/>
						<g>
							<path style="fill:#BDD0FB;" d="M1591.037,1799.332c-41.823-20.443-96.99-46.539-126.538-9.905
								c-40.012,49.614-22.291,146.208,46.741,151.624c36.556,2.867,71.191-6.57,95.687-16.083
								c17.167-6.668,35.636,6.061,35.725,24.476l0.79,162.957l-199.983,0.97c-18.616,0.091-30.042,20.178-20.838,36.361
								c42.544,74.803,36.648,166.559-93.624,157.363c-109.858-7.756-85.739-101.275-63.692-152.92
								c6.813-15.956-5.156-33.64-22.507-33.556l-186.494,0.904l-0.821-169.421c-0.084-17.145,18.106-28.154,33.262-20.135
								c25.138,13.297,60.066,26.251,88.998,16.45c51.67-17.502,51.173-119.931,16.487-157.68
								c-22.321-24.292-73.674-6.548-107.449,9.192c-14.998,6.986-32.135-3.896-32.215-20.44l-0.963-198.504l182.357-0.885
								c16.871-0.082,27.038-18.358,18.545-32.936c-10.255-17.603-20.092-41.66-21.545-70.56
								c-3.184-63.24,91.614-81.194,131.868-81.268c36.245-0.067,117.028,50.836,49.229,149.537
								c-10.002,14.562,0.207,34.362,17.873,34.276l195.648-0.949l0.956,197.213
								C1628.629,1794.76,1608.418,1807.829,1591.037,1799.332z"/>
						</g>
						<path style="fill:#91B3FA;" d="M2179.848,1265.838c-31.103-19.413-82.553-40.748-119.117-0.987
							c-55.774,60.651-22.999,148.907,41.746,159.375c32.749,5.296,59.206-5.931,77.358-18.32
							c11.761-8.026,27.664,0.006,27.732,14.244l0.753,155.235l-191.179,0.927c-17.58,0.085-28.019-19.61-17.992-34.049
							c9.708-13.98,17.131-32.297,15.936-55.076c-3.167-60.365-40.725-97.561-92.466-94.557
							c-51.741,3.005-114.828,38.058-103.089,86.88c5.599,23.296,17.747,46.56,28.918,64.519c8.987,14.446-1.377,33.108-18.39,33.19
							l-202.481,0.982l-0.712-146.634c-0.098-20.331,21.908-33.172,39.468-22.927c18.961,11.061,44.878,17.655,78.134,7.979
							c80.394-23.393,68.447-115.343,16.471-161.097c-28.778-25.331-67-12.674-95.389,3.671
							c-17.592,10.127-39.531-2.296-39.629-22.594l-0.819-168.713l200.761-0.974c13.854-0.067,23.033,14.408,16.935,26.848
							c-10.965,22.375-24.451,56.276-27.566,92.493c-5.442,63.282,75.12,74.528,126.886,77.085
							c46.771,2.31,118.975-75.238,49.394-167.233c-9.327-12.333-0.741-30.018,14.722-30.093l199.611-0.968l0.901,185.827
							C2206.814,1264.739,2191.614,1273.182,2179.848,1265.838z"/>
						<path style="fill:#91B3FA;" d="M1019.708,1252.648c-40.819-18.991-106.664-17.657-127.083,7.087
							c-28.584,34.642-44.389,174.04,46.841,172.29c35.84-0.687,60.978-10.238,78.292-21.582
							c15.07-9.875,35.021,0.774,35.108,18.791l0.736,151.752l-196.214,0.951c-17.778,0.087-28.125-19.973-17.772-34.425
							c12.818-17.895,25.624-40.183,28.233-60.51c5.542-43.156-46.449-91.783-101.063-88.643
							c-54.617,3.141-117.759,26.449-111.728,83.925c2.722,25.959,14.229,48.942,26.029,66.343
							c9.859,14.54-0.138,34.166-17.706,34.251l-193.512,0.938l-0.781-161.011c0,0-150.338,80.179-162.339-22.744
							c-10.934-93.783,3.046-154.446,123.393-123.839c19.342,4.918,38.188-9.666,38.091-29.625l-0.776-160.192l193.579-0.939
							c13.309-0.065,22.482,13.369,17.448,25.69c-7.468,18.269-16.184,44.364-19.128,72.077
							c-5.498,51.782,37.783,83.201,106.803,85.741c62.549,2.302,98.754-70.834,55.422-157.088
							c-6.268-12.476,2.334-27.209,16.298-27.277l213.311-1.035l0.717,147.711
							C1051.988,1247.92,1034.789,1259.663,1019.708,1252.648z"/>
						<path style="fill:#91B3FA;" d="M1665.55,1259.193c28.389-16.345,66.611-29.001,95.389-3.671
							c51.976,45.753,63.923,137.703-16.471,161.097c-33.256,9.676-59.174,3.082-78.134-7.979
							c-17.56-10.244-39.566,2.597-39.468,22.927l0.712,146.634l-195.648,0.949c-17.666,0.086-27.875-19.714-17.873-34.276
							c67.799-98.701-12.984-149.605-49.229-149.537c-40.254,0.074-135.051,18.028-131.868,81.268
							c1.453,28.9,11.29,52.957,21.545,70.56c8.492,14.578-1.674,32.854-18.545,32.936l-182.357,0.885l-0.736-151.752
							c-0.087-18.017-20.038-28.666-35.108-18.791c-17.315,11.344-42.453,20.895-78.292,21.582
							c-91.23,1.75-75.425-137.647-46.841-172.29c20.42-24.744,86.264-26.078,127.083-7.087c15.081,7.015,32.28-4.728,32.199-21.361
							l-0.717-147.711l199.553-0.968c14.547-0.071,23.415-15.914,15.923-28.385c-15.23-25.348-34.361-64.523-36.257-103.779
							c-3.197-66.116,71.517-75.104,129.008-78.259c50.774-2.786,110.991,90.878,61.24,167.554
							c-8.152,12.563,0.644,29.137,15.62,29.064l188.826-0.916l0.819,168.713C1626.019,1256.897,1647.958,1269.32,1665.55,1259.193z
							"/>
						<g>
							<path style="fill:#BDD0FB;" d="M693.816,2086.564c-13.222-22.006-27.4-50.464-30.442-75.27
								c-5.986-48.85,54.17-95.147,126.091-86.87c61.134,7.036,116.388,86.807,64.731,160.347
								c-11.141,15.863,1.01,37.728,20.395,37.634l181.715-0.882l0.812,167.529c0.093,18.946-21.518,29.389-36.625,17.954
								c-63.277-47.899-162.229-58.299-156.986,62.727c4.69,108.263,93.214,87.756,141.68,68.214
								c14.922-6.016,31.19,4.77,31.268,20.859l0.82,168.859l-179.838,0.872c-18.875,0.091-30.156-20.993-19.533-36.594
								c13.222-19.416,26.594-43.425,29.247-64.088c5.54-43.156-29.242-100.493-86.744-100.213
								c-57.505,0.279-112.05,17.795-105.952,89.647c2.799,32.951,12.214,59.219,21.592,78.002
								c7.812,15.654-3.268,34.045-20.766,34.131l-200.333,0.971l-0.745-153.637c-0.105-21.8,22.15-36.918,42.171-28.291
								c15.473,6.667,33.558,12.764,51.383,14.904c46.033,5.528,77.082-60.948,72.489-115.556
								c-3.618-42.997-68.845-92.719-125.822-69.433c-19.699,8.052-41.217-7.023-41.321-28.307l-0.61-125.719l200.71-0.974
								C692.058,2123.29,703.526,2102.727,693.816,2086.564z"/>
						</g>
						<path style="fill:#91B3FA;" d="M696.046,2595.291c-9.378-18.783-18.793-45.051-21.592-78.002
							c-6.097-71.852,48.447-89.368,105.952-89.647c57.502-0.279,92.284,57.057,86.744,100.213
							c-2.654,20.664-16.026,44.672-29.247,64.088c-10.622,15.601,0.658,36.686,19.533,36.594l179.838-0.872l0.835,172.076
							c0.085,17.49,19.237,28.568,34.144,19.421c17.332-10.634,43.056-19.36,80.867-19.543
							c97.757-0.475,138.568,114.338,58.219,147.205c-53.281,21.797-111.759,15.054-145.111,8.036
							c-14.124-2.97-27.328,7.871-27.258,22.304l0.885,182.413l-174.403,0.846c-20.651,0.1-33.399-22.654-22.336-40.091
							c13.691-21.583,28.194-47.283,32.343-64.989c8.451-36.065-32.121-101.833-101.139-104.374
							c-69.019-2.54-97.605,32.102-103.02,101.135c-2.257,28.763,5.945,52.485,16.281,70.372
							c9.967,17.248-3.034,38.824-22.953,38.921l-187.1,0.908l-0.809-166.809c-0.1-20.545,19.696-35.276,39.348-29.282
							c46.545,14.196,118.448,20.516,125.712-72.107c8.911-113.573-56.318-109.285-123.117-78.685
							c-20.033,9.177-42.844-5.588-42.951-27.623l-0.764-157.407l200.333-0.971C692.778,2629.336,703.858,2610.945,696.046,2595.291
							z"/>
						<path style="fill:#91B3FA;" d="M681.088,1548.627c-11.8-17.401-23.307-40.384-26.029-66.343
							c-6.031-57.477,57.112-80.785,111.728-83.925c54.614-3.14,106.605,45.487,101.063,88.643
							c-2.609,20.327-15.414,42.615-28.233,60.51c-10.352,14.452-0.005,34.511,17.772,34.425l196.214-0.951l0.963,198.504
							c0.08,16.543,17.216,27.426,32.215,20.44c33.775-15.74,85.128-33.484,107.449-9.192
							c34.686,37.749,35.183,140.178-16.487,157.68c-28.932,9.801-63.86-3.153-88.998-16.45
							c-15.155-8.019-33.345,2.989-33.262,20.135l0.821,169.421l-181.715,0.882c-19.385,0.094-31.537-21.771-20.395-37.634
							c51.657-73.54-3.597-153.311-64.731-160.347c-71.921-8.277-132.077,38.019-126.091,86.87
							c3.042,24.806,17.22,53.264,30.442,75.27c9.711,16.163-1.758,36.726-20.613,36.818l-200.71,0.974l-0.947-195.138
							c-0.108-22.328,23.11-37.376,43.279-27.795c24.033,11.418,53.701,58.541,76.405,55.592
							c45.974-5.975,56.859-108.457,48.025-163.584c-6.74-42.077-72.508-20.825-125.176,3.363
							c-20.189,9.272-43.201-5.228-43.308-27.441l-0.9-185.534l193.512-0.938C680.95,1582.793,690.946,1563.167,681.088,1548.627z"
							/>
						<g>
							<path style="fill:#BDD0FB;" d="M1066.228,2954.862c33.352,7.017,91.83,13.761,145.111-8.036
								c80.349-32.868,39.538-147.68-58.219-147.205c-37.81,0.183-63.534,8.909-80.867,19.543
								c-14.907,9.146-34.06-1.931-34.144-19.421l-0.835-172.076l197.479-0.958c18.178-0.088,29.09-19.766,20.013-35.515
								c-10.172-17.651-19.472-40.487-19.591-65.123c-0.265-54.628,65.6-109.579,126.021-101.246
								c60.422,8.333,103.768,53.223,92.493,99.734c-5.163,21.298-20.138,44.357-34.858,63.099
								c-12.171,15.499-1.247,38.164,18.462,38.068l209.525-1.017l0.761,156.9c0.092,18.94,19.575,31.696,36.869,23.968
								c68.286-30.51,175.29-6.982,119.054,111.65c-38.973,82.215-83.974,79.558-115.439,62.114
								c-17.751-9.841-39.511,2.671-39.413,22.966l0.741,152.903l-191.847-0.218c-20.067-0.023-32.75,21.569-22.848,39.02
								c13.207,23.276,25.282,56.038,22.705,95.804c-5.35,82.522-59.822,115.301-120.187,118.469
								c-60.365,3.168-123.914-56.904-107.011-128.868c7.556-32.166,22.026-59.771,35.72-80.465
								c11.475-17.338-1.374-40.463-22.165-40.363l-203.904,0.989l-0.885-182.413
								C1038.9,2962.732,1052.104,2951.891,1066.228,2954.862z"/>
						</g>
						<g>
							<path style="fill:#BDD0FB;" d="M1684.636,2447.461c13.108,6.778,29.05,12.935,47.064,15.819
								c100.473,16.093,86.328-108.093,34.333-157.514c-26.469-25.157-57.478-16.558-81.543-2.05
								c-17.646,10.639-40.127-1.623-40.227-22.229l-0.821-169.086l161.952-0.785c18.342-0.088,29.864,19.273,21.533,35.611
								c-9.592,18.811-18.32,44.199-18.174,74.157c0.321,66.131,89.528,81.528,118.292,83.536
								c26.088,1.822,130.005-46.078,64.91-157.468c-9.412-16.107,2.116-36.388,20.772-36.478l187.961-0.912l0.842,173.54
								c0.07,14.471,16.491,22.459,28.152,13.891c55.189-40.557,133.96-5.565,147.427,24.644
								c15.989,35.865,20.657,109.161-59.745,131.116c-41.978,11.462-72.696,1.229-92.47-11.17
								c-11.726-7.351-26.902,1.146-26.834,14.988l0.8,164.961l-193.354,0.938c-18.94,0.092-30.189-21.118-19.459-36.726
								c15.368-22.356,32.505-49.468,36.934-65.053c8.481-29.851-9.067-90.906-80.995-100.087
								c-71.926-9.181-123.448,38.881-120.268,101.669c1.432,28.256,8.493,51.517,15.826,68.558
								c6.615,15.373-4.973,32.477-21.708,32.558l-169.015,0.82l-0.746-153.81
								C1645.976,2451.018,1666.978,2438.332,1684.636,2447.461z"/>
						</g>
						<g>
							<path style="fill:#7D97F4;" d="M2265.447,1934.903c13.191,7.014,29.234,13.385,47.362,16.371
								c101.106,16.662,86.854-111.81,34.527-162.944c-26.639-26.028-57.841-17.137-82.055-2.131
								c-17.755,11.004-40.379-1.685-40.482-23.002l-0.849-174.92l162.968-0.79c18.457-0.089,30.054,19.942,21.672,36.843
								c-9.649,19.458-18.428,45.722-18.278,76.713c0.332,68.412,90.101,84.354,119.045,86.435
								c26.252,1.888,130.814-47.65,65.295-162.892c-9.473-16.664,2.125-37.643,20.897-37.734l189.14-0.917l0.871,179.527
								c0.073,14.97,16.598,23.236,28.33,14.374c55.53-41.948,134.799-5.738,148.355,25.514
								c16.094,37.104,20.802,112.93-60.102,135.632c-42.24,11.851-73.152,1.261-93.051-11.568
								c-11.801-7.607-27.071,1.182-27.001,15.501l0.828,170.653l-194.567,0.944c-19.059,0.092-30.381-21.851-19.586-37.995
								c15.461-23.125,32.702-51.17,37.156-67.293c8.531-30.88-9.136-94.044-81.517-103.551
								c-72.378-9.507-124.216,40.206-121.009,105.16c1.445,29.231,8.553,53.296,15.935,70.926c6.658,15.904-5,33.596-21.84,33.678
								l-170.075,0.825l-0.772-159.117C2226.544,1938.577,2247.677,1925.456,2265.447,1934.903z"/>
						</g>
					</g>
				</g>
				<g>
					<defs>
						<path id="SVGID_00000120547067580317109650000006439110653485866669_" d="M1542.047,3146.4
							c-95.86,0-192.076-34.299-285.976-101.943c-88.949-64.082-174.919-158.547-248.613-273.183
							c-144.419-224.661-234.134-514.472-234.134-756.342c0-476.128,345.95-863.487,771.181-863.487
							c111.533,0,219.106,26.088,319.729,77.545c61.799,31.599,130.961,48.301,200.003,48.297c37.153,0,74.198-4.76,110.105-14.154
							c58.813-15.38,119.647-23.181,180.805-23.181c416.919,0,756.105,361.441,756.105,805.713
							c0,226.278-88.723,500.069-231.549,714.529c-72.938,109.522-157.791,199.854-245.383,261.226
							c-92.751,64.985-187.506,97.939-281.631,97.939c-55.943,0-112.656-11.827-168.564-35.156
							c-65.905-27.493-135.58-41.436-207.087-41.436c-81.642,0-163.373,18.96-236.359,54.83
							C1674.797,3129.978,1607.968,3146.4,1542.047,3146.4z"/>
					</defs>
					<clipPath id="SVGID_00000132798220790941817650000008635116860661397391_">
						<use xlink:href="#SVGID_00000120547067580317109650000006439110653485866669_"  style="overflow:visible;"/>
					</clipPath>
				</g>
			</g>
			<g>
				<path style="fill:#7D97F4;" d="M2012.985,1290.255c-14.372-6.806-15.368-32.499-2.022-49.022
					c73.64-91.174,296.034-329,605.02-318.421c260.925,8.933,408.545-19.459,475.88-38.341c14.24-3.993,20.203,17.439,8.747,31.399
					C2974.226,1069.893,2533.784,1536.901,2012.985,1290.255z"/>
				<path style="fill:#91B3FA;" d="M2023.103,1262.644c-2.385,0-4.695-1.268-5.916-3.509c-1.777-3.262-0.573-7.35,2.689-9.127
					c4-2.182,404.232-218.016,771.397-227.567c3.767-0.187,6.806,2.836,6.903,6.551c0.095,3.713-2.837,6.804-6.552,6.9
					c-363.961,9.469-761.339,223.769-765.309,225.931C2025.293,1262.381,2024.19,1262.644,2023.103,1262.644z"/>
			</g>
		</g>
		<g>
			
				<linearGradient id="SVGID_00000125587291347247320370000007366935157005037452_" gradientUnits="userSpaceOnUse" x1="10.6659" y1="932.0281" x2="1128.3411" y2="932.0281" gradientTransform="matrix(0.9917 0.1283 -0.1283 0.9917 625.1455 109.6873)">
				<stop  offset="0" style="stop-color:#FF928E"/>
				<stop  offset="1" style="stop-color:#FE7062"/>
			</linearGradient>
			<path style="fill:url(#SVGID_00000125587291347247320370000007366935157005037452_);" d="M471.396,1516.86
				c-1.971-18.732-2.635-37.457-2.834-56.245c-0.199-18.781,0.238-37.596,1.532-56.375c2.509-37.551,7.224-75.182,15.838-112.224
				c4.32-18.515,9.545-36.874,15.563-55.069c6.296-18.104,13.412-36.023,21.802-53.51c17.042-34.768,39.177-67.942,67.837-95.905
				l5.332-5.269l5.678-4.923c3.835-3.247,7.498-6.632,11.508-9.756c8.308-5.989,16.45-12.398,25.415-17.311l6.606-3.925l3.312-1.955
				l3.422-1.678l13.737-6.683c4.578-2.265,9.35-3.847,14.04-5.774c4.719-1.807,9.415-3.79,14.23-5.141
				c38.289-12.411,77.693-18.297,116.496-20.068c38.869-1.839,77.362-0.417,115.385,2.642c38.008,3.247,75.559,8.111,112.796,13.464
				c74.358,10.882,147.755,24.512,219.58,32.508c17.948,1.982,35.732,3.376,53.224,4.041l13.068,0.378l12.846-0.115
				c4.247,0.037,8.611-0.162,12.971-0.368c4.345-0.224,8.736-0.279,13.027-0.685c34.571-2.311,68.152-8.318,98.54-19.779
				c15.102-5.881,29.452-12.89,42.714-21.399c13.171-8.619,25.601-18.265,36.712-29.578c22.588-22.25,40.253-50.504,54.88-81.483
				c7.106-15.606,13.503-31.907,19.252-48.664l4.139-12.698c1.411-4.235,2.761-8.504,3.919-12.847l3.828-12.972
				c1.244-4.347,2.305-8.756,3.471-13.147c2.448-8.761,4.558-17.661,6.677-26.593c2.39-8.898,4.019-17.962,6.262-26.986
				l5.943-27.329c1.947-9.164,3.768-18.376,6.058-27.625l0.013-0.05c0.258-1.041,1.311-1.667,2.353-1.398
				c0.755,0.195,1.298,0.809,1.44,1.527c1.842,9.37,3.315,18.78,4.731,28.23c1.103,9.443,2.298,18.933,3.05,28.449
				c1.468,19.035,2.234,38.208,1.68,57.476c-0.267,19.283-2.2,38.608-4.734,58.028c-3.149,19.322-7.036,38.773-13.002,57.933
				c-5.881,19.204-13.682,38.057-23.223,56.404c-2.492,4.543-5.131,9.008-7.715,13.514l-8.589,13.12
				c-6.058,8.555-12.328,17.08-19.54,24.873c-28.135,31.87-65.285,56.023-104.363,70.521c-39.188,14.555-79.626,21.212-119.17,23.7
				c-4.968,0.427-9.885,0.488-14.826,0.713c-4.929,0.199-9.854,0.415-14.913,0.337l-15.057-0.093l-14.83-0.633
				c-19.691-1.03-39.032-2.85-58.078-5.223c-38.129-4.665-75.417-10.928-112.268-17.697l-109.756-19.994
				c-36.349-6.458-72.576-12.355-108.684-16.642c-36.075-4.353-72.07-7.223-107.583-7.029
				c-35.508,0.025-70.502,3.438-103.379,12.283c-4.2,0.913-8.123,2.39-12.139,3.689c-3.96,1.4-8.135,2.423-11.96,4.077
				l-11.594,4.785l-2.911,1.188l-2.755,1.432l-5.524,2.856c-7.601,3.5-14.283,8.293-21.34,12.639
				c-3.45,2.351-6.758,5.093-10.162,7.615l-5.085,3.858l-4.805,4.226c-13.167,10.891-24.84,23.708-35.934,37.083
				c-11.098,13.434-20.594,28.291-29.857,43.384c-8.973,15.301-16.947,31.327-24.251,47.763
				c-7.04,16.56-13.435,33.502-19.017,50.805c-5.417,17.351-10.369,34.932-14.748,52.73c-4.257,17.825-7.883,35.861-10.923,54.039
				c-5.964,36.351-10.296,73.286-11.557,110.38l-0.002,0.055c-0.036,1.052-0.917,1.868-1.969,1.821
				C472.264,1518.543,471.493,1517.793,471.396,1516.86z"/>
			
				<linearGradient id="SVGID_00000093889807689016059810000006855400588822147721_" gradientUnits="userSpaceOnUse" x1="408.6695" y1="958.845" x2="568.9593" y2="958.845" gradientTransform="matrix(0.9917 0.1283 -0.1283 0.9917 625.1455 109.6873)">
				<stop  offset="0" style="stop-color:#FF928E"/>
				<stop  offset="1" style="stop-color:#FE7062"/>
			</linearGradient>
			<path style="fill:url(#SVGID_00000093889807689016059810000006855400588822147721_);" d="M933.744,1032.359
				c0.217,0.247,0.423,0.507,0.618,0.78l120.5,169.351c3.063,4.306,2.086,10.249-2.182,13.271c-4.27,3.023-10.21,1.974-13.277-2.32
				l-120.499-169.352c-3.063-4.306-2.087-10.249,2.181-13.271C925.083,1027.987,930.549,1028.72,933.744,1032.359z"/>
			
				<linearGradient id="SVGID_00000018945498454307478970000013108603238324797071_" gradientUnits="userSpaceOnUse" x1="289.484" y1="1018.8241" x2="555.2549" y2="1018.8241" gradientTransform="matrix(0.9917 0.1283 -0.1283 0.9917 625.1455 109.6873)">
				<stop  offset="0" style="stop-color:#FF928E"/>
				<stop  offset="1" style="stop-color:#FE7062"/>
			</linearGradient>
			<path style="fill:url(#SVGID_00000018945498454307478970000013108603238324797071_);" d="M814.227,1027.29
				c0.158,0.18,0.31,0.367,0.458,0.561l212.357,281.408c3.183,4.218,2.375,10.187-1.806,13.332
				c-4.179,3.143-10.129,2.259-13.333-1.944l-212.357-281.408c-3.183-4.219-2.375-10.187,1.806-13.332
				C805.339,1022.906,810.955,1023.562,814.227,1027.29z"/>
			
				<linearGradient id="SVGID_00000150063629824207750270000000173009820668818352_" gradientUnits="userSpaceOnUse" x1="172.1526" y1="1097.2704" x2="561.802" y2="1097.2704" gradientTransform="matrix(0.9917 0.1283 -0.1283 0.9917 625.1455 109.6873)">
				<stop  offset="0" style="stop-color:#4F52FF"/>
				<stop  offset="1" style="stop-color:#4042E2"/>
			</linearGradient>
			<path style="fill:url(#SVGID_00000150063629824207750270000000173009820668818352_);" d="M1018.231,1422.85
				c3.598,4.099,3.351,10.212-0.556,13.67c-3.916,3.466-10.031,2.952-13.656-1.147l-325.632-368.327
				c-0.008-0.009-0.016-0.019-0.024-0.028c-3.598-4.1-3.351-10.212,0.556-13.67c3.916-3.466,10.031-2.952,13.655,1.147
				l325.632,368.327C1018.206,1422.822,1018.223,1422.841,1018.231,1422.85z"/>
			
				<linearGradient id="SVGID_00000084509863708423865690000006702024937248934549_" gradientUnits="userSpaceOnUse" x1="96.0907" y1="1168.3873" x2="531.7955" y2="1168.3873" gradientTransform="matrix(0.9917 0.1283 -0.1283 0.9917 625.1455 109.6873)">
				<stop  offset="0" style="stop-color:#FF928E"/>
				<stop  offset="1" style="stop-color:#FE7062"/>
			</linearGradient>
			<path style="fill:url(#SVGID_00000084509863708423865690000006702024937248934549_);" d="M977.71,1503.717
				c3.426,3.903,3.147,9.821-0.665,13.308c-3.859,3.531-9.878,3.229-13.444-0.671l-368.008-402.609
				c-3.61-3.888-3.326-9.925,0.533-13.456c3.859-3.531,9.878-3.229,13.444,0.671l368.008,402.609
				C977.623,1503.617,977.667,1503.667,977.71,1503.717z"/>
			
				<linearGradient id="SVGID_00000016045170483168232460000016140105235538115498_" gradientUnits="userSpaceOnUse" x1="52.9982" y1="1245.9099" x2="469.054" y2="1245.9099" gradientTransform="matrix(0.9917 0.1283 -0.1283 0.9917 625.1455 109.6873)">
				<stop  offset="0" style="stop-color:#4F52FF"/>
				<stop  offset="1" style="stop-color:#4042E2"/>
			</linearGradient>
			<path style="fill:url(#SVGID_00000016045170483168232460000016140105235538115498_);" d="M557.797,1166.312
				c0.046,0.052,0.09,0.103,0.134,0.156l346.947,412.375c3.402,4.044,2.915,10.051-1.089,13.417
				c-4.004,3.365-10.033,2.791-13.41-1.227l-346.947-412.375c-3.402-4.044-2.915-10.051,1.089-13.416
				C548.472,1161.919,554.373,1162.411,557.797,1166.312z"/>
			
				<linearGradient id="SVGID_00000024687229680376634470000003841123939108053135_" gradientUnits="userSpaceOnUse" x1="22.7853" y1="1322.3473" x2="384.6939" y2="1322.3473" gradientTransform="matrix(0.9917 0.1283 -0.1283 0.9917 625.1455 109.6873)">
				<stop  offset="0" style="stop-color:#FF928E"/>
				<stop  offset="1" style="stop-color:#FE7062"/>
			</linearGradient>
			<path style="fill:url(#SVGID_00000024687229680376634470000003841123939108053135_);" d="M515.199,1260.093
				c0.064,0.073,0.127,0.147,0.19,0.223l298.906,361.693c3.366,4.073,2.825,10.075-1.21,13.405
				c-4.035,3.33-9.905,2.781-13.401-1.348L500.78,1272.373c-3.366-4.073-2.826-10.075,1.21-13.405
				C505.949,1255.701,511.802,1256.222,515.199,1260.093z"/>
			
				<linearGradient id="SVGID_00000152235898211307886010000011021778672546637714_" gradientUnits="userSpaceOnUse" x1="19.3978" y1="1387.2773" x2="281.7213" y2="1387.2773" gradientTransform="matrix(0.9917 0.1283 -0.1283 0.9917 625.1455 109.6873)">
				<stop  offset="0" style="stop-color:#FF928E"/>
				<stop  offset="1" style="stop-color:#FE7062"/>
			</linearGradient>
			<path style="fill:url(#SVGID_00000152235898211307886010000011021778672546637714_);" d="M498.699,1360.072
				c0.147,0.167,0.287,0.338,0.422,0.518l209.759,276.897c3.106,4.1,2.25,9.991-1.911,13.159
				c-4.162,3.169-10.087,2.366-13.158-1.685l-209.759-276.897c-3.106-4.099-2.25-9.991,1.911-13.159
				C489.944,1355.874,495.504,1356.432,498.699,1360.072z"/>
			
				<linearGradient id="SVGID_00000002360790475311966300000016112420736888014473_" gradientUnits="userSpaceOnUse" x1="527.0632" y1="787.3867" x2="847.5552" y2="787.3867" gradientTransform="matrix(0.9917 0.1283 -0.1283 0.9917 625.1455 109.6873)">
				<stop  offset="0" style="stop-color:#FF928E"/>
				<stop  offset="1" style="stop-color:#FE7062"/>
			</linearGradient>
			<path style="fill:url(#SVGID_00000002360790475311966300000016112420736888014473_);" d="M1350.159,1085.834
				c3.039,3.462,3.237,8.69,0.25,12.331c-3.317,4.045-9.31,4.598-13.384,1.234l-274.606-226.707
				c-4.078-3.351-4.688-9.371-1.369-13.415c3.317-4.045,9.309-4.598,13.384-1.234l274.606,226.707
				C1349.447,1085.085,1349.821,1085.449,1350.159,1085.834z"/>
			
				<linearGradient id="SVGID_00000098937651164089141430000006994506498994440885_" gradientUnits="userSpaceOnUse" x1="539.9664" y1="718.5833" x2="928.7321" y2="718.5833" gradientTransform="matrix(0.9917 0.1283 -0.1283 0.9917 625.1455 109.6873)">
				<stop  offset="0" style="stop-color:#4F52FF"/>
				<stop  offset="1" style="stop-color:#4042E2"/>
			</linearGradient>
			<path style="fill:url(#SVGID_00000098937651164089141430000006994506498994440885_);" d="M1432.936,1078.651
				c3.33,3.794,3.177,9.545-0.434,13.083c-3.736,3.662-9.76,3.565-13.453-0.213l-329.194-336.736
				c-3.765-3.788-3.66-9.81,0.076-13.469c3.736-3.662,9.76-3.566,13.453,0.213l329.193,336.736
				C1432.702,1078.391,1432.821,1078.52,1432.936,1078.651z"/>
			
				<linearGradient id="SVGID_00000023275645048762810450000004196471708191787672_" gradientUnits="userSpaceOnUse" x1="557.966" y1="641.8145" x2="1008.0031" y2="641.8145" gradientTransform="matrix(0.9917 0.1283 -0.1283 0.9917 625.1455 109.6873)">
				<stop  offset="0" style="stop-color:#FF928E"/>
				<stop  offset="1" style="stop-color:#FE7062"/>
			</linearGradient>
			<path style="fill:url(#SVGID_00000023275645048762810450000004196471708191787672_);" d="M1516.728,1048.769
				c3.427,3.905,3.146,9.824-0.668,13.311c-3.861,3.528-9.88,3.226-13.443-0.676l-380.614-416.761
				c-3.645-3.934-3.324-9.926,0.538-13.455c3.861-3.528,9.88-3.226,13.443,0.676l380.614,416.761
				C1516.643,1048.672,1516.685,1048.72,1516.728,1048.769z"/>
			
				<linearGradient id="SVGID_00000066481334006693193400000008216918080037392311_" gradientUnits="userSpaceOnUse" x1="618.289" y1="562.4692" x2="1067.6589" y2="562.4692" gradientTransform="matrix(0.9917 0.1283 -0.1283 0.9917 625.1455 109.6873)">
				<stop  offset="0" style="stop-color:#4F52FF"/>
				<stop  offset="1" style="stop-color:#4042E2"/>
			</linearGradient>
			<path style="fill:url(#SVGID_00000066481334006693193400000008216918080037392311_);" d="M1208.064,545.739
				c0.041,0.046,0.08,0.091,0.12,0.139c0,0,94.255,111.487,188.367,223.145c54.645,64.833,98.137,116.55,129.271,153.712
				c17.605,21.017,32.251,38.562,42.458,50.894c5.13,6.201,9.146,11.09,11.861,14.451c4.904,6.072,9.14,11.317,3.907,17.432
				c-3.401,3.974-9.404,4.403-13.41,0.955c-0.854-0.73-1.541-1.579-2.072-2.498c-12.086-16.328-274.121-326.719-374.853-445.868
				c-3.411-4.036-2.938-10.044,1.058-13.419C1198.719,541.346,1204.633,541.83,1208.064,545.739z M1568.145,995.218
				c0.354-0.774,0.821-1.509,1.402-2.188C1568.957,993.719,1568.494,994.457,1568.145,995.218z M1568.215,1003.3
				c-0.44-0.927-0.725-1.912-0.854-2.913C1567.491,1001.441,1567.789,1002.433,1568.215,1003.3z"/>
			
				<linearGradient id="SVGID_00000142890260871602566740000012273467598399855249_" gradientUnits="userSpaceOnUse" x1="718.6452" y1="501.6947" x2="1102.0231" y2="501.6947" gradientTransform="matrix(0.9917 0.1283 -0.1283 0.9917 625.1455 109.6873)">
				<stop  offset="0" style="stop-color:#FF928E"/>
				<stop  offset="1" style="stop-color:#FE7062"/>
			</linearGradient>
			<path style="fill:url(#SVGID_00000142890260871602566740000012273467598399855249_);" d="M1315.121,500.341
				c0.211,0.24,0.414,0.495,0.604,0.761l311.091,434.836c3.076,4.298,2.113,10.242-2.148,13.276
				c-4.259,3.032-10.209,2.005-13.281-2.286l-311.091-434.836c-3.076-4.298-2.114-10.242,2.148-13.276
				C1306.441,495.97,1311.92,496.694,1315.121,500.341z"/>
			
				<linearGradient id="SVGID_00000055666375373731589060000010661589999262401707_" gradientUnits="userSpaceOnUse" x1="855.8376" y1="423.7419" x2="1115.0784" y2="423.7419" gradientTransform="matrix(0.9917 0.1283 -0.1283 0.9917 625.1455 109.6873)">
				<stop  offset="0" style="stop-color:#FF928E"/>
				<stop  offset="1" style="stop-color:#FE7062"/>
			</linearGradient>
			<path style="fill:url(#SVGID_00000055666375373731589060000010661589999262401707_);" d="M1457.053,472.53
				c0.453,0.516,0.856,1.084,1.2,1.71l196.236,355.123c2.554,4.624,0.903,10.407-3.688,12.918
				c-4.589,2.511-10.388,0.792-12.939-3.825l-196.236-355.124c-2.554-4.624-0.904-10.407,3.688-12.918
				C1449.285,468.242,1454.157,469.23,1457.053,472.53z"/>
			
				<linearGradient id="SVGID_00000000187867074283973360000006580558210695949445_" gradientUnits="userSpaceOnUse" x1="115.7351" y1="882.1594" x2="978.9837" y2="882.1594" gradientTransform="matrix(0.9917 0.1283 -0.1283 0.9917 625.1455 109.6873)">
				<stop  offset="0" style="stop-color:#FF928E"/>
				<stop  offset="1" style="stop-color:#FE7062"/>
			</linearGradient>
			<path style="fill:url(#SVGID_00000000187867074283973360000006580558210695949445_);" d="M548.492,1620.089
				c38.299,6.06,76.724,8.751,114.527,8.186c37.781-0.596,75.081-4.614,110.489-13.645c17.685-4.506,34.927-10.138,51.362-17.219
				c16.398-7.163,32.154-15.422,46.831-25.198c14.637-9.816,28.375-20.84,40.792-33.268c12.505-12.323,23.905-25.826,33.967-40.414
				c20.336-29.035,35.772-62.01,46.731-96.876c2.922-8.645,5.179-17.571,7.659-26.405c2.088-8.983,4.391-17.89,6.11-27.004
				c3.866-18.09,6.515-36.558,8.793-55.095c0.911-9.319,2.099-18.589,2.662-27.977l1.046-14.046l0.857-14.441l3.31-57.902
				l6.458-116.095c4.808-77.495,9.737-155.418,21.912-233.291c6.089-38.9,14.093-77.83,26.062-116.012
				c11.901-38.13,28.682-75.469,52.063-108.858c23.448-33.3,54.092-61.705,88.907-82.14c34.867-20.492,73.025-33.505,111.479-41.995
				c38.511-8.678,77.662-12.285,116.598-13.955c19.487-0.718,38.965-0.937,58.413-0.394c19.445,0.34,38.857,1.355,58.229,2.639
				c1.05,0.07,1.854,0.978,1.795,2.029c-0.056,0.991-0.876,1.755-1.848,1.781c-38.69,0.898-77.274,2.989-115.48,7.119
				c-19.1,2.078-38.071,4.866-56.865,8.245c-18.773,3.5-37.327,7.756-55.547,12.847c-36.377,10.254-71.41,24.683-102.007,45.178
				c-30.721,20.255-56.693,46.549-76.304,77.287c-19.672,30.771-33.038,65.511-43.149,101.388
				c-10.002,35.977-16.471,73.307-21.117,111.058c-4.687,37.764-7.464,75.988-9.852,114.35c-2.362,38.372-3.99,76.93-5.465,115.575
				l-4.538,116.156c-0.764,19.395-1.606,38.793-2.569,58.2l-0.72,14.579l-0.959,14.941c-0.508,9.963-1.662,19.923-2.547,29.887
				c-2.238,19.911-4.903,39.834-8.913,59.633c-1.751,9.93-4.295,19.753-6.554,29.615c-2.692,9.792-5.171,19.627-8.389,29.313
				c-12.105,38.853-29.454,76.8-53.328,111.029c-12.04,17.008-25.653,33.067-40.904,47.493
				c-15.336,14.309-32.012,27.289-50.005,38.019c-35.96,21.563-75.998,35.134-116.35,41.268
				c-40.412,6.227-81.111,5.651-120.608,0.087c-19.759-2.806-39.258-6.816-58.347-12.146c-19.087-5.333-37.838-11.552-55.842-19.909
				c-0.963-0.447-1.39-1.588-0.953-2.548c0.361-0.793,1.198-1.215,2.022-1.085L548.492,1620.089z"/>
		</g>
		<g>
			
				<linearGradient id="SVGID_00000054255410940273041710000008981545195628964241_" gradientUnits="userSpaceOnUse" x1="7081.0439" y1="6128.668" x2="8337.8428" y2="6128.668" gradientTransform="matrix(0.31 -0.9508 -0.9508 -0.31 4555.834 11941.9141)">
				<stop  offset="0" style="stop-color:#09005D"/>
				<stop  offset="1" style="stop-color:#1A0F91"/>
			</linearGradient>
			<path style="fill:url(#SVGID_00000054255410940273041710000008981545195628964241_);" d="M1590.939,2235.838l-766.57,979.152
				c-32.15,41.065-92.468,46.041-130.913,10.797l-6.312-5.787c-34.014-31.183-36.141-84.095-4.74-117.907l850.744-916.05
				L1590.939,2235.838z"/>
			
				<ellipse transform="matrix(0.2513 -0.9679 0.9679 0.2513 -268.7965 3220.3259)" style="opacity:0.13;fill:#FFFFFF;" cx="1947.247" cy="1783.915" rx="589.162" ry="578.534"/>
			
				<linearGradient id="SVGID_00000180335234257807876780000008374640009128357055_" gradientUnits="userSpaceOnUse" x1="1793.4073" y1="1657.3989" x2="2818.7156" y2="2442.353" gradientTransform="matrix(0.9938 -0.1114 0.1114 0.9938 -585.6838 -4.0665)">
				<stop  offset="0" style="stop-color:#09005D"/>
				<stop  offset="1" style="stop-color:#1A0F91"/>
			</linearGradient>
			<path style="fill:url(#SVGID_00000180335234257807876780000008374640009128357055_);" d="M2112.005,1149.377
				c-344.126-89.351-696.856,122.307-787.849,472.754c-90.993,350.445,114.21,706.97,458.336,796.322
				c344.122,89.351,696.854-122.308,787.847-472.754C2661.331,1595.254,2456.127,1238.728,2112.005,1149.377z M2087.803,1242.588
				c293.573,76.226,468.634,380.379,391.007,679.347c-77.626,298.966-378.543,479.534-672.116,403.308
				c-293.575-76.226-468.634-380.38-391.008-679.345C1493.313,1346.929,1794.228,1166.362,2087.803,1242.588z"/>
			<g>
				<path style="fill:#BDD0FB;" d="M1942.277,2395.557c-15.008,0-30.01-0.575-44.953-1.722c-0.927-0.069-1.62-0.877-1.551-1.804
					c0.076-0.93,0.959-1.616,1.807-1.551c41.516,3.184,83.482,1.916,124.752-3.772c243.213-33.519,440.865-211.159,503.54-452.555
					c29.228-112.566,26.373-230.117-8.26-339.939c-0.279-0.887,0.21-1.83,1.097-2.109c0.887-0.276,1.83,0.217,2.109,1.097
					c34.823,110.427,37.698,228.618,8.313,341.799c-31.249,120.343-96.552,227.041-188.853,308.566
					c-90.149,79.622-199.936,130.272-317.486,146.473C1996.14,2393.714,1969.199,2395.557,1942.277,2395.557z M1765.422,2368.389
					c-0.168,0-0.335-0.023-0.503-0.076c-14.608-4.573-29.228-9.781-43.451-15.478c-0.864-0.345-1.281-1.324-0.936-2.185
					c0.345-0.867,1.331-1.285,2.185-0.936c14.144,5.664,28.683,10.839,43.208,15.386c0.887,0.279,1.38,1.222,1.104,2.109
					C1766.802,2367.929,1766.139,2368.389,1765.422,2368.389z"/>
			</g>
			<path style="fill:#BDD0FB;" d="M750.057,3222.099c-7.442,0-14.907-1.298-22.079-3.986c-25.943-9.715-39.436-33.703-40.1-71.296
				c-0.016-0.93,0.723-1.695,1.653-1.712c1.035-0.118,1.695,0.723,1.712,1.653c0.637,36.072,13.395,59.021,37.918,68.208
				c24.786,9.282,53.308,1.042,70.994-20.525l95.504-116.433c0.591-0.716,1.649-0.822,2.369-0.233
				c0.716,0.588,0.821,1.649,0.233,2.369l-95.504,116.433C789.263,3213.028,769.737,3222.099,750.057,3222.099z"/>
			<path style="fill:#BDD0FB;" d="M926.392,3044.876c-0.378,0-0.756-0.125-1.068-0.381c-0.716-0.591-0.821-1.649-0.233-2.369
				l12.38-15.091c0.591-0.719,1.656-0.818,2.369-0.233c0.716,0.591,0.821,1.649,0.233,2.369l-12.38,15.091
				C927.361,3044.666,926.878,3044.876,926.392,3044.876z"/>
		</g>
		<g>
			<g>
				<g>
					
						<linearGradient id="SVGID_00000089565563173167210760000008734355176635021455_" gradientUnits="userSpaceOnUse" x1="10082.4873" y1="3210.5864" x2="10185.5137" y2="3210.5864" gradientTransform="matrix(-1 0 0 1 13128.792 0)">
						<stop  offset="0" style="stop-color:#09005D"/>
						<stop  offset="1" style="stop-color:#1A0F91"/>
					</linearGradient>
					<path style="fill:url(#SVGID_00000089565563173167210760000008734355176635021455_);" d="M3031.963,3174.283
						c0,0,11.448,18.046,14.328,68.571c0.268,4.707-3.461,8.718-8.176,8.718h-89.537c-3.603,0-6.174-3.532-5.021-6.945
						c5.247-15.529,21.111-53.39,56.508-75.024L3031.963,3174.283z"/>
					
						<linearGradient id="SVGID_00000052079220245241896240000005613180582536316820_" gradientUnits="userSpaceOnUse" x1="10092.9385" y1="3162.7112" x2="10134.7227" y2="3162.7112" gradientTransform="matrix(-1 0 0 1 13128.792 0)">
						<stop  offset="0" style="stop-color:#FEBBBA"/>
						<stop  offset="1" style="stop-color:#FF928E"/>
					</linearGradient>
					<path style="fill:url(#SVGID_00000052079220245241896240000005613180582536316820_);" d="M3035.854,3140.047l-5.064,42.464
						c-0.437,3.663-3.308,6.596-6.973,7.019c-4.897,0.564-12.016,0.961-18.933-0.179c-6.288-1.037-10.813-6.638-10.813-13.011v-41
						L3035.854,3140.047z"/>
					
						<linearGradient id="SVGID_00000109013820431830423430000016730104746826675092_" gradientUnits="userSpaceOnUse" x1="10301.585" y1="3208.9392" x2="10463.2373" y2="3208.9392" gradientTransform="matrix(-1 0 0 1 13128.792 0)">
						<stop  offset="0" style="stop-color:#09005D"/>
						<stop  offset="1" style="stop-color:#1A0F91"/>
					</linearGradient>
					<path style="fill:url(#SVGID_00000109013820431830423430000016730104746826675092_);" d="M2810.43,3169.602
						c0,0,17.138,26.639,16.771,63.202c-0.086,8.613-7.296,15.472-15.909,15.472H2672.23c-6.512,0-9.156-8.367-3.827-12.109
						c26.314-18.479,78.034-52.999,115.443-66.566H2810.43z"/>
					
						<linearGradient id="SVGID_00000169547852392590983510000004032368366154435488_" gradientUnits="userSpaceOnUse" x1="10304.04" y1="3144.1575" x2="10345.5947" y2="3144.1575" gradientTransform="matrix(-1 0 0 1 13128.792 0)">
						<stop  offset="0" style="stop-color:#FEBBBA"/>
						<stop  offset="1" style="stop-color:#FF928E"/>
					</linearGradient>
					<path style="fill:url(#SVGID_00000169547852392590983510000004032368366154435488_);" d="M2824.752,3123.742l-10.802,52.444
						c-1.208,5.866-6.947,9.811-12.792,8.505c-3.554-0.793-7.746-2.312-12.226-5.112c-4.257-2.662-6.414-7.726-5.545-12.671
						l11.174-63.536L2824.752,3123.742z"/>
					
						<linearGradient id="SVGID_00000051367256610172952890000012256854513675822480_" gradientUnits="userSpaceOnUse" x1="3029.0701" y1="2508.2866" x2="3466.4414" y2="1048.1375">
						<stop  offset="0" style="stop-color:#4F52FF"/>
						<stop  offset="1" style="stop-color:#4042E2"/>
					</linearGradient>
					<path style="fill:url(#SVGID_00000051367256610172952890000012256854513675822480_);" d="M3016.012,2394.584
						c0,0,37.559,33.113,44.627,72.951c7.069,39.838-20.027,687.348-20.027,687.348s-37.556,6.249-56.917-5.483
						c0,0-22.963-420.229-40.418-517.334c0,0-91.535,435.302-116.897,513.955c0,0-36.183,4.402-47.851-2.482
						c0,0,23.978-564.274,54.106-664.594L3016.012,2394.584z"/>
					<polygon style="fill:#7D97F4;" points="2945.996,2614.752 2942.743,2613.905 2958.862,2552.071 2993.886,2529.604 
						2995.699,2532.436 2961.786,2554.193 					"/>
					
						<linearGradient id="SVGID_00000152986786835784807750000004385535680518303634_" gradientUnits="userSpaceOnUse" x1="2748.115" y1="1085.271" x2="2697.6516" y2="1741.2966">
						<stop  offset="0" style="stop-color:#4F52FF"/>
						<stop  offset="1" style="stop-color:#4042E2"/>
					</linearGradient>
					<path style="fill:url(#SVGID_00000152986786835784807750000004385535680518303634_);" d="M2645.373,2020.44
						c158.109-13.126,199.433,19.593,199.433,19.593l-75.981,119.953c0,0-155.357-3.069-266.677-88.869
						c20.833-22.437,35.303-47.232,44.582-66.54C2575.435,2016.506,2608.492,2023.501,2645.373,2020.44z"/>
					
						<linearGradient id="SVGID_00000118368962447977593280000012184357621497058233_" gradientUnits="userSpaceOnUse" x1="2495.1672" y1="1851.4934" x2="2760.8015" y2="1334.7802">
						<stop  offset="0" style="stop-color:#FEBBBA"/>
						<stop  offset="1" style="stop-color:#FF928E"/>
					</linearGradient>
					<path style="fill:url(#SVGID_00000118368962447977593280000012184357621497058233_);" d="M2397.776,1788.358
						c0.213-5.067,7.08-6.445,9.232-1.854l20.175,43.051c3.898,8.318,5.147,17.633,3.579,26.684l-7.076,25.057
						c-2.117,12.22,1.075,24.74,8.821,34.425c18.538,23.175,58.018,65.501,114.222,88.856c-9.28,19.307-23.749,44.102-44.582,66.54
						c-40.845-31.481-75.771-74.086-94.907-131.784c-9.168-2.816-15.294-11.448-14.93-21.031L2397.776,1788.358z"/>
					
						<linearGradient id="SVGID_00000171710460442111296770000000248984432307035019_" gradientUnits="userSpaceOnUse" x1="2445.8018" y1="2240.3225" x2="3030.9399" y2="2240.3225">
						<stop  offset="0" style="stop-color:#4F52FF"/>
						<stop  offset="1" style="stop-color:#4042E2"/>
					</linearGradient>
					<path style="fill:url(#SVGID_00000171710460442111296770000000248984432307035019_);" d="M2593.329,2089.985
						c55.66-59.977,161.681-87.074,223.063-98.204c26.892-4.877,53.4,10.087,62.928,35.703
						c27.624,74.256,102.751,267.443,117.313,300.646c11.947,27.24,24.421,53.844,32.347,70.476
						c4.736,9.937,0.598,21.827-9.318,26.606c-51.644,24.892-144.572,53.056-182.245,64.043
						c-8.287,2.417-16.539-3.805-16.539-12.437c0-7.32-1.989-14.504-5.757-20.781l-142.68-237.766
						c-88.931,98.606-166.812,107.622-226.64,86.04c10.06-31.09,16.643-62.237,19.801-93.444
						C2553.987,2195.726,2593.329,2089.985,2593.329,2089.985z"/>
					
						<linearGradient id="SVGID_00000133512835691819468780000008028551483299328188_" gradientUnits="userSpaceOnUse" x1="10521.0371" y1="-638.0084" x2="10484.6484" y2="-1118.3336" gradientTransform="matrix(-1 0 0 1 13128.792 0)">
						<stop  offset="0" style="stop-color:#FEBBBA"/>
						<stop  offset="1" style="stop-color:#FF928E"/>
					</linearGradient>
					<path style="fill:url(#SVGID_00000133512835691819468780000008028551483299328188_);" d="M2319.514,2194.319l15.95-21.268
						c51.639,35.464,94.803,43.87,130.138,37.816c-3.158,31.206-9.74,62.354-19.801,93.444
						C2366.985,2275.878,2319.514,2194.319,2319.514,2194.319z"/>
					
						<linearGradient id="SVGID_00000118377573273187313840000011053651820485359774_" gradientUnits="userSpaceOnUse" x1="10666.9902" y1="-649.0682" x2="10630.6016" y2="-1129.3938" gradientTransform="matrix(-1 0 0 1 13128.792 0)">
						<stop  offset="0" style="stop-color:#FEBBBA"/>
						<stop  offset="1" style="stop-color:#FF928E"/>
					</linearGradient>
					<path style="fill:url(#SVGID_00000118377573273187313840000011053651820485359774_);" d="M2330.76,2194.703l-89.862,3.504
						l-82.737-46.211c11.876-7.445,79.036,7.772,79.036,7.772s70.207-10.618,89.209-10.643c15.782-0.02,13.527,22.674,12.31,30.365
						c-0.248,1.569-0.453,2.513-0.453,2.513L2330.76,2194.703z"/>
					
						<linearGradient id="SVGID_00000043420021283140587630000010309973174496159878_" gradientUnits="userSpaceOnUse" x1="10556.3506" y1="1710.1917" x2="10233.1699" y2="2304.0044" gradientTransform="matrix(-1 0 0 1 13128.792 0)">
						<stop  offset="0" style="stop-color:#FEBBBA"/>
						<stop  offset="1" style="stop-color:#FF928E"/>
					</linearGradient>
					<path style="fill:url(#SVGID_00000043420021283140587630000010309973174496159878_);" d="M2731.962,1881.63l47.413,115.699
						c0,0-54.478,37.707-98.306,34.119l-23.663-104.034L2731.962,1881.63z"/>
					<g>
						
							<linearGradient id="SVGID_00000078021355415328108650000005931647436516011701_" gradientUnits="userSpaceOnUse" x1="8320.6924" y1="9849.001" x2="8177.8652" y2="10037.9502" gradientTransform="matrix(-0.817 -0.5767 -0.5767 0.817 15152.2197 -1428.4956)">
							<stop  offset="0" style="stop-color:#FEBBBA"/>
							<stop  offset="1" style="stop-color:#FF928E"/>
						</linearGradient>
						<path style="fill:url(#SVGID_00000078021355415328108650000005931647436516011701_);" d="M2651.871,1802.756
							c-1.086,1.539-34.301,121.53-34.301,121.53l68.917,17.509l48.377-109.05
							C2734.864,1832.745,2670.051,1777.001,2651.871,1802.756z"/>
						
							<linearGradient id="SVGID_00000075154952930010596280000007967386477012562078_" gradientUnits="userSpaceOnUse" x1="3305.8882" y1="645.7506" x2="3028.3389" y2="1185.7107">
							<stop  offset="0" style="stop-color:#09005D"/>
							<stop  offset="1" style="stop-color:#1A0F91"/>
						</linearGradient>
						<path style="fill:url(#SVGID_00000075154952930010596280000007967386477012562078_);" d="M2708.912,1849.313l-20.971,59.4
							c-0.269,0.762-0.628,1.466-1.093,2.127c-2.847,4.044-13.658,17.237-26.482,5.352c-11.636-10.783-22.417-20.452-32.371-22.206
							c-4.47-0.788-8.8,1.939-10.01,6.314c-3.014,10.903-9.354,35.597-11.589,57.892c-0.453,4.524,2.67,8.613,7.138,9.461
							c13.46,2.557,41.999,7.154,65.824,5.474c3.229-0.228,6.07-2.165,7.417-5.108c6.565-14.347,26.683-57.88,34.165-69.143
							c7.023-10.572,24.239-10.275,31.459-9.635c2.367,0.21,4.695-0.553,6.482-2.119c6.316-5.537,18.338-19.673,1.427-36.595
							c-3.539-3.542-3.444-9.255,0.204-12.685c7.262-6.828,15.029-18.939,2.929-33.958c-12.298-15.266-28.532-12.836-38.479-9.207
							c-4.022,1.468-8.409-0.232-10.595-3.913c-1.245-2.095-3.416-3.681-7.181-3.357c-5.072,0.436-9.338-3.797-9.246-8.888
							c0.176-9.78-3.325-22.136-20.292-27.417c-30.105-9.37-48.879,19.714-50.739,41.417c-1.859,21.703,31.358,30.006,50.89,28.542
							c14.852-1.113,25.878,13.607,30.311,20.727C2709.516,1844.042,2709.797,1846.807,2708.912,1849.313z"/>
						
							<linearGradient id="SVGID_00000038398962777834899450000017608153991473832856_" gradientUnits="userSpaceOnUse" x1="8111.5068" y1="9998.6328" x2="8226.0654" y2="9881.0986" gradientTransform="matrix(-0.817 -0.5767 -0.5767 0.817 15152.2197 -1428.4956)">
							<stop  offset="0" style="stop-color:#FEBBBA"/>
							<stop  offset="1" style="stop-color:#FF928E"/>
						</linearGradient>
						<path style="fill:url(#SVGID_00000038398962777834899450000017608153991473832856_);" d="M2713.09,1920.428
							c0,0,4.863-37.677,20.536-39.523c15.673-1.846,30.928,11.034,15.345,32.182
							C2729.588,1939.393,2713.09,1920.428,2713.09,1920.428z"/>
					</g>
				</g>
			</g>
			
				<linearGradient id="SVGID_00000170251395250241183280000004891064117363134340_" gradientUnits="userSpaceOnUse" x1="2760.1492" y1="534.4452" x2="2432.1365" y2="1124.868">
				<stop  offset="0" style="stop-color:#FF928E"/>
				<stop  offset="1" style="stop-color:#FE7062"/>
			</linearGradient>
			<path style="fill:url(#SVGID_00000170251395250241183280000004891064117363134340_);" d="M2369.932,1612.914
				c-18.092-12.886-46.405-23.839-85.685-13.256c-75.233,20.271-72.586,93.972-58.553,130.337
				c11.819,30.629,84.221,67.503,136.45,27.998c11.035-8.347,26.113,0.037,25.844,14.569l-3.223,174.271l-189.142-3.498
				c-16.688-0.308-28.031,18.394-20.874,34.663c7.81,17.743,15.196,41.913,16.956,71.971
				c4.062,69.395-52.669,101.203-108.729,96.734c-48.621-3.876-107.946-81.413-53.683-162.828c10.576-15.863,0.156-38-17.913-38.334
				l-166.968-3.088l3.952-213.661c50.494,67.365,126.432,51.44,157.058-14.425c30.625-65.865,7.693-126.943-59.013-133.954
				c-34.347-3.61-57.656,9.15-72.189,22.379c-7.613,6.931-19.143,1.134-18.945-9.608l3.188-172.402l163.963,3.032
				c17.973,0.333,29.037-21.957,18.131-37.359c-9.474-13.378-16.897-30.141-17.452-50.13c-1.604-57.797,39.499-111.913,93.055-116.7
				c53.558-4.786,108.668,51.112,99.635,105.821c-4.282,25.943-14.378,50.48-23.808,69.11c-7.871,15.547,2.317,34.472,18.697,34.775
				l187.594,3.47l-3.064,165.656C2394.961,1612.358,2380.66,1620.554,2369.932,1612.914z"/>
		</g>
	</g>
</g>
</svg>
