<?xml version="1.0" encoding="utf-8"?>
<!-- Generator: Adobe Illustrator 27.5.0, SVG Export Plug-In . SVG Version: 6.00 Build 0)  -->
<svg version="1.1" xmlns="http://www.w3.org/2000/svg" xmlns:xlink="http://www.w3.org/1999/xlink" x="0px" y="0px"
	 viewBox="0 0 3710 3710" style="enable-background:new 0 0 3710 3710;" xml:space="preserve">
<g id="Background">
	<g>
		<g>
		</g>
	</g>
</g>
<g id="Illustration">
	<g>
		<path style="fill:#F4F7FA;" d="M3201.793,1640.372c-75.221-492.358-383.627-1097.254-992.918-1160.557
			c0,0-462.602-56.269-918.626,29.012c-270.651,50.614-507.972,201.281-658.138,417.827
			C481.941,1143.2,431.78,1407.248,492.657,1658.985c39.539,163.506,66.257,332.728,58.924,500.739
			c-12.761,292.408-5.419,565.351,278.357,739.735c253.379,155.706,572.26,293.033,876.478,317.086
			c206.744,16.346,438.594-10.106,637.857-63.932C3359.757,2878.3,3277.014,2132.73,3201.793,1640.372z"/>
		<g>
			<rect x="744.242" y="742.173" style="fill:#FFFFFF;" width="1456.146" height="1942.661"/>
			<g>
				<g>
					<path style="fill:#97A6B7;" d="M996.435,1018.847h-30.086l-48.567-84.457h-0.689c0.967,14.917,1.453,25.556,1.453,31.919
						v52.538h-21.154V907.205h29.856l48.492,83.618h0.534c-0.764-14.508-1.144-24.767-1.144-30.775v-52.843h21.304V1018.847z"/>
					<path style="fill:#97A6B7;" d="M1083.184,1018.847l-3.132-10.919h-1.223c-2.492,3.971-6.03,7.039-10.615,9.201
						c-4.581,2.162-9.798,3.247-15.651,3.247c-10.031,0-17.593-2.686-22.682-8.057c-5.093-5.371-7.637-13.097-7.637-23.177v-55.668
						h23.292v49.864c0,6.162,1.095,10.782,3.282,13.861c2.191,3.081,5.676,4.62,10.464,4.62c6.516,0,11.224-2.177,14.126-6.531
						c2.902-4.351,4.351-11.569,4.351-21.649v-40.166h23.292v85.374H1083.184z"/>
					<path style="fill:#97A6B7;" d="M1161.457,1001.819c4.069,0,8.958-0.89,14.661-2.672v17.333
						c-5.804,2.597-12.933,3.896-21.383,3.896c-9.316,0-16.099-2.354-20.348-7.065c-4.253-4.707-6.376-11.772-6.376-21.19v-41.161
						h-11.149v-9.85l12.828-7.788l6.719-18.022h14.891v18.175h23.901v17.486h-23.901v41.161c0,3.309,0.93,5.753,2.789,7.33
						C1155.942,1001.03,1158.4,1001.819,1161.457,1001.819z"/>
					<path style="fill:#97A6B7;" d="M1241.028,931.87c3.154,0,5.774,0.228,7.863,0.687l-1.754,21.839
						c-1.886-0.508-4.178-0.762-6.873-0.762c-7.434,0-13.227,1.908-17.375,5.727s-6.222,9.163-6.222,16.037v43.45h-23.292v-85.374
						h17.638l3.437,14.356h1.148c2.646-4.784,6.222-8.64,10.727-11.569C1230.831,933.334,1235.732,931.87,1241.028,931.87z"/>
					<path style="fill:#97A6B7;" d="M1263.401,911.403c0-7.584,4.227-11.377,12.677-11.377s12.677,3.792,12.677,11.377
						c0,3.615-1.058,6.429-3.169,8.439c-2.115,2.012-5.281,3.017-9.508,3.017C1267.628,922.859,1263.401,919.041,1263.401,911.403z
						 M1287.687,1018.847h-23.292v-85.374h23.292V1018.847z"/>
					<path style="fill:#97A6B7;" d="M1348.088,1001.819c4.069,0,8.958-0.89,14.661-2.672v17.333
						c-5.804,2.597-12.933,3.896-21.383,3.896c-9.316,0-16.099-2.354-20.348-7.065c-4.253-4.707-6.376-11.772-6.376-21.19v-41.161
						h-11.149v-9.85l12.828-7.788l6.719-18.022h14.89v18.175h23.901v17.486h-23.901v41.161c0,3.309,0.93,5.753,2.789,7.33
						C1342.573,1001.03,1345.031,1001.819,1348.088,1001.819z"/>
					<path style="fill:#97A6B7;" d="M1379.013,911.403c0-7.584,4.227-11.377,12.677-11.377c8.45,0,12.677,3.792,12.677,11.377
						c0,3.615-1.058,6.429-3.169,8.439c-2.115,2.012-5.281,3.017-9.508,3.017C1383.24,922.859,1379.013,919.041,1379.013,911.403z
						 M1403.298,1018.847h-23.292v-85.374h23.292V1018.847z"/>
					<path style="fill:#97A6B7;" d="M1505.318,976.007c0,13.899-3.662,24.769-10.995,32.608c-7.332,7.841-17.54,11.761-30.62,11.761
						c-8.198,0-15.429-1.796-21.688-5.384c-6.263-3.589-11.074-8.744-14.435-15.465c-3.358-6.719-5.04-14.559-5.04-23.519
						c0-13.948,3.64-24.792,10.923-32.531c7.28-7.737,17.51-11.606,30.695-11.606c8.198,0,15.425,1.782,21.688,5.345
						c6.263,3.565,11.074,8.68,14.431,15.35C1503.639,959.235,1505.318,967.049,1505.318,976.007z M1446.291,976.007
						c0,8.452,1.385,14.842,4.163,19.168c2.774,4.327,7.291,6.491,13.554,6.491c6.211,0,10.675-2.151,13.4-6.453
						c2.725-4.302,4.088-10.703,4.088-19.206c0-8.45-1.378-14.787-4.125-19.014c-2.748-4.225-7.253-6.339-13.516-6.339
						c-6.211,0-10.69,2.1-13.441,6.301C1447.665,961.154,1446.291,967.506,1446.291,976.007z"/>
					<path style="fill:#97A6B7;" d="M1603.371,1018.847h-23.292v-49.866c0-6.158-1.095-10.778-3.282-13.859
						c-2.191-3.079-5.676-4.62-10.464-4.62c-6.516,0-11.224,2.176-14.126,6.529c-2.902,4.353-4.351,11.569-4.351,21.649v40.168
						h-23.292v-85.374h17.792l3.132,10.919h1.299c2.597-4.124,6.173-7.242,10.727-9.354c4.555-2.113,9.738-3.169,15.542-3.169
						c9.926,0,17.461,2.686,22.603,8.055c5.142,5.373,7.712,13.123,7.712,23.254V1018.847z"/>
					<path style="fill:#97A6B7;" d="M1693.097,1018.847h-23.292V907.205h63.992v19.396h-40.7v28.789h37.874v19.319h-37.874V1018.847
						z"/>
					<path style="fill:#97A6B7;" d="M1808.02,1018.847l-4.505-11.606h-0.61c-3.922,4.938-7.953,8.362-12.105,10.27
						c-4.148,1.908-9.557,2.864-16.227,2.864c-8.194,0-14.65-2.341-19.358-7.026c-4.709-4.684-7.061-11.352-7.061-20.008
						c0-9.062,3.169-15.743,9.508-20.045c6.335-4.302,15.895-6.683,28.674-7.14l14.811-0.457v-3.743
						c0-8.654-4.427-12.98-13.287-12.98c-6.82,0-14.838,2.061-24.052,6.184l-7.713-15.73c9.824-5.142,20.717-7.714,32.683-7.714
						c11.454,0,20.235,2.496,26.344,7.485s9.165,12.574,9.165,22.755v56.891H1808.02z M1801.147,979.291l-9.011,0.305
						c-6.768,0.205-11.808,1.427-15.12,3.666c-3.308,2.24-4.961,5.65-4.961,10.232c0,6.566,3.768,9.85,11.3,9.85
						c5.398,0,9.711-1.553,12.944-4.658c3.233-3.105,4.848-7.229,4.848-12.37V979.291z"/>
					<path style="fill:#97A6B7;" d="M1882.935,1020.375c-26.574,0-39.865-14.586-39.865-43.757c0-14.51,3.617-25.593,10.844-33.257
						c7.231-7.662,17.589-11.492,31.079-11.492c9.877,0,18.737,1.935,26.578,5.802l-6.873,18.022
						c-3.666-1.476-7.076-2.684-10.234-3.627c-3.158-0.941-6.312-1.413-9.47-1.413c-12.116,0-18.173,8.605-18.173,25.812
						c0,16.697,6.056,25.046,18.173,25.046c4.479,0,8.631-0.597,12.448-1.794c3.821-1.195,7.637-3.066,11.454-5.612v19.93
						c-3.768,2.394-7.573,4.046-11.416,4.963C1893.636,1019.916,1888.788,1020.375,1882.935,1020.375z"/>
					<path style="fill:#97A6B7;" d="M1964.645,1001.819c4.069,0,8.958-0.89,14.661-2.672v17.333
						c-5.804,2.597-12.933,3.896-21.383,3.896c-9.316,0-16.099-2.354-20.348-7.065c-4.253-4.707-6.376-11.772-6.376-21.19v-41.161
						h-11.149v-9.85l12.828-7.788l6.719-18.022h14.891v18.175h23.901v17.486h-23.901v41.161c0,3.309,0.93,5.753,2.789,7.33
						C1959.13,1001.03,1961.588,1001.819,1964.645,1001.819z"/>
					<path style="fill:#97A6B7;" d="M2056.125,993.495c0,8.757-3.041,15.425-9.124,20.008c-6.083,4.581-15.184,6.873-27.3,6.873
						c-6.211,0-11.507-0.422-15.884-1.261c-4.378-0.839-8.477-2.074-12.293-3.704v-19.243c4.325,2.036,9.203,3.741,14.623,5.117
						c5.424,1.374,10.197,2.061,14.318,2.061c8.45,0,12.677-2.443,12.677-7.33c0-1.833-0.561-3.322-1.679-4.468
						c-1.122-1.144-3.056-2.443-5.804-3.894c-2.751-1.451-6.418-3.143-10.998-5.078c-6.568-2.75-11.39-5.294-14.469-7.637
						c-3.083-2.341-5.322-5.027-6.723-8.057c-1.4-3.028-2.1-6.756-2.1-11.187c0-7.585,2.943-13.451,8.823-17.601
						s14.213-6.224,25.008-6.224c10.283,0,20.284,2.24,30.011,6.719l-7.024,16.801c-4.28-1.833-8.277-3.335-11.992-4.506
						s-7.509-1.756-11.379-1.756c-6.869,0-10.306,1.858-10.306,5.575c0,2.087,1.107,3.894,3.32,5.422
						c2.213,1.526,7.065,3.792,14.548,6.796c6.67,2.699,11.556,5.219,14.661,7.56c3.105,2.341,5.398,5.04,6.873,8.095
						C2055.387,985.63,2056.125,989.27,2056.125,993.495z"/>
				</g>
				<g>
					<path style="fill:#97A6B7;" d="M2142.55,2606.583H798.677V810.217H2142.55V2606.583z M808.884,2596.377h1323.459V823.826
						H808.884V2596.377z"/>
				</g>
				<g>
					<rect x="805.482" y="1085.796" style="fill:#97A6B7;" width="1333.666" height="10.207"/>
				</g>
				<g>
					<rect x="900.744" y="1385.19" style="fill:#97A6B7;" width="1139.74" height="13.609"/>
				</g>
				<g>
					<rect x="900.744" y="2201.72" style="fill:#97A6B7;" width="1139.74" height="13.609"/>
				</g>
				<g style="opacity:0.7;">
					<rect x="910.95" y="1150.438" style="fill:#97A6B7;" width="714.464" height="71.446"/>
				</g>
				<g style="opacity:0.7;">
					<rect x="910.95" y="1266.113" style="fill:#97A6B7;" width="714.464" height="68.044"/>
				</g>
				<g style="opacity:0.7;">
					<g>
						<rect x="910.95" y="1473.648" style="fill:#97A6B7;" width="714.464" height="71.446"/>
					</g>
					<g>
						<rect x="1169.518" y="1599.529" style="fill:#97A6B7;" width="455.896" height="68.044"/>
					</g>
					<g>
						<rect x="1860.167" y="1473.648" style="fill:#97A6B7;" width="102.066" height="71.446"/>
					</g>
					<g>
						<rect x="1748.154" y="1264.412" style="fill:#97A6B7;" width="214.079" height="71.446"/>
					</g>
					<g>
						<rect x="1748.154" y="1150.438" style="fill:#97A6B7;" width="214.079" height="71.446"/>
					</g>
					<g>
						<rect x="1860.167" y="1599.529" style="fill:#97A6B7;" width="102.066" height="68.044"/>
					</g>
					<g>
						<rect x="910.95" y="1708.4" style="fill:#97A6B7;" width="714.464" height="71.446"/>
					</g>
					<g>
						<rect x="1169.518" y="1834.282" style="fill:#97A6B7;" width="455.896" height="68.044"/>
					</g>
					<g>
						<rect x="1860.167" y="1708.4" style="fill:#97A6B7;" width="102.066" height="71.446"/>
					</g>
					<g>
						<rect x="1860.167" y="1834.282" style="fill:#97A6B7;" width="102.066" height="68.044"/>
					</g>
					<g>
						<rect x="910.95" y="1943.152" style="fill:#97A6B7;" width="714.464" height="71.446"/>
					</g>
					<g>
						<rect x="1169.518" y="2069.034" style="fill:#97A6B7;" width="455.896" height="68.044"/>
					</g>
					<g>
						<rect x="1860.167" y="1943.152" style="fill:#97A6B7;" width="102.066" height="71.446"/>
					</g>
					<g>
						<rect x="1860.167" y="2069.034" style="fill:#97A6B7;" width="102.066" height="68.044"/>
					</g>
				</g>
				<g style="opacity:0.7;">
					<g>
						<rect x="910.95" y="2279.971" style="fill:#97A6B7;" width="714.464" height="68.044"/>
					</g>
					<g>
						<rect x="1169.518" y="2402.451" style="fill:#97A6B7;" width="455.896" height="71.446"/>
					</g>
					<g>
						<rect x="1860.167" y="2279.971" style="fill:#97A6B7;" width="102.066" height="68.044"/>
					</g>
					<g>
						<rect x="1860.167" y="2402.451" style="fill:#97A6B7;" width="102.066" height="71.446"/>
					</g>
				</g>
			</g>
			<linearGradient id="SVGID_1_" gradientUnits="userSpaceOnUse" x1="1486.2449" y1="752.2993" x2="1458.0876" y2="2695.1794">
				<stop  offset="0" style="stop-color:#D8DEE8"/>
				<stop  offset="0.494" style="stop-color:#EBEFF2"/>
				<stop  offset="1" style="stop-color:#FFFFFF"/>
			</linearGradient>
			<path style="opacity:0.5;fill:url(#SVGID_1_);" d="M2200.387,2537.058v147.776H744.242V742.173h43.245
				c194.991,105.469,473.302,335.749,488.181,807.944C1292.971,2099.516,1996.255,2205.314,2200.387,2537.058z"/>
		</g>
		<g>
			
				<linearGradient id="SVGID_00000089559757892788379160000004907206418955350924_" gradientUnits="userSpaceOnUse" x1="711.9" y1="2791.4385" x2="1162.3751" y2="2791.4385">
				<stop  offset="0" style="stop-color:#4FC3BA"/>
				<stop  offset="1" style="stop-color:#A1F094"/>
			</linearGradient>
			<path style="fill:url(#SVGID_00000089559757892788379160000004907206418955350924_);" d="M714.214,2749.063
				c-4.294,23.002-1.89,46.938,1.389,69.902c3.227,22.597,9.069,44.43,28.562,58.51c4.203,3.036,8.711,5.773,13.519,7.741
				c5.268,2.156,11.778,2.903,16.428,6.291c7.668,5.586,10.936,17.543,16.99,24.82c14.643,17.597,34.87,27.779,57.531,30.056
				c5.41,0.544,11.192,0.736,16.182,3.095c5.64,2.667,9.96,7.842,14.817,11.646c9.191,7.198,19.575,10.563,31.195,10.661
				c10.872,0.091,21.662-2.708,32.024-5.762c12.227-3.604,24.423-7.317,36.633-10.977c12.161-3.645,24.419-7.062,36.49-10.999
				c9.985-3.256,19.817-7.58,27.549-14.852c8.361-7.863,11.802-18.32,15.847-28.731c1.919-4.938,4.014-10.48,8.156-14.023
				c4.091-3.499,9.661-4.813,14.758-6.09c20.849-5.225,40.515-13.141,55.388-29.328c12.865-14.002,19.639-33.752,16.707-52.716
				c-0.26-1.681-0.622-3.337-1.035-4.975c2.067-1.157,3.732-2.903,4.488-5.219c12.451-38.155-1.202-82.931-34.654-106.166
				c-9.335-6.484-19.19-9.588-29.456-14.115c-9.823-4.331-14.571-14.106-21.592-21.699c-15.193-16.432-34.806-14.796-55.074-11.812
				c-9.22,1.357-18.064,2.309-26.868-1.442c-10.131-4.316-18.999-11.063-29.077-15.478c-10.261-4.495-21.181-6.274-32.242-4.151
				c-9.836,1.887-19.347,6.427-29.397,6.997c-11.195,0.635-22.154-4.902-32.961-7.083c-9.901-1.997-20.274-2.506-30.337-1.717
				c-20.929,1.64-42.749,9.245-58.967,22.816c-8.792,7.356-16.554,16.355-20.543,27.253c-2.01,5.492-2.97,10.919-3.583,16.706
				c-0.539,5.091-0.824,10.046-4.15,14.162c-3.587,4.439-8.495,7.792-12.543,11.789c-4.039,3.988-7.374,8.494-10.371,13.302
				C720.022,2727.09,716.289,2737.946,714.214,2749.063z"/>
			
				<linearGradient id="SVGID_00000036253947840876925580000000439586637425111726_" gradientUnits="userSpaceOnUse" x1="814.1969" y1="3205.4443" x2="858.6497" y2="3645.5261" gradientTransform="matrix(-0.7683 -0.6401 -0.6401 0.7683 3809.1167 645.1779)">
				<stop  offset="0" style="stop-color:#24ABB5"/>
				<stop  offset="1" style="stop-color:#40CF9F"/>
			</linearGradient>
			<path style="opacity:0.4;fill:url(#SVGID_00000036253947840876925580000000439586637425111726_);" d="M738.395,2702.298
				c19.256,36.168,42.457,70.717,61.287,107.178c12.469,21.126,33.599,34.433,53.462,46.684
				c22.186,12.039,49.231,13.091,72.892,2.735c46.479-17.121,75.418-59.594,127.603-65.518c34.713-3.161,68.587-2.754,101.001,7.049
				c2.132,18.305-4.58,37.112-16.967,50.593c-14.872,16.188-34.538,24.103-55.388,29.328c-5.098,1.278-10.667,2.591-14.758,6.09
				c-4.143,3.543-6.238,9.084-8.156,14.023c-4.045,10.411-7.487,20.868-15.847,28.731c-7.732,7.272-17.563,11.596-27.549,14.852
				c-12.07,3.936-24.328,7.354-36.489,10.999c-12.21,3.659-24.406,7.373-36.633,10.977c-10.362,3.053-21.152,5.853-32.024,5.763
				c-11.62-0.097-22.004-3.462-31.195-10.661c-4.857-3.804-9.177-8.979-14.817-11.645c-4.99-2.36-10.772-2.552-16.182-3.096
				c-22.661-2.277-42.888-12.458-57.531-30.056c-6.054-7.276-9.322-19.233-16.99-24.82c-4.65-3.388-11.16-4.135-16.429-6.292
				c-4.807-1.968-9.315-4.705-13.518-7.741c-19.493-14.079-25.335-35.913-28.562-58.509c-3.279-22.964-5.683-46.9-1.389-69.902
				c2.075-11.117,5.809-21.973,11.803-31.589c2.997-4.807,6.333-9.314,10.371-13.302
				C737.036,2703.532,737.712,2702.912,738.395,2702.298z"/>
			
				<linearGradient id="SVGID_00000172415660918768328360000016399820169917201802_" gradientUnits="userSpaceOnUse" x1="589.1111" y1="2319.8289" x2="915.7234" y2="2664.0002">
				<stop  offset="0" style="stop-color:#4FC3BA"/>
				<stop  offset="1" style="stop-color:#A1F094"/>
			</linearGradient>
			<path style="fill:url(#SVGID_00000172415660918768328360000016399820169917201802_);" d="M1016.346,2460.594
				c-19.554-22.552-46.946-39.254-76.342-43.945c7.905-29.59-2.696-63.273-29.416-82.045
				c-34.853-24.487-76.048-20.432-112.747-4.662c-30.781-9.376-65.463-7.981-94.822,4.887
				c-64.908,28.45-92.74,102.291-73.117,166.912c-28.28,8.353-51.319,30.436-59.873,59.724
				c-10.852,37.156,4.421,74.599,33.602,98.54c14.812,12.153,31.844,21.143,47.788,31.646
				c17.543,11.555,28.558,25.886,41.847,41.769c26.019,31.096,65.368,49.014,106.093,46.791
				c36.134-1.972,68.838-20.607,91.156-48.158c21.912,12.594,48.553,15.185,73.607,9.612c35.665-7.933,64.286-31.613,80.796-63.979
				C1078.335,2612.175,1064.18,2515.761,1016.346,2460.594z"/>
			<g>
				
					<linearGradient id="SVGID_00000105423446727885792660000016651737375695859884_" gradientUnits="userSpaceOnUse" x1="722.4105" y1="2456.3821" x2="1557.6855" y2="2456.3821">
					<stop  offset="0" style="stop-color:#4FC3BA"/>
					<stop  offset="1" style="stop-color:#A1F094"/>
				</linearGradient>
				<path style="fill:url(#SVGID_00000105423446727885792660000016651737375695859884_);" d="M1315.77,2794.64
					c19.17-2.704,72.813-18.397,100.983-46.47c29.695-29.593,24.685-89.392,36.733-104.536
					c12.048-15.144,47.579-25.844,70.776-54.417c33.581-41.366,44.603-98.315,20.338-133.248
					c-10.445-15.037-40.943-39.13-36.802-61.181c4.697-10.853,39.202-31.036,34.432-98.204
					c-3.807-53.613-34.689-135.021-140.808-156.716c-20.76-12.088-18.183-58.677-72.474-81.138
					c-54.292-22.461-88.479,12.163-108.289,0.628c-19.81-11.535-67.503-40.47-116.139-41.797
					c-56.657-1.547-110.746,24.525-152.018,69.864c-10.281,11.293-18.91,23.621-26.403,36.401
					c-3.142,5.359-4.003,7.312-10.174,7.592c-7.301,0.331-14.362,0.224-21.755,1.009c-26.221,2.785-56.758,8.229-80.494,22.954
					c-47.943,29.742-75.75,84.764-78.939,134.318c-3.024,46.985,44.07,131.201,39.109,145.265
					c-4.961,14.063-53.579,59.993-51.36,116.298c2.822,71.618,38.288,130.701,103.102,162.019
					c28.575,13.807,107.442,32.057,128.278,45.989s16.726,80.81,49.42,110.493c35.496,32.227,74.381,30.103,128.866,14.591
					c29.467-8.389,47.244-4.489,71.627-24.705c28.109,8.64,65.089-6.903,88.588-29.891
					C1302.989,2819.365,1296.6,2797.344,1315.77,2794.64z"/>
			</g>
			<g style="opacity:0.4;">
				
					<linearGradient id="SVGID_00000152947482828826845450000018154088162120154266_" gradientUnits="userSpaceOnUse" x1="703.4478" y1="2810.7446" x2="1271.7126" y2="2810.7446" gradientTransform="matrix(-0.7683 -0.6401 -0.6401 0.7683 3809.1167 645.1779)">
					<stop  offset="0" style="stop-color:#24ABB5"/>
					<stop  offset="1" style="stop-color:#40CF9F"/>
				</linearGradient>
				<path style="fill:url(#SVGID_00000152947482828826845450000018154088162120154266_);" d="M1396.664,2211.456
					c-74.795-10.763-128.873,51.573-198.383,60.247s-86.005-82.385-124.254-129.284c-13.314-17.534-31.275-34.645-49.235-38.867
					c-27.796-7.333-56.585-7.754-84.337-1.464c3.757-5.037,7.749-9.945,12.045-14.664c41.273-45.339,95.361-71.411,152.018-69.864
					c48.636,1.327,96.328,30.262,116.139,41.797c19.81,11.535,53.998-23.089,108.289-0.628c54.292,22.46,51.715,69.05,72.474,81.138
					c90.519,18.506,126.289,80.457,137.215,131.546c-1.474-1.119-2.947-2.237-4.42-3.357
					C1496.181,2236.371,1448.851,2218.419,1396.664,2211.456z"/>
				
					<linearGradient id="SVGID_00000057107485938293561840000013815513437311486399_" gradientUnits="userSpaceOnUse" x1="491.6701" y1="3266.4111" x2="1342.6124" y2="3266.4111" gradientTransform="matrix(-0.7683 -0.6401 -0.6401 0.7683 3809.1167 645.1779)">
					<stop  offset="0" style="stop-color:#24ABB5"/>
					<stop  offset="1" style="stop-color:#40CF9F"/>
				</linearGradient>
				<path style="fill:url(#SVGID_00000057107485938293561840000013815513437311486399_);" d="M813.674,2155.379
					c16.305-10.115,35.817-15.851,54.936-19.353c-29.326,24.849-70.945,57.714-51.487,93.06
					c32.336,59.153,100.163,96.328,119.401,166.047c19.661,74.367-53.434,120.861-113.011,148.549
					c-21.338,10.145-23.025,30.217-15.416,49.442c20.08,53.24,66.147,95.911,121.081,107.311
					c130.153,26.811,253.324-10.183,384.95-18.655c34.861-3.175,65.289,22.174,91.703,42.03
					c12.401-11.018,24.394-22.453,36.071-34.211c-3.96,20.783-10.088,43.561-25.15,58.571
					c-28.171,28.073-81.813,43.766-100.983,46.47c-19.171,2.703-12.781,24.725-23.403,35.116c-23.5,22.988-60.48,38.53-88.589,29.89
					c-24.384,20.216-42.161,16.316-71.628,24.706c-54.485,15.511-93.37,17.635-128.866-14.592
					c-32.695-29.684-28.584-96.561-49.42-110.493c-20.836-13.932-99.703-32.182-128.278-45.989
					c-64.814-31.318-100.28-90.401-103.102-162.019c-2.219-56.306,46.399-102.235,51.359-116.299
					c4.961-14.063-42.133-98.279-39.109-145.264C737.924,2240.143,765.732,2185.122,813.674,2155.379z"/>
			</g>
			
				<linearGradient id="SVGID_00000161617328193248687800000003063366602065274283_" gradientUnits="userSpaceOnUse" x1="609.5182" y1="3390.2495" x2="2744.1089" y2="2152.2534" gradientTransform="matrix(-0.7683 -0.6401 -0.6401 0.7683 3809.1167 645.1779)">
				<stop  offset="0" style="stop-color:#24ABB5"/>
				<stop  offset="1" style="stop-color:#40CF9F"/>
			</linearGradient>
			<path style="fill:url(#SVGID_00000161617328193248687800000003063366602065274283_);" d="M890.281,2514.26
				c191.798,153.637,246.361,429.995,246.361,429.995l178.496-111.678c-244.458-280.642-187.453-396.547-189.51-516.412
				c0,0-14.87-29.181-25.179,4.3c-5.448,17.694-12.8,89.338-0.727,168.974c-57.734-85.464-48.671-160.126-68.742-182.989
				c-6.823-7.772-25.837-5.58-25.837-5.58s27.84,201.585,137.544,419.774c0,0-122.5-212.481-191.303-260.58
				c-12.878-8.747-21.743,2.25-11.444,22.599c0,0,31.502,36.611,66.356,99.081c-61.516-53.213-71.813-66.01-93.49-84.071
				C891.13,2479.612,880.365,2494.041,890.281,2514.26z"/>
			
				<linearGradient id="SVGID_00000000221051265105979350000006952568376692511420_" gradientUnits="userSpaceOnUse" x1="1291.9753" y1="2397.0391" x2="1588.7358" y2="2467.2783">
				<stop  offset="0" style="stop-color:#4FC3BA"/>
				<stop  offset="1" style="stop-color:#A1F094"/>
			</linearGradient>
			<path style="fill:url(#SVGID_00000000221051265105979350000006952568376692511420_);" d="M1587.896,2490.721
				c24.279-5.428,41.659-27.788,46.104-53.338c5.439-31.268-3.666-64.682-20.449-91.15c-30.985-48.866-90.422-71.092-145.534-58.878
				c-8.512-16.765-25.451-29.333-44.507-30.843c-17.56-1.392-33.177,5.923-44.008,18.068c-9.853-0.45-19.633,0.291-29.04,2.656
				c-23.309,5.86-43.096,26.908-43.325,50.479c-32.17,11.635-49.323,51.89-51.615,84.333c-1.636,23.162,1.676,49.043,19.158,66.005
				c7.256,7.041,16.955,8.499,17.853,19.41c0.855,10.385,1.914,20.47,5.952,30.221c8.074,19.5,23.002,35.386,41.552,45.318
				c7.936,4.249,16.91,7.263,25.809,8.646c10.218,1.588,22.577-2.404,32.197,0.393c5.548,1.613,10.762,7.531,15.446,10.779
				c4.443,3.082,9.06,5.907,14.102,7.896c9.446,3.726,19.541,5.072,29.652,4.594c19.416-0.92,38.075-9.377,54.459-19.282
				C1545.833,2565.393,1582.098,2531.827,1587.896,2490.721z"/>
			
				<linearGradient id="SVGID_00000044166433109379040590000002242479062985719200_" gradientUnits="userSpaceOnUse" x1="510.8745" y1="2897.209" x2="833.89" y2="2897.209" gradientTransform="matrix(-0.7683 -0.6401 -0.6401 0.7683 3809.1167 645.1779)">
				<stop  offset="0" style="stop-color:#24ABB5"/>
				<stop  offset="1" style="stop-color:#40CF9F"/>
			</linearGradient>
			<path style="opacity:0.4;fill:url(#SVGID_00000044166433109379040590000002242479062985719200_);" d="M1312.828,2474.514
				c9.087,9.717,22.4,27.251,28.949,21.969c59.784-51.14,136.907-14.812,203.674-2.146c39.299,6.966,59.998-35.927,71.402-65.086
				c5.439-12.635,10.711-28.233,13.903-44.429c4.784,17.144,6.266,35.183,3.243,52.563c-4.445,25.55-21.825,47.91-46.104,53.338
				c-5.798,41.106-42.063,74.672-76.195,95.307c-16.384,9.905-35.044,18.362-54.459,19.282c-10.111,0.478-20.206-0.867-29.652-4.594
				c-5.042-1.989-9.659-4.814-14.102-7.896c-4.683-3.248-9.897-9.166-15.445-10.779c-9.62-2.797-21.979,1.195-32.197-0.393
				c-8.899-1.383-17.873-4.397-25.809-8.646c-18.55-9.932-33.478-25.818-41.552-45.319c-4.037-9.75-5.096-19.836-5.951-30.221
				c-0.898-10.911-10.597-12.369-17.853-19.409c-17.481-16.963-20.794-42.843-19.158-66.005c0.121-1.713,0.292-3.451,0.496-5.202
				C1274.706,2429.158,1292.289,2452.185,1312.828,2474.514z"/>
			
				<linearGradient id="SVGID_00000157993360525229947130000005247325820682463389_" gradientUnits="userSpaceOnUse" x1="1090.3107" y1="2593.1606" x2="544.2022" y2="2651.1082">
				<stop  offset="0" style="stop-color:#4FC3BA"/>
				<stop  offset="0.8443" style="stop-color:#A1F094"/>
			</linearGradient>
			<path style="fill:url(#SVGID_00000157993360525229947130000005247325820682463389_);" d="M956.952,2417.262
				c-20.87-16.898-46.342-27.546-71.31-36.78c-24.57-9.086-49.797-15.116-74.655-3.132c-5.36,2.584-10.585,5.639-15.197,9.416
				c-5.054,4.139-9.364,10.302-15.323,13.145c-9.827,4.688-23.68,1.455-34.331,3.591c-25.759,5.167-47.084,20.021-61.76,41.648
				c-3.504,5.163-6.856,10.895-11.963,14.642c-5.772,4.236-13.355,5.769-19.847,8.594c-12.286,5.345-21.354,13.987-27.799,25.662
				c-6.031,10.924-9.099,23.343-11.676,35.469c-3.041,14.31-5.955,28.647-8.931,42.97c-2.964,14.265-6.21,28.504-8.831,42.837
				c-2.168,11.857-3.174,24.141-0.058,35.917c3.369,12.733,12.044,21.919,20.343,31.688c3.936,4.634,8.385,9.776,9.698,15.893
				c1.297,6.04-0.42,12.379-1.915,18.222c-6.114,23.897-8.867,48.07-0.653,71.923c7.105,20.633,23.339,38.257,44.08,45.656
				c1.839,0.656,3.707,1.195,5.587,1.673c0.039,2.718,0.892,5.352,2.816,7.38c31.708,33.407,84.359,44.085,126.082,23.014
				c11.644-5.88,20.159-14.131,30.335-22.02c9.737-7.549,22.196-7.002,33.694-9.94c24.883-6.359,33.945-27.047,42.004-49.134
				c3.666-10.047,7.537-19.493,16.131-26.33c9.89-7.867,21.544-13.133,31.505-20.893c10.141-7.901,17.902-17.951,21.801-30.274
				c3.468-10.958,4.081-23.037,8.995-33.493c5.474-11.646,17.048-19.682,25.152-29.399c7.424-8.902,13.603-19.093,18.304-29.681
				c9.776-22.019,14.019-48.196,9.181-71.978c-2.622-12.891-7.465-25.642-16.285-35.62c-4.445-5.029-9.399-8.962-14.905-12.741
				c-4.844-3.325-9.69-6.319-12.027-11.925c-2.521-6.046-3.224-12.83-5.047-19.099c-1.818-6.254-4.545-12.082-7.76-17.734
				C975.957,2435.127,967.039,2425.429,956.952,2417.262z"/>
			
				<linearGradient id="SVGID_00000021822707866027173070000006116016788466451091_" gradientUnits="userSpaceOnUse" x1="851.0099" y1="3511.0166" x2="1264.2435" y2="3511.0166" gradientTransform="matrix(-0.7683 -0.6401 -0.6401 0.7683 3809.1167 645.1779)">
				<stop  offset="0" style="stop-color:#24ABB5"/>
				<stop  offset="1" style="stop-color:#40CF9F"/>
			</linearGradient>
			<path style="opacity:0.4;fill:url(#SVGID_00000021822707866027173070000006116016788466451091_);" d="M652.565,2468.387
				c6.492-2.825,14.075-4.359,19.847-8.594c5.107-3.748,8.459-9.479,11.963-14.642c11.718-17.269,27.684-30.2,46.752-37.349
				c-1.61,2.547-3.217,5.098-4.824,7.648c-2.112,2.536-4.858,10.987-5.702,14.579c-21.122,38.245-59.357,81.564-38.222,120.647
				c10.145,21.338,39.092,30.418,50.293,50.488c19.02,28.731,7.194,66.13,13.749,99.511c3.384,24.297-1.048,52.821,26.843,63.169
				c46.09,16.677,97.759,17.082,143.714,2.127c-4.362,5.778-7.053,12.55-9.635,19.625c-8.059,22.086-17.121,42.775-42.003,49.134
				c-11.499,2.938-23.958,2.391-33.694,9.939c-10.177,7.889-18.692,16.14-30.335,22.021
				c-41.723,21.071-94.374,10.393-126.082-23.015c-1.925-2.027-2.778-4.662-2.816-7.38c-1.879-0.478-3.748-1.017-5.587-1.673
				c-20.741-7.4-36.975-25.024-44.08-45.657c-8.214-23.852-5.461-48.024,0.653-71.922c1.495-5.844,3.212-12.182,1.915-18.222
				c-1.314-6.117-5.763-11.259-9.699-15.892c-8.299-9.77-16.973-18.956-20.343-31.688c-3.116-11.776-2.109-24.061,0.058-35.918
				c2.621-14.333,5.867-28.571,8.831-42.836c2.976-14.323,5.889-28.661,8.931-42.97c2.578-12.126,5.646-24.546,11.676-35.47
				C631.212,2482.374,640.279,2473.731,652.565,2468.387z"/>
			
				<linearGradient id="SVGID_00000166676521942271370410000014911711249654771376_" gradientUnits="userSpaceOnUse" x1="1078.8094" y1="2506.7244" x2="1206.996" y2="2146.7485">
				<stop  offset="0" style="stop-color:#4FC3BA"/>
				<stop  offset="1" style="stop-color:#A1F094"/>
			</linearGradient>
			<path style="fill:url(#SVGID_00000166676521942271370410000014911711249654771376_);" d="M1209.948,2128.891
				c-30.864-0.561-62.651,8.952-86.588,28.313c-17.287-26.542-50.519-41.685-83.433-34.121
				c-42.933,9.866-68.304,44.348-81.558,83.474c-28.497,17.185-51.41,44.819-61.819,76.294
				c-23.012,69.587,14.521,142.056,77.783,171.656c-13.135,27.522-12.086,60.511,4.518,87.344
				c21.066,34.042,60.421,48.191,99.012,42.31c19.589-2.985,38.281-9.865,57.384-14.862c21.018-5.498,39.655-4.058,61.059-3.292
				c41.906,1.498,82.897-16.368,109.352-49.221c23.473-29.15,31.761-67.185,26.009-103.4c24.838-8.14,45.255-26.833,58.296-49.953
				c18.565-32.911,20.15-71.296,6.68-106.375C1369.377,2186.055,1285.45,2130.262,1209.948,2128.891z"/>
			
				<linearGradient id="SVGID_00000147180956329298478500000007628704849497350017_" gradientUnits="userSpaceOnUse" x1="725.3646" y1="3016.9143" x2="1198.74" y2="3016.9143" gradientTransform="matrix(-0.7683 -0.6401 -0.6401 0.7683 3809.1167 645.1779)">
				<stop  offset="0" style="stop-color:#24ABB5"/>
				<stop  offset="1" style="stop-color:#40CF9F"/>
			</linearGradient>
			<path style="opacity:0.4;fill:url(#SVGID_00000147180956329298478500000007628704849497350017_);" d="M930.604,2368.724
				c19.657,48.591,75.436,56.4,123.397,55.547c55.989-2.756,79.028,57.244,123.613,83.647c8.663,5.069,18.171,6.547,26.832-1.272
				c38.446-40.995,28.719-96.349,22.794-148.534c-4.229-20.705,12.037-35.074,32.53-41.627c18.381-4.017,34.651,7.389,47.33,17.951
				c35.572-48.315,40.85-117.324,12.631-168.658c34.568,23.079,63.058,55.207,76.91,91.28c13.471,35.08,11.886,73.465-6.679,106.376
				c-13.042,23.119-33.458,41.813-58.296,49.953c5.751,36.216-2.536,74.25-26.009,103.4c-26.455,32.853-67.446,50.72-109.352,49.221
				c-21.404-0.766-40.041-2.206-61.059,3.292c-19.103,4.996-37.795,11.876-57.384,14.861c-38.59,5.882-77.945-8.268-99.012-42.31
				c-16.604-26.832-17.653-59.821-4.518-87.344c-63.261-29.601-100.795-102.069-77.782-171.656
				c6.603-19.97,18.253-38.382,33.156-53.571C913.65,2273.944,912.345,2324.037,930.604,2368.724z"/>
			
				<linearGradient id="SVGID_00000061435567035038192420000016547233678071905943_" gradientUnits="userSpaceOnUse" x1="551.6597" y1="3194.6819" x2="544.5265" y2="3638.74" gradientTransform="matrix(-0.7683 -0.6401 -0.6401 0.7683 3809.1167 645.1779)">
				<stop  offset="0" style="stop-color:#24ABB5"/>
				<stop  offset="1" style="stop-color:#40CF9F"/>
			</linearGradient>
			<path style="fill:url(#SVGID_00000061435567035038192420000016547233678071905943_);" d="M1313.085,2827.39
				c-25.035-20.856-184.161,49.48-178.496,111.679C1140.253,3001.268,1362.502,2868.558,1313.085,2827.39z"/>
		</g>
		<g>
			
				<linearGradient id="SVGID_00000036239946099541413070000011942066363345935546_" gradientUnits="userSpaceOnUse" x1="1045.9907" y1="2494.6399" x2="2368.0833" y2="2494.6399">
				<stop  offset="0" style="stop-color:#FFC444"/>
				<stop  offset="0.9964" style="stop-color:#F36F56"/>
			</linearGradient>
			<path style="fill:url(#SVGID_00000036239946099541413070000011942066363345935546_);" d="M2295.66,2814.515
				c-6.419,2.011-13.314,2.944-20.477,2.583c-29.608-1.49-53.669-25.368-55.361-54.965c-1.241-21.714,9.377-41.032,25.972-52.096
				c8.679-5.787,11.58-17.192,6.775-26.451c-46.073-88.788-97.19-183.765-139.545-253.599
				c-90.004-148.397-197.158-314.534-235.101-373.034c-8.847-13.64-23.855-22.011-40.109-22.386l-480.538-11.07
				c-18.621-0.429-36.104,8.874-46.163,24.549c-45.769,71.328-175.247,288.185-257.71,577.079
				c-31.664,110.929,41.443,224.468,155.409,242.347l626.757,98.326l513.69-28.609c14.23-0.793,23.045-15.834,16.767-28.629
				c-9.411-19.177-23.398-47.52-40.425-81.544C2320.095,2816.01,2307.404,2810.836,2295.66,2814.515z"/>
			<g>
				<path style="fill:#FFFFFF;" d="M1574.097,2369.641c-68.609-108.35-154.565-240.305-191.539-296.896
					c-7.791-11.925,0.872-27.714,15.115-27.528c93.041,1.214,356.274,4.827,478.047,8.34l-0.229-0.353
					c-7.326-11.287-19.756-18.224-33.208-18.534l-485.006-11.173c-18.621-0.429-36.104,8.874-46.163,24.549
					c-48.505,75.593-191.027,314.635-271.968,629.649c-21.588,84.021,33.575,168.426,119.277,181.871l677.146,106.231l41.548-2.313
					c-34.528-164.281-124.614-317.839-132.46-330.887C1734.903,2616.374,1664.089,2511.76,1574.097,2369.641z"/>
			</g>
			
				<linearGradient id="SVGID_00000042737697469086880900000006595334061788427146_" gradientUnits="userSpaceOnUse" x1="1948.1621" y1="2447.1387" x2="1721.7839" y2="2903.2244">
				<stop  offset="0" style="stop-color:#FFC444"/>
				<stop  offset="0.9964" style="stop-color:#F36F56"/>
			</linearGradient>
			
				<ellipse style="fill:url(#SVGID_00000042737697469086880900000006595334061788427146_);" cx="1893.666" cy="2556.933" rx="86.641" ry="74.075"/>
			
				<linearGradient id="SVGID_00000013878892348962580850000018048781105003746952_" gradientUnits="userSpaceOnUse" x1="1927.3119" y1="2148.7185" x2="1860.7305" y2="2651.4106">
				<stop  offset="0" style="stop-color:#FFC444"/>
				<stop  offset="0.9964" style="stop-color:#F36F56"/>
			</linearGradient>
			<path style="fill:url(#SVGID_00000013878892348962580850000018048781105003746952_);" d="M1867.101,2539.39
				c-26.155,0-48.614,13.232-58.386,32.138c7.929,33.919,42.945,59.479,84.951,59.479c6.875,0,13.553-0.706,19.966-1.999
				c10.589-9.52,17.077-22.283,17.077-36.322C1930.709,2563.251,1902.231,2539.39,1867.101,2539.39z"/>
			
				<linearGradient id="SVGID_00000104666314511677936740000009403343418047252415_" gradientUnits="userSpaceOnUse" x1="1649.287" y1="2246.4404" x2="1476.1658" y2="2409.2039">
				<stop  offset="0" style="stop-color:#FFC444"/>
				<stop  offset="0.9964" style="stop-color:#F36F56"/>
			</linearGradient>
			<path style="fill:url(#SVGID_00000104666314511677936740000009403343418047252415_);" d="M1594.075,2236.469
				c-12.02,4.687-14.122,24.542-14.446,27.597c-3.556,33.571,26.379,70.93,44.025,67.153c14.401-3.083,24.787-34.456,16.646-58.817
				C1632.839,2250.073,1608.838,2230.713,1594.075,2236.469z"/>
			
				<linearGradient id="SVGID_00000119090090816882116440000012650678756821325737_" gradientUnits="userSpaceOnUse" x1="1775.2632" y1="2082.5654" x2="1715.3395" y2="2641.8535">
				<stop  offset="0" style="stop-color:#FFC444"/>
				<stop  offset="0.9964" style="stop-color:#F36F56"/>
			</linearGradient>
			<path style="fill:url(#SVGID_00000119090090816882116440000012650678756821325737_);" d="M1700.621,2076.649
				c-15.636,18.945-7.059,54.003,6.651,75.015c18.396,28.191,56.419,47.014,92.832,34.178
				c32.209-11.354,56.376-45.089,51.049-71.024C1841.319,2066.941,1730.029,2041.017,1700.621,2076.649z"/>
			
				<linearGradient id="SVGID_00000132769077448967275200000005995824317065847197_" gradientUnits="userSpaceOnUse" x1="1258.6304" y1="2331.4836" x2="1472.0234" y2="2331.4836">
				<stop  offset="0" style="stop-color:#FFC444"/>
				<stop  offset="0.9964" style="stop-color:#F36F56"/>
			</linearGradient>
			<path style="fill:url(#SVGID_00000132769077448967275200000005995824317065847197_);" d="M1350.794,2240.235
				c-15.197,1.933-66.814,8.5-85.451,47.719c-20.215,42.54,7.122,105.079,56.597,127.622c51.994,23.689,115.013-2.91,138.719-48.829
				c12.606-24.418,17.929-61.724-1.11-91C1429.911,2230.171,1363.689,2238.595,1350.794,2240.235z"/>
			<g>
				
					<linearGradient id="SVGID_00000160192466106036545700000018023932208674157954_" gradientUnits="userSpaceOnUse" x1="1642.257" y1="2534.1343" x2="1372.6008" y2="2301.0981">
					<stop  offset="0" style="stop-color:#FFC444"/>
					<stop  offset="0.9964" style="stop-color:#F36F56"/>
				</linearGradient>
				<path style="fill:url(#SVGID_00000160192466106036545700000018023932208674157954_);" d="M1459.55,2275.747
					c-18.245-28.056-50.341-35.639-75.339-36.948c-14.844,8.792-30.27,21.984-38.966,41.387
					c-18.343,40.927-2.101,99.086,45.284,140.646c29.978-7.777,56.529-27.739,70.131-54.085
					C1473.265,2342.329,1478.589,2305.023,1459.55,2275.747z"/>
			</g>
			<g>
				
					<linearGradient id="SVGID_00000137098917945143209540000012918910750514073748_" gradientUnits="userSpaceOnUse" x1="1670.8" y1="2205.5571" x2="1586.459" y2="2300.2556">
					<stop  offset="0" style="stop-color:#FFC444"/>
					<stop  offset="0.9964" style="stop-color:#F36F56"/>
				</linearGradient>
				<path style="fill:url(#SVGID_00000137098917945143209540000012918910750514073748_);" d="M1580.706,2257.236
					c-0.7,3.269-0.976,5.874-1.078,6.83c-2.592,24.471,12.613,50.938,27.88,62.034
					C1623.46,2287.908,1596.371,2266.153,1580.706,2257.236z"/>
			</g>
			
				<linearGradient id="SVGID_00000093885606152883577020000000898961460712669361_" gradientUnits="userSpaceOnUse" x1="1887.2992" y1="1884.1024" x2="1784.0974" y2="2090.5054">
				<stop  offset="0" style="stop-color:#FFC444"/>
				<stop  offset="0.9964" style="stop-color:#F36F56"/>
			</linearGradient>
			<path style="fill:url(#SVGID_00000093885606152883577020000000898961460712669361_);" d="M1835.571,2145.134
				c0-33.292-36.509-60.28-81.544-60.28c-24.687,0-46.794,8.121-61.748,20.933c0.549,16.041,6.869,33.425,14.994,45.876
				c18.396,28.191,56.419,47.014,92.832,34.178c11.257-3.968,21.524-10.675,29.901-18.823
				C1833.585,2160.233,1835.571,2152.857,1835.571,2145.134z"/>
			
				<linearGradient id="SVGID_00000052086458453051445960000009529258879665315982_" gradientUnits="userSpaceOnUse" x1="1180.9594" y1="2585.1987" x2="1310.1116" y2="2585.1987">
				<stop  offset="0" style="stop-color:#FFC444"/>
				<stop  offset="0.9964" style="stop-color:#F36F56"/>
			</linearGradient>
			<path style="fill:url(#SVGID_00000052086458453051445960000009529258879665315982_);" d="M1236.74,2527.969
				c-9.198,1.213-40.438,5.331-51.718,29.929c-12.235,26.681,4.31,65.904,34.255,80.042c31.468,14.858,69.609-1.825,83.957-30.625
				c7.629-15.314,10.851-38.712-0.672-57.074C1284.624,2521.657,1244.544,2526.94,1236.74,2527.969z"/>
			<g>
				
					<linearGradient id="SVGID_00000162327719953514788790000013486190785030385833_" gradientUnits="userSpaceOnUse" x1="1415.8813" y1="2710.4141" x2="1249.4063" y2="2566.5466">
					<stop  offset="0" style="stop-color:#FFC444"/>
					<stop  offset="0.9964" style="stop-color:#F36F56"/>
				</linearGradient>
				<path style="fill:url(#SVGID_00000162327719953514788790000013486190785030385833_);" d="M1302.562,2550.242
					c-11.043-17.596-30.468-22.352-45.597-23.173c-8.984,5.514-18.32,13.788-23.583,25.957
					c-11.102,25.669-1.272,62.145,27.407,88.211c18.144-4.878,34.213-17.397,42.445-33.922
					C1310.863,2592.001,1314.085,2568.603,1302.562,2550.242z"/>
			</g>
		</g>
		<g>
			
				<linearGradient id="SVGID_00000143578317310674541840000008585098080387736728_" gradientUnits="userSpaceOnUse" x1="2244.8645" y1="1240.5826" x2="2787.8352" y2="1240.5826">
				<stop  offset="0.0036" style="stop-color:#EBEFF2"/>
				<stop  offset="1" style="stop-color:#FFFFFF"/>
			</linearGradient>
			<path style="fill:url(#SVGID_00000143578317310674541840000008585098080387736728_);" d="M2787.835,1315.562l-542.971-4.009
				v-125.382c0-11.819,9.938-21.206,21.737-20.534l501.835,28.579c10.887,0.62,19.398,9.63,19.398,20.535V1315.562z"/>
			<path style="fill:#D8DEE8;" d="M2794.052,1315.562l-542.97-30.921v-98.47c0-11.819,9.937-21.206,21.737-20.534l501.835,28.579
				c10.887,0.62,19.398,9.63,19.398,20.535V1315.562z"/>
			<g>
				<polygon style="fill:#D8DEE8;" points="3071.946,2925.046 2541.978,2954.504 2541.978,1413.528 3071.946,1442.979 				"/>
				<g>
					
						<linearGradient id="SVGID_00000019640989348150093960000014057857597039316923_" gradientUnits="userSpaceOnUse" x1="2652.166" y1="2295.0876" x2="3015.7012" y2="2315.125">
						<stop  offset="0.0036" style="stop-color:#EBEFF2"/>
						<stop  offset="1" style="stop-color:#FFFFFF"/>
					</linearGradient>
					<path style="fill:url(#SVGID_00000019640989348150093960000014057857597039316923_);" d="M2897.893,1651.107
						c-135.33,34.251,76.543,209.921-43.013,246.637c-94.929,29.152-83.616-235.24-170.483-160.185
						c-87.981,76.017,28.83,302.704,88.031,476.755c58.692,172.552,61.753,421.658-114.87,377.99
						c-49.393-12.212-85.312-30.077-115.58-49.88v412.08l529.968-29.458V1709.817
						C3029.81,1662.332,2969.322,1633.028,2897.893,1651.107z"/>
				</g>
			</g>
			<g>
				
					<linearGradient id="SVGID_00000036226363698098073600000009605291871085774487_" gradientUnits="userSpaceOnUse" x1="2012.6232" y1="2184.5059" x2="2542.2546" y2="2184.5059">
					<stop  offset="0" style="stop-color:#AA80F9"/>
					<stop  offset="0.9964" style="stop-color:#6165D7"/>
				</linearGradient>
				<polygon style="fill:url(#SVGID_00000036226363698098073600000009605291871085774487_);" points="2542.255,2954.504 
					2012.623,2857.178 2012.623,1582.667 2542.255,1414.508 				"/>
				
					<linearGradient id="SVGID_00000140694816824320294510000005497438948986088125_" gradientUnits="userSpaceOnUse" x1="2140.4614" y1="1434.0413" x2="2314.7632" y2="1509.1057">
					<stop  offset="0.0036" style="stop-color:#EBEFF2"/>
					<stop  offset="1" style="stop-color:#FFFFFF"/>
				</linearGradient>
				<polygon style="fill:url(#SVGID_00000140694816824320294510000005497438948986088125_);" points="2542.255,1414.508 
					2012.623,1582.667 2252.459,1278.594 2252.459,1278.594 				"/>
				<g style="opacity:0.3;">
					<polygon style="fill:#E6E6E6;" points="2252.459,1278.594 2012.623,1582.667 2322.736,1311.553 					"/>
				</g>
				<path style="fill:#D8DEE8;" d="M2012.623,2558.695v298.483l529.631,97.326v-411.612
					c-90.347-57.273-132.678-122.026-279.712-136.295C2166.631,2397.29,2075.844,2479.471,2012.623,2558.695z"/>
				<g>
					
						<linearGradient id="SVGID_00000096741302429669124140000014698841717286368407_" gradientUnits="userSpaceOnUse" x1="2066.4443" y1="2169.5244" x2="2275.5649" y2="2169.5244">
						<stop  offset="0.0036" style="stop-color:#EBEFF2"/>
						<stop  offset="1" style="stop-color:#FFFFFF"/>
					</linearGradient>
					<path style="fill:url(#SVGID_00000096741302429669124140000014698841717286368407_);" d="M2142.74,2118.534v0.539
						l81.301,31.115v43.108l-81.301,36.31v0.539l132.825-0.751v46.122l-209.121-3.094v-45.224l118.216-53.924v-0.55l-118.216-46.37
						v-46.262l209.121-16.563v47.267L2142.74,2118.534z"/>
					
						<linearGradient id="SVGID_00000158713251822031551030000004342204455606972804_" gradientUnits="userSpaceOnUse" x1="2066.4443" y1="1999.4061" x2="2275.5649" y2="1999.4061">
						<stop  offset="0.0036" style="stop-color:#EBEFF2"/>
						<stop  offset="1" style="stop-color:#FFFFFF"/>
					</linearGradient>
					<path style="fill:url(#SVGID_00000158713251822031551030000004342204455606972804_);" d="M2275.565,2015.692l-209.121,20.999
						v-48.603l209.121-25.966V2015.692z"/>
					
						<linearGradient id="SVGID_00000129163421749498509840000018304429092695340172_" gradientUnits="userSpaceOnUse" x1="2066.4443" y1="1860.3052" x2="2275.5649" y2="1860.3052">
						<stop  offset="0.0036" style="stop-color:#EBEFF2"/>
						<stop  offset="1" style="stop-color:#FFFFFF"/>
					</linearGradient>
					<path style="fill:url(#SVGID_00000129163421749498509840000018304429092695340172_);" d="M2066.444,1899.204l165.462-27.732
						v-86.523l43.658-9.025v138.363l-209.121,30.401V1899.204z"/>
					
						<linearGradient id="SVGID_00000089566117823460422970000010656277870953123489_" gradientUnits="userSpaceOnUse" x1="2066.4443" y1="1676.9075" x2="2275.5649" y2="1676.9075">
						<stop  offset="0.0036" style="stop-color:#EBEFF2"/>
						<stop  offset="1" style="stop-color:#FFFFFF"/>
					</linearGradient>
					<path style="fill:url(#SVGID_00000089566117823460422970000010656277870953123489_);" d="M2066.444,1741.965l84.719-20.709
						v-0.541l-84.719-36.708v-51.201l95.199,42.369l113.922-107.509v56.434l-103.338,91.461v0.547l103.338-25.261v48.699
						l-209.121,46.604V1741.965z"/>
				</g>
			</g>
			
				<linearGradient id="SVGID_00000051341686881372768670000008575079744594578608_" gradientUnits="userSpaceOnUse" x1="2651.626" y1="1460.0436" x2="2688.8379" y2="1110.8212">
				<stop  offset="0.0036" style="stop-color:#EBEFF2"/>
				<stop  offset="1" style="stop-color:#FFFFFF"/>
			</linearGradient>
			<polygon style="fill:url(#SVGID_00000051341686881372768670000008575079744594578608_);" points="2252.459,1278.594 
				2794.052,1302.965 3071.946,1442.979 2542.255,1414.508 			"/>
			
				<linearGradient id="SVGID_00000013157222014908071460000000422254045798669956_" gradientUnits="userSpaceOnUse" x1="2252.4592" y1="1346.5508" x2="2542.2546" y2="1346.5508">
				<stop  offset="0.0036" style="stop-color:#EBEFF2"/>
				<stop  offset="1" style="stop-color:#FFFFFF"/>
			</linearGradient>
			<polygon style="fill:url(#SVGID_00000013157222014908071460000000422254045798669956_);" points="2542.255,1414.508 
				2252.459,1278.594 2293.043,1333.55 			"/>
		</g>
		<g>
			<g>
				<path style="fill:#D8DEE8;" d="M2026.466,2611.49c0,136.551-86.241,210.303-192.625,210.303
					c-106.384,0-192.625-73.752-192.625-210.303s86.241-284.193,192.625-284.193
					C1940.225,2327.297,2026.466,2474.938,2026.466,2611.49z"/>
				<g style="opacity:0.6;">
					
						<linearGradient id="SVGID_00000139293314704052845660000000561511810890628771_" gradientUnits="userSpaceOnUse" x1="1747.2887" y1="2839.0332" x2="1991.6519" y2="2176.8894">
						<stop  offset="0.0036" style="stop-color:#EBEFF2"/>
						<stop  offset="1" style="stop-color:#FFFFFF"/>
					</linearGradient>
					<path style="fill:url(#SVGID_00000139293314704052845660000000561511810890628771_);" d="M1903.867,2683.194
						c-23.435-8.924-23.233-37.573-70.944-94.592c-44.223-52.852-70.234-59.117-86.709-82.768
						c-17.587-25.247-23.741-69.532,12.281-153.071c-68.939,48.056-117.279,156.496-117.279,258.727
						c0,136.551,86.241,210.303,192.625,210.303c106.384,0,192.626-73.752,192.626-210.303c0-0.206-0.006-0.412-0.006-0.617
						C1961.292,2681.115,1925.262,2691.341,1903.867,2683.194z"/>
				</g>
			</g>
			<g>
				<path style="fill:#D8DEE8;" d="M1630.91,2611.49c0,136.551-86.241,210.303-192.625,210.303
					c-106.384,0-192.625-73.752-192.625-210.303s86.241-284.193,192.625-284.193
					C1544.669,2327.297,1630.91,2474.938,1630.91,2611.49z"/>
				<g style="opacity:0.6;">
					
						<linearGradient id="SVGID_00000160151661432256239310000016281684529075115653_" gradientUnits="userSpaceOnUse" x1="1351.7327" y1="2839.0332" x2="1596.0958" y2="2176.8894">
						<stop  offset="0.0036" style="stop-color:#EBEFF2"/>
						<stop  offset="1" style="stop-color:#FFFFFF"/>
					</linearGradient>
					<path style="fill:url(#SVGID_00000160151661432256239310000016281684529075115653_);" d="M1508.311,2683.194
						c-23.435-8.924-23.233-37.573-70.944-94.592c-44.223-52.852-70.234-59.117-86.709-82.768
						c-17.587-25.247-23.741-69.532,12.281-153.071c-68.939,48.056-117.279,156.496-117.279,258.727
						c0,136.551,86.241,210.303,192.625,210.303s192.626-73.752,192.626-210.303c0-0.206-0.006-0.412-0.006-0.617
						C1565.736,2681.115,1529.707,2691.341,1508.311,2683.194z"/>
				</g>
			</g>
			<polygon style="fill:#D8DEE8;" points="928.492,2712.061 1322.574,2912.596 2305.643,2728.023 1881.854,2702.724 			"/>
			<g>
				<path style="fill:#FFFFFF;" d="M2205.248,2652.873c0,136.552-86.241,210.303-192.625,210.303s-192.625-73.752-192.625-210.303
					c0-136.551,86.241-284.192,192.625-284.192S2205.248,2516.322,2205.248,2652.873z"/>
				<g style="opacity:0.6;">
					
						<linearGradient id="SVGID_00000116236638782239087530000001609073782416416134_" gradientUnits="userSpaceOnUse" x1="1926.0709" y1="2880.4172" x2="2170.4341" y2="2218.2737">
						<stop  offset="0.0036" style="stop-color:#EBEFF2"/>
						<stop  offset="1" style="stop-color:#FFFFFF"/>
					</linearGradient>
					<path style="fill:url(#SVGID_00000116236638782239087530000001609073782416416134_);" d="M2082.649,2724.578
						c-23.435-8.924-23.233-37.573-70.944-94.592c-44.223-52.852-70.234-59.117-86.709-82.768
						c-17.587-25.247-23.741-69.532,12.281-153.071c-68.939,48.056-117.279,156.497-117.279,258.727
						c0,136.551,86.241,210.303,192.625,210.303s192.626-73.752,192.626-210.303c0-0.205-0.006-0.412-0.006-0.617
						C2140.074,2722.499,2104.045,2732.725,2082.649,2724.578z"/>
				</g>
			</g>
			<g>
				<path style="fill:#FFFFFF;" d="M1809.692,2652.873c0,136.552-86.241,210.303-192.625,210.303
					c-106.384,0-192.625-73.752-192.625-210.303c0-136.551,86.241-284.192,192.625-284.192
					C1723.451,2368.681,1809.692,2516.322,1809.692,2652.873z"/>
				<g style="opacity:0.6;">
					
						<linearGradient id="SVGID_00000160148566304502171270000018446429247228713615_" gradientUnits="userSpaceOnUse" x1="1530.515" y1="2880.4172" x2="1774.8781" y2="2218.2737">
						<stop  offset="0.0036" style="stop-color:#EBEFF2"/>
						<stop  offset="1" style="stop-color:#FFFFFF"/>
					</linearGradient>
					<path style="fill:url(#SVGID_00000160148566304502171270000018446429247228713615_);" d="M1687.094,2724.578
						c-23.435-8.924-23.233-37.573-70.944-94.592c-44.223-52.852-70.234-59.117-86.709-82.768
						c-17.587-25.247-23.741-69.532,12.281-153.071c-68.939,48.056-117.279,156.497-117.279,258.727
						c0,136.551,86.241,210.303,192.625,210.303c106.384,0,192.626-73.752,192.626-210.303c0-0.205-0.006-0.412-0.006-0.617
						C1744.518,2722.499,1708.489,2732.725,1687.094,2724.578z"/>
				</g>
			</g>
			<g>
				<path style="fill:#FFFFFF;" d="M1414.136,2652.873c0,136.552-86.241,210.303-192.625,210.303
					c-106.384,0-192.625-73.752-192.625-210.303c0-136.551,86.241-284.192,192.625-284.192
					C1327.895,2368.681,1414.136,2516.322,1414.136,2652.873z"/>
				<g style="opacity:0.6;">
					
						<linearGradient id="SVGID_00000104682788242180293990000017199076226709740165_" gradientUnits="userSpaceOnUse" x1="1134.9591" y1="2880.4172" x2="1379.322" y2="2218.2737">
						<stop  offset="0.0036" style="stop-color:#EBEFF2"/>
						<stop  offset="1" style="stop-color:#FFFFFF"/>
					</linearGradient>
					<path style="fill:url(#SVGID_00000104682788242180293990000017199076226709740165_);" d="M1291.537,2724.578
						c-23.435-8.924-23.233-37.573-70.944-94.592c-44.223-52.852-70.234-59.117-86.709-82.768
						c-17.587-25.247-23.741-69.532,12.281-153.071c-68.939,48.056-117.279,156.497-117.279,258.727
						c0,136.551,86.241,210.303,192.625,210.303c106.384,0,192.626-73.752,192.626-210.303c0-0.205-0.006-0.412-0.006-0.617
						C1348.962,2722.499,1312.933,2732.725,1291.537,2724.578z"/>
				</g>
			</g>
			
				<linearGradient id="SVGID_00000121265596544620602560000009512007359418302618_" gradientUnits="userSpaceOnUse" x1="1032.4401" y1="2782.9722" x2="1445.973" y2="3167.532">
				<stop  offset="0.0036" style="stop-color:#EBEFF2"/>
				<stop  offset="1" style="stop-color:#FFFFFF"/>
			</linearGradient>
			<path style="fill:url(#SVGID_00000121265596544620602560000009512007359418302618_);" d="M1322.89,3055.198l-308.003-79.101
				c-20.82-5.58-38.341-18.677-49.57-36.266c-5.273-8.2-9.152-17.386-11.363-27.218l-39.466-185.183
				c-1.804-8.54,5.308-16.365,14.017-15.378l300.483,34.703l0.51,0.066l4.389,0.512l8.506,29.462L1322.89,3055.198z"/>
			<path style="fill:#D8DEE8;" d="M2310.142,2739.951l-61.919,187.188l-11.534,34.873c-8.879,26.811-33.172,45.556-61.376,47.292
				l-823.504,50.556c-33.58,2.075-63.451-21.196-69.609-54.266l-45.352-242.373l-2.96-15.888l1066.423-20.72
				C2307.285,2726.478,2312.32,2733.316,2310.142,2739.951z"/>
		</g>
		<g>
			
				<linearGradient id="SVGID_00000021091762339599992560000003285318381103712390_" gradientUnits="userSpaceOnUse" x1="2103.5664" y1="2371.9197" x2="2352.4048" y2="3008.8267">
				<stop  offset="0" style="stop-color:#FF9085"/>
				<stop  offset="1" style="stop-color:#FB6FBB"/>
			</linearGradient>
			<path style="fill:url(#SVGID_00000021091762339599992560000003285318381103712390_);" d="M2219.054,2446.652
				c-62.22-4.783-58.954-19.712-120.716-22.218c-38.476-1.561-120.427-4.885-179.223,38.511
				c-92.443,68.231-79.644,216.534-76.281,255.503c10.529,121.997,80.599,264.638,203.662,317.713
				c57.299,24.712,119.874,27.328,174.779,29.624c56.1,2.345,103.379,4.322,151.08-10.368
				c164.878-50.775,218.936-264.986,221.436-275.499c6.973-29.321,47.757-200.826-50.36-296.977
				c-37.68-36.925-82.775-49.929-92.574-52.582C2367.761,2407.859,2332.231,2455.353,2219.054,2446.652z"/>
			<g style="opacity:0.3;">
				
					<linearGradient id="SVGID_00000105399423286906223870000010652691050691350147_" gradientUnits="userSpaceOnUse" x1="1986.3379" y1="2417.7202" x2="2235.1758" y2="3054.6255">
					<stop  offset="0" style="stop-color:#FF9085"/>
					<stop  offset="1" style="stop-color:#FB6FBB"/>
				</linearGradient>
				<path style="fill:url(#SVGID_00000105399423286906223870000010652691050691350147_);" d="M2182.765,3007.278
					c-14.213-37.529-6.493-72.101-34.067-94.795c-30.054-24.737-63.724-3.83-103.682-12.59
					c-95.658-20.97-188.994-203.543-126.641-322.897c37.847-72.446,120.553-97.668,131.084-100.72
					c100.438-29.106,174.928,29.095,214.771-9.628c4.937-4.798,9.56-11.302,12.906-20.368c-17.045,1.627-36.093,2.063-58.082,0.373
					c-62.22-4.783-58.954-19.712-120.716-22.218c-38.476-1.561-120.427-4.885-179.223,38.511
					c-92.443,68.231-79.644,216.534-76.281,255.503c10.529,121.997,80.599,264.638,203.662,317.713
					c57.299,24.712,119.874,27.328,174.779,29.624c1.666,0.069,3.323,0.139,4.973,0.208
					C2202.403,3046.013,2189.703,3025.598,2182.765,3007.278z"/>
			</g>
			
				<linearGradient id="SVGID_00000133517798722964721460000001674889662437436839_" gradientUnits="userSpaceOnUse" x1="2214.6106" y1="2359.8977" x2="2374.3352" y2="2359.8977">
				<stop  offset="0" style="stop-color:#AB316D"/>
				<stop  offset="1" style="stop-color:#792D3D"/>
			</linearGradient>
			<path style="fill:url(#SVGID_00000133517798722964721460000001674889662437436839_);" d="M2244.975,2468.129
				c-29.703-12.603-30.362-61.442-30.364-63.691c-0.036-33.243,19.372-65.437,42.954-84.427
				c25.34-20.406,49.197-20.49,61.469-46.657c5.553-11.841,6.51-24.278,11.109-24.439c5.326-0.187,9.721,16.294,13.331,28.883
				c21.912,76.425,33.467,74.228,30.364,96.277c-5.241,37.24-40.534,60.05-62.21,74.059
				C2290.43,2461.833,2266.534,2477.277,2244.975,2468.129z"/>
			
				<linearGradient id="SVGID_00000123430424259878741450000003363260512235981982_" gradientUnits="userSpaceOnUse" x1="2244.5803" y1="2359.9539" x2="2374.3352" y2="2359.9539">
				<stop  offset="0" style="stop-color:#AB316D"/>
				<stop  offset="1" style="stop-color:#792D3D"/>
			</linearGradient>
			<path style="opacity:0.3;fill:url(#SVGID_00000123430424259878741450000003363260512235981982_);" d="M2343.473,2277.797
				c-3.41-11.894-7.521-27.252-12.457-28.756c4.462,16.412,2.617,27.958-0.874,36.162c-7.448,17.506-21.298,17.263-31.845,39.992
				c-9.911,21.359-1.374,29.53-11.849,50.36c-9.419,18.729-20.399,20.233-30.364,34.067c-8.02,11.134-14.418,28.928-10.126,58.888
				c21.302,8.282,44.794-6.884,65.67-20.377c21.676-14.009,56.969-36.819,62.21-74.059
				C2376.94,2352.026,2365.385,2354.222,2343.473,2277.797z"/>
			
				<linearGradient id="SVGID_00000039856411680295666930000008076496880510061712_" gradientUnits="userSpaceOnUse" x1="2135.8857" y1="2404.3279" x2="2252.623" y2="2404.3279">
				<stop  offset="0.0036" style="stop-color:#EBEFF2"/>
				<stop  offset="1" style="stop-color:#FFFFFF"/>
			</linearGradient>
			<path style="fill:url(#SVGID_00000039856411680295666930000008076496880510061712_);" d="M2244.234,2474.054
				c0.306,0.007,3.556,0.04,5.925-2.222c14.472-13.818-38.78-80.017-56.285-119.235c-0.806-1.807-3.023-6.885-8.146-11.109
				c-9.513-7.843-22.135-7.045-28.142-6.665c-8.101,0.512-19.687,1.245-21.477,6.665c-1.984,6.007,9.332,13.926,33.327,33.327
				c22.325,18.05,33.488,27.076,36.289,30.364C2231.829,2435.819,2230.417,2473.715,2244.234,2474.054z"/>
			<path style="fill:#D8DEE8;" d="M2163.51,2342.969c12.547,0.82,18.814,6.596,20.736,4.444c0.862-0.965,0.646-3.302-2.598-8.69
				c-8.783-4.862-18.883-4.228-24.063-3.9c-8.101,0.512-19.687,1.245-21.477,6.665c-0.101,0.306-0.159,0.619-0.191,0.937
				c1.073,0.93,2.142,1.573,3.153,2.026C2145.911,2347.508,2150.591,2342.125,2163.51,2342.969z"/>
			
				<linearGradient id="SVGID_00000102510632986503749080000005057806425874012079_" gradientUnits="userSpaceOnUse" x1="2453.5046" y1="2918.0308" x2="2293.5696" y2="2242.7471">
				<stop  offset="0" style="stop-color:#FFC444"/>
				<stop  offset="1" style="stop-color:#FFFFFF"/>
			</linearGradient>
			<path style="fill:url(#SVGID_00000102510632986503749080000005057806425874012079_);" d="M2264.971,2485.163
				c0,0,122.197-67.394,209.587-24.44c87.389,42.954,114.051,122.938,101.461,257.725s-91.093,320.675-287.349,335.487
				c0,0,59.247-135.528,56.285-275.499S2322.737,2510.343,2264.971,2485.163z"/>
			
				<linearGradient id="SVGID_00000136396878746522102940000003560140525299699084_" gradientUnits="userSpaceOnUse" x1="2379.8794" y1="2674.3435" x2="2424.3147" y2="2972.0608">
				<stop  offset="0" style="stop-color:#AB316D"/>
				<stop  offset="1" style="stop-color:#792D3D"/>
			</linearGradient>
			<path style="fill:url(#SVGID_00000136396878746522102940000003560140525299699084_);" d="M2362.729,2749.553
				c12.324-35.812,26.782-68.94,38.511-67.394c6.619,0.873,10.751,12.574,11.109,20.737
				C2413.193,2722.182,2393.887,2742.806,2362.729,2749.553z"/>
			<g style="opacity:0.3;">
				
					<linearGradient id="SVGID_00000104669453744441671150000002872307285899100302_" gradientUnits="userSpaceOnUse" x1="2418.031" y1="2926.4326" x2="2258.0959" y2="2251.1487">
					<stop  offset="0" style="stop-color:#FFC444"/>
					<stop  offset="1" style="stop-color:#FFFFFF"/>
				</linearGradient>
				<path style="fill:url(#SVGID_00000104669453744441671150000002872307285899100302_);" d="M2437.528,2701.415
					c15.975-38.5,46.71-43.509,54.804-88.871c5.92-33.18-1.455-81.33-32.586-105.164c-33.737-25.827-66.53-1.015-122.938-23.699
					c-11.626-4.675-21.936-10.438-31.024-16.664c-24.702,9.261-40.813,18.145-40.813,18.145
					c57.766,25.18,77.021,153.302,79.984,293.273s-56.285,275.499-56.285,275.499c77.842-5.875,137.156-38.665,181.183-84.504
					c12.053-21.146,16.492-40.43,16.555-57.689C2486.677,2837.833,2406.841,2775.373,2437.528,2701.415z"/>
			</g>
			<g>
				<defs>
					<path id="SVGID_00000114073313131244314280000014526310339688010943_" d="M2264.971,2485.163c0,0,122.197-67.394,209.587-24.44
						c87.389,42.954,244.024,28.513,266.242,171.447c20.793,133.768,1.481,468.053-452.13,421.766
						c0,0,59.247-135.528,56.285-275.499S2322.737,2510.343,2264.971,2485.163z"/>
				</defs>
				<clipPath id="SVGID_00000114786474722840704620000013263383783238897577_">
					<use xlink:href="#SVGID_00000114073313131244314280000014526310339688010943_"  style="overflow:visible;"/>
				</clipPath>
				<g style="clip-path:url(#SVGID_00000114786474722840704620000013263383783238897577_);">
					
						<linearGradient id="SVGID_00000119801131886585856430000010587925888637498545_" gradientUnits="userSpaceOnUse" x1="2742.718" y1="3198.6924" x2="2449.5039" y2="2749.9854">
						<stop  offset="0" style="stop-color:#FFC444"/>
						<stop  offset="1" style="stop-color:#FFFFFF"/>
					</linearGradient>
					<path style="fill:url(#SVGID_00000119801131886585856430000010587925888637498545_);" d="M2251.64,3016.165
						c56.823-113.599,120.897-185.62,170.336-231.064c29.617-27.225,47.926-39.344,88.13-75.54
						c66.273-59.665,115.877-116.179,150.438-159.478c8.078-10.121,23.659-9.52,30.894,1.22
						c22.198,32.954,54.393,94.33,50.337,173.579c-2.955,57.744-25.649,124.218-87.255,193.525
						C2466.293,3130.164,2251.64,3016.165,2251.64,3016.165z"/>
					
						<linearGradient id="SVGID_00000095318137651720365100000012301975152004115857_" gradientUnits="userSpaceOnUse" x1="2251.6399" y1="2794.835" x2="2742.1248" y2="2794.835">
						<stop  offset="0" style="stop-color:#FF9085"/>
						<stop  offset="1" style="stop-color:#FB6FBB"/>
					</linearGradient>
					<path style="fill:url(#SVGID_00000095318137651720365100000012301975152004115857_);" d="M2691.438,2551.303
						c-5.051-7.498-14.168-10.047-21.962-7.464c15.156,91.33,28.953,293.869-117.157,403.451
						c-112.986,84.74-226.225,83.801-300.519,68.557c-0.053,0.106-0.107,0.211-0.16,0.317c0,0,214.653,113.999,402.881-97.758
						c61.606-69.307,84.301-135.782,87.255-193.525C2745.831,2645.633,2713.637,2584.257,2691.438,2551.303z"/>
					
						<linearGradient id="SVGID_00000007406054618347507180000007405507832145146014_" gradientUnits="userSpaceOnUse" x1="2456.5715" y1="2662.897" x2="2501.0066" y2="2960.6143">
						<stop  offset="0" style="stop-color:#AB316D"/>
						<stop  offset="1" style="stop-color:#792D3D"/>
					</linearGradient>
					<path style="fill:url(#SVGID_00000007406054618347507180000007405507832145146014_);" d="M2437.528,2808.06
						c-4.921-9.922,34.686-52.036,62.209-41.473c7.149,2.743,16.397,10.159,15.552,17.774
						C2513.091,2804.195,2443.097,2819.289,2437.528,2808.06z"/>
				</g>
			</g>
		</g>
		<g>
			
				<linearGradient id="SVGID_00000161593512266899342400000006557262818505437089_" gradientUnits="userSpaceOnUse" x1="4212.1289" y1="1846.9589" x2="4156.73" y2="2001.4922" gradientTransform="matrix(-1 0 0 1 6614.1152 0)">
				<stop  offset="0" style="stop-color:#FFC444"/>
				<stop  offset="0.9964" style="stop-color:#F36F56"/>
			</linearGradient>
			<path style="fill:url(#SVGID_00000161593512266899342400000006557262818505437089_);" d="M2468.729,1959.231
				c0,0-6.615-22.363-17.954-22.993c-11.339-0.63-54.176-18.269-49.137-8.189c5.04,10.079,22.735,14.039,22.735,14.039
				s-8.563,19.769,10.605,24.703S2494.314,1994.819,2468.729,1959.231z"/>
			
				<linearGradient id="SVGID_00000173880791071943434250000001203891706023772833_" gradientUnits="userSpaceOnUse" x1="4626.0728" y1="858.5001" x2="3957.7366" y2="1295.817" gradientTransform="matrix(-0.9666 0.2562 0.2562 0.9666 6455.2144 -120.7636)">
				<stop  offset="0" style="stop-color:#FFC444"/>
				<stop  offset="0.9964" style="stop-color:#F36F56"/>
			</linearGradient>
			<path style="fill:url(#SVGID_00000173880791071943434250000001203891706023772833_);" d="M2471.068,1951.828
				c-5.258,11.701-10.515,23.396-15.773,35.096c10.731,20.043,28.066,47.477,55.085,74.997
				c11.918,12.139,48.497,47.489,104.591,71.563c76.359,32.771,209.083,53.313,238.325,0.411
				c26.093-47.203-42.167-131.261-54.667-146.313c-18.288,12.516,2.086-16.698-90.173,39.877
				c-11.869,7.278-48.877,11.187-91.088,5.397C2539.246,2022.142,2488.535,1971.203,2471.068,1951.828z"/>
			
				<linearGradient id="SVGID_00000076565669153760186150000008555144910500016816_" gradientUnits="userSpaceOnUse" x1="-1365.1865" y1="2848.2039" x2="-1268.6432" y2="3196.5994" gradientTransform="matrix(0.9968 0.0799 -0.0799 0.9968 4305.4668 65.4365)">
				<stop  offset="0" style="stop-color:#311944"/>
				<stop  offset="1" style="stop-color:#893976"/>
			</linearGradient>
			<path style="fill:url(#SVGID_00000076565669153760186150000008555144910500016816_);" d="M2796.125,2999.916
				c0,0,3.099,18.968,2.704,25.719c-0.393,6.751-75.306,10.202-76.063,5.144c-0.757-5.057,12.383-13.099,21.63-15.936
				c9.248-2.839,36.315-10.413,36.315-10.413L2796.125,2999.916z"/>
			
				<linearGradient id="SVGID_00000090252382786825010040000010927631093863403435_" gradientUnits="userSpaceOnUse" x1="-1279.2635" y1="3094.5229" x2="-1277.8643" y2="2976.991" gradientTransform="matrix(0.9968 0.0799 -0.0799 0.9968 4305.4668 65.4365)">
				<stop  offset="0" style="stop-color:#FFC444"/>
				<stop  offset="0.9964" style="stop-color:#F36F56"/>
			</linearGradient>
			<path style="fill:url(#SVGID_00000090252382786825010040000010927631093863403435_);" d="M2777.942,2981.005l2.389,23.586
				c0,0,8.702,5.75,16.369,1.312l3.837-25.672L2777.942,2981.005z"/>
			
				<linearGradient id="SVGID_00000103227124019677385570000008396920658361112478_" gradientUnits="userSpaceOnUse" x1="-1244.3168" y1="2814.7048" x2="-1147.7728" y2="3163.1028" gradientTransform="matrix(0.9968 0.0799 -0.0799 0.9968 4305.4668 65.4365)">
				<stop  offset="0" style="stop-color:#311944"/>
				<stop  offset="1" style="stop-color:#893976"/>
			</linearGradient>
			<path style="fill:url(#SVGID_00000103227124019677385570000008396920658361112478_);" d="M2929.782,3030.665
				c0,0,3.099,18.968,2.705,25.719c-0.394,6.751-75.307,10.202-76.063,5.144c-0.757-5.057,12.383-13.099,21.63-15.937
				c9.248-2.838,36.315-10.413,36.315-10.413L2929.782,3030.665z"/>
			
				<linearGradient id="SVGID_00000014626536315146004920000010135869104213267123_" gradientUnits="userSpaceOnUse" x1="-1143.3584" y1="3096.1379" x2="-1141.9591" y2="2978.6052" gradientTransform="matrix(0.9968 0.0799 -0.0799 0.9968 4305.4668 65.4365)">
				<stop  offset="0" style="stop-color:#FFC444"/>
				<stop  offset="0.9964" style="stop-color:#F36F56"/>
			</linearGradient>
			<path style="fill:url(#SVGID_00000014626536315146004920000010135869104213267123_);" d="M2911.599,3011.754l2.39,23.586
				c0,0,8.701,5.751,16.369,1.312l3.836-25.673L2911.599,3011.754z"/>
			
				<linearGradient id="SVGID_00000109016344991050307690000013889282202461742241_" gradientUnits="userSpaceOnUse" x1="-1347.024" y1="2716.5298" x2="-1221.887" y2="2716.5298" gradientTransform="matrix(0.9968 0.0799 -0.0799 0.9968 4305.4668 65.4365)">
				<stop  offset="0" style="stop-color:#444B8C"/>
				<stop  offset="0.9964" style="stop-color:#26264F"/>
			</linearGradient>
			<path style="fill:url(#SVGID_00000109016344991050307690000013889282202461742241_);" d="M2791.536,2365.272
				c-8.659,17.555-17.318,35.11-25.978,52.665c-6.964,100.184-10.425,209.122-8.202,325.624
				c1.653,86.677,6.286,168.787,12.94,245.862c11.74-0.538,23.481-1.079,35.222-1.616c16.977-33.694,37.018-84.74,38.862-147.753
				c1.924-65.728-18.003-74.455-16.74-137.388c1.639-81.568,35.843-103.331,54.065-201.445
				c6.969-37.522,11.661-86.531,6.084-145.989C2855.704,2358.577,2823.62,2361.927,2791.536,2365.272z"/>
			
				<linearGradient id="SVGID_00000011014984103627026350000011958352600790955699_" gradientUnits="userSpaceOnUse" x1="-1347.0217" y1="2716.5298" x2="-1221.8867" y2="2716.5298" gradientTransform="matrix(0.9968 0.0799 -0.0799 0.9968 4305.4668 65.4365)">
				<stop  offset="0" style="stop-color:#444B8C"/>
				<stop  offset="0.9964" style="stop-color:#26264F"/>
			</linearGradient>
			<path style="opacity:0.3;fill:url(#SVGID_00000011014984103627026350000011958352600790955699_);" d="M2887.789,2355.231
				c-17.327,1.807-34.655,3.614-51.983,5.425c-31.191,54.279-39.9,110.776-34.426,135.765c7.743,35.357,28.228,46.683,27.102,82.181
				c-1.114,35.125-21.808,44.232-34.936,85.632c-9.087,28.663-6.689,55.017-1.519,106.556
				c10.412,103.815,35.48,135.563,14.482,169.601c-5.967,9.671-16.717,21.188-37.781,29.982c0.516,6.366,1.023,12.753,1.567,19.051
				c11.74-0.536,23.481-1.079,35.221-1.615c16.977-33.698,37.018-84.741,38.862-147.755c1.924-65.729-18.003-74.457-16.739-137.389
				c1.638-81.568,35.842-103.329,54.065-201.444C2888.674,2463.698,2893.366,2414.69,2887.789,2355.231z"/>
			
				<linearGradient id="SVGID_00000017500974671621367790000009200645884116046221_" gradientUnits="userSpaceOnUse" x1="-1276.376" y1="2734.405" x2="-1086.4091" y2="2734.405" gradientTransform="matrix(0.9968 0.0799 -0.0799 0.9968 4305.4668 65.4365)">
				<stop  offset="0" style="stop-color:#444B8C"/>
				<stop  offset="0.9964" style="stop-color:#26264F"/>
			</linearGradient>
			<path style="fill:url(#SVGID_00000017500974671621367790000009200645884116046221_);" d="M2838.12,2396.877
				c16.255,88.635,30.612,183.498,41.814,284.103c13.525,121.472,20.744,235.99,23.582,342.316
				c12.886,0.367,25.772,0.729,38.658,1.095c50.779-100.454,53.881-168.56,46.56-212.901
				c-2.821-17.087-10.484-50.591-12.233-100.664c-1.219-34.904,1.008-61.468,3.789-93.4c6.098-70.012,13.499-85.296,14.562-138.849
				c0.999-50.258,1.205-75.689-13.141-90.533C2943.913,2348.938,2845.58,2393.416,2838.12,2396.877z"/>
			
				<linearGradient id="SVGID_00000077315969506798579410000008730423165477175688_" gradientUnits="userSpaceOnUse" x1="-894.5522" y1="2756.9189" x2="-1318.5072" y2="2148.2705" gradientTransform="matrix(0.9968 0.0799 -0.0799 0.9968 4305.4668 65.4365)">
				<stop  offset="0" style="stop-color:#FFC444"/>
				<stop  offset="0.9964" style="stop-color:#F36F56"/>
			</linearGradient>
			<path style="fill:url(#SVGID_00000077315969506798579410000008730423165477175688_);" d="M2755.696,2435.911
				c-12.346-20.486,3.161-40.245,6.691-79.058c4-43.99-12.946-51.315-29.705-124.216c-11.145-48.484-21.844-95.03-9.074-149.514
				c6.12-26.112,16.5-70.401,53.154-91.793c18.915-11.039,44.741-9.935,95.62-7.273c62.919,3.29,94.377,4.934,117.839,17.289
				c3.434,1.809,74.81,40.633,79.723,103.916c5.001,64.408-65.143,73.066-74.499,158.958c-4.2,38.558,3.286,97.861,8.141,136.326
				c4.662,36.933,7.869,46.389,0.581,57.57c-17.567,26.951-71.346,19.269-178.907,3.91
				C2783.068,2456,2764.909,2451.198,2755.696,2435.911z"/>
			
				<linearGradient id="SVGID_00000118370360024590041910000004615613711854224824_" gradientUnits="userSpaceOnUse" x1="-894.5912" y1="2756.9517" x2="-1318.5535" y2="2148.2925" gradientTransform="matrix(0.9968 0.0799 -0.0799 0.9968 4305.4668 65.4365)">
				<stop  offset="0" style="stop-color:#FFC444"/>
				<stop  offset="0.9964" style="stop-color:#F36F56"/>
			</linearGradient>
			<path style="opacity:0.3;fill:url(#SVGID_00000118370360024590041910000004615613711854224824_);" d="M2919.35,2250.403
				c4.548,16.741,20.905,29.245,32.292,69.964c2.458,8.792,19.968,71.399-2.745,86.81c-13.12,8.9-24.896-7.963-56.735-10.165
				c-55.173-3.817-81.456,42.554-117.496,29.891c-6.253-2.2-14.509-6.884-22.751-17.648c-1.641,9.7-1.359,18.124,3.781,26.655
				c9.213,15.287,27.373,20.089,69.564,26.115c107.561,15.359,161.341,23.041,178.907-3.91c7.288-11.181,4.081-20.638-0.581-57.57
				c-4.855-38.465-12.341-97.768-8.141-136.326c9.355-85.892,79.5-94.55,74.499-158.958c-1.337-17.219-7.671-32.551-16.141-45.896
				C2964.821,2095.374,2905.054,2197.797,2919.35,2250.403z"/>
			
				<linearGradient id="SVGID_00000073713787190452528060000015140477450005456061_" gradientUnits="userSpaceOnUse" x1="-1152.7566" y1="2419.3306" x2="-1084.3724" y2="2419.3306" gradientTransform="matrix(0.9968 0.0799 -0.0799 0.9968 4305.4668 65.4365)">
				<stop  offset="0" style="stop-color:#FFC444"/>
				<stop  offset="0.9964" style="stop-color:#F36F56"/>
			</linearGradient>
			<path style="fill:url(#SVGID_00000073713787190452528060000015140477450005456061_);" d="M3031.74,2377.101l-17.803,11.367
				c-3.197-3.691-10.597-11.138-22.152-13.681c-13.019-2.861-27.963,1.243-28.311,5.397c-0.279,3.329,8.821,6.686,10.228,7.206
				c11.358,4.192,19.786,0.71,24.379,5.277c1.624,1.615,3.648,4.618,8.303,7.401c1.222,0.731,2.503,1.377,3.178,1.64
				c7.581,2.948,20.586-10.251,21.705-11.403L3031.74,2377.101z"/>
			
				<linearGradient id="SVGID_00000122713424102065706710000015663809326453061009_" gradientUnits="userSpaceOnUse" x1="-775.6575" y1="2674.1021" x2="-1199.6166" y2="2065.448" gradientTransform="matrix(0.9968 0.0799 -0.0799 0.9968 4305.4668 65.4365)">
				<stop  offset="0" style="stop-color:#FFC444"/>
				<stop  offset="0.9964" style="stop-color:#F36F56"/>
			</linearGradient>
			<path style="fill:url(#SVGID_00000122713424102065706710000015663809326453061009_);" d="M2979.143,2143.603
				c-12.879-30.845-21.801-78.071-1.46-148.205c134.034,52.814,202.391,178.017,175.7,277.268
				c-22.002,81.82-102.052,121.673-119.908,130.057c-4.155-9.458-8.31-18.912-12.465-28.37c20.694-23.044,44.013-57.118,40.714-96
				C3057.153,2224.448,3005.216,2206.05,2979.143,2143.603z"/>
			
				<linearGradient id="SVGID_00000054245827415740935660000011063777748348776075_" gradientUnits="userSpaceOnUse" x1="-2803.6682" y1="3272.3301" x2="-2775.9502" y2="2843.9617" gradientTransform="matrix(0.7795 0.6265 -0.6265 0.7795 7629.8491 622.2045)">
				<stop  offset="0" style="stop-color:#FFC444"/>
				<stop  offset="0.9964" style="stop-color:#F36F56"/>
			</linearGradient>
			<path style="fill:url(#SVGID_00000054245827415740935660000011063777748348776075_);" d="M2875.676,1920.602
				c0,0,1.059,23.447,8.337,41.005c6.577,15.869,41.172,25.845,48.184,29.387c7.013,3.542-13.137,13.896-33.374,15.931
				c-20.235,2.035-78.025-2.56-88.442-10.232c-10.417-7.671,8.371-7.094,22.815-12.397c14.443-5.302,22.795-33.55,20.245-46.37
				C2850.893,1925.104,2875.676,1920.602,2875.676,1920.602z"/>
			
				<linearGradient id="SVGID_00000044883217772369926590000017640044390524547220_" gradientUnits="userSpaceOnUse" x1="-1251.83" y1="2040.0825" x2="-1302.524" y2="1911.3289" gradientTransform="matrix(0.9968 0.0799 -0.0799 0.9968 4305.4668 65.4365)">
				<stop  offset="0" style="stop-color:#444B8C"/>
				<stop  offset="0.9964" style="stop-color:#3E4177"/>
			</linearGradient>
			<path style="fill:url(#SVGID_00000044883217772369926590000017640044390524547220_);" d="M2843.671,1912.101
				c-10.5-10.316-11.966-11.521-13.11-15.087c-4.589-14.312,6.512-33.912,21.072-38.738c0.758-0.25,10.522-3.376,14.249,0.861
				c3.166,3.597-1.491,8.566,0.723,15.499c2.074,6.491,7.701,6.977,18.13,15.49c8.591,7.01,13.93,11.368,15.162,17.498
				c2.539,12.639-12.76,30.955-26.304,30.457C2868.722,1937.901,2867.397,1935.414,2843.671,1912.101z"/>
			<g>
				
					<linearGradient id="SVGID_00000141433566565108655260000004948591756447179407_" gradientUnits="userSpaceOnUse" x1="-2855.4382" y1="3268.9807" x2="-2827.7202" y2="2840.6121" gradientTransform="matrix(0.7795 0.6265 -0.6265 0.7795 7629.8491 622.2045)">
					<stop  offset="0" style="stop-color:#FFC444"/>
					<stop  offset="0.9964" style="stop-color:#F36F56"/>
				</linearGradient>
				<path style="fill:url(#SVGID_00000141433566565108655260000004948591756447179407_);" d="M2872.267,1940.033
					c0,0-11.161,12.638-28.163,8.46c-15.223-3.74-11.339-38.679-0.198-44.261c3.716-1.861,10.469-1.707,15.548,0.74
					c3.001,1.446,3.834,2.948,8.782,5.215c4.563,2.09,6.01,1.8,7.236,3.273c1.536,1.84,2.197,5.802-2.615,15.364
					c3.468-2.454,7.197-2.968,9.486-1.345c0.365,0.26,1.295,1.167,1.696,2.363
					C2885.491,1934.171,2880.993,1938.568,2872.267,1940.033z"/>
			</g>
		</g>
	</g>
</g>
</svg>
