<?xml version="1.0" encoding="utf-8"?>
<!-- Generator: Adobe Illustrator 27.5.0, SVG Export Plug-In . SVG Version: 6.00 Build 0)  -->
<svg version="1.1" xmlns="http://www.w3.org/2000/svg" xmlns:xlink="http://www.w3.org/1999/xlink" x="0px" y="0px"
	 viewBox="0 0 900 600" style="enable-background:new 0 0 900 600;" xml:space="preserve">
<g id="Layer_2">
	<rect style="opacity:0; width:600px" width="2000" height="2000"/>
</g>
<g id="Layer_1">
	<g>
		<g>
			<ellipse style="fill:#DEDFD9;" cx="445.364" cy="540.489" rx="195.532" ry="15.447"/>
		</g>
		<g>
			
				<ellipse transform="matrix(0.7071 -0.7071 0.7071 0.7071 -17.4919 305.3029)" style="fill:#F7EFDF;" cx="359.787" cy="173.766" rx="117.619" ry="117.619"/>
		</g>
		<g>
			<circle style="fill:#F7EFDF;" cx="546.785" cy="193.47" r="95.047"/>
		</g>
		<g>
			<g>
				<g>
					<polygon style="fill:#BB8A5C;" points="450.147,113.931 454.22,98.997 462.026,98.997 459.642,107.432 473.201,107.432 
						459.624,129.282 462.339,113.931 					"/>
				</g>
				<g>
					<polygon style="fill:#BB8A5C;" points="481.994,119.941 487.976,98.006 499.442,98.006 495.941,110.395 515.855,110.395 
						495.914,142.49 499.902,119.941 					"/>
				</g>
			</g>
			<g>
				<g>
					<g>
						<path style="fill:#3A749A;" d="M425.268,102.85h110.289c0.595-1.622,0.917-3.376,0.917-5.202
							c0-8.398-6.807-15.197-15.197-15.197c-1.998,0-3.909,0.384-5.656,1.089c-0.877-12.894-11.625-23.093-24.746-23.093
							c-11.86,0-21.777,8.327-24.221,19.451c-1.802-0.681-3.745-1.05-5.781-1.05c-8.413,0-15.346,6.329-16.286,14.5
							c-2.021-1.567-4.559-2.499-7.317-2.499C430.642,90.849,425.268,96.223,425.268,102.85z"/>
					</g>
				</g>
			</g>
		</g>
		<g>
			<g>
				<g>
					<g>
						<g>
							<g>
								<g>
									<polygon style="fill:#EDA38F;" points="375.267,529.274 378.957,496.497 399.538,498.213 393.306,528.755 									"/>
								</g>
							</g>
						</g>
					</g>
				</g>
			</g>
		</g>
		<g>
			<g>
				<g>
					<path style="fill:#3A749A;" d="M503.117,244.339c-0.064,0.018-12.766,2.364-21.739,2.438l0.609,8.143l-72.615-8.816
						l-4.959-0.599l-30.954-3.772c0,0,15.234-31.333,61.465-35.368c0.284-0.031,15.569,1.734,23.412,0.515
						c20.584-3.198,35.294,8.606,38.835,1.608c4.538-8.97-14.332-17.883-14.332-17.883l6.798-13.239c0,0,25.301,5.327,35.052,20.394
						C531.34,208.026,538.129,234.359,503.117,244.339z"/>
				</g>
			</g>
		</g>
		<g>
			<g>
				<g>
					<g>
						<g>
							<g>
								<g>
									<g>
										<path style="fill:#302824;" d="M441.77,155.068c0,0-12.752-1.959-10.411,19.473c1.654,15.146,7.353,18.516,7.353,18.516
											l1.544-12.789l2.118-8.604l4.269-11.899L441.77,155.068z"/>
									</g>
								</g>
							</g>
						</g>
					</g>
				</g>
			</g>
		</g>
		<g>
			<g>
				<g>
					<g>
						<g>
							<g>
								<g>
									<g>
										<path style="fill:#EDA38F;" d="M458.132,209.033l-1.636-14.918l-16.19-14.186l-5.368,26.932
											C434.938,206.86,452.777,222.865,458.132,209.033z"/>
									</g>
								</g>
							</g>
						</g>
					</g>
				</g>
			</g>
		</g>
		<g>
			<g>
				<g>
					<g>
						<g>
							<g>
								<g>
									<g>
										<path style="fill:#302824;" d="M457.643,204.59c-10.331-0.232-13.433-10.04-13.433-10.04l12.593,2.323L457.643,204.59z"/>
									</g>
								</g>
							</g>
						</g>
					</g>
				</g>
			</g>
		</g>
		<g>
			<g>
				<g>
					<g>
						<g>
							<g>
								<g>
									<g>
										<path style="fill:#EDA38F;" d="M473.219,174.106c-3.03,12.504-5.926,30.32-18.622,27.204
											c-13.886-3.407-15.624-17.334-14.969-27.516c0.328-5.111,4.732-13.3,16.754-12.277
											C471.406,162.796,474.443,169.055,473.219,174.106z"/>
									</g>
								</g>
							</g>
						</g>
					</g>
				</g>
			</g>
		</g>
		<g>
			<g>
				<g>
					<g>
						<g>
							<g>
								<g>
									<g>
										<path style="fill:#EDA38F;" d="M442.438,178.853c0.492-2.679-2.098-5.06-4.635-4.063
											c-0.784,0.308-1.505,0.882-2.031,1.866c-2.144,4.005,0.577,8.004,5.598,8.014L442.438,178.853z"/>
									</g>
								</g>
							</g>
						</g>
					</g>
				</g>
			</g>
		</g>
		<g>
			<g>
				<g>
					<g>
						<path style="fill:#302824;" d="M441.77,155.068c13.689-15.302,35.528-1.293,35.194,10.432
							c-0.211,7.402-4.209,10.73-4.209,10.73c1.365-4.307-1.681-6.017-1.681-6.017c-4.537,11.005-23.291,5.319-23.291,5.319
							c-2.658,3.258-2.494,6.162-2.494,6.162c-4.299-1.444-3.08-4.8-5.562-6.155c-1.65-0.9-3.428,0.033-3.962,1.111
							C434.727,178.745,441.77,155.068,441.77,155.068z"/>
					</g>
				</g>
			</g>
		</g>
		<g>
			<g>
				<g>
					<g>
						<g>
							<path style="fill:#302824;" d="M457.334,178.969c2.708,0.275,5.147-0.062,7.3-1.013c5.248-2.317,6.79-7.407,6.853-7.622
								l-0.826-0.242c-0.014,0.049-1.504,4.933-6.386,7.082c-4.245,1.869-9.731,1.186-16.304-2.028l-0.378,0.773
								C451.141,177.654,454.396,178.671,457.334,178.969z"/>
						</g>
					</g>
				</g>
			</g>
		</g>
		<g>
			<g>
				<g>
					<g>
						<g>
							<g>
								<polygon style="fill:#EDA38F;" points="453.021,530.416 454.432,497.408 475.06,497.408 471.003,529.818 								"/>
							</g>
						</g>
					</g>
				</g>
			</g>
		</g>
		<g>
			<g>
				<g>
					<path style="fill:#BB8A5C;" d="M486.602,513.918c0,0,14.395-76.077,13.094-103.68c-1.259-26.708-19.565-110.592-19.565-110.592
						l-61.516-1.772l28.992,123.61l-5.158,91.013L486.602,513.918z"/>
				</g>
			</g>
		</g>
		<g>
			<polygon style="fill:#9B6C49;" points="449.04,505.43 449.87,512.74 442.45,512.5 447.61,421.48 440.52,391.27 448.53,381.34 
				455.68,416.57 			"/>
		</g>
		<g>
			<g>
				<g>
					<polygon style="fill:#BB8A5C;" points="468.31,308.74 464.95,320.97 464.19,323.72 412.54,511.61 366.56,510.13 403.1,330.68 
						405.14,320.7 408.13,306 					"/>
				</g>
			</g>
		</g>
		<g>
			<g>
				<g>
					<path style="fill:#BB8A5C;" d="M490.176,506.226c0,0-34.138,6.201-51.014-1.633l-0.3,9.743
						c15.901,4.728,31.854,4.608,51.014,1.633L490.176,506.226z"/>
				</g>
			</g>
		</g>
		<g>
			<g>
				<g>
					<g>
						<g>
							<g>
								<path style="fill:#FFFFFF;" d="M411.541,282.301c0.021-0.222,2.177-22.359,14.623-38.32l-0.913-0.777
									c-12.676,16.255-14.862,38.755-14.883,38.98L411.541,282.301z"/>
							</g>
						</g>
					</g>
				</g>
			</g>
		</g>
		<g>
			<path style="fill:#9B6C49;" d="M480.13,299.65l-3.34,16.67c-0.13,0.09-0.26,0.18-0.39,0.27c-4.04,2.85-8.13,5.2-12.21,7.13
				c-30.54,14.48-60.25,5.54-60.25,5.54l-0.84,1.42l2.04-9.98c-2.29-0.64-4.57-1.35-6.84-2.12l0.44-5.25l1.65-19.76L480.13,299.65z"
				/>
		</g>
		<g>
			<g>
				<g>
					<g>
						<path style="fill:#3A749A;" d="M486.24,311.33c-3.23,1.98-6.52,3.73-9.84,5.26c-3.77,1.74-7.59,3.19-11.45,4.38
							c-19.57,6.01-40.17,5.23-59.81-0.27c-2.29-0.64-4.57-1.35-6.84-2.12l0.44-5.25l1.65-19.76l2.46-29.37l1.56-18.7l2.5-27.89
							c0,0,27.79-11.24,28.01-11.24c15.7,11.93,23.42,0.51,23.42,0.51l22.54,33.39L486.24,311.33z"/>
					</g>
				</g>
			</g>
		</g>
		<g>
			<polygon style="fill:#32617C;" points="409.04,260.89 400.19,313.6 398.74,313.33 402.85,264.2 			"/>
		</g>
		<g>
			<g>
				<g>
					<g>
						<path style="fill:#EDA38F;" d="M398.63,317.942c0.795,0.962,3.244,4.137,4.407,4.593c1.078,0.423,7.194,1.958,6.751,3.225
							c-0.464,1.329-4.454-0.604-4.641,0.505c-0.116,0.684,7.642,4.603,6.517,5.87c-0.738,0.832-5.113-2.18-5.332-1.607
							c-0.204,0.532,5.96,3.12,4.929,4.407c-1.081,1.349-6.477-3.732-6.939-3.082c-0.229,0.322,6.719,4.574,5.849,5.603
							c-1.164,1.376-6.138-3.636-6.723-3.054c-0.287,0.286,1.787,1.742,2.91,2.766c0.623,0.568,0.266,1.162-0.289,1.021
							c-5.747-1.46-11.563-10.022-12.423-10.547c-1.28-0.78-3.131-1.528-4.323-2.331L398.63,317.942z"/>
					</g>
				</g>
			</g>
		</g>
		<g>
			<g>
				<g>
					<g>
						<path style="fill:#EDA38F;" d="M488.912,178.774l-4.76,9.267c-1.324-0.925-2.963-1.975-3.772-2.059
							c-1.156-0.116-7.46,0.042-7.366-1.303c0.084-1.408,4.444-0.609,4.339-1.723c-0.074-0.693-8.595-2.396-7.849-3.919
							c0.483-0.998,5.506,0.735,5.569,0.126c0.053-0.567-6.577-1.419-5.926-2.932c0.683-1.587,7.239,1.87,7.502,1.114
							c0.137-0.368-7.691-2.616-7.124-3.835c0.756-1.639,6.882,1.87,7.292,1.145c0.2-0.347-2.186-1.198-3.541-1.881
							c-0.757-0.389-0.567-1.051,0-1.061c5.936-0.126,13.817,6.567,14.794,6.851C488.334,178.637,488.618,178.711,488.912,178.774z"
							/>
					</g>
				</g>
			</g>
		</g>
		<g>
			<g>
				<g>
					<path style="fill:#3A749A;" d="M404.163,320.111c0,0-25.754-38.631,4.549-59.616l18.935-47.802l0.013-0.324
						c-20.155-0.819-42.261,10.745-54.607,27.614c-20.646,28.208-16.462,71.542,18.234,93.004L404.163,320.111z"/>
				</g>
			</g>
		</g>
		<g>
			<g>
				<g>
					<path style="fill:#32617C;" d="M481.556,238.199c0,0,25.176,5.892,44.251-8.457l-0.162,0.485
						c-3.94,5.708-10.953,10.803-22.53,14.107c-0.058,0.023-12.767,2.368-21.733,2.438L481.556,238.199z"/>
				</g>
			</g>
		</g>
		<g>
			<g>
				<g>
					<g>
						
							<rect x="483.052" y="233.219" transform="matrix(0.9976 -0.0685 0.0685 0.9976 -17.524 33.7758)" style="fill:#302824;" width="1.023" height="78.205"/>
					</g>
				</g>
			</g>
		</g>
		<g>
			<g>
				<g>
					<polygon style="fill:#302824;" points="413.034,511.744 412.049,511.469 454.943,354.614 455.928,354.89 					"/>
				</g>
			</g>
		</g>
		<g>
			<g>
				<g>
					<path style="fill:#BB8A5C;" d="M415.855,505.491c0,0-34.138,6.201-51.014-1.633l-0.3,9.743
						c15.901,4.728,31.854,4.607,51.014,1.633L415.855,505.491z"/>
				</g>
			</g>
		</g>
		<g>
			<g>
				<g>
					<path style="fill:#302824;" d="M386.932,508.359c-9.146,0-15.648-0.947-22.306-4.038l0.43-0.927
						c16.541,7.678,50.352,1.655,50.712,1.593l0.173,1.009C415.046,506.149,400.905,508.359,386.932,508.359z"/>
				</g>
			</g>
		</g>
		<g>
			<g>
				<g>
					<path style="fill:#302824;" d="M462.251,509.094c-9.147,0-16.647-0.947-23.303-4.037l0.43-0.927
						c16.537,7.675,50.351,1.654,50.712,1.592l0.173,1.009C489.367,506.884,476.224,509.094,462.251,509.094z"/>
				</g>
			</g>
		</g>
		<g>
			<g>
				<g>
					<g>
						<g>
							<g>
								<g>
									<g>
										<path style="fill:#13426E;" d="M372.907,542.688h47.236c1.645,0,2.96-1.392,2.836-3.032
											c-0.002-0.02-0.003-0.04-0.005-0.06c-0.033-0.36-0.077-0.732-0.131-1.104c-0.164-1.257-0.503-2.513-1.093-3.3
											c-2.24-2.972-6.589-4.327-14.336-7.397c-4.862-1.934-8.993-4.502-10.807-5.704c-0.59-0.393-1.355-0.295-1.868,0.197
											c-9.342,9.135-15.079,7.19-16.795,3.42c-1.311-2.874-3.169-2.273-3.682-1.431c-1.573,2.633-2.437,10.348-2.786,14.216
											c-0.044,0.415-0.077,0.798-0.098,1.104c-0.055,0.721-0.087,1.158-0.087,1.158
											C371.115,541.76,371.89,542.688,372.907,542.688z"/>
									</g>
								</g>
							</g>
						</g>
					</g>
				</g>
			</g>
			<g>
				<g>
					<g>
						<g>
							<path style="fill:#302824;" d="M404.741,532.751c3.354-1.627,2.855-5.092,2.85-5.127l-0.81,0.125
								c0.018,0.118,0.401,2.907-2.398,4.264L404.741,532.751z"/>
						</g>
					</g>
				</g>
				<g>
					<g>
						<g>
							<path style="fill:#302824;" d="M408.886,534.142c3.085-1.742,2.757-4.75,2.741-4.877l-0.814,0.097
								c0.012,0.106,0.266,2.601-2.331,4.067L408.886,534.142z"/>
						</g>
					</g>
				</g>
				<g>
					<g>
						<g>
							<path style="fill:#302824;" d="M382.225,532.084c3.161,0,6.021-1.441,6.068-1.465l-0.375-0.729
								c-0.072,0.038-7.24,3.64-10.923-0.948l-0.639,0.512C377.975,531.471,380.164,532.084,382.225,532.084z"/>
						</g>
					</g>
				</g>
			</g>
		</g>
		<g>
			<g>
				<g>
					<g>
						<g>
							<g>
								<g>
									<g>
										<path style="fill:#13426E;" d="M449.814,542.688h47.236c1.645,0,2.96-1.392,2.835-3.032
											c-0.001-0.02-0.003-0.04-0.005-0.06c-0.033-0.36-0.076-0.732-0.131-1.104c-0.164-1.257-0.503-2.513-1.093-3.3
											c-2.24-2.972-6.589-4.327-14.336-7.397c-4.862-1.934-8.993-4.502-10.807-5.704c-0.59-0.393-1.355-0.295-1.868,0.197
											c-9.342,9.135-15.079,7.19-16.795,3.42c-1.311-2.874-3.169-2.273-3.682-1.431c-1.574,2.633-2.437,10.348-2.786,14.216
											c-0.044,0.415-0.077,0.798-0.098,1.104c-0.055,0.721-0.087,1.158-0.087,1.158
											C448.022,541.76,448.798,542.688,449.814,542.688z"/>
									</g>
								</g>
							</g>
						</g>
					</g>
				</g>
			</g>
			<g>
				<g>
					<g>
						<g>
							<path style="fill:#302824;" d="M481.648,532.751c3.354-1.627,2.855-5.092,2.85-5.127l-0.81,0.125
								c0.018,0.118,0.401,2.907-2.398,4.264L481.648,532.751z"/>
						</g>
					</g>
				</g>
				<g>
					<g>
						<g>
							<path style="fill:#302824;" d="M485.793,534.142c3.085-1.742,2.757-4.75,2.741-4.877l-0.814,0.097
								c0.012,0.106,0.266,2.601-2.331,4.067L485.793,534.142z"/>
						</g>
					</g>
				</g>
				<g>
					<g>
						<g>
							<path style="fill:#302824;" d="M459.132,532.084c3.161,0,6.021-1.441,6.068-1.465l-0.375-0.729
								c-0.073,0.038-7.24,3.64-10.923-0.948l-0.639,0.512C454.882,531.471,457.071,532.084,459.132,532.084z"/>
						</g>
					</g>
				</g>
			</g>
		</g>
		<g>
			<g>
				<g>
					<g>
						<path style="fill:#F6CD93;" d="M541.73,196.944l18.465,3.159c4.922,5.241,11.391,9.13,18.919,10.902
							c20.427,4.808,40.883-7.853,45.691-28.28c4.808-20.427-7.853-40.883-28.28-45.691c-20.427-4.808-40.883,7.853-45.691,28.28
							c-1.304,5.54-1.325,11.089-0.247,16.32L541.73,196.944z"/>
					</g>
				</g>
				<g>
					<g>
						<path style="fill:#FFFFFF;" d="M590.341,209.54c-2.998,0-6.017-0.348-9.009-1.052c-7.371-1.735-13.998-5.518-19.186-10.946
							l-19.553-3.346l9.388-16.227c-1.064-5.426-0.953-10.933,0.328-16.376c2.387-10.139,8.579-18.742,17.435-24.224
							c8.857-5.482,19.316-7.188,29.459-4.8c10.139,2.387,18.742,8.579,24.224,17.436c5.481,8.857,7.187,19.318,4.8,29.458
							c-2.387,10.14-8.579,18.743-17.436,24.225C604.547,207.553,597.505,209.54,590.341,209.54z M545.763,192.711l17.378,2.973
							l0.229,0.245c4.953,5.273,11.322,8.942,18.42,10.613c9.617,2.265,19.545,0.647,27.947-4.553
							c8.402-5.201,14.277-13.363,16.541-22.982c2.265-9.619,0.647-19.544-4.553-27.947c-5.201-8.402-13.362-14.277-22.982-16.541
							c-9.617-2.264-19.543-0.648-27.947,4.554c-8.402,5.201-14.277,13.362-16.541,22.981c-1.244,5.283-1.325,10.629-0.241,15.889
							l0.077,0.372L545.763,192.711z"/>
					</g>
				</g>
			</g>
			<g>
				<g>
					<g>
						<path style="fill:#13426E;" d="M578.859,182.413c-0.451-1.955-0.612-3.547-0.482-4.778c0.13-1.23,0.654-2.689,1.575-4.377
							l2.396-4.113c0.991-1.895,1.265-3.733,0.822-5.516c-0.426-1.716-1.211-2.949-2.354-3.698c-1.143-0.749-2.575-0.91-4.295-0.483
							c-1.672,0.415-2.905,1.191-3.701,2.329c-0.797,1.137-1.009,2.451-0.638,3.943l-4.547,1.129
							c-0.627-2.662-0.213-5.04,1.241-7.132c1.455-2.092,3.673-3.509,6.656-4.25c3.096-0.769,5.715-0.538,7.856,0.693
							c2.141,1.231,3.572,3.294,4.291,6.19c0.711,2.863,0.085,6.015-1.878,9.455l-2.021,3.316c-0.867,1.622-0.992,3.677-0.374,6.164
							L578.859,182.413z M580.602,190.27c-0.185-0.744-0.115-1.424,0.211-2.041c0.325-0.617,0.93-1.035,1.815-1.255
							c0.885-0.22,1.619-0.134,2.204,0.256c0.584,0.391,0.968,0.958,1.153,1.702c0.185,0.744,0.109,1.417-0.229,2.019
							s-0.949,1.013-1.834,1.233c-0.885,0.22-1.613,0.141-2.185-0.235C581.165,191.575,580.787,191.014,580.602,190.27z"/>
					</g>
				</g>
				<g>
					<g>
						<path style="fill:#13426E;" d="M594.93,181.364c0.625-1.906,1.311-3.352,2.058-4.339c0.747-0.986,1.95-1.964,3.611-2.933
							l4.178-2.281c1.828-1.11,3.013-2.542,3.556-4.296c0.523-1.69,0.488-3.15-0.102-4.383c-0.591-1.232-1.733-2.11-3.426-2.634
							c-1.645-0.509-3.103-0.483-4.372,0.079c-1.27,0.561-2.131,1.577-2.585,3.044l-4.475-1.384c0.84-2.603,2.424-4.424,4.751-5.463
							c2.327-1.038,4.958-1.104,7.894-0.196c3.048,0.943,5.17,2.495,6.366,4.656c1.196,2.161,1.353,4.667,0.472,7.517
							c-0.872,2.818-3.037,5.192-6.497,7.122l-3.444,1.793c-1.581,0.94-2.75,2.635-3.507,5.082L594.93,181.364z M592.359,188.991
							c0.227-0.732,0.638-1.279,1.236-1.638c0.597-0.36,1.331-0.405,2.202-0.135c0.871,0.269,1.455,0.722,1.753,1.359
							c0.298,0.637,0.333,1.321,0.107,2.053c-0.227,0.732-0.64,1.27-1.24,1.61c-0.6,0.34-1.336,0.376-2.207,0.107
							c-0.871-0.269-1.454-0.713-1.749-1.33C592.167,190.399,592.133,189.723,592.359,188.991z"/>
					</g>
				</g>
			</g>
		</g>
		<g>
			<g>
				<g>
					<g>
						<path style="fill:#F6CD93;" d="M358.829,217.934l-18.599,2.235c-5.177,4.989-11.832,8.551-19.439,9.946
							c-20.641,3.785-40.441-9.88-44.226-30.52c-3.785-20.641,9.88-40.441,30.521-44.226c20.641-3.785,40.441,9.88,44.226,30.52
							c1.026,5.598,0.771,11.142-0.566,16.312L358.829,217.934z"/>
					</g>
				</g>
				<g>
					<g>
						<path style="fill:#FFFFFF;" d="M311.585,228.142c-7.836,0-15.479-2.366-22.066-6.911
							c-8.573-5.917-14.329-14.817-16.208-25.063c-1.879-10.246,0.345-20.609,6.261-29.182c5.916-8.573,14.817-14.329,25.063-16.208
							c10.244-1.88,20.609,0.345,29.182,6.261c8.573,5.916,14.329,14.817,16.207,25.063c1.009,5.501,0.844,11.007-0.488,16.372
							l8.568,16.674l-19.695,2.367c-5.452,5.163-12.259,8.611-19.708,9.977C316.328,227.927,313.947,228.142,311.585,228.142z
							 M311.684,152.134c-2.207,0-4.443,0.199-6.689,0.61c-20.065,3.679-33.396,22.997-29.717,43.063
							c1.782,9.72,7.243,18.164,15.376,23.777s17.963,7.72,27.686,5.94c7.172-1.315,13.716-4.664,18.925-9.683l0.242-0.232
							l17.505-2.104l-7.601-14.792l0.095-0.369c1.345-5.199,1.53-10.542,0.551-15.882
							C344.79,164.643,329.189,152.134,311.684,152.134z"/>
					</g>
				</g>
			</g>
			<g>
				<g>
					<path style="fill:#FDFFFE;" d="M291.245,179.967c-1.146,0-2.078,0.976-2.078,2.176v17.299c0,1.2,0.932,2.176,2.078,2.176
						h40.307c1.142,0,2.07-0.976,2.07-2.176v-17.299c0-1.2-0.929-2.176-2.07-2.176H291.245z"/>
				</g>
				<g>
					<g>
						<g>
							<path style="fill:#13426E;" d="M331.552,203.311h-40.307c-2.034,0-3.689-1.736-3.689-3.869v-17.299
								c0-2.134,1.655-3.869,3.689-3.869h40.307c2.03,0,3.681,1.736,3.681,3.869v17.299
								C335.233,201.576,333.581,203.311,331.552,203.311z M291.245,179.967c-1.146,0-2.078,0.976-2.078,2.176v17.299
								c0,1.2,0.932,2.176,2.078,2.176h40.307c1.142,0,2.07-0.976,2.07-2.176v-17.299c0-1.2-0.929-2.176-2.07-2.176H291.245z"/>
						</g>
					</g>
					<g>
						<g>
							<path style="fill:#13426E;" d="M339.639,184.87v11.845c0,1.423-1.096,2.583-2.457,2.583h-2.755v-17.01h2.755
								C338.543,182.287,339.639,183.447,339.639,184.87z"/>
						</g>
					</g>
					<g>
						<g>
							<path style="fill:#F5806F;" d="M297.559,181.821v17.944h-3.929c-1.536,0-2.779-1.045-2.779-2.324v-13.296
								c0-1.279,1.243-2.324,2.779-2.324H297.559z"/>
						</g>
					</g>
				</g>
			</g>
		</g>
		<g>
			<g>
				<path style="fill:#13426E;" d="M370.154,113.033c-3.563-0.77-6.446-2.766-7.524-5.209c-0.732-1.658-0.607-3.5,0.352-5.187
					c1.259-2.216,3.708-3.748,6.552-4.096c3.034-0.368,6.43,0.489,9.089,2.3c2.385,1.625,3.238,2.454,4.301,4.816l-1.551,0.697
					c-0.873-1.94-1.427-2.555-3.708-4.108c-2.293-1.562-5.326-2.334-7.925-2.018c-2.277,0.279-4.301,1.523-5.28,3.248
					c-0.686,1.208-0.784,2.508-0.274,3.661c0.85,1.925,3.333,3.587,6.328,4.233L370.154,113.033z"/>
			</g>
			<g>
				<path style="fill:#13426E;" d="M370.19,126.769c-3.223,0-6.479-0.471-9.52-1.462c-9.831-3.202-16.632-11.438-16.171-19.584
					c0.485-8.56,8.69-16.025,19.509-17.75c11.011-1.755,23.303,2.869,27.99,10.528c2.135,3.49,2.566,7.554,1.212,11.443
					c-0.228,0.657-0.503,1.295-0.822,1.914c-0.164,2.907-1.324,5.663-3.357,7.903C384.975,124.232,377.669,126.769,370.19,126.769z
					 M368.673,89.31c-1.48,0-2.954,0.11-4.397,0.34c-9.874,1.575-17.646,8.525-18.079,16.168c-0.418,7.389,5.89,14.905,15,17.872
					c9.511,3.099,21.186,0.87,26.577-5.073c0.881-0.971,1.57-2.031,2.058-3.159c-1.913,2.036-4.401,3.667-7.289,4.728
					c-8.621,3.168-20.202,0.992-25.815-4.85c-2.757-2.87-3.936-6.639-3.231-10.343c0.742-3.905,3.456-7.194,7.448-9.023
					c4.775-2.189,10.362-2.256,14.207-1.927c2.764,0.236,7.845,2.47,10.661,4.687c3.166,2.492,5.351,5.765,6.202,9.21
					c0.641-2.946,0.138-5.936-1.464-8.554C386.872,93.38,377.663,89.31,368.673,89.31z M371.857,95.601
					c-3.916,0-7.462,0.658-10.206,1.915c-3.484,1.597-5.848,4.438-6.486,7.795c-0.6,3.155,0.417,6.38,2.787,8.848
					c5.101,5.308,16.093,7.337,24.004,4.432c3.906-1.434,6.997-3.997,8.752-7.194c0.008-0.392-0.005-0.789-0.039-1.188
					c-0.313-3.735-2.467-7.432-5.911-10.142l0,0c-2.56-2.015-7.3-4.119-9.754-4.329C373.936,95.646,372.883,95.601,371.857,95.601z"
					/>
			</g>
			<g>
				<g>
					<path style="fill:#13426E;" d="M334.744,114.033c-2.378-2.019-4.135-4.531-5.081-7.264c-1.638-4.653-0.816-9.457,2.254-13.177
						c2.067-2.503,6.189-4.923,11.023-6.475l0.52,1.619c-4.539,1.456-8.364,3.675-10.233,5.938
						c-2.682,3.249-3.396,7.453-1.96,11.534c0.849,2.45,2.431,4.706,4.577,6.528L334.744,114.033z"/>
				</g>
				<g>
					<path style="fill:#13426E;" d="M348.394,121.44c-7.975,0-13.524-2.831-16.481-6.311c-1.898-2.233-2.648-5.086-2.293-8.721
						c0.463-4.729,3.518-9.067,8.173-11.604l0.814,1.492c-4.16,2.268-6.887,6.11-7.294,10.277c-0.308,3.153,0.312,5.592,1.895,7.456
						c4.089,4.811,13.732,8.22,28.536,3.36l0.53,1.615C357.046,120.721,352.412,121.439,348.394,121.44z"/>
				</g>
			</g>
			<g>
				<path style="fill:#13426E;" d="M358.73,129.279c-2.594,0.001-5.196-0.363-7.687-1.174c-10.319-3.361-17.768-11.75-17.328-19.513
					c0.485-8.559,8.689-16.024,19.508-17.75c11.004-1.756,23.303,2.869,27.991,10.528c2.135,3.489,2.566,7.553,1.212,11.442
					c-1.604,4.609-5.492,8.343-10.668,10.245c-8.622,3.166-20.203,0.991-25.816-4.85c-2.757-2.869-3.935-6.639-3.231-10.342
					c0.742-3.905,3.457-7.194,7.448-9.024c4.355-1.997,9.894-2.271,14.453-0.719c4.873,1.659,8.347,5.492,8.447,9.319
					c0.02,0.734-0.084,1.456-0.296,2.15c0.055,0.116,0.11,0.233,0.163,0.352c1.398,3.109,1.548,5.85,0.446,8.148
					c-0.574,1.197-1.598,2.301-2.883,3.109l-0.905-1.44c1.017-0.639,1.818-1.494,2.255-2.405c0.763-1.591,0.743-3.512-0.059-5.721
					c-1.491,2.218-4.162,3.91-7.368,4.432c-5.157,0.84-10.911-1.622-12.567-5.373c-0.731-1.658-0.606-3.5,0.352-5.187
					c1.259-2.216,3.708-3.747,6.552-4.095c3.032-0.375,6.43,0.489,9.088,2.3c1.353,0.922,2.524,2.076,3.503,3.449
					c-0.272-3.025-3.209-6.045-7.277-7.429c-4.101-1.397-9.281-1.14-13.197,0.655c-3.484,1.597-5.848,4.438-6.486,7.795
					c-0.6,3.155,0.416,6.38,2.787,8.847c5.1,5.308,16.092,7.338,24.004,4.432c4.696-1.725,8.213-5.081,9.649-9.207
					c1.183-3.399,0.807-6.949-1.057-9.996c-4.282-6.997-16.066-11.368-26.273-9.737c-9.873,1.575-17.645,8.525-18.079,16.168
					c-0.398,7.018,6.548,14.669,16.157,17.8c9.742,3.172,21.294-0.948,26.41-6.585l1.259,1.143
					C375.079,125.629,366.952,129.279,358.73,129.279z M360.139,103.028c-0.402,0-0.797,0.023-1.183,0.07
					c-2.278,0.279-4.301,1.523-5.281,3.248c-0.686,1.208-0.784,2.508-0.275,3.661c1.345,3.047,6.363,5.096,10.739,4.382
					c3.161-0.515,5.759-2.408,6.769-4.702c-1.02-1.908-2.372-3.443-4.027-4.571C364.929,103.786,362.438,103.028,360.139,103.028z"
					/>
			</g>
			<g>
				<path style="fill:#13426E;" d="M366.177,118.973c-4.555,0-9.153-0.652-12.99-1.902c-9.832-3.203-16.632-11.439-16.171-19.585
					c0.454-7.999,8.53-14.612,20.099-16.457c11.664-1.863,22.934,1.936,27.4,9.235c1.691,2.764,2.313,5.887,1.827,8.999
					c0.525,1.259,0.909,2.56,1.134,3.875c0.672,3.934-0.233,7.505-2.548,10.057C381.355,117.132,373.829,118.972,366.177,118.973z
					 M362.86,82.273c-1.804,0-3.64,0.141-5.478,0.435c-10.759,1.716-18.262,7.694-18.669,14.875c-0.418,7.388,5.89,14.905,15,17.873
					c9.79,3.188,24.681,2.412,29.956-3.402c1.957-2.156,2.713-5.221,2.131-8.628c-0.069-0.404-0.156-0.808-0.26-1.21
					c-1.706,4.374-5.496,7.905-10.481,9.736c-8.623,3.167-20.203,0.991-25.816-4.85c-2.757-2.87-3.935-6.639-3.231-10.343
					c0.742-3.905,3.457-7.194,7.448-9.023c4.354-1.996,9.893-2.271,14.452-0.719c4.873,1.659,8.347,5.492,8.447,9.319l-1.699,0.045
					c-0.082-3.131-3.082-6.32-7.296-7.755c-4.101-1.397-9.281-1.139-13.196,0.655c-3.484,1.597-5.848,4.438-6.486,7.795
					c-0.6,3.156,0.416,6.38,2.787,8.848c5.101,5.309,16.093,7.337,24.004,4.432c4.696-1.725,8.213-5.081,9.649-9.207
					c0.191-0.548,0.341-1.102,0.451-1.655c-1.716-3.783-4.854-7.197-8.678-9.264l0.809-1.495c3.318,1.793,6.111,4.438,8.053,7.497
					c-0.153-1.768-0.721-3.491-1.692-5.078C379.701,85.655,371.683,82.273,362.86,82.273z"/>
			</g>
			<g>
				<path style="fill:#13426E;" d="M400.091,149.59c-6.869,0-16.078-5.23-20.39-10.11c-0.268,0.015-0.533,0.018-0.795,0.007
					c-2.989-0.112-5.556-1.507-7.184-2.657c-1.108-0.783-2.096-1.65-3.052-2.489c-0.687-0.602-1.397-1.226-2.134-1.799
					c-2.829-2.204-5.887-3.766-9.09-4.645c-17.8-4.884-15.099-17.93-15.07-18.061l1.659,0.371
					c-0.102,0.47-2.331,11.608,13.861,16.05c3.419,0.938,6.678,2.602,9.685,4.944c0.775,0.604,1.504,1.244,2.21,1.862
					c0.966,0.847,1.878,1.647,2.913,2.378c1.326,0.938,3.346,2.058,5.668,2.303c-0.538-0.836-0.894-1.64-1.028-2.381
					c-0.31-1.708,0.525-3.063,2.291-3.719c1.666-0.618,3.345,0.111,4.361,1c1.092,0.956,1.595,2.184,1.346,3.285
					c-0.368,1.628-1.897,2.71-3.676,3.221c4.091,4.158,12.072,8.739,18.423,8.739c0.011,0,0.022,0,0.033,0l0.004,1.7
					C400.114,149.59,400.102,149.59,400.091,149.59z M380.915,133.117c-0.23,0-0.462,0.037-0.688,0.121
					c-1.272,0.473-1.325,1.187-1.211,1.823c0.14,0.773,0.622,1.676,1.369,2.639c1.683-0.275,3.068-1.126,3.299-2.145
					c0.106-0.469-0.211-1.109-0.807-1.63C382.403,133.51,381.667,133.117,380.915,133.117z"/>
			</g>
		</g>
		<g>
			<path style="fill:#302824;" d="M448.691,216.005c-7.862,0-15.149-6.592-15.476-6.892l0.676-0.737
				c0.083,0.075,8.313,7.526,16.311,6.538c3.561-0.437,6.582-2.491,8.977-6.105l0.834,0.553c-2.565,3.871-5.827,6.073-9.693,6.546
				C449.776,215.974,449.232,216.005,448.691,216.005z"/>
		</g>
		<g>
			<path style="fill:#302824;" d="M414.674,226.511c-1.297-10.054-8.497-11.763-8.803-11.831l0.214-0.977
				c0.082,0.018,8.19,1.902,9.582,12.68L414.674,226.511z"/>
		</g>
		<g>
			<path style="fill:#302824;" d="M364.643,285.121c-0.055-0.22-5.323-22.256,10.652-41.63l0.772,0.636
				c-15.645,18.974-10.508,40.537-10.454,40.752L364.643,285.121z"/>
		</g>
		<g>
			<path style="fill:#302824;" d="M403.259,265.849l-0.818-0.575c0.258-0.368,6.431-9.018,15.414-9.708l0.077,0.997
				C409.415,257.217,403.32,265.763,403.259,265.849z"/>
		</g>
		<g>
			<path style="fill:#302824;" d="M436.225,318.244c-10.589,0-17.933-1.403-18.088-1.435l0.194-0.98
				c0.326,0.064,32.833,6.268,59.928-7.784l0.46,0.889C464.198,316.463,448.152,318.244,436.225,318.244z"/>
		</g>
		<g>
			<path style="fill:#302824;" d="M496.013,212.61c-4.211,0-6.421-1.317-6.551-1.397l0.523-0.853
				c0.044,0.027,4.377,2.573,12.541,0.286l0.27,0.963C500.144,212.351,497.881,212.61,496.013,212.61z"/>
		</g>
		<g>
			<path style="fill:#302824;" d="M414.882,431.202c-0.039,0-0.061,0-0.066,0l0.027-1c0.111-0.002,12.431,0.171,20.679-12.035
				l0.828,0.561C428.102,430.935,415.889,431.202,414.882,431.202z"/>
		</g>
		<g>
			<path style="fill:#302824;" d="M485.441,427.096l-0.288-0.957c0.1-0.03,10.062-3.113,14.335-11.66l0.895,0.447
				C495.913,423.867,485.867,426.969,485.441,427.096z"/>
		</g>
		<g>
			<path style="fill:#302824;" d="M448.56,308.648l-0.057-0.998c0.178-0.011,17.961-1.152,28.25-12.769l0.749,0.663
				C466.933,307.478,448.743,308.639,448.56,308.648z"/>
		</g>
		<g>
			<g>
				<g>
					<g>
						<path style="fill:#F7EFDF;" d="M600.435,288.718l-0.982-1.742c33.698-19.022,54.632-54.852,54.632-93.507
							c0-5.13-0.365-10.284-1.085-15.32l1.98-0.283c0.732,5.13,1.104,10.379,1.104,15.604
							C656.084,232.845,634.761,269.342,600.435,288.718z"/>
					</g>
				</g>
				<g>
					<g>
						<path style="fill:#F7EFDF;" d="M546.785,302.769c-8.45,0-16.868-0.968-25.02-2.876l0.456-1.947
							c8.002,1.874,16.267,2.824,24.563,2.824c9.579,0,19.076-1.262,28.228-3.751l0.525,1.93
							C566.214,301.483,556.54,302.769,546.785,302.769z"/>
					</g>
				</g>
			</g>
			<g>
				<g>
					<path style="fill:#F7EFDF;" d="M420.969,56.002c-13.47-7.013-27.931-11.615-42.981-13.679
						c-5.988-0.821-12.112-1.238-18.201-1.238v-2c6.18,0,12.395,0.423,18.472,1.256c15.278,2.096,29.959,6.768,43.633,13.886
						L420.969,56.002z"/>
				</g>
			</g>
			<g>
				<g>
					<path style="fill:#F7EFDF;" d="M227.106,173.766h-2c0-27.292,8.12-53.576,23.481-76.007
						c15.001-21.904,35.876-38.763,60.37-48.752l0.755,1.852C259.531,71.325,227.106,119.569,227.106,173.766z"/>
				</g>
			</g>
			<g>
				<g>
					<path style="fill:#F7EFDF;" d="M241.362,237.964c-7.009-12.903-11.822-26.776-14.305-41.235l1.971-0.339
						c2.447,14.243,7.188,27.909,14.092,40.619L241.362,237.964z"/>
				</g>
			</g>
		</g>
		<g style="opacity:0.67;">
			<circle style="fill:#3A749A;" cx="273.383" cy="140.064" r="4.085"/>
		</g>
		<g style="opacity:0.53;">
			<path style="fill:#F6CD93;" d="M294.83,82.606c-2.528,0-4.585-2.057-4.585-4.585s2.057-4.586,4.585-4.586
				s4.585,2.057,4.585,4.586S297.358,82.606,294.83,82.606z M294.83,74.436c-1.977,0-3.585,1.608-3.585,3.586
				c0,1.977,1.608,3.585,3.585,3.585c1.977,0,3.585-1.608,3.585-3.585C298.415,76.044,296.807,74.436,294.83,74.436z"/>
		</g>
		<g style="opacity:0.53;">
			<circle style="fill:#F6CD93;" cx="560.617" cy="97.936" r="4.085"/>
		</g>
		<g style="opacity:0.67;">
			<circle style="fill:#3A749A;" cx="583.085" cy="281.766" r="4.085"/>
		</g>
		<g style="opacity:0.53;">
			<path style="fill:#F6CD93;" d="M550.915,258.522c-2.528,0-4.585-2.057-4.585-4.586c0-2.528,2.057-4.585,4.585-4.585
				c2.528,0,4.585,2.057,4.585,4.585C555.5,256.464,553.443,258.522,550.915,258.522z M550.915,250.351
				c-1.977,0-3.585,1.608-3.585,3.585c0,1.977,1.608,3.586,3.585,3.586c1.977,0,3.585-1.608,3.585-3.586
				C554.5,251.96,552.892,250.351,550.915,250.351z"/>
		</g>
	</g>
</g>
</svg>
