<?xml version="1.0" encoding="utf-8"?>
<!-- Generator: Adobe Illustrator 27.5.0, SVG Export Plug-In . SVG Version: 6.00 Build 0)  -->
<svg version="1.1" xmlns="http://www.w3.org/2000/svg" xmlns:xlink="http://www.w3.org/1999/xlink" x="0px" y="0px"
	 viewBox="0 0 3710 3710" style="enable-background:new 0 0 3710 3710;" xml:space="preserve">
<g id="Background">
	<g>
		<g>
		</g>
	</g>
</g>
<g id="Illustration">
	<g>
		<path style="fill:#F4F7FA;" d="M1150.548,616.323c-95.037,133.047,12.457,351.503-127.53,450.844
			c-136.267,96.702-300.707-65.886-429.044,17.239c-190.383,123.31-161.888,697.018,110.786,1056.158
			c82.002,108.005,151.024,150.419,180.512,271.903c63.321,260.856-170.468,413.174-127.641,542.31
			c96.43,290.767,1623.758,549.973,2246.778-314.276c290.975-403.64,340.05-990.404,88.587-1439.092
			C2638.606,390.636,1363.796,317.789,1150.548,616.323z"/>
		<g>
			<defs>
				<circle id="SVGID_1_" cx="2033.117" cy="1685.356" r="1168.779"/>
			</defs>
			<clipPath id="SVGID_00000025409699470060869000000004743056337887724949_">
				<use xlink:href="#SVGID_1_"  style="overflow:visible;"/>
			</clipPath>
			<g style="clip-path:url(#SVGID_00000025409699470060869000000004743056337887724949_);">
				
					<linearGradient id="SVGID_00000118373816889480184970000013401954217416836538_" gradientUnits="userSpaceOnUse" x1="1880.3224" y1="1416.4586" x2="3304.4829" y2="3917.2622">
					<stop  offset="0" style="stop-color:#FFC444"/>
					<stop  offset="0.9964" style="stop-color:#F36F56"/>
				</linearGradient>
				<path style="fill:url(#SVGID_00000118373816889480184970000013401954217416836538_);" d="M3216.207,1686.352
					c0,250.456-78.659,482.791-212.029,674.033c-0.525,0.787-2.405,1.541-2.405,2.327v0.033
					c-209.268,306.623-567.85,505.279-970.094,505.279c-32.899,0-64.411-1.537-96.624-5.99c-0.032,0-0.032,0-0.032,0
					c-0.132,0-0.198,1.959-0.329,1.959c-15.859-1.311-31.589-1.92-47.253-3.854c-5.57-0.655-11.141-0.878-16.679-1.665
					c-4.915-0.655-9.798-1.094-14.68-1.848c-4.261-0.623-8.488-1.154-12.682-1.842c-0.951-0.164-1.901-0.265-2.852-0.397
					c-10.322-1.704-20.612-3.475-30.869-5.441c-0.065,0-0.098-0.017-0.164-0.017c-546.887-104.469-960.11-585.253-960.11-1162.584
					c0-122.066,17.734-239.835,52.076-350.629c5.374-17.368,12.068-34.535,16.521-51.542v-0.033
					c13.358-28.346,22.31-56.166,34.599-83.463c4.948-10.913,10.418-21.759,15.629-32.507
					c28.804-59.051,62.555-115.349,100.404-168.402c3.441-4.817,7.013-9.601,10.519-14.385
					c14.025-19.072,28.657-37.685,43.829-55.872c22.709-27.264,46.622-53.512,71.658-78.613
					c65.178-65.408,137.971-123.246,216.913-172.039c24.413-15.107,49.456-29.361,75.015-42.666
					c61.902-32.311,126.984-59.28,194.719-80.317c111.154-34.573,229.322-53.186,351.846-53.186
					c281.784,0,540.564,98.44,743.799,262.811c149.494,120.919,271.076,277.458,347.561,456.74
					c17.106,40.044,28.665,81.203,46.475,123.343v0.034c0,0.196-2.038,0.328-1.974,0.524
					C3201.304,1453.887,3216.207,1568.088,3216.207,1686.352z"/>
				<g>
					<path style="fill:#FFFFFF;" d="M1935.022,2866.017v-0.032h0.098l-0.066,0.032
						C1935.022,2866.017,1935.022,2866.017,1935.022,2866.017z"/>
					<path style="fill:#FFFFFF;" d="M2290.996,2085.418c-25.397,35.784-103.978,81.726-50.662,171.973
						c52.858,90.018-3.669,106.894-40.044,98.472c-36.538-8.324-150.117-12.976-131.176,38.635
						c18.876,51.677,51.415,71.044,9.799,91c-41.584,19.859-59.182,71.733-101.749,143.137
						c-42.273,71.535-142.744,9.667-112.989,81.366c29.689,71.733,52.857,64.785,50.072,114.758
						c-0.657,13.731,8.454,27.822,20.776,41.225c-15.86-1.312-31.787-2.917-47.582-4.851c-5.57-0.656-11.141-1.376-16.679-2.163
						c-4.915-0.656-9.798-1.344-14.68-2.098c-4.261-0.623-8.488-1.278-12.682-1.966c-0.951-0.164-0.706-0.328-1.656-0.459
						c-10.158-1.704-15.431-3.539-28.788-5.472v-0.033c-8.905-8.455-3.326-17.63-1.982-27.526
						c13.271-92.279-114.045-155.688-135.378-220.342c-20.972-64.49-0.266-102.961-5.116-156.409
						c-4.981-53.348,12.467-124.097-18.238-169.057c-30.705-44.795-154.484-59.804-178.045-150.215
						c-23.725-90.214,31.453-225.322,52.885-248.327c21.169-23.003-102.489-127.669-161.342-131.011
						c-59.116-3.605-35.466-122.623-135.413-104.502c-100.142,17.565-280.051-38.308-242.89-98.406
						c30.671-49.514,82.156-158.735-85.919-207.431c5.374-17.367,12.033-34.539,16.485-51.546v-0.033
						c13.358-28.346,22.31-56.166,34.599-83.463c4.948-10.913,10.418-21.759,15.629-32.507
						c28.837-59.051,62.588-115.349,100.404-168.402c3.441-4.817,7.013-9.601,10.519-14.385
						c14.058-19.072,28.689-37.718,43.829-55.872c22.709-27.264,46.622-53.512,71.658-78.613
						c65.178-65.408,137.971-123.246,216.913-172.039c33.293,23.332,71.312,37.717,104.147,19.989
						c80.515-45.058,27.431-51.972-5.535-53.643c-8.586-0.426-16.908-3.834-23.592-9.012
						c61.901-32.311,126.981-59.28,194.717-80.317c-5.015,45.451-66.784,118.461-21.332,109.547
						c52.889-10.06,74.485-152.967,113.317-105.484c39.389,47.68-43.092,110.171,34.374,73.96
						c77.566-35.849,87.921-115.872,174.366-76.942c86.872,39.422,78.943,86.085,103.192,81.465
						c24.152-4.556,102.273,47.941,55.02,91.132c-47.68,43.32-91.394-11.863-162.864-28.509
						c-71.503-16.451-69.766,42.043-102.666,55.413c-33.458,12.911-194.847-65.08-234.465,5.406
						c-40.044,69.929-57.084,118.724,2.359,116.921c59.378-1.671,63.213-17.039,58.559,26.871
						c-4.752,43.944,6.063,76.844,59.869,35.522c53.644-41.258,41.618-81.498,83.563-61.836
						c41.977,19.727,46.925,1.867,91.558-30.541c44.599-32.409,103.289-35.784,118.659,36.931
						c15.401,72.748-10.913,89.067-89.363,92.738c-78.483,3.801-87.363-20.94-112.367,44.664
						c-24.872,65.637-128.685,149.921-219.816,184.656c-90.969,34.801-126.621,86.216-124.524,155.588
						c2.162,69.504-32.05,142.809-54.889,85.529c-22.939-57.445-87.232-154.18-152.837-89.526
						c-65.735,64.785-180.133,179.314-53.709,200.253c126.163,21.333,60.329-96.866,124.098-73.239
						c63.671,23.79-40.34,75.893,2.229,94.702c42.632,18.974,60.493,10.094,60.164,68.194
						c-0.328,58.067,14.124,114.463,65.867,89.821c51.709-24.545,118.132-138.385,192.946-71.044
						c74.91,67.505,69.602,58.722,108.893,39.061c39.257-19.629,64.261,39.225,80.35,66.03
						c16.089,26.773,79.203-0.557,130.358,79.203c51.119,79.76,71.174,93.983,129.471,65.277
						c58.328-28.673,82.055-7.373,97.258,32.901c15.14,40.273,51.055,0.917,68.358,54.135
						C2324.486,2057.859,2316.228,2049.601,2290.996,2085.418z"/>
					<g>
						<path style="fill:#FFFFFF;" d="M2490.627,1119.082c-41.323-88.674,163.42-78.713,199.597-71.896
							c36.406,6.062,121.803-60.689,132.651-91.722c11.141-31.262,29.427-16.417,94.212-17.302
							c64.753-0.688,7.536-15.337-63.738-38.832c-71.142-23.43-10.322-25.79-75.892-77.565
							c-28.214-22.677-19.334-41.945-0.525-56.265c149.494,120.919,268.938,277.458,345.423,456.74
							c-2.164-0.656-4.194-1.016-6.095-1.049c-45.354-0.262-55.348-100.536-78.712-120.066
							c-23.038-19.498,0.654,55.085,6.291,85.724c5.669,30.672-12.419,4.883-35.03,33.031
							c-22.71,28.181-63.705,28.706-67.408-13.566c-3.768-42.175-33.489-83.595-93.818-102.863
							c-60.329-19.269-112.53-3.441-161.553,15.467C2637.271,1137.498,2532.244,1207.068,2490.627,1119.082z"/>
						<path style="fill:#FFFFFF;" d="M3004.647,2362.712c4.096-30.443,10.782-61.901-1.935-73.403
							c-30.901-28.673-37.651-106.795-26.935-146.381c10.682-39.684,93.95-37.422,37.454-103.322
							c-56.658-66.096-107.711-144.545-83.922-189.407c23.791-44.795,16.582-48.072-28.016-47.81
							c-44.666,0.263-64.229,2.228-108.696-37.488c-44.502-40.241-105.715,94.965-273.199-13.468
							c-167.451-109.516-72.092-294.105-9.34-294.564c63.147-1.049,136.912-32.933,85.169-109.942
							c-51.58-77.303,29.033-88.215,68.421-70.651c39.455,17.368,109.416-29.295,180.723-50.334
							c71.47-20.94,68.325,95.49,108.008,118.789c39.914,23.332,114.693,4.817,153.557-32.475
							c27.757-26.608,33.819,4.424,61.247,33.884c32.311,107.746,49.645,221.947,49.645,340.211
							C3216.829,1937.825,3138.412,2171.011,3004.647,2362.712z"/>
						<path style="fill:#FFFFFF;" d="M2705.087,971.49c0.041-0.071,52.219-23.629,33.308-61.582
							c-18.742-37.961-48.468-154.303-70.186-117.641c-21.855,36.827,10.364,108.334,3.329,139.188
							C2664.438,962.403,2664.249,978.601,2705.087,971.49z"/>
						<path style="fill:#FFFFFF;" d="M2652.983,935.975c-0.737-12.23,6.965-61.902-32.122-60.345
							c0.073-0.079-56.536,23.544-23.42,63.676C2630.708,979.317,2653.83,948.174,2652.983,935.975z"/>
					</g>
				</g>
			</g>
			
				<linearGradient id="SVGID_00000144300501386380137920000002730525353629364138_" gradientUnits="userSpaceOnUse" x1="853.1734" y1="1685.3564" x2="3213.0608" y2="1685.3564">
				<stop  offset="0" style="stop-color:#FFC444"/>
				<stop  offset="0.9964" style="stop-color:#F36F56"/>
			</linearGradient>
			
				<path style="opacity:0.3;clip-path:url(#SVGID_00000025409699470060869000000004743056337887724949_);fill:url(#SVGID_00000144300501386380137920000002730525353629364138_);" d="
				M3213.061,1684.281c0,250.456-77.086,482.791-210.456,674.033c-0.525,0.787-0.832,1.541-0.832,2.327v0.033
				c-213.72,306.624-569.422,504.342-971.667,504.342c-32.899,0-65.986-2.506-98.196-6.958c-0.034,0-0.034,0-0.034,0
				c-0.131,0-0.197,2.927-0.328,2.927c-15.859-1.311-31.588-1.47-47.253-3.403c-5.571-0.655-11.141-0.636-16.679-1.423
				c-4.915-0.655-9.798-0.973-14.681-1.727c-4.26-0.622-8.488-1.076-12.682-1.764c-0.95-0.165-1.901-0.243-2.851-0.375
				c-10.323-1.704-20.612-3.465-30.869-5.431c-0.065,0-0.098-0.012-0.163-0.012c-505.73-96.604-897.128-515.303-953.197-1034.272
				c118.593,340.178,411.846,595.776,772.375,667.016h0.131c8.849,4.452,17.729,3.554,26.641,5.029
				c0.819,0.098,1.672,0.386,2.492,0.516c3.604,0.589,7.273,1.191,10.944,1.716c4.193,0.656,8.421,1.186,12.682,1.743
				c4.785,0.689,9.568,1.101,14.386,1.658c13.534,1.671,27.099,4.754,40.797,5.868c0.131,0,0.197,1.281,0.295,1.281c0,0,0,0,0.033,0
				c27.821,0,55.545,2.236,83.956,2.236c173.678,0,337.36-44.153,480.563-120.342c143.201-76.188,265.922-186.038,357.677-318.426
				c0-0.688,1.114-1.609,1.539-2.297c115.186-165.125,182.592-365.904,182.592-582.182c0-102.11-14.991-200.812-42.91-293.844
				c-0.033-0.164-0.408-0.361-0.408-0.525v-0.033c-8.905-36.373-23.251-71.928-37.997-106.5
				c-66.064-154.835-168.935-290.009-298.046-394.412c-94.508-76.451-202.897-136.353-320.833-175.382
				c238.889,21.989,457.237,115.021,633.7,257.731c149.494,120.919,270.425,277.459,346.91,456.74
				c17.105,40.044,28.015,81.202,45.824,123.344v0.032c0,0.196-1.385,0.327-1.322,0.524
				C3197.506,1451.814,3213.061,1566.016,3213.061,1684.281z"/>
		</g>
		<g>
			<g>
				<g>
					<g>
						<defs>
							<path id="SVGID_00000172415877734503802350000003543922968348904606_" d="M2476.303,2905.856
								c2.012,29.567,9.983,72.404,17.401,121.141l-460.586-158.311c115.061-105.89,253.14-208.233,268.711-486.809
								c7.307-130.731-22.472-382.487,93.476-480.56c132.096-111.734,217.378,9.68,303.573-85.089
								c134.722-148.121,342.571-192.49,455.874-26.207c111.825,164.114-51.798,469.578-429.571,701.555
								C2473.013,2688.699,2465.793,2751.464,2476.303,2905.856z"/>
						</defs>
						
							<linearGradient id="SVGID_00000085963442133536863870000005164043674985908374_" gradientUnits="userSpaceOnUse" x1="2991.9028" y1="3016.9854" x2="2075.6079" y2="1432.5608">
							<stop  offset="0" style="stop-color:#AA80F9"/>
							<stop  offset="0.9964" style="stop-color:#6165D7"/>
						</linearGradient>
						
							<use xlink:href="#SVGID_00000172415877734503802350000003543922968348904606_"  style="overflow:visible;fill:url(#SVGID_00000085963442133536863870000005164043674985908374_);"/>
						<clipPath id="SVGID_00000049937896899452481780000014569242619701936315_">
							<use xlink:href="#SVGID_00000172415877734503802350000003543922968348904606_"  style="overflow:visible;"/>
						</clipPath>
						<g style="clip-path:url(#SVGID_00000049937896899452481780000014569242619701936315_);">
							<g>
								<path style="fill:#FCFDFE;" d="M2264.758,2918.467c25.847-57.89,53.16-111.18,82.079-167.601l9.638-18.812
									c15.599-26.31,30.264-52.675,44.448-78.172c32.026-57.573,62.276-111.954,102.376-165.579
									c1.955-3.332,3.685-6.654,5.516-10.173c6.542-12.565,13.308-25.558,27.024-34.255l0.434-0.43
									c189.128-295.434,442.365-556.802,752.677-776.84l-1.635-2.304c-310.513,220.183-563.948,481.728-753.254,777.359
									c-14.184,9.106-21.389,22.947-27.751,35.167c-1.816,3.487-3.531,6.782-5.364,9.919
									c-40.124,53.645-70.419,108.107-102.493,165.765c-14.174,25.479-28.83,51.827-44.453,78.18l-9.678,18.889
									c-28.936,56.453-56.266,109.777-82.144,167.737L2264.758,2918.467z"/>
								<path style="fill:#FCFDFE;" d="M2409.23,2644.545c78.263-145.464,90.488-359.764,86.963-513.926
									c-3.818-166.949-26.413-301.289-26.642-302.625l-2.785,0.474c0.227,1.336,22.793,135.506,26.604,302.257
									c3.514,153.809-8.662,367.571-86.628,512.483L2409.23,2644.545z"/>
								<path style="fill:#FCFDFE;" d="M2836.047,2056.919c91.65-149.731,153.16-328.094,173.372-386.706
									c3.867-11.21,6.421-18.617,7.155-19.935l-2.468-1.375c-0.821,1.474-2.848,7.316-7.358,20.391
									c-20.188,58.539-81.622,236.683-173.111,386.151L2836.047,2056.919z"/>
								<path style="fill:#FCFDFE;" d="M2652.049,2277.097c121.501-107.127,457.326-84.846,460.704-84.61l0.198-2.817
									c-3.389-0.239-340.394-22.591-462.771,85.309L2652.049,2277.097z"/>
							</g>
						</g>
					</g>
				</g>
				<g>
					<g>
						<defs>
							<path id="SVGID_00000078013281851011731830000018337246831701887894_" d="M2804.719,2534.208
								c-65.731,184.186-133.984,92.592-222.505,82.573c-142.131,104.716-194.872,229.068-90.968,387.827l166.043,30.647
								c59.53,17.42,134.44,23.144,157.377-56.212c25.943-89.751,24.339-152.969,138.834-162.07
								c114.494-9.103,184.459-73.47,175.042-177.277c-9.911-109.24,133.497-202.607,82.538-291.032
								C3122.287,2194.587,2873.167,2342.415,2804.719,2534.208z"/>
						</defs>
						
							<linearGradient id="SVGID_00000071534236082001221750000002833082908657284273_" gradientUnits="userSpaceOnUse" x1="2765.2788" y1="2535.4612" x2="3090.9102" y2="3071.5344">
							<stop  offset="0.0036" style="stop-color:#E38DDD"/>
							<stop  offset="1" style="stop-color:#9571F6"/>
						</linearGradient>
						
							<use xlink:href="#SVGID_00000078013281851011731830000018337246831701887894_"  style="overflow:visible;fill:url(#SVGID_00000071534236082001221750000002833082908657284273_);"/>
						<clipPath id="SVGID_00000087374697450237126890000013074522310651440012_">
							<use xlink:href="#SVGID_00000078013281851011731830000018337246831701887894_"  style="overflow:visible;"/>
						</clipPath>
						<g style="clip-path:url(#SVGID_00000087374697450237126890000013074522310651440012_);">
							<g>
								<path style="fill:#FCFDFE;" d="M2651.761,2851.68c90.725-49.469,175.4-109.989,251.674-179.88
									c76.93-70.495,144.286-149.588,200.193-235.085c32.058-49.025,60.465-100.437,84.429-152.806l-2.296-1.049
									c-23.913,52.252-52.257,103.552-84.248,152.473c-55.791,85.321-123.009,164.253-199.786,234.604
									c-76.123,69.753-160.631,130.154-251.175,179.525L2651.761,2851.68z"/>
								<path style="fill:#FCFDFE;" d="M2786.823,3011.674l1.816-1.757c-24.195-25.022-54.788-48.566-90.931-69.977
									c-17.222-10.203-34.769-19.061-52.155-26.328l-0.975,2.331c17.279,7.221,34.721,16.027,51.841,26.172
									C2732.37,2963.41,2762.785,2986.813,2786.823,3011.674z"/>
								<path style="fill:#FCFDFE;" d="M2854.556,2713.999c108.66-50.854,279.77,16.02,281.477,16.71l0.933-2.349
									c-1.733-0.681-173.829-67.97-283.482-16.649L2854.556,2713.999z"/>
								<path style="fill:#FCFDFE;" d="M3025.872,2542.688c67.663-117.456,23.332-295.301,22.876-297.083l-2.447,0.625
									c0.453,1.773,44.527,178.64-22.62,295.197L3025.872,2542.688z"/>
							</g>
						</g>
					</g>
				</g>
			</g>
		</g>
		<g>
			<g>
				<path style="fill:#BFC8D6;" d="M3211.322,3036.754l-2602.17-19.364v57.294c0,15.55,11.35,28.773,26.721,31.13l735.816,112.821
					c8.733,1.339,17.588,1.694,26.4,1.059l1784.956-128.634c15.936-1.148,28.278-14.412,28.278-30.389V3036.754z"/>
				<g>
					<path style="fill:#BFC8D6;" d="M2267.005,2942.054L636.061,3046.865c-29.185,1.875-52.914-18.054-52.914-44.518V1942.087
						c0-26.464,23.729-47.918,52.914-47.918h1630.944c24.044,0,43.484,19.394,43.484,43.317v958.456
						C2310.489,2919.865,2291.049,2940.508,2267.005,2942.054z"/>
					<path style="fill:#D8DEE8;" d="M2293.01,2942.054L662.066,3046.865c-29.185,1.875-52.914-18.054-52.914-44.518V1942.087
						c0-26.464,23.729-47.918,52.914-47.918H2293.01c24.044,0,43.484,19.394,43.484,43.317v958.456
						C2336.494,2919.865,2317.054,2940.508,2293.01,2942.054z"/>
					<path style="fill:#EFF2F6;" d="M2242.202,2874.48l-1519.054,91.043c-23.75,1.423-43.05-14.934-43.05-36.538v-928.26
						c0-21.605,19.3-39.191,43.05-39.281l1519.054-5.717c19.834-0.075,35.878,15.817,35.878,35.495v845.478
						C2278.08,2856.378,2262.036,2873.292,2242.202,2874.48z"/>
					<path style="fill:#FFFFFF;" d="M1535.138,1923.169c0,9.852-8.394,17.861-18.76,17.89c-10.379,0.029-18.801-7.952-18.801-17.826
						c0-9.874,8.422-17.883,18.801-17.891C1526.744,1905.336,1535.138,1913.317,1535.138,1923.169z"/>
					<path style="opacity:0.48;fill:#FFFFFF;" d="M1906.67,2651.78c-126.375-61.561-225.743,16.444-321.64-60.52
						c-58.139-46.66-29.595-81.455-101.135-151.183c-79.235-77.229-130.821-51.269-210.451-120.776
						c-100.686-87.887-50.329-156.266-137.058-219.366c-105.214-76.55-218.682-5.698-318.839-79.112
						c-43.198-31.664-66.901-77.697-79.278-126.654H640.27c-17.173,0-31.118,12.601-31.118,28.146v1099.805
						c0,15.545,13.945,27.25,31.118,26.146l1670.71-107.367c8.199-0.527,15.469-4.861,20.135-11.144
						c-122.301-4.036-197.436-41.154-245.465-79.527C1991.693,2775.161,2007.99,2701.134,1906.67,2651.78z"/>
				</g>
				<path style="fill:#FFFFFF;" d="M2358.015,2939.125L609.152,3049.449l762.537,116.918c8.733,1.339,17.588,1.694,26.4,1.059
					l1813.233-130.672l-825.488-96.879C2376.603,2938.792,2367.292,2938.541,2358.015,2939.125z"/>
				<polygon style="opacity:0.47;fill:#D8DEE8;" points="864.339,3050.398 2320.319,2957.182 2770.932,3009.64 1327.494,3109.284 
									"/>
			</g>
			<g>
				<defs>
					<path id="SVGID_00000125591239785178940340000003534594814171548807_" d="M2242.202,2874.48l-1519.054,91.043
						c-23.75,1.423-43.05-14.934-43.05-36.538l-225.474-232.344c0-21.604,54.976-1587.712,110.852-1915.06l1647.569-3.131
						c-12.292,327.184,626.069,812.406,586.019,1699.638l-520.985,358.613C2278.08,2856.378,2262.036,2873.292,2242.202,2874.48z"/>
				</defs>
				<clipPath id="SVGID_00000118365897346877124030000014565120441466469030_">
					<use xlink:href="#SVGID_00000125591239785178940340000003534594814171548807_"  style="overflow:visible;"/>
				</clipPath>
				<g style="clip-path:url(#SVGID_00000118365897346877124030000014565120441466469030_);">
					
						<linearGradient id="SVGID_00000171703237977485725260000005714481762138911926_" gradientUnits="userSpaceOnUse" x1="1590.6656" y1="2094.3835" x2="1358.9834" y2="3133.5452">
						<stop  offset="0" style="stop-color:#FF9085"/>
						<stop  offset="1" style="stop-color:#FB6FBB"/>
					</linearGradient>
					<path style="fill:url(#SVGID_00000171703237977485725260000005714481762138911926_);" d="M1078.158,3074.877
						c-17.116-24.307-47.295-74.633-70.492-140.136c-62.737-177.152-28.657-336.123-20.206-381.159
						c27.514-146.62,32.442-412.832-52.998-934.377c-4.681-28.573,13.614-55.88,41.848-62.298
						c166.379-37.816,399.519-70.17,675.014-44.707c230.811,21.332,421.31,76.771,560.763,129.393
						c3.651,255.203-17.029,457.619-36.286,594.178c-30.863,218.855-60.914,288.71-64.432,475.838
						c-5.295,281.61,59.043,321.284,10.004,408.626C1980.432,3371.259,1274.7,3353.982,1078.158,3074.877z"/>
					
						<linearGradient id="SVGID_00000010276915437324006270000000716020820633779884_" gradientUnits="userSpaceOnUse" x1="-2350.6182" y1="1732.543" x2="-1697.5692" y2="640.9714" gradientTransform="matrix(-1 0 0 1 -658.8848 0)">
						<stop  offset="0" style="stop-color:#AB316D"/>
						<stop  offset="1" style="stop-color:#792D3D"/>
					</linearGradient>
					<path style="fill:url(#SVGID_00000010276915437324006270000000716020820633779884_);" d="M1549.43,1212.782
						c-8.362,79.393-16.724,158.784-25.086,238.177c-2.265,21.509-19.509,38.366-41.065,40.143
						c-85.328,7.032-170.657,14.065-255.984,21.098l473.21,145.084l216.927-103.45c-66.188-20.51-132.377-41.021-198.566-61.532
						c-17.002-5.269-29.303-20.063-31.379-37.741c-5.759-49.026-11.52-98.051-17.279-147.077L1549.43,1212.782z"/>
					
						<linearGradient id="SVGID_00000139269020039065005670000003748942907161546146_" gradientUnits="userSpaceOnUse" x1="-2395.158" y1="1309.7279" x2="-1893.5409" y2="401.1403" gradientTransform="matrix(-1 0 0 1 -658.8848 0)">
						<stop  offset="0" style="stop-color:#AB316D"/>
						<stop  offset="1" style="stop-color:#792D3D"/>
					</linearGradient>
					<path style="fill:url(#SVGID_00000139269020039065005670000003748942907161546146_);" d="M1503.235,1175.844
						c52.164,119.705,182.695,218.777,250.145,189.385c67.449-29.391,60.273-178.302,8.11-298.007
						c-52.163-119.705-152.065-165.352-219.515-135.96C1474.526,960.655,1451.072,1056.138,1503.235,1175.844z"/>
					
						<linearGradient id="SVGID_00000116935857582135392250000010634073750629237894_" gradientUnits="userSpaceOnUse" x1="-2104.5583" y1="695.5992" x2="-2388.4932" y2="1197.2175" gradientTransform="matrix(-1 0 0 1 -658.8848 0)">
						<stop  offset="0" style="stop-color:#444B8C"/>
						<stop  offset="0.9964" style="stop-color:#26264F"/>
					</linearGradient>
					<path style="fill:url(#SVGID_00000116935857582135392250000010634073750629237894_);" d="M1590.953,1164.991
						c-6.578,4.93-32.268-30.292-46.507-24.003c-12.012,5.305-15.264,39.883-0.702,63.598c12.395,20.187,28.9,18.171,33.707,33.917
						c7.906,25.89-26.573,64.562-39.475,60.009c-8.276-2.921-1.41-21.413-9.453-42.532c-15.809-41.511-67.716-36.734-110.096-68.486
						c-66.645-49.932-84.797-171.526-45.062-217.046c15.102-17.301,32.037-16.134,52.562-43.993
						c22.223-30.162,12.517-45.302,29.613-64.694c29.011-32.904,92.69-29.838,132.933-17.678
						c50.631,15.3,54.303,42.015,88.188,40.044c40.129-2.332,45.918-40.437,93.772-47.441c2.756-0.404,47.426-6.249,81.068,22.806
						c43.687,37.732,32.99,103.414,31.474,112.725c-9.692,59.518-58.265,113.187-111.997,125.265
						c-11.311,2.542-9.022,0.133-122.823-2.614c-37.598-0.908-60.322-1.182-67.888,12.044
						C1569.348,1126.006,1597.573,1160.031,1590.953,1164.991z"/>
					
						<linearGradient id="SVGID_00000062185564982000993910000016482163420647955386_" gradientUnits="userSpaceOnUse" x1="-2112.1135" y1="3559.5186" x2="-996.6422" y2="649.5942" gradientTransform="matrix(-1 0 0 1 -658.8848 0)">
						<stop  offset="0" style="stop-color:#FF9085"/>
						<stop  offset="1" style="stop-color:#FB6FBB"/>
					</linearGradient>
					<path style="opacity:0.3;fill:url(#SVGID_00000062185564982000993910000016482163420647955386_);" d="M987.461,2010.039
						c60.396,27.401,92.949,62.119,111.583,94.127c71.055,122.048-38.244,241.692,40.234,394.288
						c54.009,105.017,125.596,86.894,160.933,185.074c45.332,125.951-53.32,209-48.28,337.962
						c2.542,65.027,31.652,146.255,130.351,239.074c-129.547-35.74-242.155-97.684-304.125-185.686
						c-17.116-24.307-47.295-74.633-70.492-140.136c-62.737-177.152-28.657-336.123-20.206-381.159
						C1007.036,2449.256,1015.172,2284.362,987.461,2010.039z"/>
					
						<linearGradient id="SVGID_00000149357780922335989010000013319825520894348942_" gradientUnits="userSpaceOnUse" x1="815.7637" y1="2732.5505" x2="360.7486" y2="3693.8828">
						<stop  offset="0" style="stop-color:#FF9085"/>
						<stop  offset="1" style="stop-color:#FB6FBB"/>
					</linearGradient>
					<path style="fill:url(#SVGID_00000149357780922335989010000013319825520894348942_);" d="M1028.186,1545.785
						c-83.963-19.666-189.982,69.01-229.083,101.473c-259.563,215.493-450.928,765.527-204.425,994.87
						c194.136,180.622,647.974,151.273,967.613-197.611c-21.579-37.478-43.156-74.956-64.735-112.434
						c-293.655,133.131-496.566,30.958-526.929-7.758c-52.558-67.018,231.299-116.102,223.699-380.65
						C1189.927,1790.58,1148.133,1573.879,1028.186,1545.785z"/>
					
						<linearGradient id="SVGID_00000134212569271412473740000013391393829368488379_" gradientUnits="userSpaceOnUse" x1="2481.3831" y1="1950.2357" x2="1960.0457" y2="2716.9084">
						<stop  offset="0" style="stop-color:#FF9085"/>
						<stop  offset="1" style="stop-color:#FB6FBB"/>
					</linearGradient>
					<path style="fill:url(#SVGID_00000134212569271412473740000013391393829368488379_);" d="M2212.087,1641.593
						c0,0,450.694,423.791,416.623,737.716s-397.253,160.085-530.487,20.777C1964.99,2260.778,2212.087,1641.593,2212.087,1641.593z
						"/>
					
						<linearGradient id="SVGID_00000000905904376455310650000001439056537739900830_" gradientUnits="userSpaceOnUse" x1="1512.9631" y1="2192.6763" x2="1469.7823" y2="2386.3542">
						<stop  offset="0" style="stop-color:#AB316D"/>
						<stop  offset="1" style="stop-color:#792D3D"/>
					</linearGradient>
					<path style="fill:url(#SVGID_00000000905904376455310650000001439056537739900830_);" d="M1524.747,2379.309
						c0,0-108.961-113.426-108.961-174.021c0-60.595,43.166-138.983,43.166-138.983s50.782,199.71,93.691,241.412
						c42.909,41.702,0,120.043,0,120.043L1524.747,2379.309z"/>
					
						<linearGradient id="SVGID_00000004522131020899289680000007940746926196301459_" gradientUnits="userSpaceOnUse" x1="6618.9863" y1="277.6027" x2="6575.8066" y2="471.2747" gradientTransform="matrix(-0.8159 0.5782 0.5782 0.8159 7604.9297 -2261.9709)">
						<stop  offset="0" style="stop-color:#AB316D"/>
						<stop  offset="1" style="stop-color:#792D3D"/>
					</linearGradient>
					<path style="fill:url(#SVGID_00000004522131020899289680000007940746926196301459_);" d="M2463.298,1950.711
						c0,0,23.327-155.543-11.707-204.985c-35.033-49.441-115.574-88.442-115.574-88.442s74.029,192.308,63.129,251.142
						c-10.9,58.834,69.403,97.946,69.403,97.946L2463.298,1950.711z"/>
					<g>
						
							<linearGradient id="SVGID_00000040542664080426899720000016096119384303064217_" gradientUnits="userSpaceOnUse" x1="-3424.917" y1="1913.5819" x2="-2526.0122" y2="1913.5819" gradientTransform="matrix(1 0 0 1 4835.2354 0)">
							<stop  offset="0" style="stop-color:#444B8C"/>
							<stop  offset="0.9964" style="stop-color:#26264F"/>
						</linearGradient>
						<path style="fill:url(#SVGID_00000040542664080426899720000016096119384303064217_);" d="M2309.223,1943.903
							c0,243.198-190.167,434.51-433.221,427.047c-252.947-7.767-465.684-226.226-465.684-487.649
							c0-261.422,212.737-451.196,465.684-424.857C2119.057,1483.752,2309.223,1700.705,2309.223,1943.903z"/>
						
							<linearGradient id="SVGID_00000062887508143191929740000015638658722677052056_" gradientUnits="userSpaceOnUse" x1="-2705.4421" y1="1441.1031" x2="-3173.4456" y2="2473.606" gradientTransform="matrix(1 0 0 1 4835.2354 0)">
							<stop  offset="0" style="stop-color:#AA80F9"/>
							<stop  offset="0.9964" style="stop-color:#6165D7"/>
						</linearGradient>
						<path style="fill:url(#SVGID_00000062887508143191929740000015638658722677052056_);" d="M2374.901,1922.933
							c0,243.198-190.167,434.51-433.221,427.046c-252.947-7.768-465.685-226.226-465.685-487.648
							c0-261.423,212.737-451.196,465.685-424.858C2184.735,1462.782,2374.901,1679.735,2374.901,1922.933z"/>
						
							<linearGradient id="SVGID_00000046323018824011582500000012510850986089107637_" gradientUnits="userSpaceOnUse" x1="-3200.0544" y1="2355.4294" x2="-2956.2217" y2="1968.165" gradientTransform="matrix(1 0 0 1 4835.2354 0)">
							<stop  offset="0" style="stop-color:#AA80F9"/>
							<stop  offset="0.9964" style="stop-color:#6165D7"/>
						</linearGradient>
						<path style="fill:url(#SVGID_00000046323018824011582500000012510850986089107637_);" d="M2355.824,1921.647
							c0,232.489-181.954,415.067-414.143,407.549c-241.201-7.81-443.714-216.294-443.714-465.383s202.513-430.267,443.714-405.555
							C2173.869,1482.047,2355.824,1689.158,2355.824,1921.647z"/>
						<path style="opacity:0.53;fill:#FFFFFF;" d="M2335.724,1920.292c0,204.155-147.514,367.698-343.743,386.022
							c-16.487,1.551-33.375,2.068-50.493,1.494c-229.2-7.698-421.407-205.936-421.407-442.49
							c0-205.706,145.332-362.816,333.977-385.046c28.264-3.332,57.559-3.677,87.431-0.632
							C2162.36,1501.986,2335.724,1698.961,2335.724,1920.292z"/>
						
							<linearGradient id="SVGID_00000174582897531373452350000009267689443482885258_" gradientUnits="userSpaceOnUse" x1="-3092.3154" y1="1785.3094" x2="-2728.7271" y2="2557.1382" gradientTransform="matrix(1 0 0 1 4835.2354 0)">
							<stop  offset="0" style="stop-color:#AA80F9"/>
							<stop  offset="0.9964" style="stop-color:#6165D7"/>
						</linearGradient>
						<path style="fill:url(#SVGID_00000174582897531373452350000009267689443482885258_);" d="M1991.98,2306.315
							c-16.487,1.551-33.375,2.068-50.493,1.494c-229.2-7.698-421.407-205.936-421.407-442.49
							c0-205.706,145.332-362.816,333.977-385.046c63.708,49.746,120.747,113.394,130.57,188.818
							c16.027,122.929-106.787,179.512-120.343,313.126C1853.139,2092.451,1905.93,2215.266,1991.98,2306.315z"/>
						<g>
							<path style="fill:#F4F7FA;" d="M2076.041,2191.464c-20.064-2.791-83.55-18.834-82.814-108.881l2.164-265.089
								c0.028-3.369-0.173-5.109-3.7-5.277l-215.647-10.267c-3.627-0.172-6.607,1.442-6.681,4.857l-0.308,14.149
								c-0.071,3.259,2.545,6.076,5.991,6.458c20.623,2.3,85.995,12.863,84.672,54.586c-1.581,49.753-4.146,254.933-4.146,254.933
								s-1.553,44.96-77.615,44.575c-3.657-0.02-5.981,2.8-6.054,6.322l-0.377,17.92c-0.076,3.581,1.534,6.521,5.248,6.601
								l298.817,6.46c3.573,0.077,8.367-2.667,8.377-6.179l0.041-14.688C2084.016,2194.723,2079.295,2191.917,2076.041,2191.464z"/>
							<path style="fill:#F4F7FA;" d="M1917.297,1750.53c53.065,2.724,96.11-35.606,96.464-85.322
								c0.352-49.419-41.652-91.922-94.133-95.221c-52.835-3.321-96.688,34.273-97.627,84.266
								C1821.057,1704.551,1863.869,1747.788,1917.297,1750.53z"/>
						</g>
						<g>
							<defs>
								<path id="SVGID_00000122706402791434362650000017750288829833609149_" d="M2295.559,1917.582
									c0,199.529-156.258,356.033-355.43,349.346c-206.634-6.938-379.913-185.647-379.913-398.92
									c0-213.273,173.279-368.619,379.913-347.695C2139.301,1540.481,2295.559,1718.054,2295.559,1917.582z"/>
							</defs>
							<clipPath id="SVGID_00000157993086375923838060000005438710147810710432_">
								<use xlink:href="#SVGID_00000122706402791434362650000017750288829833609149_"  style="overflow:visible;"/>
							</clipPath>
						</g>
					</g>
				</g>
				<g style="clip-path:url(#SVGID_00000118365897346877124030000014565120441466469030_);">
					<path style="fill:#FFFFFF;" d="M1685.472,1333.504c-84.021,0-115.667-120.397-116-121.711c-0.796-3.13,1.095-6.311,4.224-7.106
						c3.122-0.792,6.314,1.096,7.11,4.222c0.335,1.31,34.4,130.729,123.257,110.751c3.156-0.693,6.282,1.276,6.987,4.428
						c0.708,3.149-1.274,6.279-4.424,6.987C1699.234,1332.731,1692.183,1333.504,1685.472,1333.504z"/>
					<path style="fill:#FFFFFF;" d="M1759.662,1314.227c2.303,8.857-8.923,19.441-25.073,23.641
						c-16.151,4.2-31.11,0.424-33.414-8.432c-2.303-8.857,8.923-19.441,25.074-23.641
						C1742.4,1301.595,1757.359,1305.37,1759.662,1314.227z"/>
					<path style="fill:#FFFFFF;" d="M1592.062,1184.967c6.281,24.156-0.859,46.919-15.949,50.843
						c-15.09,3.924-32.414-12.478-38.695-36.634c-6.281-24.156,0.859-46.919,15.949-50.843
						C1568.457,1144.409,1585.781,1160.811,1592.062,1184.967z"/>
				</g>
			</g>
		</g>
		<g>
			<g>
				
					<linearGradient id="SVGID_00000062874447244423766440000010218936221560763274_" gradientUnits="userSpaceOnUse" x1="2409.8494" y1="2031.574" x2="2381.1526" y2="2077.9954">
					<stop  offset="0" style="stop-color:#FFC444"/>
					<stop  offset="0.9964" style="stop-color:#F36F56"/>
				</linearGradient>
				<path style="fill:url(#SVGID_00000062874447244423766440000010218936221560763274_);" d="M2408.345,2078.946
					c2.914-4.515,8.23-14.124,8.57-27.028c0.66-25.074-17.937-44.631-20.437-43.508c-1.346,0.605,0.363,7.952,1.319,11.207
					c1.992,6.779,4.135,7.434,3.956,10.547c-0.369,6.409-9.622,6.657-14.503,15.163c-3.514,6.125-3.795,14.849,0,21.754
					C2393.547,2078.534,2407.746,2078.938,2408.345,2078.946z"/>
				
					<linearGradient id="SVGID_00000018957193480592496710000011922966638521290935_" gradientUnits="userSpaceOnUse" x1="2818.6033" y1="2581.0068" x2="2830.1914" y2="2604.8359">
					<stop  offset="0" style="stop-color:#FFC444"/>
					<stop  offset="0.9964" style="stop-color:#F36F56"/>
				</linearGradient>
				<polygon style="fill:url(#SVGID_00000018957193480592496710000011922966638521290935_);" points="2805.594,2623.549 
					2798.447,2598.952 2828.289,2576.839 2846.891,2569.884 2835.877,2604.299 				"/>
				
					<linearGradient id="SVGID_00000005961475622613764310000008713182331941683380_" gradientUnits="userSpaceOnUse" x1="1539.5377" y1="3187.8325" x2="1539.5377" y2="3113.0757" gradientTransform="matrix(1 0 0 1 1249.563 0)">
					<stop  offset="0" style="stop-color:#FFC444"/>
					<stop  offset="0.9964" style="stop-color:#F36F56"/>
				</linearGradient>
				<path style="fill:url(#SVGID_00000005961475622613764310000008713182331941683380_);" d="M2768.656,3118.937
					c0,0,16.323,41.063,12.027,59.274c17.525-0.343,28.863-2.577,28.863-2.577s-7.044-18.727-8.418-28.005
					c-1.857-12.535-1.719-32.816-1.719-32.816L2768.656,3118.937z"/>
				<path style="fill:#26264F;" d="M2588.729,3214.979c1.056,1.274,2.929,3.936,3.086,7.543c0.085,1.959-0.363,3.572-0.927,5.054
					c-2.783,7.323-7.154,8.29-11.871,16.061c-2.881,4.748-2.337,6.18-4.978,8.323c-3.48,2.825-7.69,2.986-11.339,3.028
					c-6.166,0.071-15.045-0.149-26.223-1.481c5.858-7.55,12.087-15.219,18.712-22.963c2.906-3.396,5.807-6.712,8.699-9.95
					l17.223-5.819C2583.652,3214.843,2586.191,3214.911,2588.729,3214.979z"/>
				
					<linearGradient id="SVGID_00000007425311916520019850000004883070332133565335_" gradientUnits="userSpaceOnUse" x1="1311.6786" y1="3209.1375" x2="1311.6786" y2="3119.0437" gradientTransform="matrix(1 0 0 1 1249.563 0)">
					<stop  offset="0" style="stop-color:#FFC444"/>
					<stop  offset="0.9964" style="stop-color:#F36F56"/>
				</linearGradient>
				<path style="fill:url(#SVGID_00000007425311916520019850000004883070332133565335_);" d="M2574.407,3131.359
					c0,0-9.845,51.367,2.682,65.751c10.671,14.383-5.154,4.124-5.154,4.124l-18.899,16.494l-11.339,19.587
					c0,0,10.438-50.276,7.653-70.228c-2.783-19.951-4.175-33.407-4.175-33.407L2574.407,3131.359z"/>
				
					<linearGradient id="SVGID_00000127034543304475279970000016122809542685426854_" gradientUnits="userSpaceOnUse" x1="1261.2771" y1="2855.2336" x2="1556.0316" y2="2855.2336" gradientTransform="matrix(1 0 0 1 1249.563 0)">
					<stop  offset="0" style="stop-color:#311944"/>
					<stop  offset="1" style="stop-color:#893976"/>
				</linearGradient>
				<path style="fill:url(#SVGID_00000127034543304475279970000016122809542685426854_);" d="M2537.287,2569.468
					c0,0-26.447,23.663-26.447,121.101c0,97.438,12.528,309.016,12.528,309.016l20.047,151.479c0,0,20.786,0.74,34.705-3.436
					c12.528-57.071,32.942-153.612,23.198-234.345c-4.176-87.695,34.799-197.66,34.799-197.66s33.408,111.358,57.071,167.036
					c23.664,55.678,68.716,230.105,72.891,242.634c27.69,2.51,39.516-4.812,39.516-4.812s-17.754-187.712-34.457-258.702
					c-16.703-70.991-15.312-242.202-43.152-290.921C2665.349,2545.805,2537.287,2569.468,2537.287,2569.468z"/>
				
					<linearGradient id="SVGID_00000119818819693975514130000002909313802607086258_" gradientUnits="userSpaceOnUse" x1="1251.9089" y1="2635.5095" x2="1464.2639" y2="2992.1841" gradientTransform="matrix(1 0 0 1 1249.563 0)">
					<stop  offset="0" style="stop-color:#311944"/>
					<stop  offset="1" style="stop-color:#893976"/>
				</linearGradient>
				<path style="fill:url(#SVGID_00000119818819693975514130000002909313802607086258_);" d="M2537.288,2569.468
					c0,0-26.448,23.663-26.448,121.101c0,97.438,12.528,309.016,12.528,309.016l20.047,151.479c0,0,20.786,0.74,34.705-3.436
					c12.528-57.071,32.942-153.612,23.198-234.345c-4.176-87.695,34.799-197.66,34.799-197.66s33.408,111.358,57.071,167.036
					c23.664,55.678,68.717,230.106,72.892,242.634c27.688,2.51,39.515-4.812,39.515-4.812s-17.754-187.712-34.457-258.702
					c-16.704-70.991-15.312-242.202-43.151-290.922C2665.349,2545.805,2537.288,2569.468,2537.288,2569.468z"/>
				
					<linearGradient id="SVGID_00000106110799522923565570000012213357642299729330_" gradientUnits="userSpaceOnUse" x1="1335.5072" y1="2585.7373" x2="1547.8621" y2="2942.4116" gradientTransform="matrix(1 0 0 1 1249.563 0)">
					<stop  offset="0" style="stop-color:#311944"/>
					<stop  offset="1" style="stop-color:#893976"/>
				</linearGradient>
				<path style="opacity:0.25;fill:url(#SVGID_00000106110799522923565570000012213357642299729330_);" d="M2674.677,2748.002
					c8.246,53.604,24.74,82.469,65.974,119.579c32.987,24.741,8.247,78.346,20.618,119.579c4.123,12.37,16.493,24.74,20.616,37.111
					c15.344,30.689,1.012,68.226,7.97,100.72c10.827-1.495,15.739-4.507,15.739-4.507s-17.754-187.712-34.457-258.702
					c-16.704-70.991-15.312-242.203-43.151-290.922c-62.638-25.054-190.699-1.391-190.699-1.391s-26.448,23.663-26.448,121.101
					c0,7.906,0.084,16.573,0.235,25.808c27.457,24.299,83.611,29.698,118.245,2.762c2.092-1.57,4.318-2.531,6.617-2.998
					c0.107-0.309,0.18-0.517,0.18-0.517s0.058,0.193,0.146,0.482C2652.024,2713.231,2671.101,2733.699,2674.677,2748.002z"/>
				<g>
					<path style="fill:#26264F;" d="M2776.389,3193.793c0,0-4.069,0-3.73,5.255c0.34,5.254-1.832,23.33,18.846,24.177
						c20.679,0.847,23.868-1.464,24.546-1.464s-5.424-17.29-5.424-17.29l-6.611-8.474l-17.797-1.864L2776.389,3193.793z"/>
					<path style="fill:#444B8C;" d="M2822.24,3211.937c-0.441-4.365-2.883-11.236-5.341-16.765
						c-3.651-8.214-0.654-11.288-4.143-18.769c-1.206-2.587-2.379-5.04-4.928-7.47c-0.587-0.56-6.292-5.832-14.602-5.564
						c-1.635,0.052-4.153,0.162-6.874,1.612c-3.206,1.709-4.813,4.276-6.185,6.529c-2.156,3.542-1.661,4.628-4.982,14.776
						c-0.267,0.813-0.851,2.585-1.301,5.029c-0.344,1.87-0.484,3.439-0.545,4.512c5.424,0,26.273,0.848,30.678,4.069
						c4.408,3.22,6.611,8.644,6.611,14.069c0,5.423,2.712,7.966,5.424,7.796C2818.475,3221.61,2823.289,3217.123,2822.24,3211.937z"
						/>
				</g>
				<path style="fill:#444B8C;" d="M2571.763,3189.895c4.659,0.073,8.075,3.78,10.653,12.713
					c2.577,8.935,14.948,16.838,0.516,14.947c-14.432-1.889-24.913,18.555-30.066,26.116c-5.155,7.559-18.991,14.276-18.647,6.888
					c0.343-7.387,6.448-10.84,8.166-18.399C2544.102,3224.6,2561.138,3189.728,2571.763,3189.895z"/>
				<path style="fill:#FFFFFF;" d="M2816.547,2581.229c3.425-9.521,24.799-72.067-9.747-129.107
					c-28.281-46.695-77.217-61.929-84.194-63.99c-42.475-12.543-63.763,3.571-77.165-11.26
					c-22.742-25.168,3.019-110.897,52.849-128.068c56.169-19.355,123.551,55.072,150.857,103.958
					c35.823,64.136,27.006,127.879,24.934,141.008c-5.387,34.115-17.91,60.137-27.19,76.114
					C2836.776,2573.666,2826.662,2577.448,2816.547,2581.229z"/>
				<path style="fill:#FFFFFF;" d="M2669.866,2236.701c-50.138-2.005-88.804-1.21-110.645,20.616
					c-23.07,23.055,0.243,49.082-4.766,109.387c-7.668,92.326-66.502,114.885-70.929,208.551
					c-1.492,31.56,3.849,57.355,7.997,72.889c12.912,16.081,34.045,38.773,65.234,57.749
					c45.386,27.613,71.706,22.798,136.886,40.638c106.616,29.178,116.102,63.927,168.968,55.075
					c53.429-8.947,100.306-53.911,94.644-78.603c-3.392-14.787-24.93-10.598-49.728-33.152
					c-31.96-29.067-19.635-56.813-43.935-88.048c-34.903-44.865-83.527-17.439-113.271-56.323
					c-30.087-39.334-18.153-116.844,7.208-159.093c16.565-27.595,23.659-59.934,37.755-88.868c1.172-2.404,2.531-6.346,1.932-11.274
					c-2.288-18.844-33.699-29.066-57.49-36.564C2703.441,2238.247,2673.99,2236.865,2669.866,2236.701z"/>
				
					<linearGradient id="SVGID_00000161619199706332683540000011322770168950180785_" gradientUnits="userSpaceOnUse" x1="1390.1014" y1="2193.7886" x2="1433.6288" y2="2262.9719" gradientTransform="matrix(1 0 0 1 1249.563 0)">
					<stop  offset="0.0036" style="stop-color:#E38DDD"/>
					<stop  offset="1" style="stop-color:#9571F6"/>
				</linearGradient>
				<path style="fill:url(#SVGID_00000161619199706332683540000011322770168950180785_);" d="M2627.635,2234.628l9.889-3.043
					c0,0,2.586,13.387,34.381,15.06c17.647,0,29.056-9.888,29.056-9.888l6.756,4.926c0,0-14.823,18.517-38.398,18.046
					C2638.893,2259.121,2627.635,2234.628,2627.635,2234.628z"/>
				<g>
					
						<linearGradient id="SVGID_00000175312725147505076820000002728633950938763928_" gradientUnits="userSpaceOnUse" x1="1442.6505" y1="2183.1738" x2="1394.8135" y2="2260.5574" gradientTransform="matrix(1 0 0 1 1249.563 0)">
						<stop  offset="0" style="stop-color:#FFC444"/>
						<stop  offset="0.9964" style="stop-color:#F36F56"/>
					</linearGradient>
					<path style="fill:url(#SVGID_00000175312725147505076820000002728633950938763928_);" d="M2647.77,2193.905
						c1.906-14.704,13.53-24.125,16.066-26.141c10.619-8.441,12.781-9.291,16.428-9.984l4.981-0.755c0,0,0.268,0.007,0.544,0.023
						c2.916,0.176,11.655,3.588,13.245,4.705c5.076,3.57,1.337,28.848-14.05,60.289c-0.605,2.662-1.21,5.325-1.815,7.987
						c13.412,2.358,16.734,4.777,16.84,6.709c0.228,4.185-14.456,9.524-28.066,9.871c-17.067,0.435-35.188-6.907-34.842-12.387
						c0.141-2.219,3.36-4.955,15.752-7.642c1.938-2.722,3.873-5.446,5.809-8.168
						C2656.905,2216.279,2646.366,2204.736,2647.77,2193.905z"/>
					
						<linearGradient id="SVGID_00000117649035380753009440000002625695551360355755_" gradientUnits="userSpaceOnUse" x1="746.3121" y1="1758.1807" x2="700.0192" y2="1833.0664" gradientTransform="matrix(0.9717 -0.2361 0.2361 0.9717 1534.775 640.4756)">
						<stop  offset="0" style="stop-color:#FFC444"/>
						<stop  offset="0.9964" style="stop-color:#F36F56"/>
					</linearGradient>
					<path style="fill:url(#SVGID_00000117649035380753009440000002625695551360355755_);" d="M2668.868,2188.368
						c3.871-2.317,6.82,2.663,4.996,7.015c-1.823,4.353-7.95,7.076-11.667,4.481
						C2658.48,2197.27,2663.659,2191.485,2668.868,2188.368z"/>
					
						<linearGradient id="SVGID_00000010996183029812025550000009708758083700171916_" gradientUnits="userSpaceOnUse" x1="2661.0605" y1="1852.6497" x2="3061.9714" y2="2489.8696">
						<stop  offset="0" style="stop-color:#444B8C"/>
						<stop  offset="0.9964" style="stop-color:#26264F"/>
					</linearGradient>
					<path style="fill:url(#SVGID_00000010996183029812025550000009708758083700171916_);" d="M3170.606,2188.294
						c-50.955-55.293-169.513-40.129-235.273,4.278c-30.556,20.635-46.24,45.008-82.345,47.054
						c-27.448,1.555-71.113-8.765-94.109-38.499c-2.897-3.746-14.485-19.457-31.885-39.268c-7.671-8.734-15.3-16.93-27.124-18.784
						c-3.004-0.471-12.998-2.097-19.604,4.357c-5.354,5.229-6.667,14.323-5.084,20.876c0.948,3.919,2.172,4.332,1.998,6.898
						c-0.49,7.208-13.62,10.348-12.889,13.978c0.521,2.594,7.355,1.645,8.532,4.901c1.289,3.567-6.215,6.638-9.44,15.611
						c-6.041,4.044-9.858,14.107-11.178,27.573c-1.941,19.794,0.048,35.877,3.799,47.991
						c18.058,58.322,30.976,100.039,62.237,123.334c41.389,30.842,78.657,2.365,183.941-2.138
						c144.165-6.167,180.108,42.699,231.923,9.27C3198.802,2373.984,3223.509,2245.702,3170.606,2188.294z"/>
				</g>
				<path style="fill:#FFFFFF;" d="M2414.437,2075.433c-1.286,12.062-5.634,65.424,31.173,110.479
					c34.392,42.099,83.098,50.508,92.152,51.876c43.792,6.617,62.678-12.256,77.981,0.604
					c25.969,21.822,12.172,110.267-34.843,134.091c-52.995,26.854-129.922-37.662-163.654-82.356
					c-44.257-58.635-44.238-122.985-43.979-136.274c0.67-34.531,9.518-62.021,16.526-79.116c2.879-0.867,7.26-1.827,12.634-1.64
					C2407.546,2073.276,2411.678,2074.429,2414.437,2075.433z"/>
				
					<linearGradient id="SVGID_00000124862649357475374610000003145820825110742436_" gradientUnits="userSpaceOnUse" x1="2507.5728" y1="2268.3882" x2="2735.342" y2="2736.7593">
					<stop  offset="0" style="stop-color:#FFC444"/>
					<stop  offset="0.9964" style="stop-color:#F36F56"/>
				</linearGradient>
				<path style="opacity:0.3;fill:url(#SVGID_00000124862649357475374610000003145820825110742436_);" d="M2864.216,2766.316
					c-12.82-13.144,1.292-39.648-17.645-59.353c-17.576-18.288-37.475-3.513-65.77-19.249c-36.29-20.184-26.29-57.134-60.957-76.999
					c-24.928-14.285-36.643,1.073-75.395-6.417c-38.687-7.477-85.805-34.148-109.081-81.81
					c-9.89-20.252-13.536-40.385-14.019-58.383c-17.399,31.086-35.448,60.876-37.823,111.151
					c-1.492,31.56,3.849,57.355,7.997,72.889c12.912,16.081,34.045,38.773,65.234,57.749
					c45.386,27.613,71.706,22.799,136.886,40.638c106.616,29.178,116.102,63.927,168.968,55.075
					c34.147-5.718,65.544-26.147,82.333-46.593C2895.673,2776.948,2873.52,2775.856,2864.216,2766.316z"/>
			</g>
		</g>
	</g>
</g>
</svg>
