<?xml version="1.0" encoding="utf-8"?>
<!-- Generator: Adobe Illustrator 27.5.0, SVG Export Plug-In . SVG Version: 6.00 Build 0)  -->
<svg version="1.1" id="Layer_1" xmlns="http://www.w3.org/2000/svg" xmlns:xlink="http://www.w3.org/1999/xlink" x="0px" y="0px"
	 viewBox="0 0 2000 2000"  xml:space="preserve">
<g>
	<path style="fill:#C5DDF9;" d="M271.856,1855.293c-132.014-158.043-141.11-415.962-9.097-665.376
		c132.013-249.413-248-571.286,120-887.286c211.98-182.027,788.815-247.839,1223.54,248.241
		c367.61,419.495,228.461,1108.877-30.119,1304.42C738.636,1855.293,271.856,1855.293,271.856,1855.293z"/>
	<path style="opacity:0.25;fill:#FFFFFF;" d="M201.146,467.655c37.629-5.669,75.867-0.917,113.684-4.476
		c37.807-3.558,75.026-15.509,109.102-35.032c9.434-5.405,18.755-11.439,28.977-14.261c13.728-3.79,28.058-1.53,42.151-0.856
		c27.466,1.314,55.139-3.563,81.061-14.287c8.754-3.622,18.522-9.611,19.965-20.358c1.84-13.72-10.915-23.53-22.065-28.236
		c-11.15-4.706-24.533-10.511-26.94-24.11c-1.083-6.111,0.371-13.015-2.452-18.308c-1.928-3.615-5.427-5.58-8.767-7.266
		c-37.022-18.694-77.264-25.998-117.314-27.956c-8.775-0.429-17.827-0.059-26.96,0.406c47.953-32.228,98.75-59.302,151.886-80.467
		c25.407,1.582,50.88,1.962,76.394,1.057c53.395-1.895,110.792-8.01,156.384,24.614c5.92,4.236,11.887,9.643,13.836,17.444
		c4.811,19.254-16.177,32.402-32.775,37.315c-2.618,13.346,12.42,20.925,23.926,23.313c37.098,7.698,73.636,19.112,109.081,34.076
		c25.133,10.611,53.036,27.56,57.985,58.324c3.481,21.636-6.444,44.015-21.079,57.821c-14.636,13.806-33.268,20.366-51.712,24.556
		c-62.796,14.264-127.728,4.474-191.404,11.592c-8.494,0.95-17.37,2.38-24.283,8.239c-10.934,9.266-13.869,26.644-21.515,39.672
		c-15.183,25.868-45.622,30.595-72.373,32.306c-59.571,3.807-119.294,4.377-178.909,1.708c-15.023-0.673-30.327-1.517-44.836,3.101
		c-15.253,4.854-28.632,15.422-42.764,23.717c-33.605,19.725-71.471,26.578-108.624,33.23
		c-38.12,6.825-76.564,13.698-115.037,12.601c30.092-59.286,65.194-114.663,104.585-165.385
		C187.25,470.128,194.175,468.706,201.146,467.655z"/>
	<path style="opacity:0.25;fill:#FFFFFF;" d="M574.808,860.718c5.844-9.414,14.783-15.436,23.636-20.719
		c130.097-77.632,285.225-50.674,430.758-64.241c37.262-3.473,75.061-9.984,108.625-29.263
		c39.193-22.511,73.357-62.464,116.92-65.643c30.616-2.234,71.185,9.1,84.338-23.375c3.239-7.996,3.062-17.165,4.043-25.94
		c13.353-119.399,206.537-84.688,225.381-83.658c46.154,2.524,92.309,5.048,138.463,7.571
		c45.656,62.733,84.922,132.046,116.638,206.543c-43.397-0.476-86.796-0.805-130.19-1.289c-21.406-0.239-43.209-0.414-63.68,6.922
		c-27.906,10.002-51.266,33.226-79.094,43.524c-21.376,7.91-44.229,7.776-66.645,7.569c-81.098-0.748-162.195-1.495-243.294-2.244
		c-15.314-0.141-31.065-0.193-45.327,6.344c-14.004,6.417-25.39,18.643-38.04,28.167c-41.753,31.432-94.384,31.949-143.116,42.925
		c-15.468,3.484-32.502,9.637-39.909,25.927c-12.337,27.134,11.012,58.187,34.566,71.732c94.538,54.362,210.944,1.625,311.55,38.085
		c26.903,9.75,51.857,25.644,78.076,37.684c85.99,39.486,181.686,36.021,273.533,24.696c77.742-9.584,155.807-24.388,233.656-21.942
		c5.841,47.682,8.876,96.424,8.876,146c0,15.545-0.331,30.998-0.919,46.373c-43.434,1.146-86.867,2.291-130.301,3.438
		c-82.039,2.163-164.253,4.322-246.042-3.455c-45.824-4.357-92.018-12.012-134.517-32.561
		c-25.627-12.392-49.646-29.35-76.002-39.422c-46.345-17.712-96.381-12.988-145.067-15.85
		c-75.19-4.421-148.591-27.275-221.333-50.006c-112.075-35.02-388.21-87.453-395.295-220.176
		C564.283,889.195,567.143,873.067,574.808,860.718z"/>
	<g>
		<path style="fill:#F7CC7F;" d="M1718.369,1855.998c-0.006,5.709-4.639,10.333-10.348,10.328l-1534.741-1.434
			c-5.71-0.006-10.333-4.639-10.329-10.348l0,0c0.005-5.71,4.639-10.335,10.348-10.329l1534.741,1.434
			C1713.75,1845.654,1718.375,1850.287,1718.369,1855.998L1718.369,1855.998z"/>
	</g>
	<g>
		<g>
			<g>
				<path style="fill:#F79C8D;" d="M693.423,1840.075c-7.488-5.519-13.529-9.166-37.448-20.762c-1.56-0.756-7.239-4.376-9.288-5.63
					c-5.192-3.178-10.408-8.181-14.898-13.192c-4.286-4.783-6.33-20.117-7.295-32.338c2.462-27.295,40.879-427.166,40.879-497.364
					c0-49.67-5.591-138.802-5.591-138.802l-19.97-11.332l-57.963,200.901l-0.641,151.071c0,0-12.237,45.834-13.96,72.175
					c-1.722,26.341,23.523,240.255,23.523,240.255h0.001c0.001,7.646-0.299,14.561-1.149,18.88
					c-1.573,7.997-6.65,22.11-2.631,29.636c4.018,7.527,8.176,6.183,8.176,6.183l94.529,4.388
					C695.37,1844.235,697.998,1843.447,693.423,1840.075z"/>
				<path style="fill:#F79C8D;" d="M515.065,1116.479c0,0-36.168,54.562-44.779,99.717c-8.611,45.155,19.495,187.089-3.55,244.051
					c-7.854,19.413-45.688,81.854-50.854,123.246c-5.167,41.392-27.107,159.555-27.107,159.555h0.002
					c-2.72,12.542-6.98,28.055-12.512,35.268c-3.386,4.414-9.569,9.996-13.627,17.974c-3.304,12.856-4.332,26.037,0.993,35.89
					c1.308,2.42,2.65,6.163,8.099,7.849c16.132,4.988,29.355,0.406,36.225-15.078c1.168-2.633,4.069-4.546,5.087-7.718
					c2.326-7.247,4.28-16.47,4.751-26.583c0.718-15.411,3.128-27.656,5.697-36.713l0,0l115.607-283.595l83.697-244.745
					l21.44-126.051L515.065,1116.479z"/>
				<path style="fill:#86B1F2;" d="M413.042,1817.231c-25.022,4.573-41.671-10.097-50.334-21.08
					c-6.36,12.441-9.462,31.006-4.784,41.227c4.12,9.003,16.161,8.744,25.642,9.097c10.023,0.374,17.779-5.208,22.752-13.956
					C408.641,1828.434,411.036,1823.346,413.042,1817.231z"/>
				<path style="fill:#86B1F2;" d="M646.673,1813.676c-27.546,7.084-47.413,2.268-58.803-2.336
					c-1.328,1.345-7.326,18.811-5.261,24.848c2.529,7.391,6.13,9.062,9.31,9.146c25.16,0.66,92.162,1.563,111.346,1.814
					c2.68,0.034,4.157-3.103,2.434-5.164C700.943,1836.288,648.726,1814.933,646.673,1813.676z"/>
			</g>
			<g>
				<path style="fill:#B75742;" d="M660.31,713.1c-5.228-24.691-10.625-49.471-35.159-67.256
					c-19.854-14.392-41.189-18.505-63.808-10.301c-64.088,23.243-29.617,74.103-109.146,128.31
					c-24.712,16.843-34.092,22.716-51.826,45.162c-24.824,31.417-38.391,73.574-25.913,108.277
					c25.805,71.771,105.763,92.505,147.592,77.288c77.856-28.323,142.719-127.062,147.03-154.007
					C673.693,811.734,663.675,728.994,660.31,713.1z"/>
				<path style="fill:#FFFFFF;" d="M672.741,907.852c18.844,8.711,53.63,19.693,53.63,19.693l18.753-59.31
					c-109.735-62.422-101.125-52.349-183.486-51.123c-65.796,0.939-93.371-11.625-150.03,141.327c0,0,43.131,19.378,58.574,25.598
					c6.642-18.906,18.395-48.681,25.393-27.184c10.573,32.477,18.571,57.331,23.762,91.085c1.751,10.62,4.241,25.931,3.558,43.9
					c-11.73,18.028-51.726,81.482-59.349,119.921c-8.954,45.154-1.121,190.51-18.348,249.683c0,0,118.46,15.257,229.228,6.887
					c4.259-200.783-4.804-318.255-10.424-369.547c-1.047-53.496-1.977-123.419,0.225-127.052
					c3.972-6.557,20.739-27.737,6.472-59.414C668.176,906.715,668.856,906.056,672.741,907.852z"/>
				<g>
					<path style="fill:#184655;" d="M545.529,942.386c-0.064-0.266-6.337-26.867-7.674-55.818
						c-1.839-39.789,6.08-64.912,23.536-74.669c13.72-7.669,29.023-8.357,41.988-1.884c16.084,8.03,19.81,26.499,23.117,43.82
						c4.135,21.622,3.517,53.561,3.983,74.054l-6.486,0.148c-0.464-20.385,0.141-52.005-3.869-72.984
						c-2.869-15.036-5.935-32.389-19.644-39.233c-11.174-5.578-23.932-4.96-35.924,1.744
						c-29.76,16.634-20.522,90.669-12.716,123.319L545.529,942.386z"/>
				</g>
				<path style="fill:#F7A491;" d="M569.74,756.564c0,0-5.019,40.517-7.976,54.582c-3.094,14.718-7.75,61.069,22.77,68.595
					c30.52,7.526,21.088-50.433,21.593-65.398c0.503-14.965,9.153-67.148,9.153-67.148L569.74,756.564z"/>
				<path style="fill:#F47458;" d="M568.08,769.492c0.312,0.186,0.601,0.386,0.918,0.568c16.867,9.671,31.55,8.145,42.568,0.618
					c1.968-12.952,3.715-23.485,3.715-23.485l-45.54,9.371C569.741,756.564,569.072,761.963,568.08,769.492z"/>
				<path style="fill:#F7A491;" d="M578.916,651.056c0,0-17.885,5.029-28.196,22.788c-10.313,17.761-15.457,68.769,22.503,90.533
					c37.962,21.765,64.907-13.106,63.758-45.73C635.833,686.024,626.744,642.871,578.916,651.056z"/>
				<path style="fill:#F7A491;" d="M645.368,704.648c0.422,8.479-3.205,15.554-8.102,15.802c-4.895,0.248-9.207-6.426-9.628-14.905
					c-0.421-8.479,3.206-15.554,8.103-15.801C640.637,689.495,644.947,696.169,645.368,704.648z"/>
				<path style="fill:#B75742;" d="M584.291,649.714c0,0-20.465,53.348-40.491,59.035c-20.029,5.686-18.429,31.928-18.429,31.928
					s-2.565-60.658,15.73-75.526C559.396,650.282,584.291,649.714,584.291,649.714z"/>
				<path style="fill:#FFFFFF;" d="M556.562,715.326l4.186,0.94c22.586,5.08,69.269-9.051,69.269-9.051s-2.163,25.952,3.243,34.448
					c0,0-6.666,23.019-27.984,29.353c-21.32,6.333-51.262-20.316-51.262-20.316S562.588,731.081,556.562,715.326z"/>
				<g>
					<path style="fill:#FFFFFF;" d="M555.586,751.558c-10.708-3.894-22.865-46.051-12.539-44.642
						c3.449,0.471,7.843,3.174,13.059,8.035c2.104,1.959,3.8,3.775,4.853,4.952c2.206,2.467,2.206,2.695,2.206,3.107h-2.317
						c0,0.307,0.124,0.513,0.138,0.535c-0.907-1.442-11.517-13.414-18.252-14.333c-0.205-0.027-0.688-0.095-1.041,1.328
						c-1.939,7.853,6.727,35.946,14.685,38.84L555.586,751.558z"/>
				</g>
				<path style="fill:#FFFFFF;" d="M633.3,689.527l-5.369,19.31l1.854,1.622l5.957-20.715
					C635.741,689.744,634.728,689.334,633.3,689.527z"/>
				<path style="fill:#F7A491;" d="M552.387,719.187c3.09,8.339,1.064,16.807-4.524,18.913c-5.587,2.105-12.619-2.947-15.708-11.286
					c-3.089-8.339-1.063-16.807,4.523-18.913C542.265,705.795,549.298,710.847,552.387,719.187z"/>
				<g>
					<path style="fill:#184655;" d="M599.581,1021.955c-5.36-18.2-18.42-70.696-7.323-86.571
						c11.562-15.906,42.691-15.692,57.379-10.928c12.735,3.827,15.232,21.872,15.515,35.104c0.299,16.382-3.242,43.336-5.777,59.381
						l-5.436-0.742c1.661-15.418,2.986-28.953,3.735-43.957c0.536-11.439,0.797-38.481-10.155-42.069
						c-11.94-3.866-36.634-3.648-46.556,5.9c-1.263,1.211-2.202,2.499-2.626,3.289c-6.793,12.565,3.77,65.229,6.625,79.218
						L599.581,1021.955z"/>
				</g>
				<path style="fill:#184655;" d="M565.521,951.443c0,8.703-6.778,15.756-15.139,15.756c-8.36,0-15.137-7.054-15.137-15.756
					c0-8.702,6.777-15.757,15.137-15.757C558.743,935.687,565.521,942.742,565.521,951.443z"/>
				<path style="fill:#9BC1F9;" d="M557.878,951.443c0,4.309-3.355,7.801-7.496,7.801c-4.138,0-7.494-3.492-7.494-7.801
					c0-4.308,3.355-7.801,7.494-7.801C554.523,943.643,557.878,947.135,557.878,951.443z"/>
				<path style="fill:#24B390;" d="M609.819,1017.627c1.758,5.089-1.936,10.318-7.322,10.36c-3.26,0.026-6.258-2.091-7.325-5.171
					c-1.762-5.092,1.938-10.328,7.327-10.366C605.76,1012.428,608.755,1014.545,609.819,1017.627z"/>
				<path style="fill:#24B390;" d="M664.93,1016.212c1.762,5.09-1.931,10.323-7.318,10.366c-3.261,0.025-6.26-2.09-7.326-5.172
					c-1.761-5.091,1.936-10.322,7.321-10.365C660.866,1011.016,663.862,1013.132,664.93,1016.212z"/>
				<g>
					<g>
						<g>
							<path style="fill:#F47458;" d="M619.079,874.128l-80.833-7.327c-4.381-0.397-8.255,2.833-8.652,7.214l-4.852,53.54
								c-0.398,4.381,2.832,8.255,7.214,8.652l80.833,7.327c4.382,0.397,8.255-2.833,8.652-7.214l4.853-53.54
								C626.69,878.399,623.46,874.525,619.079,874.128z"/>
							<path style="fill:#B75742;" d="M538.713,930.53l-0.957-0.087c-1.458-0.132-2.534-1.422-2.402-2.881l4.115-45.407
								c0.133-1.459,1.423-2.534,2.881-2.402l0.957,0.086c1.458,0.132,2.534,1.422,2.402,2.881l-4.116,45.407
								C541.461,929.586,540.171,930.662,538.713,930.53z"/>
							<path style="fill:#B75742;" d="M555.479,932.049l-0.957-0.086c-1.458-0.132-2.534-1.422-2.401-2.881l4.115-45.406
								c0.132-1.459,1.422-2.535,2.881-2.402l0.956,0.087c1.459,0.132,2.534,1.422,2.402,2.88l-4.116,45.407
								C558.227,931.106,556.938,932.181,555.479,932.049z"/>
							<path style="fill:#B75742;" d="M572.246,933.569l-0.957-0.087c-1.458-0.132-2.534-1.422-2.401-2.88l4.116-45.407
								c0.132-1.458,1.421-2.534,2.88-2.401l0.956,0.086c1.459,0.132,2.534,1.422,2.402,2.88l-4.116,45.407
								C574.994,932.625,573.704,933.701,572.246,933.569z"/>
							<path style="fill:#B75742;" d="M589.012,935.088l-0.956-0.087c-1.458-0.132-2.534-1.422-2.401-2.881l4.115-45.406
								c0.132-1.459,1.422-2.534,2.88-2.402l0.956,0.086c1.46,0.132,2.535,1.422,2.402,2.88l-4.116,45.407
								C591.76,934.145,590.471,935.22,589.012,935.088z"/>
							<path style="fill:#B75742;" d="M605.778,936.608l-0.956-0.087c-1.459-0.132-2.534-1.422-2.402-2.88l4.116-45.407
								c0.132-1.458,1.421-2.534,2.88-2.401l0.957,0.087c1.458,0.132,2.534,1.421,2.401,2.88l-4.116,45.407
								C608.527,935.664,607.237,936.74,605.778,936.608z"/>
							<path style="fill:#46A891;" d="M620.494,1190.424l-141.093-12.789c-1.613-0.146-2.802-1.572-2.656-3.184l0.478-5.272
								c0.147-1.613,1.572-2.802,3.186-2.655l141.093,12.788c1.613,0.146,2.802,1.572,2.656,3.185l-0.478,5.272
								C623.533,1189.38,622.106,1190.568,620.494,1190.424z"/>
							<path style="fill:#50BFA5;" d="M643.987,959.727l-8.676-0.786l0.853-9.415c0.175-1.938,1.889-3.367,3.827-3.191v-0.001
								c1.938,0.176,3.652-1.252,3.827-3.191l1.329-14.662c0.176-1.938-1.253-3.652-3.191-3.828L506.656,912.39
								c-1.938-0.175-3.651,1.253-3.827,3.191l-1.329,14.663c-0.176,1.938,1.253,3.652,3.191,3.827
								c1.938,0.176,3.366,1.89,3.191,3.828l-0.854,9.414l-8.675-0.786c-14.267-1.293-26.881,9.224-28.174,23.491l-15.744,173.708
								c-1.294,14.266,9.224,26.88,23.49,28.173l145.634,13.2c14.267,1.293,26.88-9.225,28.173-23.491L667.477,987.9
								C668.771,973.634,658.254,961.02,643.987,959.727z"/>
							<path style="fill:#FFFFFF;" d="M628.482,1102.203l-140.494-12.733c-5.134-0.465-8.918-5.005-8.453-10.138l7.15-78.888
								c0.465-5.134,5.004-8.918,10.138-8.453l140.495,12.734c5.134,0.465,8.919,5.004,8.454,10.139l-7.15,78.887
								C638.156,1098.885,633.617,1102.669,628.482,1102.203z"/>
							<g>
								<path style="fill:#B75742;" d="M523.063,1053.141l-5.87-0.533l-5.976-12.438c-0.546-1.154-1.088-2.146-1.624-2.974
									c-0.537-0.828-1.102-1.516-1.692-2.063c-0.592-0.547-1.245-0.966-1.958-1.257c-0.713-0.292-1.53-0.479-2.45-0.563
									l-4.051-0.367l-1.622,17.905l-4.932-0.446l3.815-42.094l12.563,1.139c1.84,0.167,3.517,0.551,5.03,1.152
									c1.515,0.601,2.801,1.422,3.861,2.465c1.06,1.043,1.849,2.295,2.368,3.752c0.52,1.457,0.693,3.125,0.523,5.004
									c-0.133,1.468-0.476,2.793-1.026,3.976c-0.551,1.184-1.277,2.218-2.176,3.103c-0.899,0.886-1.951,1.613-3.157,2.185
									c-1.206,0.571-2.54,0.979-4.002,1.221l-0.011,0.117c0.676,0.377,1.255,0.79,1.737,1.238
									c0.482,0.447,0.934,0.967,1.354,1.558c0.42,0.591,0.828,1.255,1.225,1.99c0.396,0.737,0.837,1.591,1.322,2.562
									L523.063,1053.141z M501.23,1013.222l-1.383,15.264l6.692,0.606c1.232,0.111,2.39,0.029,3.47-0.248
									c1.08-0.276,2.034-0.729,2.86-1.354c0.826-0.625,1.5-1.422,2.022-2.392c0.521-0.968,0.839-2.079,0.953-3.331
									c0.203-2.25-0.366-4.073-1.71-5.468c-1.343-1.394-3.394-2.216-6.154-2.466L501.23,1013.222z"/>
								<path style="fill:#B75742;" d="M563.737,1056.826l-6.018-0.545l-8.226-16.993c-0.25-0.515-0.509-1.239-0.78-2.172
									l-0.117-0.011c-0.237,0.434-0.632,1.098-1.187,1.994l-11.44,15.211l-6.047-0.549l16.007-19.887l-11.077-22.104l6.046,0.548
									l7.26,15.574c0.478,1.029,0.889,2.053,1.23,3.07l0.118,0.011c0.743-1.235,1.383-2.202,1.92-2.903l10.283-13.865l5.665,0.514
									l-15.13,19.67L563.737,1056.826z"/>
							</g>
							
								<rect x="573.133" y="1018.02" transform="matrix(-0.9958 -0.0921 0.0921 -0.9958 1109.7604 2091.3389)" style="fill:#9BC1F9;" width="59.972" height="4.103"/>
							
								<rect x="571.294" y="1038.316" transform="matrix(-0.9958 -0.0921 0.0921 -0.9958 1104.2205 2131.6741)" style="fill:#9BC1F9;" width="59.971" height="4.102"/>
							
								<rect x="569.454" y="1058.611" transform="matrix(-0.9958 -0.0921 0.0921 -0.9958 1098.6816 2172.0078)" style="fill:#9BC1F9;" width="59.972" height="4.102"/>
							
								<rect x="490.665" y="1075.357" transform="matrix(-0.9958 -0.0921 0.0921 -0.9958 1016.8543 2201.7222)" style="fill:#9BC1F9;" width="137.086" height="4.102"/>
							<path style="fill:#46A891;" d="M503.236,933.604l138.27,12.532c1.246-0.451,2.185-1.586,2.313-2.993l1.329-14.662
								c0.176-1.938-1.253-3.652-3.191-3.828L506.656,912.39c-1.938-0.175-3.651,1.253-3.827,3.191l-1.329,14.663
								C501.372,931.651,502.092,932.936,503.236,933.604z"/>
						</g>
						<path style="opacity:0.5;fill:#F7CC7F;" d="M643.987,959.727l-8.676-0.786l0.853-9.415c0.175-1.938,1.889-3.367,3.827-3.191
							v-0.001c1.938,0.176,3.652-1.252,3.827-3.191l1.329-14.662c0.176-1.938-1.253-3.652-3.191-3.828l-68.821-6.237
							l-23.563,259.976l73.986,6.707c14.266,1.293,26.88-9.225,28.173-23.491L667.477,987.9
							C668.771,973.634,658.254,961.02,643.987,959.727z"/>
					</g>
					<path style="fill:#F47458;" d="M727.861,1164.857l-105.186-16.008c-9.889-1.504-16.686-10.74-15.18-20.629l29.682-195.049
						c1.504-9.889,10.741-16.686,20.63-15.181l105.185,16.007c9.889,1.505,16.685,10.742,15.18,20.63l-29.682,195.048
						C746.986,1159.565,737.75,1166.361,727.861,1164.857z"/>
					<path style="opacity:0.3;fill:#F47458;" d="M763.523,934.079l-51.098-7.776l-35.131,230.859l51.098,7.775
						c9.596,1.46,18.594-5.365,20.097-15.244l29.688-195.082C779.679,944.731,773.119,935.539,763.523,934.079z"/>
					
						<rect x="578.672" y="1039.312" transform="matrix(0.1505 -0.9886 0.9886 0.1505 -441.0212 1569.5853)" style="opacity:0.5;fill:#F47458;" width="228.324" height="4.224"/>
					<g>
						<path style="fill:#FAE0B2;" d="M740.134,963.101l-13.23-2.115c-3.998-0.64-7.758,2.083-8.398,6.082l0,0
							c-0.639,3.999,2.084,7.758,6.083,8.398l13.23,2.115L740.134,963.101z"/>
						<path style="fill:#50BFA5;" d="M740.134,963.101l-2.315,14.48l13.229,2.116c3.999,0.64,7.758-2.083,8.398-6.083l0,0
							c0.639-3.999-2.084-7.758-6.083-8.397L740.134,963.101z"/>
						<path style="opacity:0.3;fill:#9BC1F9;" d="M738.977,970.341l-20.47-3.273c-0.639,3.999,2.084,7.758,6.083,8.398l13.23,2.115
							L738.977,970.341z"/>
						<path style="opacity:0.3;fill:#F47458;" d="M759.446,973.615l-20.47-3.273l-1.158,7.24l13.229,2.116
							C755.047,980.337,758.807,977.614,759.446,973.615z"/>
					</g>
					<g>
						<path style="fill:#FAE0B2;" d="M735.094,996.222l-13.229-2.115c-3.999-0.639-7.759,2.084-8.398,6.082l0,0
							c-0.639,3.999,2.084,7.758,6.083,8.398l13.229,2.115L735.094,996.222z"/>
						<path style="fill:#50BFA5;" d="M735.094,996.222l-2.315,14.48l13.229,2.116c3.998,0.639,7.759-2.084,8.398-6.083l0,0
							c0.639-3.999-2.084-7.758-6.083-8.398L735.094,996.222z"/>
						<path style="opacity:0.3;fill:#9BC1F9;" d="M733.937,1003.463l-20.47-3.274c-0.639,3.999,2.084,7.758,6.083,8.398
							l13.229,2.115L733.937,1003.463z"/>
						<path style="opacity:0.3;fill:#F47458;" d="M754.406,1006.735l-20.47-3.272l-1.158,7.239l13.229,2.116
							C750.006,1013.457,753.767,1010.734,754.406,1006.735z"/>
					</g>
					<g>
						<path style="fill:#FAE0B2;" d="M730.054,1029.344l-13.229-2.117c-3.999-0.639-7.759,2.084-8.398,6.084h0
							c-0.639,3.998,2.083,7.758,6.082,8.397l13.23,2.115L730.054,1029.344z"/>
						<path style="fill:#50BFA5;" d="M730.054,1029.344l-2.315,14.479l13.229,2.115c3.999,0.64,7.758-2.083,8.397-6.082l0,0
							c0.64-3.999-2.083-7.759-6.082-8.398L730.054,1029.344z"/>
						<path style="opacity:0.3;fill:#9BC1F9;" d="M728.896,1036.583l-20.47-3.272c-0.639,3.998,2.083,7.758,6.082,8.397l13.23,2.115
							L728.896,1036.583z"/>
						<path style="opacity:0.3;fill:#F47458;" d="M749.365,1039.856l-20.469-3.273l-1.158,7.24l13.229,2.115
							C744.967,1046.578,748.726,1043.855,749.365,1039.856z"/>
					</g>
					<g>
						<path style="fill:#FAE0B2;" d="M725.014,1062.464l-13.229-2.116c-3.999-0.639-7.759,2.084-8.398,6.083l0,0
							c-0.64,3.999,2.084,7.759,6.083,8.398l13.23,2.115L725.014,1062.464z"/>
						<path style="fill:#50BFA5;" d="M725.014,1062.464l-2.315,14.48l13.229,2.115c3.999,0.64,7.758-2.083,8.397-6.082l0,0
							c0.639-3.998-2.084-7.758-6.082-8.397L725.014,1062.464z"/>
						<path style="opacity:0.3;fill:#9BC1F9;" d="M723.855,1069.704l-20.47-3.274c-0.64,3.999,2.084,7.759,6.083,8.398l13.23,2.115
							L723.855,1069.704z"/>
						<path style="opacity:0.3;fill:#F47458;" d="M744.325,1072.976l-20.47-3.272l-1.157,7.239l13.229,2.115
							C739.927,1079.698,743.686,1076.975,744.325,1072.976z"/>
					</g>
					<g>
						<path style="fill:#FAE0B2;" d="M719.973,1095.584l-13.229-2.115c-3.998-0.639-7.758,2.084-8.398,6.082l0,0
							c-0.64,3.999,2.084,7.759,6.083,8.399l13.229,2.115L719.973,1095.584z"/>
						<path style="fill:#50BFA5;" d="M719.973,1095.584l-2.315,14.481l13.23,2.115c3.998,0.64,7.759-2.084,8.398-6.082l0,0
							c0.639-3.998-2.083-7.758-6.082-8.398L719.973,1095.584z"/>
						<path style="opacity:0.3;fill:#9BC1F9;" d="M718.815,1102.824l-20.47-3.274c-0.64,3.999,2.084,7.759,6.083,8.399l13.229,2.115
							L718.815,1102.824z"/>
						<path style="opacity:0.3;fill:#F47458;" d="M739.285,1106.098l-20.47-3.273l-1.158,7.24l13.23,2.115
							C734.886,1112.819,738.646,1110.096,739.285,1106.098z"/>
					</g>
					<g>
						<path style="fill:#FAE0B2;" d="M714.933,1128.705l-13.23-2.115c-3.998-0.64-7.758,2.084-8.398,6.082l0,0
							c-0.639,3.999,2.084,7.758,6.082,8.399l13.23,2.115L714.933,1128.705z"/>
						<path style="fill:#50BFA5;" d="M714.933,1128.705l-2.315,14.481l13.23,2.115c3.998,0.639,7.758-2.084,8.398-6.082l0,0
							c0.639-3.999-2.084-7.759-6.082-8.398L714.933,1128.705z"/>
						<path style="opacity:0.3;fill:#9BC1F9;" d="M713.775,1135.945l-20.47-3.274c-0.639,3.999,2.084,7.758,6.082,8.399l13.23,2.115
							L713.775,1135.945z"/>
						<path style="opacity:0.3;fill:#F47458;" d="M734.245,1139.219l-20.47-3.273l-1.158,7.24l13.23,2.115
							C729.846,1145.939,733.605,1143.217,734.245,1139.219z"/>
					</g>
					<g>
						<path style="fill:#FAE0B2;" d="M670.451,952.497l13.26,1.916c4.008,0.579,6.787,4.297,6.209,8.305l0,0
							c-0.58,4.008-4.298,6.787-8.306,6.208l-13.26-1.916L670.451,952.497z"/>
						<path style="fill:#50BFA5;" d="M670.451,952.497l-2.096,14.513l-13.26-1.915c-4.008-0.579-6.788-4.298-6.209-8.305l0,0
							c0.579-4.008,4.298-6.787,8.305-6.208L670.451,952.497z"/>
						<path style="opacity:0.3;fill:#9BC1F9;" d="M669.402,959.754l20.518,2.964c-0.58,4.008-4.298,6.787-8.306,6.208l-13.26-1.916
							L669.402,959.754z"/>
						<path style="opacity:0.3;fill:#F47458;" d="M648.886,956.79l20.517,2.964l-1.048,7.256l-13.26-1.915
							C651.086,964.516,648.307,960.797,648.886,956.79z"/>
					</g>
					<g>
						<path style="fill:#FAE0B2;" d="M665.411,985.618l13.26,1.916c4.008,0.579,6.787,4.297,6.208,8.305v0
							c-0.579,4.007-4.297,6.788-8.305,6.208l-13.26-1.916L665.411,985.618z"/>
						<path style="fill:#50BFA5;" d="M665.411,985.618l-2.097,14.513l-13.26-1.915c-4.008-0.579-6.787-4.297-6.208-8.305l0,0
							c0.579-4.008,4.297-6.788,8.305-6.208L665.411,985.618z"/>
						<path style="opacity:0.3;fill:#9BC1F9;" d="M664.362,992.875l20.517,2.965c-0.579,4.007-4.297,6.788-8.305,6.208l-13.26-1.916
							L664.362,992.875z"/>
						<path style="opacity:0.3;fill:#F47458;" d="M643.846,989.911l20.517,2.964l-1.048,7.257l-13.26-1.915
							C646.046,997.637,643.267,993.918,643.846,989.911z"/>
					</g>
					<g>
						<path style="fill:#FAE0B2;" d="M660.37,1018.738l13.26,1.916c4.008,0.579,6.788,4.298,6.208,8.305l0,0
							c-0.579,4.008-4.297,6.788-8.306,6.209l-13.26-1.916L660.37,1018.738z"/>
						<path style="fill:#50BFA5;" d="M660.37,1018.738l-2.097,14.514l-13.26-1.916c-4.008-0.578-6.787-4.297-6.208-8.305l0,0
							c0.579-4.008,4.297-6.787,8.306-6.208L660.37,1018.738z"/>
						<path style="opacity:0.3;fill:#9BC1F9;" d="M659.322,1025.995l20.517,2.964c-0.579,4.008-4.297,6.788-8.306,6.209
							l-13.26-1.916L659.322,1025.995z"/>
						<path style="opacity:0.3;fill:#F47458;" d="M638.805,1023.031l20.517,2.964l-1.049,7.257l-13.26-1.916
							C641.006,1030.758,638.227,1027.039,638.805,1023.031z"/>
					</g>
					<g>
						<path style="fill:#FAE0B2;" d="M655.33,1051.859l13.261,1.916c4.008,0.579,6.787,4.297,6.208,8.305h-0.001
							c-0.579,4.008-4.297,6.788-8.305,6.209l-13.26-1.916L655.33,1051.859z"/>
						<path style="fill:#50BFA5;" d="M655.33,1051.859l-2.097,14.514l-13.26-1.916c-4.008-0.578-6.788-4.297-6.208-8.305l0,0
							c0.58-4.008,4.297-6.787,8.305-6.209L655.33,1051.859z"/>
						<path style="opacity:0.3;fill:#9BC1F9;" d="M654.282,1059.116l20.516,2.964c-0.579,4.008-4.297,6.788-8.305,6.209
							l-13.26-1.916L654.282,1059.116z"/>
						<path style="opacity:0.3;fill:#F47458;" d="M633.765,1056.152l20.517,2.964l-1.049,7.257l-13.26-1.916
							C635.966,1063.879,633.186,1060.16,633.765,1056.152z"/>
					</g>
					<g>
						<path style="fill:#FAE0B2;" d="M650.291,1084.98l13.26,1.916c4.007,0.578,6.787,4.297,6.208,8.305l0,0
							c-0.579,4.008-4.297,6.787-8.305,6.209l-13.26-1.916L650.291,1084.98z"/>
						<path style="fill:#50BFA5;" d="M650.291,1084.98l-2.097,14.514l-13.26-1.916c-4.007-0.58-6.787-4.297-6.208-8.305l0,0
							c0.579-4.009,4.297-6.788,8.305-6.209L650.291,1084.98z"/>
						<path style="opacity:0.3;fill:#9BC1F9;" d="M649.242,1092.236l20.516,2.965c-0.579,4.008-4.297,6.787-8.305,6.209
							l-13.26-1.916L649.242,1092.236z"/>
						<path style="opacity:0.3;fill:#F47458;" d="M628.725,1089.273l20.517,2.963l-1.049,7.258l-13.26-1.916
							C630.926,1096.998,628.146,1093.281,628.725,1089.273z"/>
					</g>
					<g>
						<path style="fill:#FAE0B2;" d="M645.25,1118.1l13.26,1.915c4.008,0.58,6.787,4.299,6.209,8.307l0,0
							c-0.579,4.008-4.298,6.787-8.306,6.207l-13.26-1.915L645.25,1118.1z"/>
						<path style="fill:#50BFA5;" d="M645.25,1118.1l-2.097,14.514l-13.26-1.915c-4.008-0.579-6.788-4.298-6.208-8.306l0,0
							c0.579-4.008,4.297-6.787,8.306-6.208L645.25,1118.1z"/>
						<path style="opacity:0.3;fill:#9BC1F9;" d="M644.202,1125.357l20.517,2.965c-0.579,4.008-4.298,6.787-8.306,6.207
							l-13.26-1.915L644.202,1125.357z"/>
						<path style="opacity:0.3;fill:#F47458;" d="M623.685,1122.394l20.517,2.964l-1.048,7.257l-13.26-1.915
							C625.885,1130.12,623.105,1126.401,623.685,1122.394z"/>
					</g>
				</g>
				<path style="fill:#F7A491;" d="M735.355,1126.835c-0.497,0.604-3.375,2.64-5.427,4.633c-2.856,2.735-4.989,5.525-4.989,5.525
					s-2.05,0.069-5.164,1.071c-1.289,0.424-2.912,1.634-4.353,2.102c-1.493,0.465-3.188,0.399-4.581,0.87
					c-3.597,1.258-6.195,3.177-5.728,5.245c0.382,1.713,22.74-2.754,22.74-2.754c13.292-12.145,33.365-18.199,45.529-66.51
					c10.429-23.82,56.607-144.337,49.859-155.068c-3.786-6.019-41.498-27.299-80.044-47.624
					c-4.18,11.507-11.24,34.567-15.575,49.257c26.533,10.71,42.832,18.8,44.568,22.914c0.458,1.068,0.737,3.502-21.936,94.216
					c-0.589,2.274-1.156,4.625-1.75,7c-1.6,6.383-3.316,13.211-5.149,20.432l-17.963,13.434c0,0-24.295,25.775-22.342,29.449
					c0.909,1.659,3.685,0.346,6.688-1.711l0.078-0.072c0.437-0.307,0.873-0.615,1.31-0.922c0.027-0.025,0.053-0.049,0.053-0.049
					c3.163-2.299,6.218-5.026,7.183-5.438c1.093-0.482,3.351-1.369,5.688-1.701c-10.065,21.564-11.001,18.055-16.679,22.678
					c-1.443,1.142-2.51,2.848-3.875,3.918c-2.346,1.833-5.281,2.142-7.063,3.596c-2.581,2.147-3.523,5.133-3.534,6.006
					c-0.042,1.098,1.789,0.945,4.723-0.039c17.503-6.133,25.93-17.766,29.991-20.031c2.733-1.516-0.57,3.076-7.544,8.273
					c-1.725,1.307-3.273,3.793-5.827,5.242c-1.688,0.982-3.797,1.25-5.482,2.182c-1.558,0.863-2.831,2.088-4.084,2.863
					c-1.64,1.034-4.567,1.77-5.801,2.67c-4.579,3.366-5.93,5.962-6.038,6.783c-0.168,1.74,25.363-8.447,25.363-8.447
					s14.713-10.139,17.616-12.822C735.817,1124.006,738.272,1123.178,735.355,1126.835z"/>
				<path style="fill:#F7A491;" d="M590.367,1154.129c0.776,0.107,4.27-0.352,7.13-0.281c3.954,0.07,7.415,0.671,7.415,0.671
					s1.552-1.341,4.519-2.718c1.233-0.564,3.247-0.777,4.623-1.412c1.411-0.672,2.612-1.871,3.954-2.471
					c3.495-1.517,6.706-1.871,7.766-0.037c0.883,1.518-18.568,13.415-18.568,13.415c-18.004,0.105-36.855,9.284-78.579-17.933
					c-23.829-10.414-139.545-67.566-141.874-80.025c-1.306-6.99,16.45-61.107,30.958-102.197
					c11.592,4.78,35.328,15.398,48.291,21.181c-12.214,25.875-26.617,60.188-25.099,64.389c0.389,1.095,1.836,3.071,80.063,54.293
					c1.976,1.271,3.989,2.612,6.036,3.952c5.508,3.602,11.402,7.451,17.65,11.51l22.31-2.33c0,0,35.336,2.436,36.396,6.459
					c0.459,1.836-2.471,2.755-6.072,3.283h-0.105c-0.529,0.071-1.059,0.142-1.588,0.213c-0.036,0-0.072,0-0.072,0
					c-3.883,0.458-7.978,0.529-8.965,0.883c-1.13,0.387-3.39,1.269-5.331,2.611c22.028,9.002,20.334,5.789,27.641,5.33
					c1.835-0.141,3.777,0.389,5.506,0.248c2.967-0.248,5.331-2.013,7.626-2.154c3.354-0.176,6.072,1.377,6.673,2.012
					c0.775,0.777-0.672,1.908-3.495,3.178c-17.016,7.377-31.101,4.555-35.619,5.649c-3.036,0.741,2.506,1.871,11.154,0.953
					c2.154-0.212,4.978,0.564,7.837-0.105c1.907-0.424,3.637-1.66,5.507-2.119c1.729-0.424,3.495-0.389,4.941-0.67
					c1.907-0.354,4.555-1.8,6.072-1.977c5.647-0.637,8.402,0.352,9.038,0.883c1.305,1.163-24.358,11.013-24.358,11.013
					s-17.687,2.542-21.639,2.542C588.108,1152.365,585.743,1153.424,590.367,1154.129z"/>
			</g>
		</g>
		<path style="fill:#FFFFFF;" d="M886.813,363.81c-108.719,0.142-196.836,54.544-196.818,121.509
			c0.01,33.48,22.052,63.765,57.681,85.659l-25.676,66.269l74.412-44.354c27.089,8.613,57.855,13.459,90.469,13.414
			c108.719-0.142,196.836-54.544,196.818-121.508C1083.682,417.837,995.532,363.667,886.813,363.81z"/>
	</g>
	<g>
		<path style="fill:#F8A492;" d="M1025.535,1086.813c0.628-0.07,1.237-0.212,1.832-0.424
			c19.129-6.837,155.312-40.143,161.627-44.629c5.703-4.051,116.37-127.152,116.37-127.152l-57.862-23.528l-98.182,108.268
			c-5.562,3.06-88.383,41.343-88.383,41.343s-18.969,10.251-30.527,15.61c-3.188-0.326-6.21-0.672-8.708-1.023
			c-5.423-1.107-10.084-2.848-14.051-4.497c-4.991-2.075-15.479-4.945-18.1-4.968c-3.046-0.025-9.323,0.129-13.101,0.27
			c-3.777,0.141-8.214,0.151-10.204,0.465c-1.211,0.191-3.879-0.435-5.783-0.955c-2.835-0.773-5.175,2.345-3.599,4.818
			c1.485,2.332,5.285,3.484,7.648,4.189c6.672,1.988,17.74,1.17,17.393,2.166c-0.346,0.998-17.588,8.522-19.503,9.51
			c-1.915,0.986-21.906,9.841-25.214,12.84c-3.307,3-1.991,5.544,0.58,5.662c2.212,0.102,30.734-10.094,30.734-10.094
			s3.64-1.293,2.882,0.627c-0.758,1.92-26.635,11.228-30.235,13.334c-3.6,2.104-5.014,5.201-1.344,6.609
			c4.464,1.713,31.472-9.919,31.472-9.919s3.411-1.398,3.459,0.19c0.048,1.59-22.102,9.142-23.766,10.804
			c-1.661,1.663-1.623,4.798,1.992,5.394c4.258,0.701,28.278-9.891,28.278-9.891s2.051-0.289,1.623,0.816
			c-0.428,1.107-18.851,8.891-20.139,11.278c-1.081,2.006,0.706,3.003,0.706,3.003c3.335,2.957,20.2-7.079,29.279-9.295
			c9.08-2.216,18.219-8.959,29.327-10.411C1022.736,1087.132,1024.454,1086.936,1025.535,1086.813z"/>
		<path style="fill:#F48C7F;" d="M1521.841,1749.586c0,0,13.604,13.318,13.913,18.207c0.309,4.889,1.205,57.256-4.349,62.145
			c-5.554,4.887-21.866,8.354-16.622,13.854c3.963,4.155,35.17-1.057,55.379-2.172c5.9-0.326,5.957-43.973,8.294-50.915
			c3.394-10.082,18.278-32.056,15.193-39.083c-1.503-3.424-8.695-10.461-18.83-17.028c-10.659-6.908-20.858-22.29-20.858-22.29
			L1521.841,1749.586z"/>
		<path style="fill:#F7A491;" d="M1380.915,1780.601c0,0,12.175,34.51,12.189,34.598c0.905,5.468,0.134,13.539,0.134,18.509
			c0,18.673-79.586-10.413-60.777-18.688c1.702-0.749,7.043-6.733,7.604-13.086c0.862-9.792-7.07-22.073-7.07-22.073
			L1380.915,1780.601z"/>
		<g>
			<path style="fill:#355389;" d="M1249.265,1137.996c0,0-6.118,61.865-6.118,62.787c0,100.075-19.771,295.555-16.011,314.369
				c9.172,45.891,107.892,279.993,107.892,279.993l53.356-6.399l-69.528-280.286l25.586-112.818l36.205-223.004L1249.265,1137.996z"
				/>
			<path style="fill:#13375B;" d="M1428.332,1192.717l10.125,58.633l27.39,241.318l104.316,235.849c0,0-14.673,34.317-36.32,39.138
				l-166.025-242.146l-103.132-309.846l3.62-68.838L1428.332,1192.717z"/>
		</g>
		<path style="fill:#E25A44;" d="M1174.17,957.461l60.171,48.582c0,0,71.023-68.624,71.023-97.656
			c0-35.221-2.989-80.586-7.229-79.611c-11.898,2.741-26.612,10.387-37.458,22.483
			C1219.166,897.553,1174.17,957.461,1174.17,957.461z"/>
		<path style="fill:#F47458;" d="M1264.332,902.175c-1.55,10.739-29.991,302.68-29.991,302.68
			c134.712,65.284,209.046,11.628,209.046,11.628s-4.408-205.004,0.875-232.907c3.496-18.462,7.854-141.134-4.068-144.571
			c-15.301-4.408-32.843-9.092-51.965-11.082c-16.322-1.7-79.727-2.685-91.07,1.137
			C1297.158,829.06,1270.849,857.016,1264.332,902.175z"/>
		<path style="fill:#3C8F7C;" d="M1574.16,1734.261c0,0-31.356,88.581-43.628,92.859c-3.258,1.134-18.896,4.015-21.846,10.954
			c-0.89,2.091,0,9.073,0,9.073h65.352c0,0,8.268-39.03,11.534-56.179c0,0,17.3-41.9,15.378-45.707
			C1599.028,1741.453,1574.16,1734.261,1574.16,1734.261z"/>
		<path style="fill:#3C8F7C;" d="M1402.348,1845.306l-9.611-30.462c0,0-20.183,8.566-30.274,7.14
			c-10.092-1.428-29.795-7.14-29.795-7.14c-40.279,13.304-73.278,19.759-67.275,30.462l0,0H1402.348z"/>
		<path style="fill:#F8A492;" d="M1576.808,1207.947c0.083-0.625,0.094-1.252,0.032-1.88
			c-1.985-20.217-18.714-189.989-21.532-197.206c-2.543-6.516-77.574-114.192-77.574-114.192l-36.879,50.414l72.16,96.578
			c1.617,6.139,27.65,120.742,27.65,120.742s5.337,20.89,7.729,33.404c-1.091,3.014-2.16,5.861-3.108,8.198
			c-2.392,4.991-5.212,9.091-7.775,12.538c-3.226,4.338-8.558,13.815-9.216,16.351c-0.764,2.948-2.141,9.075-2.921,12.773
			c-0.78,3.698-1.849,8.005-2.027,10.011c-0.108,1.222-1.364,3.658-2.331,5.379c-1.44,2.563,1.018,5.589,3.799,4.662
			c2.623-0.875,4.664-4.28,5.922-6.401c3.551-5.989,5.444-16.925,6.326-16.346c0.884,0.577,3.994,19.131,4.486,21.229
			c0.492,2.098,4.226,23.641,6.332,27.578c2.105,3.936,4.893,3.278,5.633,0.813c0.636-2.121-2.326-32.266-2.326-32.266
			s-0.369-3.846,1.308-2.644c1.679,1.202,4.423,28.565,5.59,32.568c1.167,4.004,3.828,6.127,6.086,2.909
			c2.746-3.913-1.976-32.938-1.976-32.938s-0.529-3.649,1.024-3.309c1.554,0.34,3.499,23.66,4.707,25.678
			c1.21,2.016,4.261,2.74,5.716-0.622c1.713-3.96-2.726-29.835-2.726-29.835s0.219-2.059,1.188-1.375
			c0.968,0.684,4.044,20.445,6.048,22.275c1.683,1.536,3.085,0.045,3.085,0.045c3.677-2.518-1.961-21.315-1.905-30.661
			c0.057-9.346-4.265-19.849-2.975-30.978C1576.438,1210.739,1576.664,1209.025,1576.808,1207.947z"/>
		<path style="fill:#F47458;" d="M1536.353,962.865l-64.092,43.178c0,0-36.124-53.937-55.515-73.14
			c-24.291-24.055,8.849-97.745,24.498-93.575C1476.253,848.653,1536.353,962.865,1536.353,962.865z"/>
		<path style="fill:#F7A491;" d="M1383.519,764.806l9.587,63.402c0,0-35.01,75.49-55.91,68.942
			c-17.537-5.493-6.748-72.289-6.748-72.289s9.559-35.87,6.693-53.821C1334.272,753.089,1383.519,764.806,1383.519,764.806z"/>
		<path style="fill:#F47458;" d="M1337.14,771.041c-2.867-17.951,46.379-6.234,46.379-6.234l0.795,5.258
			c-1.441,3.518-3.202,6.53-5.341,8.837c-11,11.878-28.193,19.013-43.059,19.552C1337.4,788.774,1338.314,778.401,1337.14,771.041z"
			/>
		<g>
			<path style="fill:#F7A491;" d="M1391.599,675.111c1.392-0.508,11.156,72.21-7.374,92.218
				c-18.53,20.008-54.634,26.556-67.584,10.798c-14.323-17.43-13.604-95.584,15.206-116.166
				C1360.656,641.379,1391.599,675.111,1391.599,675.111z"/>
			<path style="fill:#184655;" d="M1342.813,623.062c22.27,4.556,36.694,18.212,41.994,24.031
				c10.109,1.198,23.854,6.806,38.045,30.383c17.449,28.99,4.563,61.108-15.75,76.866s-20.031,33.961-20.031,33.961l-3.211-9.415
				c-2.369-7.133-3.336-14.694-2.544-22.176c0.476-4.489,1.435-9.343,3.286-13.333c4.885-10.523-10.494-17.516-14.807-26.271
				c-3.32-6.743-3.482-22.165-8.714-33.31l-6.248-8.506c0,0-14.415-11.256-28.517-8.079
				C1312.214,670.386,1314.242,617.217,1342.813,623.062z"/>
			<path style="fill:#F7A491;" d="M1370.742,730.047c-0.147,8.872,3.871,16.134,8.978,16.222c5.104,0.088,9.362-7.033,9.509-15.905
				c0.148-8.872-3.871-16.135-8.977-16.222C1375.146,714.054,1370.889,721.175,1370.742,730.047z"/>
		</g>
		<path style="fill:#FFFFFF;" d="M1340.65,750.546l-27.931-1.451c0,0,0.094,10.678,12.358,11.672
			C1340.033,761.98,1340.65,750.546,1340.65,750.546z"/>
	</g>
</g>
</svg>
