<?xml version="1.0" encoding="utf-8"?>
<!-- Generator: Adobe Illustrator 27.5.0, SVG Export Plug-In . SVG Version: 6.00 Build 0)  -->
<svg version="1.1" xmlns="http://www.w3.org/2000/svg" xmlns:xlink="http://www.w3.org/1999/xlink" x="0px" y="0px"
	 viewBox="0 0 2500 2500" xml:space="preserve">
<g id="Background">
</g>
<g id="Illustration">
	<g id="Allergic_diseases_1_">
		<circle style="fill:#F2E6DC;" cx="1250" cy="1250" r="915"/>
		<g>
			<path style="fill:#E2A18D;" d="M2064.024,1794.614h-984.852c-1.218,0-2.205-0.987-2.205-2.205V549.655
				c0-1.218,0.987-2.205,2.205-2.205h984.852c1.218,0,2.205,0.987,2.205,2.205V1792.41
				C2066.229,1793.627,2065.242,1794.614,2064.024,1794.614z M1081.376,1790.205h980.443V551.86h-980.443V1790.205z"/>
			<g>
				<polygon style="fill:#E6D0BE;" points="2013.173,1728.243 1130.022,1728.243 1130.022,613.822 1767.052,613.822 
					1767.052,846.465 2013.173,847.739 				"/>
				<g>
					<circle style="fill:#D3BBA3;" cx="1337.881" cy="818.464" r="122.951"/>
					<polygon style="fill:#FFFFFF;" points="1424.007,799.486 1356.859,799.486 1356.859,732.338 1318.902,732.338 
						1318.902,799.486 1251.754,799.486 1251.754,837.442 1318.902,837.442 1318.902,904.59 1356.859,904.59 1356.859,837.442 
						1424.007,837.442 					"/>
				</g>
				<polygon style="fill:#F2E6DC;" points="1926.109,885.752 1539.543,885.752 1539.543,721.543 1785.923,721.543 1926.109,803.647 
									"/>
				<rect x="1539.543" y="917.803" style="fill:#F2E6DC;" width="386.565" height="50.389"/>
				<polygon style="fill:#FFFFFF;" points="2013.173,847.102 1767.052,847.102 1767.052,613.822 				"/>
				<rect x="1333.592" y="1058.937" style="fill:#F2E6DC;" width="592.516" height="91.431"/>
				<rect x="1333.592" y="1276.075" style="fill:#F2E6DC;" width="592.516" height="86.273"/>
				<rect x="1333.592" y="1490.175" style="fill:#F2E6DC;" width="592.516" height="90.194"/>
				<circle style="fill:#F2E6DC;" cx="1246.677" cy="1315.278" r="32.043"/>
				<circle style="fill:#F2E6DC;" cx="1246.677" cy="1522.218" r="32.043"/>
				<g>
					
						<ellipse transform="matrix(0.3509 -0.9364 0.9364 0.3509 -226.2876 1886.8724)" style="fill:#D87355;" cx="1247.931" cy="1106.666" rx="37.613" ry="37.614"/>
					<polygon style="fill:#FFFFFF;" points="1244.998,1127.208 1227.752,1108.601 1234.526,1101.545 1244.398,1112.117 
						1262.291,1090.951 1269.726,1097.266 					"/>
				</g>
			</g>
			<g>
				<path style="fill:#E6D0BE;" d="M1571.598,604.112c-67.7,0-122.778-55.077-122.778-122.778
					c0-67.699,55.077-122.777,122.778-122.777c67.699,0,122.776,55.077,122.776,122.777
					C1694.374,549.035,1639.297,604.112,1571.598,604.112z M1571.598,362.967c-65.268,0-118.368,53.099-118.368,118.367
					c0,65.268,53.1,118.368,118.368,118.368c65.268,0,118.367-53.1,118.367-118.368
					C1689.965,416.066,1636.866,362.967,1571.598,362.967z"/>
				<path style="fill:#E6D0BE;" d="M1571.598,576.709c-52.589,0-95.375-42.785-95.375-95.375c0-52.589,42.785-95.374,95.375-95.374
					c52.589,0,95.375,42.784,95.375,95.374C1666.973,533.924,1624.187,576.709,1571.598,576.709z M1571.598,390.371
					c-50.159,0-90.965,40.806-90.965,90.964c0,50.159,40.806,90.965,90.965,90.965c50.158,0,90.965-40.806,90.965-90.965
					C1662.563,431.177,1621.756,390.371,1571.598,390.371z"/>
				<rect x="1403.07" y="518" style="fill:#D3BBA3;" width="337.055" height="149.396"/>
			</g>
		</g>
		<g>
			<g>
				
					<ellipse transform="matrix(0.7071 -0.7071 0.7071 0.7071 -67.8837 920.3361)" style="fill:#D87355;" cx="1077.002" cy="542.111" rx="67.541" ry="67.541"/>
				
					<ellipse transform="matrix(0.8951 -0.4459 0.4459 0.8951 -128.7314 537.1475)" style="fill:#FFFFFF;" cx="1077.002" cy="542.111" rx="57.111" ry="57.111"/>
				
					<ellipse transform="matrix(0.982 -0.1889 0.1889 0.982 -83.0202 213.225)" style="fill:#E6D0BE;" cx="1077.002" cy="542.111" rx="48.482" ry="48.482"/>
				
					<ellipse transform="matrix(0.0338 -0.9994 0.9994 0.0338 498.8277 1600.1904)" style="fill:#D87355;" cx="1077.002" cy="542.111" rx="33.77" ry="33.77"/>
				
					<ellipse transform="matrix(0.2035 -0.9791 0.9791 0.2035 341.6971 1625.9368)" style="fill:#D87355;" cx="1170.185" cy="602.954" rx="21.164" ry="21.164"/>
				<path style="fill:#D87355;" d="M1193.144,539.134c-0.577-8.245,5.638-15.396,13.883-15.974
					c8.245-0.578,15.396,5.638,15.974,13.883c0.578,8.245-5.638,15.396-13.883,15.974
					C1200.873,553.594,1193.722,547.379,1193.144,539.134z"/>
				
					<ellipse transform="matrix(0.2281 -0.9736 0.9736 0.2281 453.2282 1525.7102)" style="fill:#D87355;" cx="1188.794" cy="477.029" rx="14.965" ry="14.965"/>
				
					<ellipse transform="matrix(0.231 -0.973 0.973 0.231 167.5384 1533.4099)" style="fill:#D87355;" cx="1053.814" cy="660.719" rx="14.965" ry="14.965"/>
				
					<ellipse transform="matrix(0.2835 -0.959 0.959 0.2835 129.5139 1353.4404)" style="fill:#D87355;" cx="970.52" cy="590.046" rx="20.629" ry="20.629"/>
				
					<ellipse transform="matrix(0.2967 -0.955 0.955 0.2967 184.6591 1303.9155)" style="fill:#D87355;" cx="977.578" cy="526.59" rx="14.965" ry="14.965"/>
				
					<ellipse transform="matrix(0.9844 -0.1762 0.1762 0.9844 -63.6133 186.7036)" style="fill:#D87355;" cx="1019.518" cy="451.557" rx="22.273" ry="22.273"/>
				<path style="fill:#D87355;" d="M1089.169,446.678c-0.578-8.245,5.638-15.397,13.883-15.974
					c8.245-0.578,15.396,5.638,15.974,13.883c0.578,8.245-5.638,15.396-13.883,15.974
					C1096.898,461.138,1089.746,454.923,1089.169,446.678z"/>
				<path style="fill:#D87355;" d="M1170.183,605.159c-0.372,0-0.749-0.094-1.096-0.293l-41.746-23.969
					c-1.056-0.606-1.42-1.954-0.814-3.01c0.607-1.055,1.95-1.423,3.01-0.814l41.746,23.969c1.056,0.606,1.42,1.954,0.814,3.01
					C1171.689,604.761,1170.947,605.159,1170.183,605.159z"/>
				<path style="fill:#D87355;" d="M1139.052,538.732c-1.195,0-2.176-0.955-2.203-2.155c-0.028-1.218,0.937-2.226,2.154-2.253
					l65.343-1.465c1.209-0.124,2.225,0.937,2.253,2.154c0.028,1.218-0.937,2.226-2.154,2.253l-65.343,1.465
					C1139.085,538.732,1139.069,538.732,1139.052,538.732z"/>
				<path style="fill:#D87355;" d="M1127.993,507.58c-0.83,0-1.626-0.47-1.999-1.274c-0.515-1.104-0.038-2.415,1.067-2.929
					l60.802-28.346c1.105-0.516,2.416-0.039,2.929,1.067c0.515,1.104,0.038,2.415-1.067,2.929l-60.802,28.346
					C1128.622,507.514,1128.305,507.58,1127.993,507.58z"/>
				<path style="fill:#D87355;" d="M1096.539,484.046c-0.15,0-0.3-0.015-0.453-0.046c-1.192-0.249-1.956-1.417-1.707-2.61
					l7.561-36.208c0.249-1.193,1.41-1.953,2.61-1.707c1.192,0.249,1.956,1.417,1.707,2.61l-7.561,36.208
					C1098.478,483.333,1097.561,484.046,1096.539,484.046z"/>
				<path style="fill:#D87355;" d="M1040.535,492.925c-0.724,0-1.434-0.356-1.855-1.01l-25.067-38.879
					c-0.66-1.024-0.365-2.388,0.658-3.048c1.024-0.661,2.39-0.364,3.048,0.658l25.067,38.879c0.66,1.024,0.365,2.388-0.658,3.048
					C1041.358,492.812,1040.944,492.925,1040.535,492.925z"/>
				<path style="fill:#D87355;" d="M1014.516,528.889c-0.058,0-0.116-0.002-0.175-0.006l-36.939-2.919
					c-1.214-0.096-2.121-1.158-2.025-2.372c0.096-1.214,1.164-2.104,2.372-2.025l36.939,2.919c1.214,0.096,2.121,1.158,2.025,2.372
					C1016.621,528.013,1015.655,528.889,1014.516,528.889z"/>
				<path style="fill:#D87355;" d="M978.448,588.706c-0.807,0-1.584-0.443-1.971-1.213c-0.548-1.088-0.11-2.414,0.977-2.96
					l40.831-20.551c1.093-0.55,2.414-0.109,2.961,0.977c0.548,1.088,0.11,2.414-0.978,2.961l-40.831,20.551
					C979.118,588.631,978.78,588.706,978.448,588.706z"/>
				<path style="fill:#D87355;" d="M1053.816,662.924c-0.14,0-0.282-0.013-0.424-0.041c-1.195-0.233-1.975-1.391-1.742-2.586
					l11.037-56.602c0.234-1.196,1.388-1.977,2.586-1.742c1.195,0.232,1.975,1.391,1.742,2.586l-11.037,56.602
					C1055.772,662.194,1054.85,662.924,1053.816,662.924z"/>
			</g>
			<g>
				
					<ellipse transform="matrix(0.2218 -0.9751 0.9751 0.2218 165.4091 1088.9253)" style="fill:#D87355;" cx="764.94" cy="440.83" rx="48.533" ry="48.533"/>
				
					<ellipse transform="matrix(0.9576 -0.2882 0.2882 0.9576 -94.5899 239.155)" style="fill:#FFFFFF;" cx="764.94" cy="440.83" rx="41.039" ry="41.039"/>
				
					<ellipse transform="matrix(0.5682 -0.8229 0.8229 0.5682 -32.4322 819.8582)" style="fill:#E6D0BE;" cx="764.94" cy="440.83" rx="34.838" ry="34.838"/>
				
					<ellipse transform="matrix(0.7531 -0.658 0.658 0.7531 -101.1488 612.1626)" style="fill:#D87355;" cx="764.94" cy="440.83" rx="24.267" ry="24.267"/>
				
					<ellipse transform="matrix(0.7071 -0.7071 0.7071 0.7071 -140.1109 701.5682)" style="fill:#D87355;" cx="776.812" cy="519.913" rx="15.208" ry="15.208"/>
				
					<ellipse transform="matrix(0.9308 -0.3656 0.3656 0.9308 -128.7512 338.6546)" style="fill:#D87355;" cx="829.728" cy="509.252" rx="10.753" ry="10.753"/>
				<path style="fill:#D87355;" d="M845.592,462.217c4.149-4.25,10.957-4.331,15.206-0.182c4.25,4.149,4.331,10.957,0.182,15.207
					c-4.149,4.25-10.957,4.331-15.207,0.182C841.524,473.275,841.443,466.467,845.592,462.217z"/>
				
					<ellipse transform="matrix(0.4789 -0.8779 0.8779 0.4789 -66.1602 858.6624)" style="fill:#D87355;" cx="690.204" cy="485.06" rx="10.753" ry="10.753"/>
				
					<ellipse transform="matrix(0.9999 -0.012 0.012 0.9999 -4.8225 8.2772)" style="fill:#D87355;" cx="688.333" cy="406.588" rx="14.824" ry="14.824"/>
				<path style="fill:#D87355;" d="M718.067,372.543c4.149-4.25,10.957-4.331,15.207-0.182c4.25,4.149,4.331,10.957,0.182,15.207
					c-4.149,4.25-10.957,4.331-15.207,0.182C714,383.6,713.919,376.792,718.067,372.543z"/>
				
					<ellipse transform="matrix(0.9999 -0.012 0.012 0.9999 -4.339 9.4483)" style="fill:#D87355;" cx="786.071" cy="366.71" rx="16.005" ry="16.005"/>
				<path style="fill:#D87355;" d="M821.971,401.759c4.149-4.249,10.957-4.331,15.206-0.182c4.25,4.149,4.331,10.957,0.182,15.207
					c-4.149,4.249-10.957,4.331-15.207,0.182S817.822,406.009,821.971,401.759z"/>
				<path style="fill:#D87355;" d="M776.81,522.118c-1.022,0-1.939-0.714-2.156-1.754l-7.084-33.858
					c-0.249-1.192,0.515-2.36,1.707-2.61c1.186-0.243,2.361,0.516,2.61,1.707l7.084,33.858c0.249,1.192-0.515,2.36-1.707,2.61
					C777.112,522.103,776.96,522.118,776.81,522.118z"/>
				<path style="fill:#D87355;" d="M829.595,508.037c-0.59,0-1.179-0.236-1.614-0.702l-32.009-34.367
					c-0.83-0.891-0.779-2.287,0.111-3.117c0.891-0.828,2.284-0.781,3.117,0.111l32.009,34.367c0.83,0.891,0.779,2.287-0.111,3.117
					C830.673,507.841,830.134,508.037,829.595,508.037z"/>
				<path style="fill:#D87355;" d="M853.285,471.935c-0.292,0-0.588-0.058-0.872-0.181l-44.266-19.086
					c-1.119-0.482-1.633-1.78-1.152-2.898c0.482-1.119,1.779-1.635,2.898-1.152l44.266,19.087c1.118,0.482,1.633,1.779,1.152,2.898
					C854.952,471.435,854.139,471.935,853.285,471.935z"/>
				<path style="fill:#D87355;" d="M806.622,424.72c-0.763,0-1.506-0.396-1.914-1.107c-0.606-1.055-0.242-2.403,0.814-3.01
					l23.045-13.244c1.055-0.604,2.404-0.243,3.01,0.814c0.606,1.055,0.242,2.403-0.814,3.01l-23.045,13.244
					C807.373,424.625,806.995,424.72,806.622,424.72z"/>
				<path style="fill:#D87355;" d="M775.095,398.907c-0.195,0-0.393-0.027-0.591-0.082c-1.173-0.325-1.86-1.541-1.534-2.714
					l8.888-32.03c0.325-1.172,1.533-1.858,2.714-1.534c1.174,0.325,1.86,1.541,1.534,2.714l-8.888,32.03
					C776.948,398.266,776.061,398.907,775.095,398.907z"/>
				<path style="fill:#D87355;" d="M743.363,402.127c-0.667,0-1.325-0.3-1.759-0.873l-16.085-21.219
					c-0.735-0.97-0.546-2.353,0.425-3.089c0.97-0.737,2.352-0.546,3.089,0.425l16.085,21.219c0.735,0.97,0.546,2.353-0.425,3.089
					C744.294,401.981,743.827,402.127,743.363,402.127z"/>
				<path style="fill:#D87355;" d="M724.561,423.447c-0.27,0-0.545-0.051-0.811-0.156l-30.539-12.093
					c-1.133-0.448-1.687-1.729-1.238-2.862c0.448-1.132,1.729-1.687,2.862-1.238l30.539,12.093c1.133,0.448,1.687,1.729,1.238,2.862
					C726.269,422.919,725.439,423.447,724.561,423.447z"/>
				<path style="fill:#D87355;" d="M690.206,487.265c-0.754,0-1.487-0.385-1.899-1.081c-0.621-1.047-0.274-2.4,0.773-3.021
					l35.651-21.122c1.051-0.621,2.4-0.276,3.021,0.773c0.621,1.047,0.275,2.4-0.773,3.021l-35.651,21.122
					C690.975,487.166,690.589,487.265,690.206,487.265z"/>
			</g>
			<g>
				
					<ellipse transform="matrix(0.0241 -0.9997 0.9997 0.0241 -39.6954 1013.3236)" style="fill:#D87355;" cx="499.181" cy="526.994" rx="44.927" ry="44.927"/>
				
					<ellipse transform="matrix(0.1056 -0.9944 0.9944 0.1056 -77.561 967.758)" style="fill:#FFFFFF;" cx="499.181" cy="526.994" rx="37.989" ry="37.989"/>
				
					<ellipse transform="matrix(0.0589 -0.9983 0.9983 0.0589 -56.2909 994.2789)" style="fill:#E6D0BE;" cx="499.181" cy="526.994" rx="32.249" ry="32.249"/>
				<circle style="fill:#D87355;" cx="499.181" cy="526.994" r="22.463"/>
				<path style="fill:#D87355;" d="M435.842,524.76c5.286,5.701,4.95,14.608-0.751,19.894c-5.701,5.286-14.608,4.95-19.894-0.751
					c-5.286-5.701-4.95-14.608,0.751-19.894C421.649,518.723,430.556,519.059,435.842,524.76z"/>
				<path style="fill:#D87355;" d="M440.241,576.977c3.738,4.031,3.5,10.33-0.531,14.068c-4.031,3.738-10.33,3.5-14.068-0.531
					c-3.738-4.031-3.5-10.33,0.531-14.068C430.204,572.708,436.503,572.946,440.241,576.977z"/>
				<path style="fill:#D87355;" d="M475.697,600.576c3.738,4.031,3.5,10.33-0.531,14.068c-4.031,3.738-10.329,3.5-14.068-0.531
					c-3.738-4.031-3.5-10.329,0.531-14.068C465.661,596.307,471.959,596.545,475.697,600.576z"/>
				
					<ellipse transform="matrix(0.0377 -0.9993 0.9993 0.0377 -11.2338 900.0595)" style="fill:#D87355;" cx="461.727" cy="455.863" rx="9.954" ry="9.954"/>
				<path style="fill:#D87355;" d="M544.427,448.414c5.153,5.557,4.825,14.239-0.732,19.392s-14.239,4.825-19.392-0.732
					c-5.153-5.557-4.825-14.239,0.732-19.392C530.592,442.529,539.274,442.856,544.427,448.414z"/>
				
					<ellipse transform="matrix(0.0377 -0.9993 0.9993 0.0377 42.9318 1031.7211)" style="fill:#D87355;" cx="557.173" cy="493.569" rx="9.954" ry="9.954"/>
				
					<ellipse transform="matrix(0.0377 -0.9993 0.9993 0.0377 -4.1982 1095.5228)" style="fill:#D87355;" cx="566.736" cy="549.941" rx="14.816" ry="14.816"/>
				<path style="fill:#D87355;" d="M532.68,581.519c3.738,4.031,3.5,10.33-0.531,14.068c-4.031,3.738-10.33,3.5-14.068-0.531
					c-3.738-4.031-3.5-10.33,0.531-14.068C522.643,577.25,528.942,577.488,532.68,581.519z"/>
				<path style="fill:#D87355;" d="M425.516,536.537c-1.066,0-2.003-0.775-2.175-1.861c-0.189-1.203,0.632-2.332,1.835-2.521
					l31.629-4.991c1.198-0.185,2.332,0.631,2.521,1.834c0.189,1.203-0.632,2.332-1.835,2.521l-31.629,4.991
					C425.746,536.528,425.631,536.537,425.516,536.537z"/>
				<path style="fill:#D87355;" d="M436.111,585.985c-0.628,0-1.251-0.267-1.687-0.784c-0.785-0.931-0.666-2.322,0.265-3.107
					l33.247-28.012c0.931-0.786,2.322-0.665,3.107,0.265c0.785,0.931,0.666,2.322-0.265,3.107l-33.247,28.012
					C437.116,585.815,436.612,585.985,436.111,585.985z"/>
				<path style="fill:#D87355;" d="M468.396,609.549c-0.326,0-0.658-0.072-0.97-0.226c-1.093-0.537-1.544-1.858-1.007-2.951
					l19.683-40.047c0.537-1.093,1.861-1.544,2.951-1.007c1.093,0.537,1.544,1.858,1.007,2.951l-19.683,40.047
					C469.993,609.097,469.211,609.549,468.396,609.549z"/>
				<path style="fill:#D87355;" d="M525.382,590.492c-0.803,0-1.576-0.439-1.966-1.203l-11.183-21.916
					c-0.553-1.085-0.123-2.413,0.961-2.966c1.087-0.552,2.413-0.122,2.966,0.961l11.184,21.916c0.553,1.085,0.123,2.413-0.961,2.966
					C526.061,590.415,525.719,590.492,525.382,590.492z"/>
				<path style="fill:#D87355;" d="M568.717,550.309c-0.23,0-0.464-0.037-0.694-0.113l-29.204-9.691
					c-1.156-0.383-1.782-1.632-1.398-2.787c0.383-1.154,1.631-1.779,2.787-1.398l29.204,9.691c1.156,0.383,1.782,1.632,1.398,2.787
					C570.503,549.723,569.642,550.309,568.717,550.309z"/>
				<path style="fill:#D87355;" d="M537.997,511.131c-0.704,0-1.396-0.336-1.824-0.961c-0.686-1.007-0.427-2.378,0.578-3.065
					l20.358-13.895c1.01-0.687,2.378-0.427,3.065,0.578c0.686,1.007,0.427,2.378-0.578,3.065l-20.358,13.895
					C538.857,511.007,538.425,511.131,537.997,511.131z"/>
				<path style="fill:#D87355;" d="M519.149,492.769c-0.306,0-0.616-0.064-0.912-0.198c-1.108-0.504-1.599-1.811-1.094-2.92
					l12.586-27.679c0.505-1.108,1.814-1.597,2.92-1.094c1.108,0.504,1.599,1.811,1.094,2.92l-12.586,27.679
					C520.787,492.289,519.986,492.769,519.149,492.769z"/>
				<path style="fill:#D87355;" d="M479.617,492c-0.792,0-1.558-0.427-1.953-1.177l-17.888-33.932
					c-0.567-1.078-0.155-2.41,0.923-2.979c1.08-0.565,2.41-0.155,2.979,0.923l17.888,33.932c0.567,1.077,0.155,2.41-0.923,2.979
					C480.315,491.918,479.964,492,479.617,492z"/>
			</g>
		</g>
		<g>
			<g>
				<rect x="1280.426" y="1327.886" style="fill:#EFBC73;" width="408.93" height="680.775"/>
				<path style="fill:#9E6C5A;" d="M1705.62,2027.13h-439.136c-1.218,0-2.205-0.987-2.205-2.205v-676.128
					c0-1.218,0.987-2.205,2.205-2.205h439.136c1.218,0,2.205,0.987,2.205,2.205v676.128
					C1707.825,2026.143,1706.838,2027.13,1705.62,2027.13z M1268.689,2022.721h434.726v-671.718h-434.726V2022.721z"/>
				<rect x="1280.426" y="1506.732" style="fill:#F7F1EB;" width="406.026" height="130.993"/>
				<g>
					<rect x="1245.574" y="1230.3" style="fill:#FFFFFF;" width="483.281" height="139.408"/>
					<path style="fill:#9E6C5A;" d="M1721.505,1374.853h-483.281c-1.218,0-2.205-0.987-2.205-2.205V1233.24
						c0-1.218,0.987-2.205,2.205-2.205h483.281c1.218,0,2.205,0.987,2.205,2.205v139.407
						C1723.71,1373.865,1722.723,1374.853,1721.505,1374.853z M1240.429,1370.443H1719.3v-134.998h-478.871V1370.443z"/>
					<rect x="1284.202" y="1255.994" style="fill:#F2E6DC;" width="18.352" height="84.421"/>
					<rect x="1335.589" y="1255.994" style="fill:#F2E6DC;" width="18.352" height="84.421"/>
					<rect x="1381.47" y="1255.076" style="fill:#F2E6DC;" width="18.352" height="84.421"/>
					<rect x="1432.856" y="1255.076" style="fill:#F2E6DC;" width="18.352" height="84.421"/>
					<rect x="1482.415" y="1255.076" style="fill:#F2E6DC;" width="18.352" height="84.421"/>
					<rect x="1533.802" y="1255.076" style="fill:#F2E6DC;" width="18.353" height="84.421"/>
					<rect x="1579.683" y="1254.158" style="fill:#F2E6DC;" width="18.353" height="84.421"/>
					<rect x="1631.07" y="1254.158" style="fill:#F2E6DC;" width="18.353" height="84.421"/>
					<rect x="1677.871" y="1254.158" style="fill:#F2E6DC;" width="18.352" height="84.421"/>
				</g>
			</g>
			<g>
				<path style="fill:#D87355;" d="M1395.823,1936.287l104.149-1.601c29.222-0.449,53.499,23.093,53.948,52.315
					c0.449,29.222-23.093,53.499-52.315,53.948l-104.149,1.601L1395.823,1936.287z"/>
				<path style="fill:#FFFFFF;" d="M1397.456,2042.55l-104.149,1.601c-29.222,0.449-53.499-23.093-53.948-52.315
					c-0.449-29.222,23.092-53.499,52.315-53.948l104.149-1.601L1397.456,2042.55z"/>
				<path style="fill:#84524D;" d="M1550.591,1969.357c2.058,5.511,3.234,11.447,3.33,17.644
					c0.449,29.222-23.093,53.499-52.315,53.948l-104.149,1.601l-0.544-35.381l104.149-1.601
					C1524.087,2005.214,1543.577,1990.062,1550.591,1969.357z"/>
				<path style="fill:#F7F1EB;" d="M1292.763,2008.769l104.15-1.601l0.544,35.381l-104.15,1.601
					c-29.222,0.449-53.498-23.093-53.947-52.315c-0.095-6.196,0.898-12.166,2.785-17.738
					C1249.792,1994.577,1269.738,2009.123,1292.763,2008.769z"/>
			</g>
			<g>
				<path style="fill:#D87355;" d="M1273.413,2018.648l-99.699-30.161c-27.974-8.463-57.785,7.501-66.248,35.475
					c-8.463,27.974,7.501,57.785,35.475,66.248l99.699,30.161L1273.413,2018.648z"/>
				<path style="fill:#FFFFFF;" d="M1242.64,2120.371l99.699,30.161c27.974,8.462,57.785-7.501,66.248-35.475
					c8.463-27.974-7.501-57.785-35.475-66.248l-99.699-30.161L1242.64,2120.371z"/>
				<path style="fill:#84524D;" d="M1115.516,2007.913c-3.493,4.733-6.256,10.118-8.05,16.049
					c-8.463,27.974,7.501,57.785,35.475,66.248l99.699,30.161l10.246-33.869l-99.699-30.161
					C1131.145,2049.672,1116.57,2029.747,1115.516,2007.913z"/>
				<path style="fill:#F7F1EB;" d="M1352.586,2116.663l-99.7-30.161l-10.246,33.869l99.7,30.161
					c27.974,8.463,57.784-7.501,66.247-35.475c1.794-5.932,2.48-11.945,2.197-17.82
					C1397.802,2114.826,1374.628,2123.331,1352.586,2116.663z"/>
			</g>
			<g>
				<polygon style="fill:#D87355;" points="2011.271,1983.14 2032.043,2124.168 1758.721,2115.252 1712.776,2079.668 
					1570.729,1464.23 1751.026,1437.675 1824.238,1934.748 				"/>
				<polygon style="fill:#84524D;" points="1660.879,1450.953 1570.728,1464.23 1666.17,2112.234 1758.721,2115.252 				"/>
				<path style="fill:#363E44;" d="M1617.564,1898.141c-1.076,0-2.016-0.788-2.178-1.884l-37.075-251.716
					c-0.085-0.578,0.062-1.167,0.411-1.636c0.349-0.469,0.87-0.781,1.449-0.865l119.494-17.6l4.764-101.705
					c0.05-1.053,0.838-1.924,1.882-2.078l72.12-10.621c1.195-0.177,2.323,0.655,2.502,1.86l51.894,352.336
					c0.085,0.578-0.063,1.167-0.411,1.636c-0.349,0.469-0.87,0.781-1.449,0.865l-213.078,31.383
					C1617.78,1898.133,1617.672,1898.141,1617.564,1898.141z M1582.995,1646.081l36.432,247.352l208.715-30.74l-51.251-347.973
					l-68.142,10.035l-4.764,101.705c-0.05,1.053-0.838,1.924-1.882,2.078L1582.995,1646.081z"/>
				<path style="fill:#363E44;" d="M1639.463,1924.653c-0.652,0-1.278-0.29-1.7-0.801l-21.895-26.513
					c-0.507-0.614-0.644-1.452-0.358-2.195c0.286-0.743,0.949-1.274,1.738-1.39l213.078-31.383c0.777-0.119,1.575,0.201,2.063,0.83
					c0.488,0.629,0.599,1.472,0.291,2.206l-13.323,31.7c-0.299,0.71-0.948,1.214-1.712,1.326l-177.86,26.196
					C1639.677,1924.646,1639.569,1924.653,1639.463,1924.653z M1621.757,1897.548l18.614,22.539l175.4-25.834l11.326-26.949
					L1621.757,1897.548z"/>
				<path style="fill:#363E44;" d="M2033.239,2134.5c-0.47,0-0.932-0.151-1.315-0.435c-0.469-0.349-0.781-0.87-0.866-1.449
					l-23.417-158.99c-0.085-0.578,0.062-1.167,0.411-1.636c0.349-0.469,0.87-0.781,1.449-0.866l15.685-2.309
					c1.198-0.177,2.324,0.655,2.502,1.86l23.417,158.989c0.177,1.205-0.656,2.324-1.86,2.502l-15.685,2.31
					C2033.454,2134.492,2033.346,2134.5,2033.239,2134.5z M2012.326,1975.165l22.774,154.627l11.321-1.667l-22.774-154.627
					L2012.326,1975.165z"/>
			</g>
		</g>
		<g>
			<g>
				<path style="fill:#363E44;" d="M917.406,771.679c-1.058-31.74-23.585-57.68-38.976-75.403
					c-8.907-10.257-12.934-13.983-20.402-24.603c-12.46-17.72-13.307-25.743-26.713-30.846
					c-26.675-10.151-57.25,8.701-62.405,11.879c-30.235,18.641-29.09,42.2-48.248,45.745c-21.638,4.004-32.816-24.248-65.815-43.931
					c-35.404-21.116-93.572-30.966-133.459-4.691c-27.637,18.206-43.254,51.626-46.879,86.072
					c11.347-11.287,31.195-26.135,56.836-25.736c0,0-42.321,14.665-56.883,56.419c2.363,22.65,10.109,43.864,23.246,59.367
					c5.412,6.387,19.62,21.105,95.795,35.489c41.443,7.825,51.531,5.424,227.054-1.436c15.921-0.622,37.876-1.461,58.612-15.981
					C900.362,829.184,918.397,801.375,917.406,771.679z"/>
				<path style="fill:#FFFFFF;" d="M745.483,789.979c-7.066,0-14.101-1.805-19.861-4.621c-12.483-6.102-21.802-16.354-31.032-27.214
					c-3.174-3.733-6.318-7.496-9.462-11.261c-11.488-13.752-23.368-27.974-36.58-40.398c-19.05-17.915-38.598-29.592-58.102-34.704
					c-23.443-6.145-47.588-2.432-64.59,9.93c-0.985,0.718-2.365,0.498-3.079-0.487c-0.717-0.984-0.498-2.363,0.487-3.079
					c18.06-13.133,43.596-17.109,68.3-10.63c20.223,5.302,40.412,17.332,60.005,35.757c13.404,12.607,25.37,26.932,36.943,40.784
					c3.136,3.755,6.272,7.509,9.437,11.233c8.917,10.489,17.891,20.378,29.609,26.107c10.558,5.159,25.811,6.618,36.082-1.766
					c0.944-0.769,2.334-0.628,3.103,0.314c0.77,0.943,0.629,2.333-0.314,3.103C760.387,787.978,752.919,789.979,745.483,789.979z"/>
				<path style="fill:#FFFFFF;" d="M726.142,810.674c-9.238,0-18.474-1.883-26.928-5.655c-14.377-6.415-25.776-17.622-36.8-28.46
					c-1.998-1.964-3.993-3.925-6.001-5.853c-12.232-11.749-27.154-24.001-45.082-25.791c-1.212-0.122-2.096-1.201-1.975-2.413
					c0.123-1.212,1.205-2.099,2.413-1.975c19.377,1.935,35.67,15.446,47.7,26.999c2.02,1.94,4.026,3.912,6.036,5.889
					c10.745,10.564,21.858,21.487,35.508,27.578c16.114,7.192,35.281,7.024,51.271-0.446c1.1-0.512,2.417-0.04,2.93,1.064
					c0.516,1.104,0.04,2.416-1.064,2.93C745.405,808.627,735.773,810.674,726.142,810.674z"/>
			</g>
			<g>
				<polygon style="fill:#E2A18D;" points="950.094,1974.127 943.389,2101.521 832.524,2096.493 834.2,1979.156 				"/>
				<polygon style="fill:#E2A18D;" points="663.457,1968.983 656.18,2096.375 547.028,2091.349 548.846,1974.01 				"/>
				<path style="fill:#363E44;" d="M624.069,1150.069c-37.061,38.38-85.878,99.418-115.414,184.661
					c-29.558,85.308-26.167,155.481-13.85,304.694c11.669,141.355,24.422,269.743,36.932,383.175
					c53.09-2.309,96.948-2.308,150.039-4.617c15.388-186.97,16.928-371.634,32.316-558.604
					c17.697,83.098,58.476,161.579,76.173,244.677c4.616,103.104,23.083,208.515,27.7,311.619c55.399,0,96.948-2.307,152.347-2.307
					c15.953-100.613,27.411-243.096,4.616-410.875c-25.138-185.031-82.4-330.636-129.264-427.033
					C771.798,1166.995,697.934,1158.533,624.069,1150.069z"/>
				<path style="fill:#84524D;" d="M869.075,1213.114c-25.561,12.556-67.656,29.105-121.806,32.408
					c-80.695,4.922-142.188-22.379-169.86-36.878c14.165-13.021,58.547-50.416,126.277-55.873
					C796.33,1145.308,859.084,1203.532,869.075,1213.114z"/>
				<g>
					<circle style="fill:#EFBC73;" cx="731.624" cy="1232.671" r="43.582"/>
					
						<ellipse transform="matrix(0.9727 -0.2322 0.2322 0.9727 -266.2604 203.6042)" style="fill:#84524D;" cx="731.624" cy="1232.671" rx="24.937" ry="24.937"/>
				</g>
				<path style="fill:#84524D;" d="M520.593,2162.983l26.222-81.324h113.644l54.489,11.116c39.539,8,66.207,41.027,65.843,70.208
					H520.593z"/>
				<path style="fill:#84524D;" d="M806.148,2162.983l26.222-81.324h113.644l54.489,11.116c39.539,8,66.208,41.027,65.843,70.208
					H806.148z"/>
				<path style="fill:#363E44;" d="M1064.311,2148.985H810.733c-1.218,0-2.205-0.987-2.205-2.205c0-1.218,0.987-2.205,2.205-2.205
					h253.578c1.218,0,2.205,0.987,2.205,2.205C1066.516,2147.998,1065.528,2148.985,1064.311,2148.985z"/>
				<path style="fill:#363E44;" d="M778.755,2148.985H525.179c-1.218,0-2.205-0.987-2.205-2.205c0-1.218,0.987-2.205,2.205-2.205
					h253.577c1.218,0,2.205,0.987,2.205,2.205C780.96,2147.998,779.973,2148.985,778.755,2148.985z"/>
			</g>
			<g>
				<g>
					<g>
						<g>
							<path style="fill:#8B865C;" d="M622.406,845.531c-66.581,13.223-266.311,25.256-247.782,105.552
								c18.868,81.76,205.565,69.64,272.533,60.796C641.802,963.318,627.761,894.091,622.406,845.531z"/>
							<path style="fill:#8B865C;" d="M1033.776,938.623c122.956,74.022,185.596,87.838,158.447,135.099
								c-28.302,49.266-113.193,51.176-213.302-2.092C996.07,1029.645,1011.9,988.961,1033.776,938.623z"/>
						</g>
						<path style="fill:#8B865C;" d="M1054.02,951.622c-41.906-25.144-136.613-88.841-238.026-107.279
							c-103.173-18.759-175.625-3.189-227.969,7.543c21.791,113.146,21.133,132.299,13.41,173.491
							c-10.057,53.64-40.752,90.578-73.755,139.128c-15.207,22.369-31.849,60.345-11.734,72.078
							c26.096,15.223,82.471-35.056,222.94-23.467c75.747,6.25,118.431,26.586,150.861,5.028
							c46.314-30.788,34.713-77.582,90.517-145.832C1008.152,1038.204,1022.916,958.418,1054.02,951.622z"/>
					</g>
					<g>
						<path style="fill:#E2A18D;" d="M1061.764,1081.496c-0.004,0-0.007-0.003-0.007-0.007
							c-14.085-129.122-26.554-220.463-29.295-248.812c-0.287-2.969-0.818-8.206,0.364-14.946
							c4.376-24.974,25.237-30.551,41.82-54.711c18.817-27.413,13.892-53.502,22.342-54.338c5.878-0.581,10.506,8.737,12.257,29.634
							c0,0.002,0.003,0.002,0.003,0c0.495-16.03,2.116-37.74,10.973-37.441c10.209,0.893,11.301,26.623,11.2,42.221
							c0.122-18.88,5.835-28.883,10.732-27.485c7.708,2.2,11.023,16.863,9.895,41.808c5.591-17.007,9.484-20.299,13.511-18.008
							c7.354,4.183,6.04,24.674,2.101,42.611c-4.434,20.193-14.877,34.316-21.675,43.063c-0.001,0.002-0.003,0.005-0.002,0.008
							c19.241,89.412,31.732,146.884,48.742,218.78c3.48,14.709-6.39,29.244-21.343,31.448
							C1132.955,1081.284,1110.088,1083.917,1061.764,1081.496z"/>
						<path style="fill:#363E44;" d="M1061.594,1082.232c-1.11,0-2.065-0.836-2.189-1.966c-3.098-28.367-6.313-56.71-9.827-86.646
							c-0.142-1.21,0.724-2.305,1.932-2.447c1.201-0.156,2.305,0.722,2.447,1.932c3.516,29.949,6.732,58.303,9.831,86.682
							c0.132,1.21-0.742,2.298-1.953,2.431C1061.756,1082.227,1061.675,1082.232,1061.594,1082.232z"/>
						<path style="fill:#E2A18D;" d="M1064.603,788.728c-5.651-32.411-14.558-42.903-19.666-41.844
							c-8.59,1.781-15.092,31.427-12.799,79.835C1042.132,816.946,1054.61,798.502,1064.603,788.728z"/>
						<path style="fill:#363E44;" d="M1093.875,837.264c-1.051,0-1.981-0.753-2.169-1.823c-1.065-6.051-1.421-15.368,2.92-25.387
							c6.141-14.169,17.987-20.754,22.796-22.927c1.105-0.503,2.415-0.01,2.917,1.101c0.502,1.109,0.009,2.415-1.101,2.916
							c-4.341,1.963-15.036,7.904-20.566,20.662c-3.906,9.016-3.582,17.414-2.623,22.87c0.211,1.199-0.59,2.343-1.789,2.554
							C1094.131,837.253,1094.001,837.264,1093.875,837.264z"/>
						<path style="fill:#363E44;" d="M1039.856,804.712c-0.42,0-0.844-0.12-1.219-0.369c-1.014-0.674-1.29-2.043-0.615-3.056
							c4.129-6.206,9.583-11.231,15.357-16.551c2.659-2.448,5.408-4.98,8.159-7.746c0.861-0.863,2.255-0.865,3.119-0.008
							c0.862,0.859,0.866,2.255,0.008,3.119c-2.821,2.832-5.605,5.398-8.297,7.878c-5.574,5.135-10.84,9.985-14.675,15.749
							C1041.27,804.366,1040.57,804.712,1039.856,804.712z"/>
						<path style="fill:#363E44;" d="M1098.848,768.598c-0.401,0-0.807-0.109-1.171-0.338c-1.031-0.648-1.341-2.01-0.693-3.04
							c2.061-3.277,3.824-6.757,5.241-10.342c2.057-5.202,3.412-10.68,4.027-16.279c0.135-1.21,1.232-2.081,2.433-1.951
							c1.21,0.133,2.083,1.223,1.951,2.433c-0.659,5.99-2.109,11.85-4.31,17.418c-1.517,3.837-3.404,7.561-5.609,11.067
							C1100.298,768.233,1099.581,768.598,1098.848,768.598z"/>
						<path style="fill:#363E44;" d="M1120.951,770.932c-0.401,0-0.807-0.109-1.171-0.338c-1.031-0.648-1.341-2.01-0.693-3.04
							c2.061-3.277,3.824-6.757,5.241-10.341c2.058-5.207,3.414-10.684,4.027-16.278c0.132-1.211,1.239-2.084,2.432-1.952
							c1.211,0.133,2.084,1.222,1.952,2.432c-0.657,5.986-2.107,11.846-4.309,17.419c-1.517,3.837-3.404,7.561-5.609,11.067
							C1122.401,770.567,1121.684,770.932,1120.951,770.932z"/>
						<path style="fill:#363E44;" d="M1142.226,787.62c-0.401,0-0.807-0.109-1.171-0.338c-1.031-0.648-1.341-2.01-0.693-3.04
							c2.061-3.277,3.824-6.757,5.241-10.342c2.058-5.207,3.414-10.684,4.027-16.278c0.133-1.212,1.235-2.086,2.432-1.952
							c1.211,0.133,2.084,1.222,1.952,2.432c-0.657,5.986-2.107,11.845-4.31,17.419c-1.517,3.837-3.404,7.561-5.609,11.067
							C1143.677,787.255,1142.96,787.62,1142.226,787.62z"/>
						<path style="fill:#8B865C;" d="M1027.517,892.213c10.099-8.714,27.405,7.712,57.12,8.078
							c50.284,0.62,67.059-27.561,85.503-27.893c8.885-0.16,32.316,26.175,31.239,58.834c-0.507,15.376-4.994,27.612-8.705,35.431
							c6.214,21.757,11.654,40.927,10.175,63.156c-3.063,46.039-45.944,64.177-57.18,69.481
							c-50.339,23.76-103.418-2.095-115.698-6.787c8.085-24.575,16.388-61.016,11.335-103.795
							C1035.37,938.475,1013.903,903.96,1027.517,892.213z"/>
						<path style="fill:#363E44;" d="M1034.3,1080.251c-0.189,0-0.382-0.025-0.574-0.077c-1.176-0.317-1.873-1.526-1.557-2.702
							c7.7-28.611,10.165-57.213,7.33-85.012c-0.124-1.211,0.758-2.294,1.969-2.417c1.208-0.136,2.294,0.758,2.417,1.969
							c2.891,28.335,0.381,57.473-7.457,86.605C1036.164,1079.602,1035.273,1080.251,1034.3,1080.251z"/>
						<path style="fill:#363E44;" d="M1115.842,979.241c-19.021,0-38.042-1.982-56.672-5.909c-1.191-0.251-1.953-1.421-1.702-2.613
							c0.25-1.191,1.418-1.954,2.613-1.702c21.203,4.471,42.925,6.378,64.557,5.67c22.274-0.728,44.434-4.222,65.865-10.385
							c1.173-0.339,2.392,0.34,2.728,1.509c0.337,1.17-0.339,2.392-1.509,2.728c-21.78,6.263-44.301,9.815-66.939,10.555
							C1121.804,979.192,1118.821,979.241,1115.842,979.241z"/>
					</g>
				</g>
			</g>
			<g>
				
					<ellipse transform="matrix(0.7699 -0.6382 0.6382 0.7699 -258.616 682.154)" style="fill:#363E44;" cx="816.638" cy="699.701" rx="61.516" ry="61.516"/>
				
					<rect x="772.923" y="749.459" transform="matrix(0.9911 0.1333 -0.1333 0.9911 114.0553 -99.9192)" style="fill:#E2A18D;" width="61.214" height="105.389"/>
				<path style="fill:#E2A18D;" d="M863.996,728.634c-4.366,32.476-31.466,63.71-59.213,59.979
					c-27.747-3.731-45.634-41.013-41.267-73.489c4.366-32.477,30.4-55.78,58.146-52.049
					C849.409,666.806,868.363,696.158,863.996,728.634z"/>
				<path style="fill:#363E44;" d="M809.388,791.127c-1.638,0-3.271-0.109-4.898-0.327c-10.441-1.405-20.066-7.334-27.838-17.146
					c-0.756-0.954-0.594-2.341,0.361-3.096c0.952-0.756,2.339-0.598,3.096,0.359c7.048,8.899,15.682,14.263,24.969,15.512
					c10.106,1.365,20.624-2.132,30.412-10.096c0.943-0.769,2.333-0.625,3.102,0.32c0.768,0.944,0.625,2.333-0.32,3.102
					C829.058,787.249,819.166,791.127,809.388,791.127z"/>
				<path style="fill:#E2A18D;" d="M772.732,715.19c3.2,10.554,0.036,20.857-7.068,23.011c-7.104,2.154-15.457-4.656-18.658-15.21
					c-3.2-10.555-0.036-20.857,7.068-23.011C761.178,697.826,769.531,704.635,772.732,715.19z"/>
				<path style="fill:#363E44;" d="M755.509,728.598c-0.605,0-1.207-0.248-1.643-0.733c-1.55-1.729-2.758-3.925-3.495-6.353
					c-2.121-6.99,0.208-13.677,5.3-15.223c1.974-0.598,4.089-0.335,6.119,0.756c1.072,0.576,1.475,1.913,0.899,2.985
					c-0.575,1.072-1.915,1.476-2.985,0.899c-0.68-0.366-1.714-0.737-2.754-0.42c-2.589,0.786-3.692,5.329-2.359,9.723
					c0.55,1.815,1.435,3.436,2.558,4.69c0.813,0.906,0.736,2.301-0.17,3.113C756.559,728.412,756.033,728.598,755.509,728.598z"/>
				<path style="fill:#363E44;" d="M764.039,739.044c-1.04,0-1.965-0.737-2.165-1.797c-1.377-7.308-1.56-14.85-0.544-22.417
					c0.506-3.757,1.307-7.477,2.38-11.055c0.35-1.167,1.584-1.829,2.745-1.479c1.167,0.35,1.829,1.579,1.479,2.745
					c-1.008,3.358-1.759,6.85-2.234,10.377c-0.954,7.099-0.784,14.169,0.507,21.014c0.225,1.196-0.562,2.349-1.759,2.575
					C764.311,739.032,764.174,739.044,764.039,739.044z"/>
				<path style="fill:#E2A18D;" d="M854.551,726.191c-5.874,9.334-5.543,20.107,0.739,24.061c6.283,3.954,16.138-0.408,22.012-9.742
					c5.874-9.334,5.543-20.107-0.739-24.06C870.281,712.495,860.425,716.856,854.551,726.191z"/>
				<path style="fill:#363E44;" d="M868.207,743.75c-0.725,0-1.434-0.356-1.856-1.011c-0.659-1.024-0.364-2.388,0.66-3.048
					c1.414-0.911,2.695-2.24,3.703-3.844c1.291-2.05,1.995-4.373,1.934-6.373c-0.03-0.988-0.284-2.774-1.642-3.629
					c-0.922-0.579-2.014-0.492-2.765-0.322c-1.182,0.28-2.37-0.468-2.642-1.656c-0.272-1.187,0.469-2.371,1.656-2.642
					c2.251-0.515,4.358-0.208,6.099,0.887c2.255,1.42,3.604,4.053,3.701,7.227c0.089,2.897-0.836,6.042-2.609,8.856
					c-1.35,2.147-3.095,3.947-5.048,5.204C869.029,743.637,868.616,743.75,868.207,743.75z"/>
				<path style="fill:#363E44;" d="M857.214,751.571c-0.325,0-0.654-0.071-0.966-0.223c-1.094-0.534-1.549-1.854-1.015-2.949
					c3.053-6.26,5.085-13.034,6.039-20.132c0.474-3.525,0.672-7.09,0.588-10.599c-0.03-1.218,0.933-2.227,2.151-2.257
					c1.22-0.054,2.227,0.933,2.257,2.151c0.09,3.739-0.121,7.538-0.624,11.292c-1.017,7.565-3.186,14.792-6.445,21.478
					C858.815,751.116,858.03,751.571,857.214,751.571z"/>
				<path style="fill:#363E44;" d="M811.004,752.141c-0.833,0-1.63-0.474-2.002-1.28c-0.511-1.106-0.029-2.416,1.077-2.926
					c1.441-0.665,2.353-1.475,2.711-2.407c0.333-0.863,0.118-1.693-0.357-3.34c-0.384-1.326-0.861-2.978-0.984-5.071
					c-0.158-2.67,0.304-5.406,1.375-8.133c0.444-1.133,1.723-1.696,2.857-1.247c1.134,0.445,1.692,1.724,1.247,2.857
					c-0.834,2.127-1.197,4.234-1.078,6.261c0.095,1.602,0.463,2.876,0.819,4.106c0.548,1.899,1.116,3.862,0.238,6.147
					c-0.784,2.04-2.459,3.664-4.978,4.827C811.628,752.076,811.314,752.141,811.004,752.141z"/>
				<path style="fill:#363E44;" d="M806.481,767.755c-0.399,0-0.804-0.109-1.168-0.337c-1.033-0.646-1.345-2.007-0.698-3.038
					c0.732-1.169,0.798-2.614,0.163-3.596c-0.765-1.187-2.747-1.872-4.617-0.901c-1.081,0.562-2.409,0.139-2.972-0.942
					c-0.561-1.08-0.139-2.411,0.942-2.972c3.687-1.915,8.236-0.852,10.351,2.422c1.571,2.428,1.519,5.698-0.13,8.329
					C807.934,767.389,807.216,767.755,806.481,767.755z"/>
				<path style="fill:#E2A18D;" d="M876.995,859.702c0,0-41.256,32.841-85.894,26.84c-44.638-6.002-81.052-50.762-81.052-50.762
					s43.228-5.918,87.866,0.083C842.553,841.865,876.995,859.702,876.995,859.702z"/>
				<path style="fill:#363E44;" d="M767.997,681.8c0,0,9.031-19.835,31.393-2.016c22.363,17.819,88.389,35.272,103.824-14.885
					c15.435-50.157-27.064-54.029-45.224-38.109c-18.159,15.919-28.128,38.813-55.998,33.642
					C774.122,655.26,767.997,681.8,767.997,681.8z"/>
				<path style="fill:#FFFFFF;" d="M858.228,700.32c-14.049,0-29.219-4.61-45.203-13.751c-1.057-0.605-1.423-1.952-0.819-3.009
					c0.605-1.056,1.951-1.422,3.009-0.819c17.745,10.148,34.309,14.472,49.268,12.833c15.423-1.686,32.818-12.095,36.223-28.726
					c0.243-1.192,1.401-1.967,2.602-1.717c1.193,0.243,1.961,1.409,1.717,2.602c-3.827,18.699-23.052,30.365-40.064,32.225
					C862.748,700.199,860.502,700.32,858.228,700.32z"/>
				<path style="fill:#363E44;" d="M842.472,731.291c-10.66,0-16.961-2.868-19.656-8.86c-0.5-1.111-0.003-2.416,1.107-2.915
					c1.11-0.496,2.416-0.004,2.915,1.107c2.236,4.976,9.066,6.958,20.88,6.043c1.215-0.097,2.274,0.817,2.367,2.029
					c0.094,1.214-0.815,2.274-2.029,2.367C846.077,731.213,844.215,731.291,842.472,731.291z"/>
				<path style="fill:#363E44;" d="M786.786,728.585c-4.3,0-8.324-0.974-11.594-2.423c-1.113-0.493-1.616-1.796-1.122-2.909
					c0.493-1.112,1.794-1.617,2.909-1.122c6.283,2.785,15.875,3.496,23.948-2.862c0.955-0.754,2.344-0.588,3.096,0.368
					c0.754,0.957,0.589,2.343-0.368,3.096C798.258,726.986,792.295,728.585,786.786,728.585z"/>
			</g>
			<g>
				<path style="fill:#BC8271;" d="M1034.8,774.8c-0.023,0-0.045,0-0.067-0.001l-109.589-3.291
					c-1.218-0.037-2.175-1.053-2.138-2.269c0.037-1.218,1.135-2.175,2.269-2.138l109.588,3.291c1.218,0.037,2.175,1.053,2.138,2.269
					C1036.967,773.856,1035.987,774.8,1034.8,774.8z"/>
				<path style="fill:#BC8271;" d="M1008.464,828.037c-0.264,0-0.531-0.049-0.791-0.149l-81.831-31.475
					c-1.137-0.437-1.704-1.713-1.266-2.849c0.437-1.137,1.716-1.702,2.849-1.266l81.831,31.475c1.137,0.437,1.704,1.713,1.266,2.849
					C1010.184,827.499,1009.349,828.037,1008.464,828.037z"/>
				<path style="fill:#BC8271;" d="M986.185,881.976c-0.555,0-1.11-0.208-1.538-0.626l-57.907-56.434
					c-0.872-0.85-0.89-2.246-0.041-3.118c0.851-0.873,2.246-0.891,3.118-0.041l57.907,56.434c0.872,0.851,0.89,2.246,0.041,3.118
					C987.331,881.754,986.759,881.976,986.185,881.976z"/>
			</g>
			<g>
				<g>
					<path style="fill:#F2E6DC;" d="M805.624,989.287l27.461,78.551l43.565-25.326c0,0-32.961-61.634-37.942-59.097
						C833.726,985.953,805.624,989.287,805.624,989.287z"/>
					<path style="fill:#FFFFFF;" d="M771.125,799.838c-7.414,103.863,4.377,188.233,16.098,236.464
						c30.455-13.281,56.238-21.58,66.778-13.622c1.486,14.311-5.085,29.328-20.915,45.158c20.888,6.184,43.643,7.309,70.796-3.481
						c17.525-6.964,33.266-17.771,46.619-31.087l22.793-22.729l-39.964-55.079c-10.173-14.021-19.009-28.965-26.392-44.636
						l-56.537-120.012c-8.059-18.443-42.717-25.622-66.182-12.084C776.608,783.121,771.75,791.075,771.125,799.838z"/>
					<path style="fill:#363E44;" d="M850.526,1019.598c-0.704,0-1.395-0.336-1.822-0.96c-11.397-16.659-12.064-55.396-11.75-100.557
						c0.009-1.212,0.994-2.19,2.205-2.19c0.005,0,0.01,0,0.015,0c1.218,0.009,2.198,1.002,2.19,2.22
						c-0.297,42.771,0.319,82.454,10.979,98.038c0.688,1.004,0.431,2.377-0.575,3.064
						C851.388,1019.473,850.955,1019.598,850.526,1019.598z"/>
					<path style="fill:#363E44;" d="M905.122,1008.957c-0.862,0-1.681-0.509-2.035-1.354c-6.448-15.394-11.939-33.699-17.011-51.128
						c-0.34-1.169,0.332-2.392,1.501-2.732c1.165-0.341,2.392,0.331,2.732,1.501c5.037,17.307,10.486,35.475,16.845,50.657
						c0.471,1.123-0.059,2.415-1.182,2.885C905.695,1008.901,905.407,1008.957,905.122,1008.957z"/>
				</g>
				<g>
					<path style="fill:#E2A18D;" d="M490.694,833.898c56.753-6.069,189.698-26.976,202.757-28.5
						c24.412-2.849,155.816-14.738,159.587,4.037c1.802,8.971-23.41,12.406-31.966,13.319c7.275,2.67,36.321,9.896,35.664,20.133
						c-0.772,12.027-36.702,8.715-37.294,9.016c7.663,1.962,38.501,8.541,38.306,16.234c-0.253,10.01-30.777,12.494-39.95,12.815
						c1.006,1.218,31.801,9.025,31.391,15.146c-0.453,6.783-28.862,9.78-40.004,12.013c-21.687,2.548-105.435,16.976-145.784,25.919
						c-94.764,21.005-137.912,26.156-185.517,28.253c-18.635,0.821-38.678-5.184-50.069-16.411
						c-14.419-14.212-15.642-32.687-1.396-47.073C447.847,877.159,469.125,855.78,490.694,833.898z"/>
					<path style="fill:#8B865C;" d="M660.525,799.042c6.423,11.516-10.269,26.559-14.564,57.583
						c-5.344,38.598,12.429,73.559,30.221,98.73c-3.105,4.012-17.763,22.048-44.285,26.317c-27.1,4.361-47.011-8.806-51.063-11.614
						c-17.186,5.178-42.724,10.588-73.403,8.542c-6.708-0.446-120.914,11.032-132.807-27.518
						c-9.571-31.021,56.336-100.084,130.115-132.889C619.395,781.955,653.316,786.114,660.525,799.042z"/>
					<path style="fill:#363E44;" d="M460.827,842.302c-0.727,0-1.438-0.359-1.859-1.016c-0.657-1.025-0.357-2.389,0.669-3.046
						c13.49-8.637,28.402-16.075,44.321-22.108c129.165-48.954,153.967-26.279,158.494-18.163c1.768,3.171,2.171,6.671,1.27,11.014
						c-0.248,1.192-1.416,1.954-2.606,1.711c-1.192-0.246-1.958-1.413-1.711-2.606c0.682-3.291,0.434-5.75-0.805-7.972
						c-2.912-5.22-23.975-28.789-153.079,20.139c-15.635,5.925-30.273,13.226-43.507,21.699
						C461.645,842.191,461.233,842.302,460.827,842.302z"/>
					<path style="fill:#363E44;" d="M821.27,824.019c-0.169,0-0.34-0.019-0.511-0.059c-4.907-1.165-9.935-1.998-14.946-2.476
						c-8.999-0.86-18.135-0.6-27.147,0.773c-1.186,0.185-2.326-0.644-2.512-1.849c-0.183-1.204,0.645-2.328,1.849-2.512
						c9.37-1.425,18.868-1.696,28.23-0.803c5.212,0.497,10.442,1.364,15.545,2.575c1.184,0.282,1.917,1.47,1.636,2.655
						C823.173,823.337,822.268,824.019,821.27,824.019z"/>
					<path style="fill:#363E44;" d="M788.887,853.851c-1.07,0-2.01-0.782-2.177-1.873c-0.183-1.204,0.645-2.328,1.849-2.512
						c9.37-1.425,18.87-1.697,28.23-0.803c1.136,0.109,2.249,0.233,3.341,0.369c1.209,0.152,2.065,1.254,1.913,2.462
						c-0.152,1.21-1.276,2.065-2.462,1.913c-1.051-0.132-2.121-0.25-3.211-0.354c-9-0.859-18.132-0.599-27.147,0.773
						C789.11,853.843,788.998,853.851,788.887,853.851z"/>
					<path style="fill:#363E44;" d="M799.052,884.251c-1.071,0-2.01-0.782-2.177-1.873c-0.183-1.204,0.645-2.329,1.849-2.512
						c6.116-0.93,12.325-1.368,18.475-1.313c1.218,0.012,2.195,1.009,2.183,2.226c-0.012,1.21-0.997,2.183-2.205,2.183
						c-0.006,0-0.014,0-0.021,0c-5.907-0.053-11.885,0.368-17.769,1.264C799.275,884.244,799.163,884.251,799.052,884.251z"/>
					<path style="fill:#363E44;" d="M575.135,961.686c-0.842,0-1.646-0.486-2.013-1.305c-11.396-25.431-17.699-52.244-18.734-79.696
						c-1.096-29.094,4.047-58.38,14.873-84.69c0.464-1.126,1.747-1.666,2.878-1.2c1.126,0.463,1.663,1.752,1.2,2.878
						c-10.587,25.73-15.617,54.378-14.544,82.846c1.013,26.884,7.187,53.147,18.351,78.059c0.497,1.112,0.001,2.416-1.111,2.914
						C575.743,961.623,575.436,961.686,575.135,961.686z"/>
					<path style="fill:#363E44;" d="M485.498,983.872c-20.597,0-42.132-1.803-63.036-5.461c-1.199-0.21-2.001-1.352-1.791-2.552
						c0.21-1.198,1.362-1.998,2.551-1.791c48.439,8.475,100.252,6.894,135.224-4.123c1.157-0.369,2.399,0.28,2.765,1.441
						c0.366,1.16-0.279,2.399-1.44,2.765C539.328,980.59,513.269,983.872,485.498,983.872z"/>
				</g>
			</g>
		</g>
	</g>
</g>
</svg>
