<svg width="419" height="196" viewBox="0 0 419 196" fill="none" xmlns="http://www.w3.org/2000/svg">
<path d="M23.21 195.563C23.21 195.563 -36.1054 79.0886 91.4738 57.4348C171.078 43.9236 168.998 -3.05037 281.639 0.156553C396.988 3.44042 351.563 93.9628 366.53 114.669C381.496 135.376 419.904 143.682 405.976 195.563H23.21Z" fill="#EBF3FA"/>
<path d="M294.867 25.3679C290.775 17.7029 274.988 22.2838 274.988 22.2838C274.988 22.2838 266.552 37.6953 263.404 38.4398C260.256 39.1842 267.519 24.0935 267.519 24.0935C261.207 24.39 246.533 32.7525 246.533 32.7525C246.533 32.7525 250.568 48.9554 247.296 49.0332C244.024 49.111 244.605 34.535 244.605 34.535C238.864 36.8056 234.33 43.3576 234.33 43.3576C229.071 53.7558 245.417 58.8279 245.417 58.8279C245.417 58.8279 246.669 64.4682 243.663 71.507L243.662 71.5072C243.662 71.5072 242.934 72.8289 242.346 74.9923L243.987 74.7822C244.053 74.3995 244.135 74.0274 244.236 73.6672C244.235 73.6647 244.236 73.6627 244.238 73.6606C244.24 73.6554 244.241 73.6502 244.243 73.645C244.316 73.42 244.422 73.0996 244.555 72.7087C244.555 72.7082 244.556 72.7077 244.556 72.7072C244.556 72.7063 244.557 72.7062 244.557 72.7054C244.907 71.8259 245.134 71.1805 245.267 70.7182C245.268 70.7167 245.268 70.7154 245.268 70.7139C246.295 67.9627 247.84 64.3516 249.153 63.4675C249.153 63.4675 248.933 63.2786 248.686 62.8873C248.835 63.0722 248.991 63.2651 249.153 63.4675C252.89 68.1072 267.088 67.1418 274.665 64.8065C282.242 62.4713 278.491 61.075 273.726 58.6394C268.961 56.2038 260.279 58.1187 257.454 57.2861C254.63 56.4535 258.225 54.7988 263.503 54.4641C268.781 54.1294 272.193 58.1282 280.743 57.7156C289.293 57.3031 293.269 43.3157 293.269 43.3157C287.73 45.5607 276.802 44.2304 276.092 42.6153C275.381 41.0002 290.86 39.1885 293.175 38.3801C295.49 37.5721 298.96 33.033 294.867 25.3679Z" fill="#DFEBFD"/>
<path d="M340.662 158.029C355.346 150.744 342.843 129.625 342.843 129.625C342.843 129.625 309.912 120.99 307.762 116.744C305.611 112.498 337.652 119.56 337.652 119.56C335.761 110.802 315.829 92.011 315.829 92.011C315.829 92.011 283.845 100.96 283.019 96.4048C282.192 91.8496 311.826 89.6812 311.826 89.6812C306.054 82.1256 291.86 77.1294 291.86 77.1294C269.731 71.9082 262.802 95.782 262.802 95.782C262.802 95.782 251.637 98.6846 236.77 95.9229L236.769 95.9226C236.769 95.9226 233.944 95.1757 229.443 94.7965L230.204 97.046C230.993 97.0602 231.763 97.099 232.513 97.1659C232.518 97.1647 232.522 97.1653 232.527 97.1674C232.538 97.1682 232.548 97.1696 232.559 97.1704C233.03 97.2268 233.7 97.3094 234.519 97.4161C234.52 97.4163 234.521 97.4163 234.522 97.4166C234.524 97.4162 234.524 97.4175 234.526 97.4172C236.378 97.7263 237.732 97.9114 238.695 98.0035C238.698 98.004 238.701 98.004 238.704 98.0039C244.484 98.8765 252.112 100.297 254.171 101.951C254.171 101.951 254.508 101.604 255.25 101.18C254.906 101.426 254.547 101.682 254.171 101.951C245.54 108.12 250.397 127.759 256.675 137.867C262.952 147.976 265.013 142.45 268.97 135.294C272.928 128.139 267.276 116.401 268.384 112.284C269.493 108.168 273.578 112.853 275.335 120.158C277.092 127.464 269.692 133.049 272.275 144.909C274.859 156.77 303.994 159.466 303.994 159.466C298.316 152.185 298.775 136.647 301.9 135.324C305.025 134.001 311.858 155.256 313.968 158.325C316.078 161.393 325.978 165.314 340.662 158.029Z" fill="#DFEBFD"/>
<path d="M122.954 72.5053C131.179 62.6504 151.874 72.6024 151.874 72.6024C151.874 72.6024 158.747 96.1298 162.929 97.8768C167.11 99.6238 161.781 76.8084 161.781 76.8084C170.552 78.6312 188.463 93.6468 188.463 93.6468C188.463 93.6468 177.564 115.508 182.135 116.346C186.705 117.184 190.596 96.5803 190.596 96.5803C197.926 101.049 202.18 111.263 202.18 111.263C206.209 127.04 181.611 130.523 181.611 130.523C181.611 130.523 178.031 138.166 179.981 148.723L179.982 148.724C179.982 148.724 180.577 150.743 180.705 153.912L178.468 153.252C178.498 152.699 178.503 152.158 178.478 151.63C178.48 151.626 178.479 151.624 178.477 151.62C178.477 151.613 178.476 151.605 178.476 151.597C178.446 151.265 178.4 150.791 178.339 150.213C178.339 150.212 178.339 150.211 178.339 150.21C178.339 150.209 178.338 150.209 178.338 150.208C178.131 148.895 178.02 147.937 177.982 147.258C177.982 147.256 177.982 147.254 177.982 147.252C177.428 143.159 176.424 137.742 174.864 136.207C174.864 136.207 175.236 135.991 175.708 135.497C175.439 135.723 175.159 135.96 174.864 136.207C168.117 141.892 148.485 137.373 138.597 132.404C128.708 127.436 134.427 126.31 141.907 123.951C149.388 121.591 160.964 126.215 165.201 125.675C169.437 125.135 164.921 122.01 157.616 120.364C150.31 118.718 144.226 123.574 132.349 121.09C120.473 118.606 119.404 98.0722 119.404 98.0722C126.46 102.46 142.239 103.026 143.759 100.916C145.278 98.8053 124.121 92.8115 121.131 91.1605C118.14 89.5093 114.73 82.3601 122.954 72.5053Z" fill="#CDE0FB"/>
<path d="M272.702 87.2066C272.674 87.1529 272.642 87.0959 272.603 87.0357C272.473 86.6153 271.337 84.3854 271.211 84.1411C270.854 83.4468 270.27 83.8159 270.27 84.3345C270.27 84.4948 270.352 85.6396 270.304 85.8052C269.339 85.2151 268.745 84.6015 266.257 84.0173C266.257 84.0173 264.359 83.4991 265.272 85.0876C265.882 86.1495 266.609 86.2826 267.497 87.7678C268.386 89.2531 270.028 90.274 271.498 90.181L273.075 90.6245L274.67 88.6656L273.645 88.1394C273.218 87.9203 272.898 87.5898 272.702 87.2066Z" fill="#FFB27D"/>
<path d="M270.28 42.3555H176.857V154.025H270.28V42.3555Z" fill="white"/>
<path d="M243.401 52.4121H200.818V54.2486H243.401V52.4121Z" fill="#F99746"/>
<path d="M216.602 56.6738H195.311V58.5103H216.602V56.6738Z" fill="#F99746"/>
<path d="M250.417 56.6738H219.168V58.5103H250.417V56.6738Z" fill="#F99746"/>
<path d="M243.54 98.041H197.598V99.4391H243.54V98.041Z" fill="#AEC3FF"/>
<path d="M254.358 94.3105H221.826V95.7087H254.358V94.3105Z" fill="#AEC3FF"/>
<path d="M218.47 94.3105H186.779V95.7087H218.47V94.3105Z" fill="#AEC3FF"/>
<path d="M251.17 90.5801H223.184V91.9781H251.17V90.5801Z" fill="#AEC3FF"/>
<path d="M217.955 90.5801H189.969V91.9781H217.955V90.5801Z" fill="#AEC3FF"/>
<path d="M228.067 111.834H214.558C213.945 111.834 213.443 111.417 213.443 110.908C213.443 110.399 213.945 109.982 214.558 109.982H228.067C228.68 109.982 229.182 110.399 229.182 110.908C229.182 111.417 228.68 111.834 228.067 111.834Z" fill="#A8C3F7"/>
<path d="M246.913 111.834H233.404C232.791 111.834 232.289 111.417 232.289 110.908C232.289 110.399 232.791 109.982 233.404 109.982H246.913C247.526 109.982 248.027 110.399 248.027 110.908C248.027 111.417 247.526 111.834 246.913 111.834Z" fill="#A8C3F7"/>
<path d="M230.418 136.42C223.708 136.42 218.248 131.885 218.248 126.31C218.248 120.736 223.708 116.201 230.418 116.201C237.129 116.201 242.588 120.736 242.588 126.31C242.588 131.885 237.129 136.42 230.418 136.42ZM230.418 116.711C224.046 116.711 218.862 121.017 218.862 126.311C218.862 131.604 224.046 135.91 230.418 135.91C236.791 135.91 241.975 131.604 241.975 126.311C241.975 121.017 236.791 116.711 230.418 116.711Z" fill="#A8C3F7"/>
<path d="M230.422 134.455C225.014 134.455 220.615 130.801 220.615 126.31C220.615 121.818 225.014 118.164 230.422 118.164C235.829 118.164 240.228 121.818 240.228 126.31C240.228 130.801 235.829 134.455 230.422 134.455ZM230.422 118.674C225.353 118.674 221.229 122.099 221.229 126.31C221.229 130.52 225.353 133.946 230.422 133.946C235.49 133.946 239.614 130.52 239.614 126.31C239.614 122.099 235.49 118.674 230.422 118.674Z" fill="#A8C3F7"/>
<path d="M230.548 129.505C229.274 129.848 228.031 130.027 227.054 129.959C225.564 129.856 224.726 129.208 224.693 128.133C224.666 127.281 225.092 126.535 225.927 125.93C225.919 125.871 225.912 125.813 225.907 125.755C225.852 125.154 226.006 124.755 226.366 124.568C226.948 124.267 227.812 124.679 227.848 124.697L227.655 124.971C227.461 124.878 226.886 124.672 226.568 124.838C226.294 124.981 226.261 125.374 226.285 125.693C226.964 125.285 227.851 124.952 228.933 124.709C229.733 124.528 230.623 124.409 231.428 124.355C231.432 124.28 231.44 124.213 231.45 124.158C231.476 124.011 231.538 123.838 231.712 123.804C231.778 123.792 231.907 123.793 232.021 123.938C232.094 124.031 232.131 124.164 232.138 124.324C232.415 124.318 232.673 124.323 232.901 124.336C232.903 124.332 232.905 124.328 232.907 124.324C232.852 123.948 232.891 123.504 232.966 123.218C233.063 122.85 233.222 122.664 233.445 122.646C233.578 122.635 233.695 122.695 233.748 122.801C233.873 123.051 233.639 123.725 233.301 124.371C233.301 124.372 233.301 124.374 233.302 124.375C233.619 124.419 233.834 124.492 233.902 124.594C233.953 124.671 233.959 124.789 233.825 124.892C233.569 125.088 233.364 125.039 233.265 124.992C233.182 124.952 233.114 124.884 233.06 124.797C232.804 125.218 232.525 125.577 232.306 125.73C232.104 125.871 231.927 125.814 231.861 125.783C231.826 125.767 231.794 125.745 231.764 125.719C231.677 125.896 231.578 126.066 231.473 126.22C231.073 126.803 230.622 127.104 230.169 127.086C229.984 127.078 229.82 127.017 229.681 126.906C229.431 127.356 229.116 127.785 228.804 128.105C228.486 128.431 228.08 128.55 227.661 128.441C226.919 128.249 226.247 127.357 225.996 126.3C225.362 126.816 225.053 127.426 225.074 128.125C225.103 129.041 225.78 129.552 227.085 129.642C230.381 129.87 236.16 127.325 236.598 125.452C236.242 126.975 233.5 128.71 230.548 129.505ZM226.332 126.057C226.533 127.171 227.205 127.99 227.775 128.138C228.042 128.208 228.289 128.129 228.507 127.905C228.878 127.525 229.198 127.055 229.428 126.597C229.362 126.479 229.308 126.34 229.269 126.182C229.176 125.815 229.161 125.311 229.271 124.965C228.655 125.091 228.038 125.262 227.466 125.486C227.029 125.658 226.65 125.849 226.332 126.057ZM229.851 126.578C229.932 126.682 230.042 126.763 230.187 126.768C230.477 126.778 230.825 126.522 231.141 126.063C231.305 125.823 231.437 125.567 231.536 125.322C231.472 125.123 231.439 124.89 231.428 124.676C231.004 124.704 230.542 124.752 230.066 124.824C230.314 125.225 230.17 125.903 229.851 126.578ZM231.935 125.328C231.994 125.477 232.048 125.506 232.048 125.506C232.262 125.354 232.506 125.023 232.728 124.647C232.547 124.641 232.342 124.64 232.119 124.645C232.088 124.857 232.024 125.092 231.935 125.328ZM229.689 124.919C229.592 125.088 229.522 125.628 229.64 126.108C229.832 125.581 229.872 125.126 229.689 124.919ZM233.456 124.716C233.456 124.717 233.457 124.717 233.458 124.717C233.457 124.717 233.456 124.717 233.456 124.716ZM233.399 123.086C233.365 123.167 233.333 123.283 233.308 123.418C233.354 123.288 233.385 123.174 233.399 123.086Z" fill="#A8C3F7"/>
<path d="M246.22 81.0566H194.922V82.4548H246.22V81.0566Z" fill="#AEC3FF"/>
<path d="M258.299 77.3242H221.975V78.7222H258.299V77.3242Z" fill="#AEC3FF"/>
<path d="M218.234 77.3242H182.848V78.7222H218.234V77.3242Z" fill="#AEC3FF"/>
<path d="M254.738 73.5938H223.488V74.9919H254.738V73.5938Z" fill="#AEC3FF"/>
<path d="M217.648 73.5938H186.398V74.9919H217.648V73.5938Z" fill="#AEC3FF"/>
<path d="M310.857 83.7166C310.857 83.7166 318.712 108.708 294.832 104.554C288.385 103.433 271.209 89.2153 271.209 89.2153C271.209 89.2153 272.862 87.0491 274.896 87.2789C274.896 87.2789 291.49 91.7611 294.144 93.3834C295.614 94.2821 297.292 80.1229 302.375 80.3244C307.458 80.5259 310.857 83.7166 310.857 83.7166Z" fill="#91CECF"/>
<path d="M321.618 189.397C321.618 189.397 321.179 195.275 319.81 195.359C319.628 195.37 312.866 195.37 312.866 195.37L304.234 195.329C304.234 195.329 304.291 193.601 306.814 193.236C309.337 192.871 313.56 191.398 315.089 188.628C316.696 185.714 321.618 189.397 321.618 189.397Z" fill="#163560"/>
<path d="M322.116 189.804C322.116 189.804 319.492 190.533 317.443 190.533C315.158 190.533 313.081 190.016 313.081 190.016C313.081 190.016 312.587 186.048 309.869 177.304C308.443 172.721 306.408 166.828 303.512 159.506C295.506 139.27 293.071 127.431 292.849 126.31C292.837 126.251 292.832 126.222 292.832 126.222L292.858 126.212L317.473 117.234C317.473 117.234 314.431 145.125 318.313 155.83C318.856 157.327 319.322 159.07 319.721 160.959C322.173 172.588 322.116 189.804 322.116 189.804Z" fill="#2B478B"/>
<path d="M319.72 160.959L309.868 177.304C308.442 172.721 306.407 166.828 303.511 159.506C295.505 139.27 293.07 127.431 292.848 126.31C292.85 126.277 292.852 126.245 292.857 126.212L317.472 117.234C317.472 117.234 314.43 145.125 318.312 155.83C318.855 157.327 319.321 159.07 319.72 160.959Z" fill="#233862"/>
<path d="M302.395 189.397C302.395 189.397 301.956 195.275 300.587 195.359C300.405 195.37 293.643 195.37 293.643 195.37L285.012 195.329C285.012 195.329 285.068 193.601 287.591 193.236C290.115 192.871 294.338 191.398 295.866 188.628C297.474 185.714 302.395 189.397 302.395 189.397Z" fill="#163560"/>
<path d="M288.436 117.893C288.436 117.893 288.117 135.966 291.881 158.157C295.646 180.348 294.37 189.768 294.37 189.768C294.37 189.768 296.956 190.464 298 190.534C300.659 190.714 303.386 190.017 303.386 190.017C303.386 190.017 308.774 167.817 307.229 156.71C305.685 145.603 314.608 118.597 314.608 118.597L288.436 117.893Z" fill="#2B478B"/>
<path d="M306.364 74.8858L302.048 78.0341L294.992 77.7759C295.009 77.3037 295.138 75.3399 295.257 73.5611C295.265 73.4561 295.273 73.3512 295.279 73.2486C295.383 71.7345 295.473 70.4339 295.473 70.4339L301.494 67.3279L303.739 66.1699C303.738 66.2016 303.831 67.8258 303.846 68.0628C304.103 72.2712 306.364 74.8858 306.364 74.8858Z" fill="#FFB27D"/>
<path d="M287.004 118.675C287.102 128.214 287.868 150.531 288.432 150.985C294.413 155.781 320.724 149.67 322.119 144.386C323.512 139.102 316.818 76.6357 306.601 74.1411C304.481 73.6245 293.146 76.668 293.146 76.668C293.146 76.668 291.369 80.5307 290.203 85.4523C289.771 87.2759 288.36 100.287 287.536 108.981C287.319 111.299 287.141 113.309 287.036 114.719C286.994 115.302 286.984 116.721 287.004 118.675Z" fill="#ABDDDA"/>
<path d="M303.379 68.193C302.306 70.3422 297.344 72.6739 295.26 73.5615C295.267 73.4565 295.275 73.3516 295.281 73.2491C295.385 71.735 295.476 70.4343 295.476 70.4343L301.497 67.3283C302.913 67.1458 303.822 67.3083 303.379 68.193Z" fill="#FCA56B"/>
<path d="M293.249 70.6463C293.249 70.6463 304.143 71.4876 304.67 65.8439C305.196 60.2002 306.957 56.5079 300.023 55.7321C293.089 54.9562 291.535 57.0227 290.808 58.871C290.081 60.7192 290.428 70.2818 293.249 70.6463Z" fill="#FFB27D"/>
<path d="M291.075 58.2876C291.075 58.2876 293.31 64.3517 294.78 63.8115C296.249 63.2713 297.593 62.8258 297.845 64.7284C298.097 66.6309 296.515 69.159 301.341 68.6503C306.166 68.1418 310.38 56.7803 308.585 55.0874C303.406 50.2031 283.909 52.4788 291.075 58.2876Z" fill="#163560"/>
<path d="M295.922 74.2774C296.057 74.2303 303.698 71.3832 304.591 71.6282C305.485 71.8733 306.599 74.1403 306.599 74.1403L293.145 76.667C293.145 76.667 294.203 74.8786 295.922 74.2774Z" fill="#91CECF"/>
<path d="M286.998 125.509C307.47 113.212 309.062 93.7207 309.062 93.7207C299.322 98.2851 290.072 105.83 287.071 114.123C286.854 116.441 287.136 120.143 287.031 121.553C286.988 122.136 286.979 123.555 286.998 125.509Z" fill="#91CECF"/>
<path d="M274.147 119.216C274.147 119.216 273.891 119.046 273.317 119.007C272.822 118.87 271.443 118.365 271.206 118.186C270.457 117.622 270.195 118.223 270.718 118.822C270.831 118.952 271.236 119.173 271.377 119.297C270.257 119.649 268.76 120.374 266.818 121.791C266.818 121.791 265.262 122.833 267.364 123.06C268.768 123.211 269.298 122.777 271.282 122.965C273.266 123.152 275.19 122.562 275.895 121.487L277.2 120.629L276.088 118.452L274.147 119.216Z" fill="#FFB27D"/>
<path d="M300.37 77.1197C300.37 77.1197 321.932 76.2597 302.433 106.394C299.314 111.213 277.031 121.685 277.031 121.685C277.031 121.685 274.936 119.801 275.727 118.227C275.727 118.227 290.238 104.509 292.183 103.951C293.908 103.456 293.552 86.7546 295.094 82.7268C296.638 78.6989 300.37 77.1197 300.37 77.1197Z" fill="#ABDDDA"/>
<path opacity="0.5" d="M274.864 195.052L259.233 195.048L250.965 195.047C247.756 195.045 245.133 192.864 245.133 190.197L245.151 142.22C245.151 139.554 247.777 137.374 250.986 137.375L258.319 137.377L274.886 137.381C278.094 137.381 280.718 139.563 280.718 142.229L280.701 190.207C280.7 192.872 278.075 195.053 274.864 195.052Z" fill="#C0D8FB"/>
<path d="M278.174 181.45L277.76 178.924L277.345 176.398C277.239 175.755 276.825 175.204 276.244 174.837C275.662 174.47 274.914 174.286 274.138 174.374C274.052 174.384 273.968 174.398 273.885 174.414C274.169 174.072 274.331 173.687 274.375 173.295C274.902 174.346 276.289 174.961 277.663 174.688C279.188 174.385 280.136 173.102 279.771 171.836L279.057 169.357L278.343 166.878C278.161 166.246 277.683 165.732 277.061 165.415C276.438 165.098 275.672 164.976 274.91 165.127C273.386 165.43 272.438 166.714 272.802 167.979L273.878 171.714C273.715 171.519 273.515 171.342 273.277 171.191C272.786 170.878 272.209 170.723 271.632 170.709C271.914 170.406 272.1 170.053 272.182 169.684C272.289 169.202 272.214 168.693 271.948 168.233C272.27 167.347 271.948 166.343 271.04 165.719L266.309 162.471C265.101 161.642 263.297 161.785 262.299 162.788C261.375 163.716 261.455 165.066 262.427 165.92C262.176 165.919 261.922 165.944 261.669 166.001L258.708 166.674L255.749 167.347C254.719 167.581 253.975 168.262 253.735 169.07L253.425 168.452L252.242 166.101C251.638 164.899 249.962 164.328 248.516 164.829C247.07 165.331 246.382 166.723 246.985 167.924L248.168 170.276L248.926 171.783C247.922 172.116 247.185 172.909 247.127 173.861L246.972 176.406L246.817 178.952C246.777 179.601 247.061 180.206 247.551 180.656C248.04 181.106 248.735 181.402 249.517 181.435C249.852 181.449 250.175 181.411 250.479 181.335C250.184 181.827 250.102 182.394 250.253 182.934C249.728 183.185 249.293 183.574 249.045 184.073L247.873 186.428L246.701 188.785C246.402 189.385 246.426 190.034 246.706 190.594C246.986 191.154 247.521 191.626 248.245 191.875C249.375 192.263 250.64 191.994 251.426 191.288C251.612 191.652 251.908 191.983 252.312 192.239C253.556 193.031 255.352 192.833 256.305 191.799L258.169 189.775L260.035 187.751C260.288 187.476 260.455 187.168 260.543 186.85C261.191 186.904 261.865 186.776 262.441 186.447L262.929 186.167L262.253 186.901L260.388 188.925C259.435 189.958 259.674 191.45 260.918 192.242C262.163 193.033 263.959 192.835 264.911 191.801L266.776 189.777L268.642 187.753C268.666 187.727 268.686 187.699 268.708 187.673C268.859 187.874 269.043 188.053 269.254 188.206L268.59 188.927C267.637 189.96 267.876 191.452 269.121 192.243C270.365 193.035 272.161 192.837 273.114 191.803L276.844 187.755C277.32 187.239 277.498 186.607 277.402 186.005C277.306 185.404 276.936 184.833 276.313 184.438C276.101 184.303 275.871 184.198 275.633 184.12C275.668 184.117 275.702 184.117 275.737 184.113C277.29 183.938 278.386 182.739 278.174 181.45ZM252.506 179.192L252.559 178.323C252.739 178.576 252.976 178.805 253.273 178.993C253.384 179.064 253.501 179.124 253.62 179.179L252.315 179.927C252.423 179.697 252.491 179.451 252.506 179.192ZM271.7 177.038L272.258 180.434C272.016 180.026 271.642 179.691 271.19 179.46C270.639 179.179 269.975 179.053 269.301 179.132C269.592 178.985 269.857 178.793 270.077 178.556L271.678 176.818C271.682 176.891 271.688 176.964 271.7 177.038ZM265.222 167.864L265.94 168.357L265.201 168.78C265.278 168.485 265.289 168.175 265.222 167.864ZM265.841 175.367C265.768 174.999 265.593 174.656 265.336 174.363C265.548 174.297 265.755 174.211 265.949 174.1L268.194 172.814L265.841 175.367ZM267.704 179.794C267.102 179.377 266.322 179.187 265.557 179.256L265.617 178.619C265.753 178.757 265.907 178.884 266.083 178.996C266.714 179.397 267.486 179.543 268.219 179.456C268.03 179.552 267.859 179.667 267.704 179.794ZM261.966 170.84C261.34 171.623 261.308 172.677 261.987 173.495C262 173.51 262.014 173.523 262.027 173.538C261.82 173.604 261.623 173.688 261.441 173.79C261.571 173.453 261.609 173.1 261.554 172.755C261.458 172.154 261.088 171.583 260.466 171.188C260.463 171.186 260.46 171.185 260.457 171.183L261.966 170.84ZM259.131 176.529L260.229 175.337C260.214 175.41 260.201 175.485 260.194 175.561L259.986 177.75C259.574 177.441 259.07 177.244 258.539 177.171L259.131 176.529ZM253.988 186.529L254.31 185.881C254.545 185.408 254.578 184.907 254.446 184.442C254.512 184.41 254.577 184.379 254.64 184.343L259.692 181.448C259.725 181.43 259.754 181.409 259.785 181.389C259.853 181.619 259.963 181.837 260.106 182.037L259.207 182.552C258.602 182.899 258.211 183.409 258.056 183.964C257.107 183.887 256.131 184.203 255.512 184.875L253.988 186.529ZM267.389 183.612L267.547 184.16C267.293 184.065 267.028 184.004 266.758 183.974L267.389 183.612ZM273.406 184.165L273.187 183.403L273.145 183.258C273.454 183.572 273.854 183.818 274.309 183.968C273.998 183.993 273.693 184.058 273.406 184.165ZM256.153 171.975L254.607 173.653L252.742 175.676C252.734 175.686 252.727 175.696 252.719 175.705L252.816 174.1C252.819 174.059 252.816 174.019 252.816 173.978C252.904 173.956 252.991 173.93 253.077 173.9C254.237 173.498 254.907 172.522 254.817 171.532C255.207 171.77 255.666 171.925 256.153 171.975Z" fill="#AFCDFB"/>
<path opacity="0.5" d="M259.233 195.048L250.965 195.047C247.756 195.045 245.133 192.864 245.133 190.197L245.151 142.22C245.151 139.554 247.776 137.374 250.986 137.375L258.319 137.377C258.924 138.239 259.277 139.27 259.276 140.374L259.257 194.564C259.257 194.728 259.249 194.889 259.233 195.048Z" fill="#AFCDFB"/>
<path d="M280.334 139.643L258.134 139.637L245.534 139.633C244.909 139.634 244.4 139.209 244.4 138.69L244.402 134.172C244.402 133.655 244.912 133.23 245.537 133.23L258.119 133.233C258.12 133.234 258.12 133.234 258.121 133.234L280.337 133.239C280.96 133.239 281.471 133.663 281.47 134.182L281.469 138.7C281.468 139.219 280.958 139.643 280.334 139.643Z" fill="#F99746"/>
<path d="M258.134 139.637L245.534 139.633C244.909 139.634 244.4 139.209 244.4 138.69L244.402 134.172C244.402 133.655 244.912 133.23 245.537 133.23L258.119 133.233C258.12 133.234 258.12 133.234 258.121 133.234C258.743 133.235 259.253 133.659 259.253 134.176L259.251 138.694C259.25 139.209 258.75 139.63 258.134 139.637Z" fill="#EF7E29"/>
<path d="M362.106 192.179C362.106 193.053 361.676 193.847 360.982 194.423C360.288 195 359.332 195.358 358.28 195.358H340.212C338.108 195.358 336.387 193.927 336.387 192.179C336.387 191.305 336.817 190.511 337.51 189.935C338.204 189.36 339.16 189.002 340.212 189.002H358.28C360.384 189.002 362.106 190.432 362.106 192.179Z" fill="#EF7E29"/>
<path d="M352.786 192.179C352.786 193.053 352.355 193.847 351.662 194.423C350.968 195 350.012 195.358 348.96 195.358H340.212C338.108 195.358 336.387 193.927 336.387 192.179C336.387 191.305 336.817 190.511 337.51 189.935C338.204 189.36 339.16 189.002 340.212 189.002H348.96C351.064 189.002 352.786 190.432 352.786 192.179Z" fill="#F99746"/>
<path opacity="0.5" d="M358.585 190.709H341.351C341.053 190.709 340.809 190.507 340.809 190.259V190.157C340.809 189.91 341.053 189.707 341.351 189.707H358.585C358.883 189.707 359.127 189.91 359.127 190.157V190.259C359.127 190.507 358.883 190.709 358.585 190.709Z" fill="#FFE2CC"/>
<path d="M197.231 108.841V153.59C197.231 156.336 194.527 158.584 191.22 158.584H159.199C158.342 158.584 157.527 158.433 156.786 158.161C154.673 157.385 153.188 155.625 153.188 153.59V108.841C153.188 106.094 155.893 103.848 159.199 103.848H191.22C194.527 103.848 197.231 106.094 197.231 108.841Z" fill="#FCECDB"/>
<path d="M183.046 120.676C179.661 119.62 177.95 116.487 179.22 113.677C180.49 110.867 184.262 109.443 187.646 110.499C191.029 111.554 192.742 114.688 191.472 117.498C190.202 120.308 186.429 121.731 183.046 120.676Z" fill="#F7E0CB"/>
<path d="M191.472 117.498L179.221 113.677C180.491 110.867 184.262 109.443 187.647 110.499C191.029 111.554 192.743 114.688 191.472 117.498Z" fill="#EFCBAB"/>
<path d="M160.929 119.799C158.129 117.9 157.713 114.476 159.998 112.151C162.283 109.826 166.405 109.478 169.205 111.378C172.004 113.276 172.421 116.7 170.136 119.025C167.851 121.35 163.728 121.697 160.929 119.799Z" fill="#F7E0CB"/>
<path d="M170.144 119.025L160.006 112.151C162.291 109.826 166.412 109.478 169.213 111.378C172.012 113.276 172.429 116.7 170.144 119.025Z" fill="#EFCBAB"/>
<path d="M183.046 153.832C179.661 152.776 177.95 149.643 179.22 146.833C180.49 144.023 184.262 142.6 187.646 143.655C191.029 144.71 192.742 147.844 191.472 150.654C190.202 153.464 186.429 154.887 183.046 153.832Z" fill="#F7E0CB"/>
<path d="M191.472 151.023L179.221 147.202C180.491 144.392 184.262 142.969 187.647 144.024C191.029 145.079 192.743 148.214 191.472 151.023Z" fill="#EFCBAB"/>
<path d="M160.929 152.955C158.129 151.056 157.713 147.632 159.998 145.307C162.283 142.982 166.405 142.635 169.205 144.534C172.004 146.432 172.421 149.857 170.136 152.182C167.851 154.507 163.728 154.853 160.929 152.955Z" fill="#F7E0CB"/>
<path d="M170.144 152.551L160.006 145.676C162.291 143.351 166.412 143.004 169.213 144.903C172.012 146.801 172.429 150.226 170.144 152.551Z" fill="#EFCBAB"/>
<path d="M188.152 137.694C184.885 138.98 180.984 137.822 179.437 135.11C177.889 132.398 179.281 129.157 182.548 127.871C185.813 126.585 189.715 127.742 191.263 130.454C192.81 133.167 191.417 136.408 188.152 137.694Z" fill="#F7E0CB"/>
<path d="M191.263 130.454L179.437 135.11C177.889 132.398 179.281 129.157 182.547 127.871C185.813 126.585 189.715 127.742 191.263 130.454Z" fill="#EFCBAB"/>
<path d="M158.994 130.763C160.337 127.975 164.145 126.621 167.5 127.736C170.855 128.852 172.487 132.014 171.144 134.802C169.801 137.589 165.992 138.944 162.637 137.829C159.282 136.713 157.651 133.549 158.994 130.763Z" fill="#F7E0CB"/>
<path d="M162.639 137.829L167.502 127.736C170.856 128.852 172.488 132.014 171.145 134.802C169.802 137.589 165.993 138.944 162.639 137.829Z" fill="#EFCBAB"/>
<path opacity="0.5" d="M197.23 114.965V153.905C197.23 156.478 194.755 158.584 191.729 158.584H162.428C161.645 158.584 160.898 158.442 160.221 158.187V120.356C160.221 118.808 160.998 117.408 162.236 116.423C162.694 116.058 163.215 115.75 163.785 115.513C164.624 115.163 165.565 114.965 166.559 114.965H197.23Z" fill="#EFCBAB"/>
<path d="M161.268 164.96V120.21C161.268 117.464 163.973 115.217 167.279 115.217H199.3C202.606 115.217 205.311 117.464 205.311 120.21V164.96C205.311 167.706 202.606 169.953 199.3 169.953H167.279C163.973 169.953 161.268 167.706 161.268 164.96Z" fill="#FCECDB"/>
<path d="M191.126 132.045C187.742 130.989 186.03 127.856 187.3 125.046C188.571 122.236 192.342 120.812 195.726 121.868C199.109 122.923 200.822 126.057 199.552 128.867C198.282 131.677 194.509 133.1 191.126 132.045Z" fill="#F7E0CB"/>
<path d="M199.549 128.867L187.297 125.046C188.567 122.236 192.338 120.812 195.723 121.868C199.106 122.923 200.819 126.057 199.549 128.867Z" fill="#EFCBAB"/>
<path d="M169.009 131.168C166.209 129.269 165.793 125.845 168.078 123.52C170.363 121.195 174.485 120.848 177.285 122.747C180.085 124.645 180.501 128.069 178.216 130.394C175.931 132.72 171.808 133.066 169.009 131.168Z" fill="#F7E0CB"/>
<path d="M178.224 130.394L168.086 123.52C170.371 121.195 174.492 120.848 177.293 122.747C180.092 124.645 180.509 128.069 178.224 130.394Z" fill="#EFCBAB"/>
<path d="M191.126 165.201C187.742 164.145 186.03 161.012 187.3 158.202C188.571 155.392 192.342 153.969 195.726 155.024C199.109 156.079 200.822 159.213 199.552 162.023C198.282 164.833 194.509 166.256 191.126 165.201Z" fill="#F7E0CB"/>
<path d="M199.549 162.393L187.297 158.571C188.567 155.761 192.338 154.338 195.723 155.393C199.106 156.448 200.819 159.583 199.549 162.393Z" fill="#EFCBAB"/>
<path d="M179.112 162.338C180.59 159.599 179.115 156.383 175.818 155.155C172.52 153.927 168.648 155.153 167.17 157.892C165.692 160.631 167.167 163.847 170.465 165.075C173.763 166.302 177.634 165.077 179.112 162.338Z" fill="#F7E0CB"/>
<path d="M178.224 163.92L168.086 157.045C170.371 154.72 174.492 154.373 177.293 156.272C180.092 158.17 180.509 161.595 178.224 163.92Z" fill="#EFCBAB"/>
<path d="M196.236 149.063C192.969 150.349 189.068 149.191 187.521 146.479C185.973 143.767 187.364 140.526 190.631 139.24C193.897 137.954 197.799 139.111 199.347 141.824C200.894 144.536 199.501 147.778 196.236 149.063Z" fill="#F7E0CB"/>
<path d="M199.347 141.824L187.521 146.479C185.973 143.767 187.364 140.526 190.631 139.24C193.896 137.954 197.799 139.111 199.347 141.824Z" fill="#EFCBAB"/>
<path d="M167.074 142.132C168.417 139.344 172.225 137.99 175.58 139.106C178.935 140.221 180.567 143.383 179.224 146.171C177.881 148.958 174.072 150.313 170.717 149.198C167.363 148.082 165.731 144.918 167.074 142.132Z" fill="#F7E0CB"/>
<path d="M170.719 149.198L175.582 139.105C178.936 140.221 180.568 143.383 179.225 146.171C177.883 148.958 174.073 150.313 170.719 149.198Z" fill="#EFCBAB"/>
<path d="M200.359 133.066H150.066V195.411H200.359V133.066Z" fill="#EF7E29"/>
<path d="M207.361 133.066H157.068V195.411H207.361V133.066Z" fill="#F99746"/>
<path d="M157.072 136.684L154.662 139.798H150.066V133.066H157.071L157.072 136.684Z" fill="#D8661A"/>
<path d="M152.774 137.978H145.77L150.065 133.066H157.07L152.774 137.978Z" fill="#F99746"/>
<path opacity="0.5" d="M183.007 195.611H157.068V135.908L183.007 137.979V195.611Z" fill="#EFCBAB"/>
<path d="M207.361 137.978L203.28 139.798H159.493L157.068 136.684V133.066L207.361 137.978Z" fill="#EF7E29"/>
<path d="M210.913 137.978H160.621L157.068 133.066H207.361L210.913 137.978Z" fill="#F99746"/>
<path d="M100.466 117.038C99.1345 113.487 93.346 112.822 91.0169 115.998C90.598 116.569 90.3331 117.225 90.3098 117.977C90.1816 122.14 100.065 138.253 101.377 139.678C103.766 142.273 118.182 148.513 118.182 148.513L121.246 148.142C121.246 148.142 119.514 147.238 117.721 145.751C114.016 142.68 108.617 137.686 107.627 136.994C105.93 135.807 102.993 123.779 100.466 117.038Z" fill="#ED985F"/>
<path d="M186.195 195.263H120.425C116.353 195.263 113.021 192.496 113.021 189.114V156.036C113.021 152.654 116.353 149.887 120.425 149.887H186.195C190.267 149.887 193.599 152.654 193.599 156.036V189.114C193.599 192.496 190.267 195.263 186.195 195.263Z" fill="#FCECDB"/>
<path d="M137.793 164.5C136.239 167.986 131.626 169.75 127.49 168.441C123.354 167.133 121.258 163.247 122.812 159.76C124.365 156.275 128.979 154.51 133.115 155.819C137.252 157.127 139.346 161.014 137.793 164.5Z" fill="#F7E0CB"/>
<path d="M133.115 155.819L127.49 168.441C123.354 167.133 121.258 163.247 122.812 159.76C124.365 156.275 128.979 154.51 133.115 155.819Z" fill="#EFCBAB"/>
<path d="M136.503 187.282C133.707 190.167 128.667 190.595 125.245 188.241C121.822 185.887 121.311 181.641 124.106 178.755C126.901 175.872 131.942 175.442 135.365 177.796C138.787 180.151 139.297 184.398 136.503 187.282Z" fill="#F7E0CB"/>
<path d="M135.364 177.797L125.245 188.241C121.822 185.887 121.311 181.641 124.106 178.756C126.9 175.872 131.942 175.442 135.364 177.797Z" fill="#EFCBAB"/>
<path d="M186.608 164.5C185.054 167.986 180.441 169.75 176.304 168.441C172.168 167.133 170.072 163.247 171.626 159.76C173.179 156.275 177.793 154.51 181.93 155.819C186.066 157.127 188.161 161.014 186.608 164.5Z" fill="#F7E0CB"/>
<path d="M181.93 155.819L176.304 168.441C172.168 167.133 170.072 163.247 171.626 159.76C173.179 156.275 177.793 154.51 181.93 155.819Z" fill="#EFCBAB"/>
<path d="M185.313 187.282C182.614 190.068 177.822 190.563 174.413 188.471C174.291 188.4 174.173 188.322 174.055 188.241C170.632 185.888 170.122 181.642 172.917 178.756C175.71 175.872 180.752 175.442 184.175 177.797C184.291 177.878 184.404 177.959 184.515 178.044C187.629 180.438 188.012 184.496 185.313 187.282Z" fill="#F7E0CB"/>
<path d="M184.515 178.045L174.413 188.471C174.291 188.4 174.173 188.322 174.055 188.241C170.632 185.888 170.122 181.642 172.917 178.756C175.71 175.872 180.752 175.442 184.175 177.797C184.291 177.878 184.404 177.959 184.515 178.045Z" fill="#EFCBAB"/>
<path d="M162.851 159.244C164.744 162.61 163.04 166.629 159.047 168.223C155.054 169.818 150.283 168.384 148.39 165.019C146.497 161.655 148.201 157.634 152.194 156.04C156.186 154.445 160.958 155.88 162.851 159.244Z" fill="#F7E0CB"/>
<path d="M152.193 156.039L159.047 168.223C155.054 169.817 150.283 168.384 148.39 165.018C146.498 161.654 148.201 157.633 152.193 156.039Z" fill="#EFCBAB"/>
<path d="M152.644 189.278C148.54 187.894 146.547 183.97 148.188 180.514C149.83 177.058 154.486 175.376 158.59 176.76C162.692 178.143 164.687 182.068 163.045 185.524C161.403 188.98 156.746 190.661 152.644 189.278Z" fill="#F7E0CB"/>
<path d="M163.048 185.524L148.191 180.514C149.833 177.058 154.489 175.376 158.593 176.76C162.695 178.143 164.69 182.068 163.048 185.524Z" fill="#EFCBAB"/>
<path d="M104.65 96.671C104.73 96.4037 97.6567 99.3263 97.2979 99.6568C93.9806 102.713 94.9266 106.702 96.8248 106.74C98.0421 106.765 97.8062 108.446 97.8062 108.446L111.368 103.681C111.368 103.681 109.735 95.7711 104.65 96.671Z" fill="#B5453C"/>
<path d="M106.315 97.2889C106.315 97.2889 106.8 92.9004 100.897 92.9004C100.897 92.9004 102.686 93.3034 103.611 94.1095C103.611 94.1095 99.8459 92.2734 95.7488 95.0947C91.6517 97.9159 94.1973 104.991 92.9514 106.335C91.7055 107.678 86.8534 107.947 87.4465 112.291C88.0396 116.634 102.845 122.075 101.895 125.669C101.895 125.669 107.697 118.584 103.548 115.351C103.548 115.351 105.57 116.933 105.776 118.814C105.776 118.814 106.325 115.142 103.512 113.967C101.023 112.928 98.9832 109.127 99.199 108.447C99.4147 107.768 106.315 97.2889 106.315 97.2889Z" fill="#B5453C"/>
<path d="M89.7369 192.18L86.8021 191.822C86.8021 191.822 76.9343 185.308 75.4646 173.154C75.3147 171.917 75.2835 170.661 75.3945 169.396C75.4075 169.25 75.3881 169.104 75.2922 168.981C75.2922 168.98 75.2911 168.979 75.2889 168.977C74.973 168.575 74.1871 167.568 73.1229 166.135C72.0737 164.723 70.2786 162.054 68.3032 159.059C64.7451 153.666 60.6027 147.216 59.1815 145.161C54.654 138.613 56.8363 134.21 56.8363 134.21C56.8363 134.21 69.4665 133.173 72.9276 130.658L74.1739 132.254C74.1739 132.254 76.9106 142.317 76.7811 142.364C76.9159 142.706 77.0528 143.055 77.1918 143.409C79.3516 148.946 81.8358 155.866 83.19 161.503C83.9512 164.674 84.3544 167.437 84.1377 169.319C84.0633 169.965 84.1539 170.958 84.3609 172.183C85.5837 179.405 89.7369 192.18 89.7369 192.18Z" fill="#2B478B"/>
<path d="M95.8954 195.265H83.6512C83.6512 195.265 83.3577 193.715 83.9973 192.539C84.6101 191.41 85.4836 191.374 84.1089 189.605C84.887 190.271 87.3881 190.546 89.1582 190.348C89.3751 190.64 90.5565 192.6 91.2809 193.032C92.0809 193.51 95.649 193.34 95.8954 195.265Z" fill="#233862"/>
<path d="M77.192 143.409C76.1224 148.309 73.5962 156.464 68.3032 159.059C64.7451 153.666 60.6027 147.216 59.1815 145.161C54.654 138.613 56.8363 134.21 56.8363 134.21C56.8363 134.21 69.4665 133.173 72.9276 130.658L74.174 132.254C74.174 132.254 76.9106 142.317 76.7811 142.364C76.916 142.706 77.053 143.055 77.192 143.409Z" fill="#233862"/>
<path d="M68.6046 134.966L68.6461 133.064C64.0835 133.542 52.9141 128.535 52.9141 128.535C52.9141 128.535 48.1407 131.172 47.4872 138.703C47.1684 142.379 45.1504 157.925 44.9273 162.567C44.8459 164.25 44.8189 165.451 44.8097 165.93C44.8107 165.933 44.8104 165.934 44.8102 165.935C44.8074 166.082 44.7248 166.211 44.6163 166.327C43.6723 167.323 42.8531 168.379 42.144 169.475C35.1817 180.234 38.8226 194.855 38.8226 194.855L40.4393 194.514C40.4393 194.514 46.3264 179.357 50.1739 172.801C50.8269 171.689 51.4201 170.824 51.9163 170.323C53.3629 168.864 54.8884 166.385 56.392 163.402C59.2342 157.763 61.9937 150.321 63.9615 144.559C64.1004 144.58 68.6046 134.966 68.6046 134.966Z" fill="#2B478B"/>
<path d="M95.3081 122.271C87.8492 120.849 92.6143 112.143 93.0467 112.296C94.0801 112.121 96.3499 110.614 98.3803 107.67L98.6546 107.867L103.236 111.204C103.236 111.204 102.177 112.501 101.286 113.772C100.59 114.767 99.998 115.748 100.092 116.084C100.461 116.325 97.2976 122.651 95.3081 122.271Z" fill="#FFB27D"/>
<path d="M100.02 115.803C100.02 115.803 101.332 117.952 102.031 119.815C102.731 121.677 104.482 127.599 104.482 127.599C104.482 127.599 100.871 131.022 95.8486 130.822C95.8486 130.822 93.1479 127.31 94.0997 124.139C95.0515 120.968 100.02 115.803 100.02 115.803Z" fill="#91CECF"/>
<path d="M103.237 111.205C103.237 111.205 102.177 112.502 101.287 113.774C98.4386 112.316 98.4355 109.387 98.6549 107.869L103.237 111.205Z" fill="#ED985F"/>
<path d="M103.366 112.876C103.366 112.876 96.4503 109.679 98.913 106.132C101.376 102.586 102.142 99.7842 106.661 101.675C111.181 103.566 111.092 105.327 110.616 106.677C110.141 108.027 105.228 113.616 103.366 112.876Z" fill="#FFB27D"/>
<path d="M111.779 104.608C111.463 103.033 110.499 102.883 109.828 102.988C107.274 99.4798 103.101 100.849 103.101 100.849C100.873 103.172 97.6504 103.569 97.6504 103.569C97.6504 103.569 98.453 104.809 101.76 105.577C102.77 105.811 103.916 105.669 105.022 105.36C102.727 106.423 100.328 106.83 100.328 106.83C104.686 107.161 108.832 103.852 109.262 103.498C109.463 104.011 109.815 105.084 109.604 105.869C109.317 106.936 108.178 108.868 108.874 109.118C108.874 109.118 112.254 106.97 111.779 104.608Z" fill="#B5453C"/>
<path d="M48.5616 195.264H36.3172C36.3172 195.264 36.0237 193.714 36.6633 192.538C37.2761 191.409 38.236 190.897 38.0061 189.531C38.7842 190.197 40.0522 190.942 41.8224 190.744C42.0393 191.036 43.2225 192.599 43.947 193.032C44.7472 193.509 48.3152 193.339 48.5616 195.264Z" fill="#233862"/>
<path d="M96.1852 129.173C94.6095 129.63 92.3989 129.881 90.1371 130.084C86.9173 130.377 83.5929 130.575 81.8519 131.153C81.5117 131.265 80.5214 131.609 79.5293 132.206V132.208C79.5293 132.208 79.5045 132.221 79.4608 132.251C79.1321 132.449 78.8032 132.68 78.5009 132.939C78.039 133.334 77.6359 133.795 77.3776 134.323C76.739 135.634 77.5848 139.267 78.1265 141.253C78.345 142.052 77.8908 142.878 77.0146 143.255C75.7906 143.781 74.5874 144.267 73.4051 144.711C73.3423 144.734 73.2815 144.756 73.2188 144.78C73.2301 144.578 73.2341 144.377 73.2341 144.182C73.236 142.811 73.0269 141.671 73.0269 141.671C72.736 143.054 71.6394 144.548 70.6168 145.697C54.185 151.174 42.7047 148.793 42.8929 146.065C43.5411 136.592 51.2313 128.535 51.2313 128.535C65.5742 114.681 94.5868 111.034 94.5868 111.034C94.5868 111.034 95.9762 110.895 97.6526 112.569C100.065 114.98 100.184 115.608 100.184 115.608C100.184 115.608 100.821 127.83 96.1852 129.173Z" fill="#ABDDDA"/>
<path d="M90.1412 130.084C86.9217 130.376 83.5974 130.575 81.8562 131.152C81.1446 122.32 86.1626 115.676 86.1626 115.676C86.1626 115.676 89.4359 126.741 90.1412 130.084Z" fill="#91CECF"/>
<path d="M93.5173 113.967C93.5173 113.967 85.4481 114.629 84.8012 118.984C84.1542 123.34 92.5374 141.079 93.738 142.685C95.9236 145.609 108.794 155.633 108.794 155.633L111.166 154.439C111.166 154.439 102.037 141.602 100.623 140.4C98.4044 138.514 96.2495 115.476 93.5173 113.967Z" fill="#FFB27D"/>
<path d="M97.6547 122.287C97.6547 122.287 98.4835 111.058 88.1363 113.773C77.7891 116.488 89.7422 135.803 89.7422 135.803C89.7422 135.803 95.8151 135.554 97.9688 131.152L97.6547 122.287Z" fill="#ABDDDA"/>
<path d="M78.1268 141.252C78.3454 142.05 77.8912 142.876 77.0149 143.254C75.791 143.779 74.5877 144.266 73.4054 144.709C73.3427 144.542 73.2857 144.367 73.2345 144.18C73.0482 143.489 72.9626 142.662 73.0272 141.67C73.301 137.477 76.7394 134.302 78.5014 132.938C78.0395 133.332 77.6364 133.793 77.3781 134.322C76.7394 135.633 77.5852 139.265 78.1268 141.252Z" fill="#91CECF"/>
<path d="M94.5859 111.035C94.5859 111.035 95.8491 109.708 96.703 109.751C96.703 109.751 100.156 113.766 100.184 115.609C100.184 115.609 95.8769 110.848 94.5859 111.035Z" fill="#91CECF"/>
<path d="M127.711 149.886C127.711 149.886 125.875 149.914 125.479 149.866C125.09 149.82 124.57 149.679 124.047 149.664C123.533 149.648 123.061 149.787 122.578 149.869C122.506 149.881 122.433 149.887 122.359 149.887H119.314C119.314 149.887 119.009 149.765 118.675 149.319C118.53 149.125 118.511 148.665 118.182 148.513C116.338 147.658 121.245 148.142 121.245 148.142C121.245 148.142 124.326 148.096 124.611 148.272C125.117 148.588 127.826 149.765 127.711 149.886Z" fill="#ED985F"/>
<path d="M119.314 149.889C119.314 149.889 121.183 150.337 121.691 150.625L122.228 150.906C122.228 150.906 122.538 150.618 122.049 150.299C121.791 150.13 121.08 149.637 121.056 149.071C121.033 148.505 118.923 149 119.314 149.889Z" fill="#ED985F"/>
<path d="M111.165 154.438C111.165 154.438 112.501 155.424 113.517 155.632C114.533 155.841 115.687 158.258 115.872 158.603C116.057 158.948 114.902 158.449 114.44 157.861C113.979 157.273 113.663 157.043 113.528 157.17C113.394 157.298 113.609 158.91 114.379 159.805C115.149 160.7 115.61 161.493 115.056 161.441C114.502 161.39 111.207 160.725 110.53 159.063C109.853 157.401 110.35 157.342 108.793 155.632C107.236 153.923 111.165 154.438 111.165 154.438Z" fill="#FFB27D"/>
<path d="M258.54 191.694C258.54 192.657 258.066 193.531 257.302 194.166C256.537 194.801 255.485 195.195 254.326 195.195H234.427C232.11 195.195 230.215 193.619 230.215 191.694C230.215 190.732 230.689 189.858 231.452 189.223C232.216 188.589 233.269 188.195 234.427 188.195H254.326C256.643 188.195 258.54 189.77 258.54 191.694Z" fill="#2B478B"/>
<path d="M248.275 191.694C248.275 192.657 247.801 193.531 247.038 194.166C246.274 194.801 245.221 195.195 244.062 195.195H234.427C232.11 195.195 230.215 193.619 230.215 191.694C230.215 190.732 230.689 189.858 231.452 189.223C232.216 188.589 233.269 188.195 234.427 188.195H244.062C246.379 188.195 248.275 189.77 248.275 191.694Z" fill="#699FF0"/>
<path opacity="0.4" d="M254.66 190.075H235.679C235.351 190.075 235.082 189.851 235.082 189.579V189.467C235.082 189.194 235.351 188.971 235.679 188.971H254.66C254.988 188.971 255.257 189.194 255.257 189.467V189.579C255.257 189.851 254.988 190.075 254.66 190.075Z" fill="#E9F3FE"/>
<path d="M241.566 181.781C242.116 182.693 242.167 183.71 241.805 184.613C241.444 185.516 240.671 186.305 239.573 186.762L220.713 194.613C218.517 195.527 215.819 194.781 214.719 192.957C214.168 192.045 214.118 191.029 214.478 190.126C214.84 189.224 215.612 188.435 216.71 187.978L235.571 180.127C237.767 179.213 240.465 179.957 241.566 181.781Z" fill="#EF7E29"/>
<path d="M231.836 185.831C232.386 186.743 232.437 187.759 232.077 188.661C231.716 189.565 230.943 190.353 229.845 190.81L220.713 194.612C218.517 195.526 215.819 194.78 214.719 192.956C214.168 192.044 214.118 191.028 214.478 190.125C214.84 189.223 215.612 188.435 216.71 187.977L225.843 184.176C228.039 183.262 230.736 184.007 231.836 185.831Z" fill="#F99746"/>
<path opacity="0.5" d="M236.969 181.776L218.978 189.264C218.667 189.394 218.285 189.288 218.129 189.03L218.065 188.924C217.909 188.665 218.036 188.347 218.347 188.218L236.337 180.729C236.649 180.6 237.031 180.705 237.187 180.964L237.251 181.07C237.407 181.328 237.28 181.646 236.969 181.776Z" fill="#FFE2CC"/>
<path d="M418.539 196H0.461552C0.207654 196 0 195.827 0 195.616V195.51C0 195.299 0.207654 195.127 0.461552 195.127H418.538C418.792 195.127 419 195.299 419 195.51V195.616C419 195.827 418.792 196 418.539 196Z" fill="#2E3552"/>
</svg>
