<svg width="27" height="120" viewBox="0 0 27 120" fill="none" xmlns="http://www.w3.org/2000/svg">
<path d="M0 16C0 7.16344 7.16344 0 16 0H27V120H16C7.16344 120 0 112.837 0 104V16Z" fill="#00ADEF"/>
<path d="M13.2734 100.459V102.014C13.0722 102.043 12.8935 102.101 12.7372 102.188C12.5786 102.276 12.4437 102.388 12.3324 102.526C12.2211 102.663 12.1359 102.821 12.0767 103.001C12.0175 103.179 11.9879 103.372 11.9879 103.58C11.9879 103.957 12.0814 104.285 12.2685 104.564C12.4531 104.843 12.723 105.06 13.0781 105.214C13.4309 105.368 13.8594 105.445 14.3636 105.445C14.8821 105.445 15.3177 105.368 15.6705 105.214C16.0232 105.058 16.2895 104.84 16.4695 104.56C16.6494 104.281 16.7393 103.958 16.7393 103.591C16.7393 103.385 16.7121 103.194 16.6577 103.019C16.6032 102.842 16.5239 102.684 16.4197 102.547C16.3132 102.41 16.1842 102.296 16.0327 102.206C15.8812 102.114 15.7083 102.05 15.5142 102.014L15.5213 100.459C15.8551 100.499 16.1771 100.6 16.4872 100.761C16.795 100.919 17.0708 101.134 17.3146 101.403C17.5561 101.671 17.7479 101.991 17.8899 102.362C18.0296 102.732 18.0994 103.149 18.0994 103.616C18.0994 104.264 17.9527 104.844 17.6591 105.356C17.3655 105.865 16.9406 106.267 16.3842 106.563C15.8279 106.857 15.1544 107.004 14.3636 107.004C13.5705 107.004 12.8958 106.854 12.3395 106.556C11.7831 106.258 11.3594 105.853 11.0682 105.342C10.7746 104.83 10.6278 104.255 10.6278 103.616C10.6278 103.194 10.687 102.804 10.8054 102.444C10.9238 102.082 11.0966 101.761 11.3239 101.482C11.5488 101.202 11.8246 100.975 12.1513 100.8C12.478 100.622 12.852 100.509 13.2734 100.459ZM10.7273 99.2823V97.56L13.8594 95.9016V95.8306L10.7273 94.1722V92.4499L15.429 95.1026H18V96.6296H15.429L10.7273 99.2823ZM13.2734 85.1326V86.688C13.0722 86.7164 12.8935 86.7744 12.7372 86.862C12.5786 86.9496 12.4437 87.0621 12.3324 87.1994C12.2211 87.3367 12.1359 87.4953 12.0767 87.6752C12.0175 87.8528 11.9879 88.0458 11.9879 88.2541C11.9879 88.6305 12.0814 88.9584 12.2685 89.2377C12.4531 89.5171 12.723 89.7337 13.0781 89.8876C13.4309 90.0415 13.8594 90.1184 14.3636 90.1184C14.8821 90.1184 15.3177 90.0415 15.6705 89.8876C16.0232 89.7314 16.2895 89.5136 16.4695 89.2342C16.6494 88.9548 16.7393 88.6317 16.7393 88.2647C16.7393 88.0588 16.7121 87.8682 16.6577 87.693C16.6032 87.5154 16.5239 87.358 16.4197 87.2207C16.3132 87.0834 16.1842 86.9698 16.0327 86.8798C15.8812 86.7875 15.7083 86.7235 15.5142 86.688L15.5213 85.1326C15.8551 85.1729 16.1771 85.2735 16.4872 85.4345C16.795 85.5931 17.0708 85.8074 17.3146 86.0772C17.5561 86.3448 17.7479 86.6644 17.8899 87.036C18.0296 87.4054 18.0994 87.8232 18.0994 88.2896C18.0994 88.9383 17.9527 89.5183 17.6591 90.0297C17.3655 90.5386 16.9406 90.9411 16.3842 91.237C15.8279 91.5306 15.1544 91.6774 14.3636 91.6774C13.5705 91.6774 12.8958 91.5282 12.3395 91.2299C11.7831 90.9316 11.3594 90.5268 11.0682 90.0154C10.7746 89.5041 10.6278 88.9288 10.6278 88.2896C10.6278 87.8682 10.687 87.4776 10.8054 87.1177C10.9238 86.7555 11.0966 86.4347 11.3239 86.1554C11.5488 85.876 11.8246 85.6487 12.1513 85.4735C12.478 85.296 12.852 85.1824 13.2734 85.1326ZM18 83.53H10.7273V81.9924H16.7322V78.8745H18V83.53ZM18 77.3562H10.7273V72.4556H11.995V75.8185H13.728V72.7077H14.9957V75.8185H16.7322V72.4414H18V77.3562ZM11.995 68.1957H10.7273V62.2227H11.995V64.4492H18V65.9691H11.995V68.1957ZM18 60.739H10.7273V57.8697C10.7273 57.3204 10.8255 56.8517 11.022 56.4634C11.2161 56.0728 11.492 55.7757 11.8494 55.5721C12.2045 55.3661 12.6224 55.2631 13.103 55.2631C13.5859 55.2631 14.0014 55.3673 14.3494 55.5756C14.6951 55.784 14.9602 56.0858 15.1449 56.4812C15.3295 56.8742 15.4219 57.35 15.4219 57.9087V59.8299H14.1861V58.1573C14.1861 57.8638 14.1458 57.6199 14.0653 57.4258C13.9848 57.2317 13.8641 57.0872 13.7031 56.9925C13.5421 56.8955 13.3421 56.8469 13.103 56.8469C12.8615 56.8469 12.6579 56.8955 12.4922 56.9925C12.3265 57.0872 12.201 57.2328 12.1158 57.4293C12.0282 57.6235 11.9844 57.8685 11.9844 58.1644V59.2013H18V60.739ZM14.6903 56.8114L18 55.0039V56.7013L14.6903 58.4698V56.8114ZM18 52.4229V54.0707L10.7273 51.56V49.5785L18 47.0714V48.7191L12.3892 50.5408V50.5977L18 52.4229ZM15.1413 52.5259V48.6339H16.3416V52.5259H15.1413ZM13.2734 39.6209V41.1763C13.0722 41.2047 12.8935 41.2627 12.7372 41.3503C12.5786 41.4379 12.4437 41.5504 12.3324 41.6877C12.2211 41.825 12.1359 41.9836 12.0767 42.1635C12.0175 42.3411 11.9879 42.534 11.9879 42.7424C11.9879 43.1188 12.0814 43.4467 12.2685 43.726C12.4531 44.0054 12.723 44.222 13.0781 44.3759C13.4309 44.5298 13.8594 44.6067 14.3636 44.6067C14.8821 44.6067 15.3177 44.5298 15.6705 44.3759C16.0232 44.2196 16.2895 44.0018 16.4695 43.7225C16.6494 43.4431 16.7393 43.12 16.7393 42.753C16.7393 42.5471 16.7121 42.3565 16.6577 42.1813C16.6032 42.0037 16.5239 41.8463 16.4197 41.709C16.3132 41.5717 16.1842 41.458 16.0327 41.3681C15.8812 41.2757 15.7083 41.2118 15.5142 41.1763L15.5213 39.6209C15.8551 39.6612 16.1771 39.7618 16.4872 39.9228C16.795 40.0814 17.0708 40.2956 17.3146 40.5655C17.5561 40.833 17.7479 41.1526 17.8899 41.5243C18.0296 41.8936 18.0994 42.3115 18.0994 42.7779C18.0994 43.4266 17.9527 44.0066 17.6591 44.5179C17.3655 45.0269 16.9406 45.4294 16.3842 45.7253C15.8279 46.0189 15.1544 46.1657 14.3636 46.1657C13.5705 46.1657 12.8958 46.0165 12.3395 45.7182C11.7831 45.4199 11.3594 45.0151 11.0682 44.5037C10.7746 43.9924 10.6278 43.4171 10.6278 42.7779C10.6278 42.3565 10.687 41.9658 10.8054 41.606C10.9238 41.2438 11.0966 40.923 11.3239 40.6436C11.5488 40.3643 11.8246 40.137 12.1513 39.9618C12.478 39.7843 12.852 39.6706 13.2734 39.6209ZM18 38.0183H10.7273V36.4806H13.9339V36.3848L10.7273 33.7676V31.9245L13.9837 34.6234L18 31.8926V33.7321L15.0099 35.7243L15.9332 36.4806H18V38.0183ZM10.7273 29.0861H18V30.6238H10.7273L10.7273 29.0861ZM10.7273 21.2379H18V22.5661L13.4226 25.7301V25.7834H18V27.321H10.7273V25.9716L15.3011 22.8324V22.7685H10.7273V21.2379ZM13.0781 14.6451C12.9053 14.6948 12.7526 14.7646 12.62 14.8546C12.4851 14.9445 12.3714 15.0546 12.2791 15.1848C12.1844 15.3127 12.1122 15.4595 12.0625 15.6252C12.0128 15.7885 11.9879 15.9696 11.9879 16.1685C11.9879 16.5402 12.0803 16.8669 12.2649 17.1486C12.4496 17.428 12.7183 17.6458 13.071 17.802C13.4214 17.9583 13.8499 18.0364 14.3565 18.0364C14.8632 18.0364 15.294 17.9595 15.6491 17.8056C16.0043 17.6517 16.2753 17.4339 16.4624 17.1522C16.647 16.8704 16.7393 16.5378 16.7393 16.1543C16.7393 15.8063 16.6778 15.5092 16.5547 15.263C16.4292 15.0144 16.2528 14.825 16.0256 14.6948C15.7983 14.5622 15.5296 14.4959 15.2195 14.4959L15.2656 14.1834V16.0584H14.108V13.0151H15.0241C15.6634 13.0151 16.2126 13.15 16.6719 13.4199C17.1288 13.6898 17.4815 14.0615 17.7301 14.535C17.9763 15.0085 18.0994 15.5506 18.0994 16.1614C18.0994 16.8432 17.9491 17.4422 17.6484 17.9583C17.3454 18.4744 16.9157 18.8768 16.3594 19.1657C15.8007 19.4521 15.1378 19.5953 14.3707 19.5953C13.7812 19.5953 13.2557 19.5101 12.794 19.3397C12.33 19.1668 11.937 18.9254 11.6151 18.6152C11.2931 18.3051 11.0481 17.9441 10.88 17.5321C10.7119 17.1202 10.6278 16.6739 10.6278 16.1934C10.6278 15.7814 10.6882 15.3979 10.8089 15.0428C10.9273 14.6877 11.0954 14.3728 11.3132 14.0982C11.531 13.8212 11.7902 13.5951 12.0909 13.4199C12.3892 13.2447 12.7183 13.1323 13.0781 13.0826V14.6451Z" fill="white"/>
</svg>
